<?xml version="1.0" encoding="UTF-8"?>
<!DOCTYPE svg PUBLIC "-//W3C//DTD SVG 1.1//EN" "http://www.w3.org/Graphics/SVG/1.1/DTD/svg11.dtd">
<svg xmlns="http://www.w3.org/2000/svg" version="1.1" width="238px" height="240px" style="shape-rendering:geometricPrecision; text-rendering:geometricPrecision; image-rendering:optimizeQuality; fill-rule:evenodd; clip-rule:evenodd" xmlns:xlink="http://www.w3.org/1999/xlink">
<g><path style="opacity:1" fill="#febb21" d="M 214.5,54.5 C 213.711,54.7828 213.044,55.2828 212.5,56C 227.718,80.1014 231.552,105.935 224,133.5C 222.186,137.953 220.186,142.286 218,146.5C 211.323,154.841 203.156,161.341 193.5,166C 183.854,170.989 173.854,175.155 163.5,178.5C 162.702,178.957 162.369,179.624 162.5,180.5C 161.833,180.5 161.5,180.167 161.5,179.5C 161.057,176.376 159.39,174.043 156.5,172.5C 174.644,166.928 191.31,158.428 206.5,147C 221.556,132.325 227.056,114.491 223,93.5C 212.443,49.2842 184.943,22.1175 140.5,12C 102.037,6.72341 69.5368,17.8901 43,45.5C 21.8458,70.0953 15.6792,98.0953 24.5,129.5C 28.4418,136.201 33.4418,142.034 39.5,147C 53.385,156.943 68.385,164.776 84.5,170.5C 85.0253,171.192 85.6919,171.692 86.5,172C 85.3128,173.019 84.3128,174.186 83.5,175.5C 83.6236,176.107 83.9569,176.44 84.5,176.5C 83.5,178.167 82.1667,179.5 80.5,180.5C 67.2063,174.355 53.873,167.855 40.5,161C 31.5002,154.665 24.6669,146.498 20,136.5C 12.4695,114.375 13.4695,92.0419 23,69.5C 26.5943,61.9758 30.4276,54.6425 34.5,47.5C 60.8123,16.3648 94.479,2.86481 135.5,7C 168.755,11.6153 195.088,27.4486 214.5,54.5 Z"/></g>
<g><path style="opacity:1" fill="#fec328" d="M 161.5,179.5 C 159.754,177.748 157.754,176.415 155.5,175.5C 155.167,174.833 154.833,174.167 154.5,173.5C 153.723,170.888 152.056,169.055 149.5,168C 172.06,162.723 191.727,152.223 208.5,136.5C 218.934,122.09 222.434,106.09 219,88.5C 208.233,48.7338 182.733,24.2338 142.5,15C 97.9043,8.06857 62.4043,22.5686 36,58.5C 10.4553,104.201 21.622,138.034 69.5,160C 77.3109,163.239 85.3109,165.906 93.5,168C 90.545,169.448 88.545,171.615 87.5,174.5C 86.5,174.833 85.8333,175.5 85.5,176.5C 85.1667,176.5 84.8333,176.5 84.5,176.5C 83.9569,176.44 83.6236,176.107 83.5,175.5C 84.3128,174.186 85.3128,173.019 86.5,172C 85.6919,171.692 85.0253,171.192 84.5,170.5C 68.385,164.776 53.385,156.943 39.5,147C 33.4418,142.034 28.4418,136.201 24.5,129.5C 15.6792,98.0953 21.8458,70.0953 43,45.5C 69.5368,17.8901 102.037,6.72341 140.5,12C 184.943,22.1175 212.443,49.2842 223,93.5C 227.056,114.491 221.556,132.325 206.5,147C 191.31,158.428 174.644,166.928 156.5,172.5C 159.39,174.043 161.057,176.376 161.5,179.5 Z"/></g>
<g><path style="opacity:1" fill="#fdc72d" d="M 154.5,173.5 C 152.046,172.773 149.713,171.773 147.5,170.5C 127.548,161.708 108.215,162.708 89.5,173.5C 88.8333,173.833 88.1667,174.167 87.5,174.5C 88.545,171.615 90.545,169.448 93.5,168C 85.3109,165.906 77.3109,163.239 69.5,160C 21.622,138.034 10.4553,104.201 36,58.5C 62.4043,22.5686 97.9043,8.06857 142.5,15C 182.733,24.2338 208.233,48.7338 219,88.5C 222.434,106.09 218.934,122.09 208.5,136.5C 191.727,152.223 172.06,162.723 149.5,168C 152.056,169.055 153.723,170.888 154.5,173.5 Z"/></g>
<g><path style="opacity:1" fill="#ffcc34" d="M 134.5,161.5 C 137.187,161.664 139.854,161.497 142.5,161C 150.344,158.414 158.344,156.414 166.5,155C 168.027,153.968 169.36,152.801 170.5,151.5C 178.551,145.455 186.884,139.788 195.5,134.5C 195.291,133.914 194.957,133.414 194.5,133C 196.584,132.222 198.417,131.055 200,129.5C 203.457,125.425 206.29,120.925 208.5,116C 208.167,115.667 207.833,115.333 207.5,115C 209.422,113.54 210.089,111.873 209.5,110C 210.011,105.401 211.011,100.901 212.5,96.5C 212.187,89.8758 211.021,83.2091 209,76.5C 197.661,48.0843 176.827,29.5843 146.5,21C 111.584,13.3144 80.7509,21.1478 54,44.5C 44.2938,55.2897 37.2938,67.2897 33,80.5C 27.9892,101.279 32.8225,119.112 47.5,134C 53.9551,139.414 60.9551,144.081 68.5,148C 69.6765,151.349 72.0098,152.849 75.5,152.5C 77.1209,154.117 79.1209,155.284 81.5,156C 87.462,156.878 93.1286,158.545 98.5,161C 102.486,161.499 106.486,161.666 110.5,161.5C 103.394,165.658 96.3941,165.325 89.5,160.5C 88.914,160.709 88.414,161.043 88,161.5C 83.3393,159.279 78.5059,157.445 73.5,156C 68.2276,152.243 62.561,149.243 56.5,147C 52.6074,143.788 48.6074,140.622 44.5,137.5C 40.7793,133.224 37.1127,129.057 33.5,125C 33.8333,124.667 34.1667,124.333 34.5,124C 32.6636,120.482 30.8303,116.982 29,113.5C 27.8509,105.788 27.0176,98.2879 26.5,91C 36.5044,53.6586 60.1711,29.3253 97.5,18C 142.671,10.0184 178.504,24.5184 205,61.5C 211.515,72.0506 215.348,83.2172 216.5,95C 216.016,98.4097 215.35,102.076 214.5,106C 215.022,106.561 215.355,107.228 215.5,108C 212.001,121.895 204.334,133.562 192.5,143C 184.123,147.738 175.79,152.404 167.5,157C 159.32,159.505 151.153,162.005 143,164.5C 139.813,164.172 136.98,163.172 134.5,161.5 Z"/></g>
<g><path style="opacity:1" fill="#ffd03a" d="M 170.5,151.5 C 177.102,142.968 184.602,135.302 193,128.5C 196.857,123.316 200.69,118.149 204.5,113C 204.167,112.667 203.833,112.333 203.5,112C 205.228,108.815 206.561,105.481 207.5,102C 205.98,62.3183 185.313,36.3183 145.5,24C 108.472,15.2268 76.9717,25.0602 51,53.5C 46.6798,60.6492 42.5131,67.8158 38.5,75C 39.0219,75.5613 39.3552,76.228 39.5,77C 34.3906,91.1881 35.2239,105.021 42,118.5C 45.4509,121.671 48.2842,125.338 50.5,129.5C 57.8608,134.868 64.5274,140.868 70.5,147.5C 72.5,148.833 74.1667,150.5 75.5,152.5C 72.0098,152.849 69.6765,151.349 68.5,148C 60.9551,144.081 53.9551,139.414 47.5,134C 32.8225,119.112 27.9892,101.279 33,80.5C 37.2938,67.2897 44.2938,55.2897 54,44.5C 80.7509,21.1478 111.584,13.3144 146.5,21C 176.827,29.5843 197.661,48.0843 209,76.5C 211.021,83.2091 212.187,89.8758 212.5,96.5C 211.011,100.901 210.011,105.401 209.5,110C 210.089,111.873 209.422,113.54 207.5,115C 207.833,115.333 208.167,115.667 208.5,116C 206.29,120.925 203.457,125.425 200,129.5C 198.417,131.055 196.584,132.222 194.5,133C 194.957,133.414 195.291,133.914 195.5,134.5C 186.884,139.788 178.551,145.455 170.5,151.5 Z"/></g>
<g><path style="opacity:1" fill="#fed342" d="M 170.5,151.5 C 169.36,152.801 168.027,153.968 166.5,155C 158.344,156.414 150.344,158.414 142.5,161C 139.854,161.497 137.187,161.664 134.5,161.5C 126.5,161.5 118.5,161.5 110.5,161.5C 106.486,161.666 102.486,161.499 98.5,161C 93.1286,158.545 87.462,156.878 81.5,156C 79.1209,155.284 77.1209,154.117 75.5,152.5C 77.2161,152.629 78.8828,152.962 80.5,153.5C 84.943,154.724 89.443,154.391 94,152.5C 103.694,155.005 113.527,156.672 123.5,157.5C 131.884,156.145 140.217,154.478 148.5,152.5C 153.717,154.255 159.05,154.755 164.5,154C 166.027,152.968 167.36,151.801 168.5,150.5C 170.942,148.879 172.275,146.546 172.5,143.5C 175.191,140.77 176.525,137.436 176.5,133.5C 177.744,128.965 177.744,124.298 176.5,119.5C 181.633,117.66 186.633,115.16 191.5,112C 193.494,109.842 194.828,107.342 195.5,104.5C 196.434,103.432 196.768,102.099 196.5,100.5C 197.721,101.028 198.887,101.695 200,102.5C 201.074,101.382 202.24,100.382 203.5,99.5C 203.789,88.575 201.289,77.575 196,66.5C 188.585,54.4277 179.251,44.4277 168,36.5C 161.356,33.7745 155.189,30.9412 149.5,28C 114.573,17.9574 83.9061,25.4574 57.5,50.5C 48.429,62.1502 42.429,75.3169 39.5,90C 40.1667,90.6667 40.8333,91.3333 41.5,92C 38.4974,96.1366 39.1641,99.6366 43.5,102.5C 44.5178,101.807 45.5178,101.141 46.5,100.5C 46.1201,102.698 46.7868,104.365 48.5,105.5C 49.9063,111.727 53.9063,114.894 60.5,115C 62.8593,116.242 64.8593,117.742 66.5,119.5C 65.2492,124.631 65.2492,129.631 66.5,134.5C 66.6287,136.216 66.962,137.883 67.5,139.5C 68.0256,142.354 69.0256,145.021 70.5,147.5C 64.5274,140.868 57.8608,134.868 50.5,129.5C 48.2842,125.338 45.4509,121.671 42,118.5C 35.2239,105.021 34.3906,91.1881 39.5,77C 39.3552,76.228 39.0219,75.5613 38.5,75C 42.5131,67.8158 46.6798,60.6492 51,53.5C 76.9717,25.0602 108.472,15.2268 145.5,24C 185.313,36.3183 205.98,62.3183 207.5,102C 206.561,105.481 205.228,108.815 203.5,112C 203.833,112.333 204.167,112.667 204.5,113C 200.69,118.149 196.857,123.316 193,128.5C 184.602,135.302 177.102,142.968 170.5,151.5 Z"/></g>
<g><path style="opacity:1" fill="#fed747" d="M 196.5,100.5 C 196.167,99.8333 195.833,99.1667 195.5,98.5C 196.55,98.0954 196.55,97.4288 195.5,96.5C 196.5,95.6667 197.5,94.8333 198.5,94C 195.494,91.365 195.828,89.365 199.5,88C 197.665,87.0723 197.332,85.9056 198.5,84.5C 194.262,65.7168 183.262,50.3834 165.5,38.5C 146.064,28.2618 125.731,24.7618 104.5,28C 96.0899,30.024 88.0899,33.024 80.5,37C 73.6433,41.7079 66.9766,46.5413 60.5,51.5C 60.6495,52.552 60.4828,53.552 60,54.5C 56.8325,58.0557 53.6658,61.5557 50.5,65C 50.8333,65.3333 51.1667,65.6667 51.5,66C 49.3655,68.8895 47.6989,72.0561 46.5,75.5C 47.0016,76.7164 47.3349,77.8831 47.5,79C 46.5,80.6667 45.5,82.3333 44.5,84C 44.1304,85.6097 44.7971,87.1097 46.5,88.5C 46.4039,92.2147 46.4039,95.8814 46.5,99.5C 46.5,99.8333 46.5,100.167 46.5,100.5C 45.5178,101.141 44.5178,101.807 43.5,102.5C 39.1641,99.6366 38.4974,96.1366 41.5,92C 40.8333,91.3333 40.1667,90.6667 39.5,90C 42.429,75.3169 48.429,62.1502 57.5,50.5C 83.9061,25.4574 114.573,17.9574 149.5,28C 155.189,30.9412 161.356,33.7745 168,36.5C 179.251,44.4277 188.585,54.4277 196,66.5C 201.289,77.575 203.789,88.575 203.5,99.5C 202.24,100.382 201.074,101.382 200,102.5C 198.887,101.695 197.721,101.028 196.5,100.5 Z"/></g>
<g><path style="opacity:1" fill="#fee260" d="M 178.5,97.5 C 175.492,98.9207 172.492,98.7541 169.5,97C 170,96.5 170.5,96 171,95.5C 172.308,86.5582 171.141,78.3916 167.5,71C 165.482,65.8286 162.649,60.662 159,55.5C 142.297,40.1431 122.464,36.3098 99.5,44C 97.7756,44.4482 97.109,45.2815 97.5,46.5C 95.1167,45.538 94.1167,46.538 94.5,49.5C 91.4046,50.8836 88.4046,52.5503 85.5,54.5C 82.1349,59.5882 78.8015,64.0882 75.5,68C 75.9574,68.414 76.2907,68.914 76.5,69.5C 71.3062,79.2618 70.3062,89.2618 73.5,99.5C 72.209,99.2627 71.209,99.596 70.5,100.5C 67.0611,100.212 63.7278,99.5456 60.5,98.5C 62.9686,97.6829 65.6353,97.1829 68.5,97C 66.6992,96.6827 66.3659,96.016 67.5,95C 66.8333,94 66.1667,93 65.5,92C 65.8687,89.2189 65.8687,86.5522 65.5,84C 68.2028,82.6089 68.8694,80.6089 67.5,78C 67.7769,76.1084 68.7769,74.7751 70.5,74C 70.1971,70.2783 71.5304,66.945 74.5,64C 78.271,54.5735 85.271,47.9068 95.5,44C 94.1373,41.8707 94.4706,41.3707 96.5,42.5C 112.142,35.0339 127.809,34.5339 143.5,41C 150.239,44.5772 156.573,48.7438 162.5,53.5C 165.282,57.8725 168.616,62.3725 172.5,67C 171.978,67.5613 171.645,68.228 171.5,69C 172.647,71.444 173.981,73.7773 175.5,76C 175.5,79 175.5,82 175.5,85C 176.198,87.4537 177.198,89.7871 178.5,92C 177.167,93.6667 175.833,95.3333 174.5,97C 175.793,97.49 177.127,97.6567 178.5,97.5 Z"/></g>
<g><path style="opacity:1" fill="#feda4d" d="M 195.5,98.5 C 193.621,97.6586 191.621,97.3253 189.5,97.5C 191.246,96.9987 192.246,96.3321 192.5,95.5C 190,93.1674 190,90.8341 192.5,88.5C 191.696,87.0589 191.029,85.5589 190.5,84C 190.905,83.0546 191.572,82.3879 192.5,82C 189.496,77.1257 186.83,72.459 184.5,68C 185.308,67.6924 185.975,67.1924 186.5,66.5C 185.081,64.6641 183.914,62.6641 183,60.5C 180.851,59.348 179.018,57.848 177.5,56C 177.833,55.6667 178.167,55.3333 178.5,55C 175.088,52.2127 171.754,49.3794 168.5,46.5C 167.614,45.675 167.281,44.675 167.5,43.5C 158.771,40.249 150.771,36.749 143.5,33C 141.765,32.3486 140.098,32.5153 138.5,33.5C 127.661,30.0598 116.661,29.5598 105.5,32C 100.462,32.8014 96.129,34.3014 92.5,36.5C 91.914,36.2907 91.414,35.9574 91,35.5C 86.1328,38.73 80.9662,41.5634 75.5,44C 74.6198,45.3561 74.2865,46.8561 74.5,48.5C 73.448,48.3505 72.448,48.5172 71.5,49C 66.6075,54.1054 61.9408,59.4388 57.5,65C 57.6651,66.1169 57.9984,67.2836 58.5,68.5C 55.9851,69.1997 55.3184,70.5331 56.5,72.5C 54.6706,74.1558 53.3372,76.1558 52.5,78.5C 52.5664,81.0338 52.5664,83.5338 52.5,86C 49.8333,87.3333 49.8333,88.6667 52.5,90C 52.7953,91.7137 52.4619,93.547 51.5,95.5C 50.7611,95.369 50.0944,95.5357 49.5,96C 51.0581,96.21 52.3915,96.71 53.5,97.5C 50.812,97.1658 48.4786,97.8325 46.5,99.5C 46.4039,95.8814 46.4039,92.2147 46.5,88.5C 44.7971,87.1097 44.1304,85.6097 44.5,84C 45.5,82.3333 46.5,80.6667 47.5,79C 47.3349,77.8831 47.0016,76.7164 46.5,75.5C 47.6989,72.0561 49.3655,68.8895 51.5,66C 51.1667,65.6667 50.8333,65.3333 50.5,65C 53.6658,61.5557 56.8325,58.0557 60,54.5C 60.4828,53.552 60.6495,52.552 60.5,51.5C 66.9766,46.5413 73.6433,41.7079 80.5,37C 88.0899,33.024 96.0899,30.024 104.5,28C 125.731,24.7618 146.064,28.2618 165.5,38.5C 183.262,50.3834 194.262,65.7168 198.5,84.5C 197.332,85.9056 197.665,87.0723 199.5,88C 195.828,89.365 195.494,91.365 198.5,94C 197.5,94.8333 196.5,95.6667 195.5,96.5C 196.55,97.4288 196.55,98.0954 195.5,98.5 Z"/></g>
<g><path style="opacity:1" fill="#fedf5a" d="M 192.5,95.5 C 192.246,96.3321 191.246,96.9987 189.5,97.5C 188.833,97.5 188.167,97.5 187.5,97.5C 184.673,96.6317 181.673,96.6317 178.5,97.5C 177.127,97.6567 175.793,97.49 174.5,97C 175.833,95.3333 177.167,93.6667 178.5,92C 177.198,89.7871 176.198,87.4537 175.5,85C 175.5,82 175.5,79 175.5,76C 173.981,73.7773 172.647,71.444 171.5,69C 171.645,68.228 171.978,67.5613 172.5,67C 168.616,62.3725 165.282,57.8725 162.5,53.5C 156.573,48.7438 150.239,44.5772 143.5,41C 127.809,34.5339 112.142,35.0339 96.5,42.5C 94.4706,41.3707 94.1373,41.8707 95.5,44C 85.271,47.9068 78.271,54.5735 74.5,64C 71.5304,66.945 70.1971,70.2783 70.5,74C 68.7769,74.7751 67.7769,76.1084 67.5,78C 68.8694,80.6089 68.2028,82.6089 65.5,84C 65.8687,86.5522 65.8687,89.2189 65.5,92C 66.1667,93 66.8333,94 67.5,95C 66.3659,96.016 66.6992,96.6827 68.5,97C 65.6353,97.1829 62.9686,97.6829 60.5,98.5C 58.139,98.3259 55.8056,97.9926 53.5,97.5C 52.3915,96.71 51.0581,96.21 49.5,96C 50.0944,95.5357 50.7611,95.369 51.5,95.5C 54.0728,95.8515 56.4062,95.3515 58.5,94C 58.0153,91.3199 57.6819,88.6532 57.5,86C 60.7626,85.1305 61.0959,83.7972 58.5,82C 59.636,80.4702 60.636,79.1369 61.5,78C 60.7617,76.176 60.4284,74.176 60.5,72C 61.448,71.5172 62.448,71.3505 63.5,71.5C 63.3433,70.1266 63.51,68.7932 64,67.5C 66.3369,64.5858 68.5036,62.2525 70.5,60.5C 70.2907,59.914 69.9574,59.414 69.5,59C 78.8662,50.0644 88.8662,42.7311 99.5,37C 125.455,28.718 148.121,34.218 167.5,53.5C 168.795,54.0983 170.128,54.5983 171.5,55C 170.692,55.3076 170.025,55.8076 169.5,56.5C 172.853,57.3555 175.519,59.1888 177.5,62C 176.833,62.3333 176.167,62.6667 175.5,63C 177.167,65.3333 178.833,67.6667 180.5,70C 179.3,71.9517 179.8,73.4517 182,74.5C 182.012,78.2727 183.179,81.606 185.5,84.5C 182.956,85.9374 182.956,87.4374 185.5,89C 184.911,90.8891 184.577,92.8891 184.5,95C 187.146,95.4974 189.813,95.6641 192.5,95.5 Z"/></g>
<g><path style="opacity:1" fill="#ffdd54" d="M 192.5,95.5 C 189.813,95.6641 187.146,95.4974 184.5,95C 184.577,92.8891 184.911,90.8891 185.5,89C 182.956,87.4374 182.956,85.9374 185.5,84.5C 183.179,81.606 182.012,78.2727 182,74.5C 179.8,73.4517 179.3,71.9517 180.5,70C 178.833,67.6667 177.167,65.3333 175.5,63C 176.167,62.6667 176.833,62.3333 177.5,62C 175.519,59.1888 172.853,57.3555 169.5,56.5C 170.025,55.8076 170.692,55.3076 171.5,55C 170.128,54.5983 168.795,54.0983 167.5,53.5C 148.121,34.218 125.455,28.718 99.5,37C 88.8662,42.7311 78.8662,50.0644 69.5,59C 69.9574,59.414 70.2907,59.914 70.5,60.5C 68.5036,62.2525 66.3369,64.5858 64,67.5C 63.51,68.7932 63.3433,70.1266 63.5,71.5C 62.448,71.3505 61.448,71.5172 60.5,72C 60.4284,74.176 60.7617,76.176 61.5,78C 60.636,79.1369 59.636,80.4702 58.5,82C 61.0959,83.7972 60.7626,85.1305 57.5,86C 57.6819,88.6532 58.0153,91.3199 58.5,94C 56.4062,95.3515 54.0728,95.8515 51.5,95.5C 52.4619,93.547 52.7953,91.7137 52.5,90C 49.8333,88.6667 49.8333,87.3333 52.5,86C 52.5664,83.5338 52.5664,81.0338 52.5,78.5C 53.3372,76.1558 54.6706,74.1558 56.5,72.5C 55.3184,70.5331 55.9851,69.1997 58.5,68.5C 57.9984,67.2836 57.6651,66.1169 57.5,65C 61.9408,59.4388 66.6075,54.1054 71.5,49C 72.448,48.5172 73.448,48.3505 74.5,48.5C 74.2865,46.8561 74.6198,45.3561 75.5,44C 80.9662,41.5634 86.1328,38.73 91,35.5C 91.414,35.9574 91.914,36.2907 92.5,36.5C 96.129,34.3014 100.462,32.8014 105.5,32C 116.661,29.5598 127.661,30.0598 138.5,33.5C 140.098,32.5153 141.765,32.3486 143.5,33C 150.771,36.749 158.771,40.249 167.5,43.5C 167.281,44.675 167.614,45.675 168.5,46.5C 171.754,49.3794 175.088,52.2127 178.5,55C 178.167,55.3333 177.833,55.6667 177.5,56C 179.018,57.848 180.851,59.348 183,60.5C 183.914,62.6641 185.081,64.6641 186.5,66.5C 185.975,67.1924 185.308,67.6924 184.5,68C 186.83,72.459 189.496,77.1257 192.5,82C 191.572,82.3879 190.905,83.0546 190.5,84C 191.029,85.5589 191.696,87.0589 192.5,88.5C 190,90.8341 190,93.1674 192.5,95.5 Z"/></g>
<g><path style="opacity:1" fill="#fee466" d="M 178.5,97.5 C 181.673,96.6317 184.673,96.6317 187.5,97.5C 182.772,98.2455 178.106,99.2455 173.5,100.5C 170.359,99.6787 167.025,99.1787 163.5,99C 165.174,96.4918 166.174,93.6585 166.5,90.5C 165.869,86.9656 165.202,83.4656 164.5,80C 164.957,79.586 165.291,79.086 165.5,78.5C 163.383,75.1488 161.383,71.6488 159.5,68C 160.167,67.6667 160.833,67.3333 161.5,67C 158.167,65 155.5,62.3333 153.5,59C 153.833,58.6667 154.167,58.3333 154.5,58C 149.296,53.6011 143.63,49.9345 137.5,47C 133.229,46.097 129.063,44.9303 125,43.5C 121.164,45.6187 117.164,45.952 113,44.5C 105.033,46.5424 98.0332,50.209 92,55.5C 85.8902,63.4209 81.2235,71.7543 78,80.5C 77.7931,84.0894 77.2931,87.5894 76.5,91C 77.2961,93.4376 77.9628,95.9376 78.5,98.5C 76.9547,99.4519 75.288,99.7852 73.5,99.5C 70.3062,89.2618 71.3062,79.2618 76.5,69.5C 76.2907,68.914 75.9574,68.414 75.5,68C 78.8015,64.0882 82.1349,59.5882 85.5,54.5C 88.4046,52.5503 91.4046,50.8836 94.5,49.5C 94.1167,46.538 95.1167,45.538 97.5,46.5C 97.109,45.2815 97.7756,44.4482 99.5,44C 122.464,36.3098 142.297,40.1431 159,55.5C 162.649,60.662 165.482,65.8286 167.5,71C 171.141,78.3916 172.308,86.5582 171,95.5C 170.5,96 170,96.5 169.5,97C 172.492,98.7541 175.492,98.9207 178.5,97.5 Z"/></g>
<g><path style="opacity:1" fill="#fee76d" d="M 173.5,100.5 C 171.435,100.517 169.435,100.85 167.5,101.5C 165.031,100.683 162.365,100.183 159.5,100C 160.574,99.2613 161.241,98.2613 161.5,97C 160.327,93.7443 160.327,90.5776 161.5,87.5C 160.51,82.5844 159.01,77.5844 157,72.5C 155.566,69.2983 153.399,66.1316 150.5,63C 148.36,62.0267 146.693,60.5267 145.5,58.5C 144.264,57.7542 142.93,57.4208 141.5,57.5C 141.5,56.5 141.5,55.5 141.5,54.5C 137.616,54.1399 134.116,52.8066 131,50.5C 128.462,51.3992 125.962,51.0658 123.5,49.5C 120.5,50.8333 117.5,50.8333 114.5,49.5C 109.073,51.7496 103.74,54.2496 98.5,57C 96.6209,60.4952 93.9542,63.1619 90.5,65C 91.3366,66.0113 91.67,67.1779 91.5,68.5C 89.3944,68.679 87.7277,69.679 86.5,71.5C 86.02,73.9486 85.02,76.1153 83.5,78C 83.3174,80.8932 83.6507,83.8932 84.5,87C 81.1562,87.5696 80.8228,88.7362 83.5,90.5C 82.9747,91.1924 82.3081,91.6924 81.5,92C 82.2135,93.3431 81.8802,94.6764 80.5,96C 81.364,97.1369 82.364,98.4702 83.5,100C 80.6353,100.183 77.9686,100.683 75.5,101.5C 73.7085,101.634 72.0418,101.301 70.5,100.5C 71.209,99.596 72.209,99.2627 73.5,99.5C 75.288,99.7852 76.9547,99.4519 78.5,98.5C 77.9628,95.9376 77.2961,93.4376 76.5,91C 77.2931,87.5894 77.7931,84.0894 78,80.5C 81.2235,71.7543 85.8902,63.4209 92,55.5C 98.0332,50.209 105.033,46.5424 113,44.5C 117.164,45.952 121.164,45.6187 125,43.5C 129.063,44.9303 133.229,46.097 137.5,47C 143.63,49.9345 149.296,53.6011 154.5,58C 154.167,58.3333 153.833,58.6667 153.5,59C 155.5,62.3333 158.167,65 161.5,67C 160.833,67.3333 160.167,67.6667 159.5,68C 161.383,71.6488 163.383,75.1488 165.5,78.5C 165.291,79.086 164.957,79.586 164.5,80C 165.202,83.4656 165.869,86.9656 166.5,90.5C 166.174,93.6585 165.174,96.4918 163.5,99C 167.025,99.1787 170.359,99.6787 173.5,100.5 Z"/></g>
<g><path style="opacity:0.968" fill="#feb11b" d="M 34.5,47.5 C 30.4276,54.6425 26.5943,61.9758 23,69.5C 13.4695,92.0419 12.4695,114.375 20,136.5C 24.6669,146.498 31.5002,154.665 40.5,161C 53.873,167.855 67.2063,174.355 80.5,180.5C 80.0535,183.01 80.7202,185.01 82.5,186.5C 82.5,187.833 82.5,189.167 82.5,190.5C 86.1669,190.836 89.5002,190.003 92.5,188C 112.219,185.694 131.885,186.028 151.5,189C 152.416,189.278 153.082,189.778 153.5,190.5C 136.684,190.068 119.851,189.734 103,189.5C 95.8058,190.096 88.6391,190.596 81.5,191C 80.2429,188.004 78.7429,185.171 77,182.5C 24.3154,168.792 4.14871,135.459 16.5,82.5C 16.0431,81.7025 15.3764,81.3691 14.5,81.5C 19.1378,68.8788 25.8045,57.5455 34.5,47.5 Z"/></g>
<g><path style="opacity:1" fill="#fee973" d="M 167.5,101.5 C 165.883,102.038 164.216,102.371 162.5,102.5C 159.833,101.894 157.166,101.061 154.5,100C 155.342,97.2736 155.675,94.2736 155.5,91C 154.207,84.003 151.874,77.8363 148.5,72.5C 148.709,71.914 149.043,71.414 149.5,71C 146.898,68.8685 144.232,67.0352 141.5,65.5C 141.67,64.1779 141.337,63.0113 140.5,62C 137.79,60.2532 134.79,59.2532 131.5,59C 131.833,58.6667 132.167,58.3333 132.5,58C 128.036,58.4687 123.702,57.6353 119.5,55.5C 118.304,55.8457 118.304,56.3457 119.5,57C 117.567,57.7826 116.067,57.2826 115,55.5C 113.513,56.2529 113.346,57.0862 114.5,58C 104.89,58.8886 97.8902,63.8886 93.5,73C 93.8333,73.3333 94.1667,73.6667 94.5,74C 92.7342,76.096 91.4009,78.4293 90.5,81C 90.8333,81.3333 91.1667,81.6667 91.5,82C 88.4557,82.3589 88.1224,83.0255 90.5,84C 89.09,84.3678 88.09,85.2011 87.5,86.5C 88.7797,88.7016 88.7797,90.8683 87.5,93C 88.3081,93.3076 88.9747,93.8076 89.5,94.5C 89.5345,97.6789 89.2012,100.679 88.5,103.5C 84.0164,103.574 79.683,102.907 75.5,101.5C 77.9686,100.683 80.6353,100.183 83.5,100C 82.364,98.4702 81.364,97.1369 80.5,96C 81.8802,94.6764 82.2135,93.3431 81.5,92C 82.3081,91.6924 82.9747,91.1924 83.5,90.5C 80.8228,88.7362 81.1562,87.5696 84.5,87C 83.6507,83.8932 83.3174,80.8932 83.5,78C 85.02,76.1153 86.02,73.9486 86.5,71.5C 87.7277,69.679 89.3944,68.679 91.5,68.5C 91.67,67.1779 91.3366,66.0113 90.5,65C 93.9542,63.1619 96.6209,60.4952 98.5,57C 103.74,54.2496 109.073,51.7496 114.5,49.5C 117.5,50.8333 120.5,50.8333 123.5,49.5C 125.962,51.0658 128.462,51.3992 131,50.5C 134.116,52.8066 137.616,54.1399 141.5,54.5C 141.5,55.5 141.5,56.5 141.5,57.5C 142.93,57.4208 144.264,57.7542 145.5,58.5C 146.693,60.5267 148.36,62.0267 150.5,63C 153.399,66.1316 155.566,69.2983 157,72.5C 159.01,77.5844 160.51,82.5844 161.5,87.5C 160.327,90.5776 160.327,93.7443 161.5,97C 161.241,98.2613 160.574,99.2613 159.5,100C 162.365,100.183 165.031,100.683 167.5,101.5 Z"/></g>
<g><path style="opacity:1" fill="#feea79" d="M 162.5,102.5 C 155.87,103.495 149.203,104.162 142.5,104.5C 142.736,101.391 142.403,98.3915 141.5,95.5C 143.857,95.6633 146.19,95.4966 148.5,95C 147.167,94.6667 145.833,94.3333 144.5,94C 145.448,93.5172 146.448,93.3505 147.5,93.5C 146.862,91.54 146.862,89.7067 147.5,88C 144.99,84.8447 143.657,81.5113 143.5,78C 143.833,77.6667 144.167,77.3333 144.5,77C 142.754,76.5291 141.087,75.8624 139.5,75C 138.167,74.3333 138.167,73.6667 139.5,73C 136.898,72.1166 134.731,70.6166 133,68.5C 132.667,68.8333 132.333,69.1667 132,69.5C 126.013,68.2687 126.18,67.4354 132.5,67C 127.564,65.5917 122.564,64.925 117.5,65C 118.328,65.9147 119.328,66.5814 120.5,67C 118.782,67.346 117.115,67.846 115.5,68.5C 114.468,66.9604 113.135,66.4604 111.5,67C 111.833,67.3333 112.167,67.6667 112.5,68C 108.067,69.8494 103.734,71.8494 99.5,74C 102.043,76.3508 101.377,77.5175 97.5,77.5C 97.2606,79.4672 97.5939,81.3005 98.5,83C 94.6951,87.0911 93.5284,91.9245 95,97.5C 96.6778,93.8638 98.8445,93.1971 101.5,95.5C 100.597,98.3915 100.264,101.391 100.5,104.5C 96.2984,104.817 92.2984,104.483 88.5,103.5C 89.2012,100.679 89.5345,97.6789 89.5,94.5C 88.9747,93.8076 88.3081,93.3076 87.5,93C 88.7797,90.8683 88.7797,88.7016 87.5,86.5C 88.09,85.2011 89.09,84.3678 90.5,84C 88.1224,83.0255 88.4557,82.3589 91.5,82C 91.1667,81.6667 90.8333,81.3333 90.5,81C 91.4009,78.4293 92.7342,76.096 94.5,74C 94.1667,73.6667 93.8333,73.3333 93.5,73C 97.8902,63.8886 104.89,58.8886 114.5,58C 113.346,57.0862 113.513,56.2529 115,55.5C 116.067,57.2826 117.567,57.7826 119.5,57C 118.304,56.3457 118.304,55.8457 119.5,55.5C 123.702,57.6353 128.036,58.4687 132.5,58C 132.167,58.3333 131.833,58.6667 131.5,59C 134.79,59.2532 137.79,60.2532 140.5,62C 141.337,63.0113 141.67,64.1779 141.5,65.5C 144.232,67.0352 146.898,68.8685 149.5,71C 149.043,71.414 148.709,71.914 148.5,72.5C 151.874,77.8363 154.207,84.003 155.5,91C 155.675,94.2736 155.342,97.2736 154.5,100C 157.166,101.061 159.833,101.894 162.5,102.5 Z"/></g>
<g><path style="opacity:0.971" fill="#feb21a" d="M 214.5,54.5 C 222.136,65.0576 227.469,76.7242 230.5,89.5C 230.082,90.2216 229.416,90.7216 228.5,91C 232.837,113.124 229.004,133.958 217,153.5C 207.85,164.163 196.683,171.996 183.5,177C 176.381,178.146 169.881,180.646 164,184.5C 163.722,183.584 163.222,182.918 162.5,182.5C 162.5,181.833 162.5,181.167 162.5,180.5C 162.369,179.624 162.702,178.957 163.5,178.5C 173.854,175.155 183.854,170.989 193.5,166C 203.156,161.341 211.323,154.841 218,146.5C 220.186,142.286 222.186,137.953 224,133.5C 231.552,105.935 227.718,80.1014 212.5,56C 213.044,55.2828 213.711,54.7828 214.5,54.5 Z"/></g>
<g><path style="opacity:1" fill="#feec80" d="M 141.5,95.5 C 138.375,88.4717 134.375,87.805 129.5,93.5C 128.518,96.9619 128.185,100.629 128.5,104.5C 127.673,109.651 127.173,114.984 127,120.5C 126.667,119.5 126.333,118.5 126,117.5C 125.71,119.044 125.044,120.377 124,121.5C 123.383,120.551 123.549,119.718 124.5,119C 123,116.833 121.833,117 121,119.5C 120.085,118.672 119.419,117.672 119,116.5C 118.667,117.833 118.333,119.167 118,120.5C 116.768,115.279 116.101,109.946 116,104.5C 115.722,103.584 115.222,102.918 114.5,102.5C 114.806,99.6146 114.473,96.9479 113.5,94.5C 112.412,90.2522 109.745,88.7522 105.5,90C 103.561,91.4321 102.228,93.2654 101.5,95.5C 98.8445,93.1971 96.6778,93.8638 95,97.5C 93.5284,91.9245 94.6951,87.0911 98.5,83C 97.5939,81.3005 97.2606,79.4672 97.5,77.5C 101.377,77.5175 102.043,76.3508 99.5,74C 103.734,71.8494 108.067,69.8494 112.5,68C 112.167,67.6667 111.833,67.3333 111.5,67C 113.135,66.4604 114.468,66.9604 115.5,68.5C 117.115,67.846 118.782,67.346 120.5,67C 119.328,66.5814 118.328,65.9147 117.5,65C 122.564,64.925 127.564,65.5917 132.5,67C 126.18,67.4354 126.013,68.2687 132,69.5C 132.333,69.1667 132.667,68.8333 133,68.5C 134.731,70.6166 136.898,72.1166 139.5,73C 138.167,73.6667 138.167,74.3333 139.5,75C 141.087,75.8624 142.754,76.5291 144.5,77C 144.167,77.3333 143.833,77.6667 143.5,78C 143.657,81.5113 144.99,84.8447 147.5,88C 146.862,89.7067 146.862,91.54 147.5,93.5C 146.448,93.3505 145.448,93.5172 144.5,94C 145.833,94.3333 147.167,94.6667 148.5,95C 146.19,95.4966 143.857,95.6633 141.5,95.5 Z"/></g>
<g><path style="opacity:0.983" fill="#ff9f0f" d="M 8.5,117.5 C 15.1044,159.946 39.7711,185.446 82.5,194C 92.5484,194.745 102.548,195.912 112.5,197.5C 128.752,196.745 145.085,195.578 161.5,194C 203,185.334 227.334,160.168 234.5,118.5C 234.782,123.927 234.449,129.26 233.5,134.5C 229.736,141.58 226.236,148.913 223,156.5C 208.723,180.08 187.889,194.247 160.5,199C 135.523,203.874 110.523,204.207 85.5,200C 45.9055,191.89 20.2388,168.724 8.5,130.5C 8.5,126.167 8.5,121.833 8.5,117.5 Z"/></g>
<g><path style="opacity:0.985" fill="#ff9008" d="M 10.5,141.5 C 26.2215,180.216 54.8882,202.383 96.5,208C 105.141,208.921 113.808,209.421 122.5,209.5C 129.613,209.698 136.613,209.031 143.5,207.5C 174.173,205.737 199.007,192.404 218,167.5C 223.14,159.53 227.973,151.53 232.5,143.5C 231.036,149.226 229.369,154.893 227.5,160.5C 192.852,211.621 145.185,229.788 84.5,215C 65.1412,208.966 48.3078,198.8 34,184.5C 28,174.501 21.5,164.834 14.5,155.5C 12.2538,151.195 10.9205,146.529 10.5,141.5 Z"/></g>
<g><path style="opacity:1" fill="#fea814" d="M 14.5,81.5 C 15.3764,81.3691 16.0431,81.7025 16.5,82.5C 4.14871,135.459 24.3154,168.792 77,182.5C 78.7429,185.171 80.2429,188.004 81.5,191C 88.6391,190.596 95.8058,190.096 103,189.5C 119.851,189.734 136.684,190.068 153.5,190.5C 155.833,190.5 158.167,190.5 160.5,190.5C 160.5,189.167 160.5,187.833 160.5,186.5C 162.104,185.713 162.771,184.38 162.5,182.5C 163.222,182.918 163.722,183.584 164,184.5C 169.881,180.646 176.381,178.146 183.5,177C 196.683,171.996 207.85,164.163 217,153.5C 229.004,133.958 232.837,113.124 228.5,91C 229.416,90.7216 230.082,90.2216 230.5,89.5C 233.495,98.8045 234.829,108.471 234.5,118.5C 227.334,160.168 203,185.334 161.5,194C 145.085,195.578 128.752,196.745 112.5,197.5C 102.548,195.912 92.5484,194.745 82.5,194C 39.7711,185.446 15.1044,159.946 8.5,117.5C 8.36257,105.126 10.3626,93.1258 14.5,81.5 Z"/></g>
<g><path style="opacity:1" fill="#fbdf66" d="M 114.5,102.5 C 115.222,102.918 115.722,103.584 116,104.5C 116.101,109.946 116.768,115.279 118,120.5C 118.333,119.167 118.667,117.833 119,116.5C 119.419,117.672 120.085,118.672 121,119.5C 121.833,117 123,116.833 124.5,119C 123.549,119.718 123.383,120.551 124,121.5C 125.044,120.377 125.71,119.044 126,117.5C 126.333,118.5 126.667,119.5 127,120.5C 127.173,114.984 127.673,109.651 128.5,104.5C 128.226,109.263 128.559,113.93 129.5,118.5C 129.511,120.017 130.177,121.184 131.5,122C 135.486,122.499 139.486,122.666 143.5,122.5C 143.185,126.371 143.518,130.038 144.5,133.5C 146.578,144.092 152.911,149.259 163.5,149C 166.025,148.576 168.025,147.41 169.5,145.5C 170.5,144.833 171.5,144.167 172.5,143.5C 172.275,146.546 170.942,148.879 168.5,150.5C 163.629,152.208 158.629,152.708 153.5,152C 152.034,151.365 150.7,150.531 149.5,149.5C 147.098,145.738 144.264,142.404 141,139.5C 136.264,141.352 131.431,143.018 126.5,144.5C 122.79,143.714 118.79,143.547 114.5,144C 110.314,143.36 106.147,141.86 102,139.5C 98.623,144.211 94.4564,148.377 89.5,152C 86.6492,153.289 83.6492,153.789 80.5,153.5C 78.8828,152.962 77.2161,152.629 75.5,152.5C 74.1667,150.5 72.5,148.833 70.5,147.5C 69.0256,145.021 68.0256,142.354 67.5,139.5C 71.4646,147.278 77.7979,150.445 86.5,149C 89.7874,147.533 92.4541,145.366 94.5,142.5C 96.0075,140.819 97.0075,138.819 97.5,136.5C 98.1174,136.389 98.6174,136.056 99,135.5C 99.4983,132.183 99.665,128.85 99.5,125.5C 103.215,125.68 106.882,125.346 110.5,124.5C 112.088,123.99 113.255,122.99 114,121.5C 114.5,115.175 114.666,108.842 114.5,102.5 Z"/></g>
<g><path style="opacity:1" fill="#1f1f31" d="M 97.5,134.5 C 97.5,135.167 97.5,135.833 97.5,136.5C 97.0075,138.819 96.0075,140.819 94.5,142.5C 92.4541,145.366 89.7874,147.533 86.5,149C 77.7979,150.445 71.4646,147.278 67.5,139.5C 66.962,137.883 66.6287,136.216 66.5,134.5C 65.4884,117.884 72.8217,112.884 88.5,119.5C 92.0906,120.999 94.9239,123.332 97,126.5C 97.4974,129.146 97.6641,131.813 97.5,134.5 Z"/></g>
<g><path style="opacity:1" fill="#292f4d" d="M 83.5,120.5 C 84.404,121.209 84.7373,122.209 84.5,123.5C 88.0254,123.346 90.8587,124.679 93,127.5C 94.3254,132.401 94.8254,137.401 94.5,142.5C 93.8501,142.196 93.1835,141.863 92.5,141.5C 91.3523,143.149 90.019,144.649 88.5,146C 75.0063,147.836 68.5063,142.003 69,128.5C 69.2233,126.119 70.39,124.453 72.5,123.5C 74.9003,126.24 77.9003,127.073 81.5,126C 83.1554,124.556 83.822,122.722 83.5,120.5 Z"/></g>
<g><path style="opacity:1" fill="#373f66" d="M 78.5,128.5 C 91.1225,127.902 94.1225,132.735 87.5,143C 77.4909,147.294 72.6576,144.128 73,133.5C 74.1065,130.887 75.9399,129.22 78.5,128.5 Z"/></g>
<g><path style="opacity:1" fill="#edbc50" d="M 113.5,94.5 C 114.473,96.9479 114.806,99.6146 114.5,102.5C 114.666,108.842 114.5,115.175 114,121.5C 113.255,122.99 112.088,123.99 110.5,124.5C 106.882,125.346 103.215,125.68 99.5,125.5C 99.665,128.85 99.4983,132.183 99,135.5C 98.6174,136.056 98.1174,136.389 97.5,136.5C 97.5,135.833 97.5,135.167 97.5,134.5C 98.7508,129.631 98.7508,124.631 97.5,119.5C 102.511,119.666 107.511,119.499 112.5,119C 113.451,115.943 113.784,112.777 113.5,109.5C 113.5,104.5 113.5,99.5 113.5,94.5 Z"/></g>
<g><path style="opacity:1" fill="#d8a242" d="M 129.5,118.5 C 134.74,119.449 140.073,119.782 145.5,119.5C 144.559,124.07 144.226,128.737 144.5,133.5C 143.518,130.038 143.185,126.371 143.5,122.5C 139.486,122.666 135.486,122.499 131.5,122C 130.177,121.184 129.511,120.017 129.5,118.5 Z"/></g>
<g><path style="opacity:1" fill="#1b1b29" d="M 176.5,133.5 C 176.525,137.436 175.191,140.77 172.5,143.5C 171.5,144.167 170.5,144.833 169.5,145.5C 168.025,147.41 166.025,148.576 163.5,149C 152.911,149.259 146.578,144.092 144.5,133.5C 144.226,128.737 144.559,124.07 145.5,119.5C 147.265,118.539 149.265,118.205 151.5,118.5C 152.695,118.678 153.862,119.011 155,119.5C 161.074,117.796 167.24,117.296 173.5,118C 176.102,122.81 177.102,127.976 176.5,133.5 Z"/></g>
<g><path style="opacity:1" fill="#252a47" d="M 169.5,145.5 C 168.167,145.5 166.833,145.5 165.5,145.5C 158.387,148.555 152.887,146.555 149,139.5C 147.496,135.961 147.163,132.295 148,128.5C 148.697,126.416 149.864,124.749 151.5,123.5C 153.718,126.387 156.718,127.221 160.5,126C 162.016,124.103 162.683,121.936 162.5,119.5C 164.144,119.714 165.644,119.38 167,118.5C 168.399,119.227 169.899,119.727 171.5,120C 172.05,121.845 173.05,123.345 174.5,124.5C 175.833,128.5 175.833,132.5 174.5,136.5C 171.521,138.792 169.855,141.792 169.5,145.5 Z"/></g>
<g><path style="opacity:1" fill="#363e65" d="M 165.5,145.5 C 154.822,147.32 150.322,142.986 152,132.5C 157.431,127.695 163.098,127.361 169,131.5C 169.667,134.833 169.667,138.167 169,141.5C 168.31,143.35 167.144,144.684 165.5,145.5 Z"/></g>
<g><path style="opacity:1" fill="#61595f" d="M 162.5,119.5 C 162.683,121.936 162.016,124.103 160.5,126C 156.718,127.221 153.718,126.387 151.5,123.5C 151.577,122.25 152.244,121.417 153.5,121C 156.478,120.304 159.478,119.804 162.5,119.5 Z"/></g>
<g><path style="opacity:1" fill="#f3bc3e" d="M 195.5,104.5 C 194.828,107.342 193.494,109.842 191.5,112C 186.633,115.16 181.633,117.66 176.5,119.5C 175.599,118.71 174.932,117.71 174.5,116.5C 176.877,115.113 179.543,114.279 182.5,114C 186.445,111.764 190.111,109.264 193.5,106.5C 193.833,105.5 194.5,104.833 195.5,104.5 Z"/></g>
<g><path style="opacity:1" fill="#2b211c" d="M 172.5,113.5 C 172.932,114.71 173.599,115.71 174.5,116.5C 174.932,117.71 175.599,118.71 176.5,119.5C 177.744,124.298 177.744,128.965 176.5,133.5C 177.102,127.976 176.102,122.81 173.5,118C 167.24,117.296 161.074,117.796 155,119.5C 153.862,119.011 152.695,118.678 151.5,118.5C 151.5,118.167 151.5,117.833 151.5,117.5C 158.6,116.641 165.6,115.308 172.5,113.5 Z"/></g>
<g><path style="opacity:1" fill="#b45f06" d="M 79.5,115.5 C 86.713,115.29 93.713,116.123 100.5,118C 99.2625,118.232 98.2625,118.732 97.5,119.5C 91.3832,118.279 85.3832,116.945 79.5,115.5 Z"/></g>
<g><path style="opacity:1" fill="#1e181b" d="M 79.5,115.5 C 85.3832,116.945 91.3832,118.279 97.5,119.5C 98.7508,124.631 98.7508,129.631 97.5,134.5C 97.6641,131.813 97.4974,129.146 97,126.5C 94.9239,123.332 92.0906,120.999 88.5,119.5C 72.8217,112.884 65.4884,117.884 66.5,134.5C 65.2492,129.631 65.2492,124.631 66.5,119.5C 67.8897,118.101 68.8897,116.434 69.5,114.5C 70.1499,114.196 70.8165,113.863 71.5,113.5C 74.0205,114.785 76.6872,115.452 79.5,115.5 Z"/></g>
<g><path style="opacity:1" fill="#665f66" d="M 83.5,120.5 C 83.822,122.722 83.1554,124.556 81.5,126C 77.9003,127.073 74.9003,126.24 72.5,123.5C 72.5,121.833 72.5,120.167 72.5,118.5C 76.3875,118.646 80.0542,119.313 83.5,120.5 Z"/></g>
<g><path style="opacity:1" fill="#e89d2c" d="M 193.5,106.5 C 190.111,109.264 186.445,111.764 182.5,114C 179.543,114.279 176.877,115.113 174.5,116.5C 173.599,115.71 172.932,114.71 172.5,113.5C 179.459,111.336 186.459,109.003 193.5,106.5 Z"/></g>
<g><path style="opacity:1" fill="#de7d02" d="M 129.5,93.5 C 129.334,99.5092 129.501,105.509 130,111.5C 130.108,107.224 132.275,105.224 136.5,105.5C 152.154,106.035 167.82,106.201 183.5,106C 181.833,107.333 180.167,108.667 178.5,110C 169.38,112.59 160.38,115.09 151.5,117.5C 151.5,117.833 151.5,118.167 151.5,118.5C 149.265,118.205 147.265,118.539 145.5,119.5C 140.073,119.782 134.74,119.449 129.5,118.5C 128.559,113.93 128.226,109.263 128.5,104.5C 128.185,100.629 128.518,96.9619 129.5,93.5 Z"/></g>
<g><path style="opacity:1" fill="#de7c00" d="M 113.5,109.5 C 113.784,112.777 113.451,115.943 112.5,119C 107.511,119.499 102.511,119.666 97.5,119.5C 98.2625,118.732 99.2625,118.232 100.5,118C 93.713,116.123 86.713,115.29 79.5,115.5C 75.6167,112.971 71.2833,111.305 66.5,110.5C 64.1667,109 61.8333,107.5 59.5,106C 74.847,106.168 90.1804,106.001 105.5,105.5C 109.066,105.282 111.732,106.616 113.5,109.5 Z"/></g>
<g><path style="opacity:1" fill="#edac35" d="M 48.5,105.5 C 55.6416,108.357 62.6416,111.357 69.5,114.5C 68.8897,116.434 67.8897,118.101 66.5,119.5C 64.8593,117.742 62.8593,116.242 60.5,115C 53.9063,114.894 49.9063,111.727 48.5,105.5 Z"/></g>
<g><path style="opacity:1" fill="#d57304" d="M 141.5,95.5 C 142.403,98.3915 142.736,101.391 142.5,104.5C 149.203,104.162 155.87,103.495 162.5,102.5C 164.216,102.371 165.883,102.038 167.5,101.5C 169.435,100.85 171.435,100.517 173.5,100.5C 178.106,99.2455 182.772,98.2455 187.5,97.5C 188.167,97.5 188.833,97.5 189.5,97.5C 191.621,97.3253 193.621,97.6586 195.5,98.5C 195.833,99.1667 196.167,99.8333 196.5,100.5C 196.768,102.099 196.434,103.432 195.5,104.5C 194.5,104.833 193.833,105.5 193.5,106.5C 186.459,109.003 179.459,111.336 172.5,113.5C 165.6,115.308 158.6,116.641 151.5,117.5C 160.38,115.09 169.38,112.59 178.5,110C 180.167,108.667 181.833,107.333 183.5,106C 167.82,106.201 152.154,106.035 136.5,105.5C 132.275,105.224 130.108,107.224 130,111.5C 129.501,105.509 129.334,99.5092 129.5,93.5C 134.375,87.805 138.375,88.4717 141.5,95.5 Z"/></g>
<g><path style="opacity:1" fill="#d57203" d="M 113.5,94.5 C 113.5,99.5 113.5,104.5 113.5,109.5C 111.732,106.616 109.066,105.282 105.5,105.5C 90.1804,106.001 74.847,106.168 59.5,106C 61.8333,107.5 64.1667,109 66.5,110.5C 71.2833,111.305 75.6167,112.971 79.5,115.5C 76.6872,115.452 74.0205,114.785 71.5,113.5C 70.8165,113.863 70.1499,114.196 69.5,114.5C 62.6416,111.357 55.6416,108.357 48.5,105.5C 46.7868,104.365 46.1201,102.698 46.5,100.5C 46.5,100.167 46.5,99.8333 46.5,99.5C 48.4786,97.8325 50.812,97.1658 53.5,97.5C 55.8056,97.9926 58.139,98.3259 60.5,98.5C 63.7278,99.5456 67.0611,100.212 70.5,100.5C 72.0418,101.301 73.7085,101.634 75.5,101.5C 79.683,102.907 84.0164,103.574 88.5,103.5C 92.2984,104.483 96.2984,104.817 100.5,104.5C 100.264,101.391 100.597,98.3915 101.5,95.5C 102.228,93.2654 103.561,91.4321 105.5,90C 109.745,88.7522 112.412,90.2522 113.5,94.5 Z"/></g>
<g><path style="opacity:0.968" fill="#ff8703" d="M 14.5,155.5 C 21.5,164.834 28,174.501 34,184.5C 48.3078,198.8 65.1412,208.966 84.5,215C 145.185,229.788 192.852,211.621 227.5,160.5C 224.515,168.477 220.515,175.81 215.5,182.5C 203.149,193.995 189.483,203.829 174.5,212C 120.034,234.837 71.8674,225.337 30,183.5C 29.6174,184.056 29.1174,184.389 28.5,184.5C 21.9711,175.774 17.3044,166.108 14.5,155.5 Z"/></g>
<g><path style="opacity:1" fill="#ff980c" d="M 8.5,130.5 C 20.2388,168.724 45.9055,191.89 85.5,200C 110.523,204.207 135.523,203.874 160.5,199C 187.889,194.247 208.723,180.08 223,156.5C 226.236,148.913 229.736,141.58 233.5,134.5C 233.492,137.545 233.159,140.545 232.5,143.5C 227.973,151.53 223.14,159.53 218,167.5C 199.007,192.404 174.173,205.737 143.5,207.5C 136.613,209.031 129.613,209.698 122.5,209.5C 113.808,209.421 105.141,208.921 96.5,208C 54.8882,202.383 26.2215,180.216 10.5,141.5C 9.65098,137.899 8.98431,134.232 8.5,130.5 Z"/></g>
<g><path style="opacity:1" fill="#4e1210" d="M 155.5,175.5 C 157.754,176.415 159.754,177.748 161.5,179.5C 161.5,180.167 161.833,180.5 162.5,180.5C 162.5,181.167 162.5,181.833 162.5,182.5C 162.771,184.38 162.104,185.713 160.5,186.5C 158.5,186.5 156.5,186.5 154.5,186.5C 151.135,184.538 147.468,183.038 143.5,182C 131.599,179.671 119.599,179.004 107.5,180C 102.176,180.82 97.1762,182.32 92.5,184.5C 89.3061,185.758 85.9728,186.424 82.5,186.5C 80.7202,185.01 80.0535,183.01 80.5,180.5C 82.1667,179.5 83.5,178.167 84.5,176.5C 84.8333,176.5 85.1667,176.5 85.5,176.5C 85.3691,177.376 85.7025,178.043 86.5,178.5C 89.8239,176.248 93.4906,174.748 97.5,174C 112.108,171.136 126.775,170.803 141.5,173C 145.743,173.943 149.743,175.443 153.5,177.5C 154.713,177.253 155.38,176.586 155.5,175.5 Z"/></g>
<g><path style="opacity:1" fill="#2f090a" d="M 147.5,170.5 C 149.713,171.773 152.046,172.773 154.5,173.5C 154.833,174.167 155.167,174.833 155.5,175.5C 155.38,176.586 154.713,177.253 153.5,177.5C 149.743,175.443 145.743,173.943 141.5,173C 126.775,170.803 112.108,171.136 97.5,174C 93.4906,174.748 89.8239,176.248 86.5,178.5C 85.7025,178.043 85.3691,177.376 85.5,176.5C 85.8333,175.5 86.5,174.833 87.5,174.5C 88.1667,174.167 88.8333,173.833 89.5,173.5C 89.9169,174.124 90.5836,174.457 91.5,174.5C 109.256,167.701 127.422,166.701 146,171.5C 146.765,171.43 147.265,171.097 147.5,170.5 Z"/></g>
<g><path style="opacity:1" fill="#240e08" d="M 147.5,170.5 C 147.265,171.097 146.765,171.43 146,171.5C 127.422,166.701 109.256,167.701 91.5,174.5C 90.5836,174.457 89.9169,174.124 89.5,173.5C 108.215,162.708 127.548,161.708 147.5,170.5 Z"/></g>
<g><path style="opacity:1" fill="#ffda4f" d="M 168.5,150.5 C 167.36,151.801 166.027,152.968 164.5,154C 159.05,154.755 153.717,154.255 148.5,152.5C 140.217,154.478 131.884,156.145 123.5,157.5C 113.527,156.672 103.694,155.005 94,152.5C 89.443,154.391 84.943,154.724 80.5,153.5C 83.6492,153.789 86.6492,153.289 89.5,152C 94.4564,148.377 98.623,144.211 102,139.5C 106.147,141.86 110.314,143.36 114.5,144C 118.79,143.547 122.79,143.714 126.5,144.5C 131.431,143.018 136.264,141.352 141,139.5C 144.264,142.404 147.098,145.738 149.5,149.5C 150.7,150.531 152.034,151.365 153.5,152C 158.629,152.708 163.629,152.208 168.5,150.5 Z"/></g>
<g><path style="opacity:1" fill="#f1c749" d="M 154.5,186.5 C 136.353,182.327 118.02,181.494 99.5,184C 97.1874,185.518 94.854,185.684 92.5,184.5C 97.1762,182.32 102.176,180.82 107.5,180C 119.599,179.004 131.599,179.671 143.5,182C 147.468,183.038 151.135,184.538 154.5,186.5 Z"/></g>
<g><path style="opacity:0.889" fill="#ff7f00" d="M 215.5,182.5 C 192.91,215.55 161.41,232.217 121,232.5C 81.9739,231.906 51.1406,215.906 28.5,184.5C 29.1174,184.389 29.6174,184.056 30,183.5C 71.8674,225.337 120.034,234.837 174.5,212C 189.483,203.829 203.149,193.995 215.5,182.5 Z"/></g>
<g><path style="opacity:1" fill="#fdbb34" d="M 154.5,186.5 C 156.5,186.5 158.5,186.5 160.5,186.5C 160.5,187.833 160.5,189.167 160.5,190.5C 158.167,190.5 155.833,190.5 153.5,190.5C 153.082,189.778 152.416,189.278 151.5,189C 131.885,186.028 112.219,185.694 92.5,188C 89.5002,190.003 86.1669,190.836 82.5,190.5C 82.5,189.167 82.5,187.833 82.5,186.5C 85.9728,186.424 89.3061,185.758 92.5,184.5C 94.854,185.684 97.1874,185.518 99.5,184C 118.02,181.494 136.353,182.327 154.5,186.5 Z"/></g>
</svg>
