<?xml version="1.0" encoding="UTF-8"?>
<!DOCTYPE svg PUBLIC "-//W3C//DTD SVG 1.1//EN" "http://www.w3.org/Graphics/SVG/1.1/DTD/svg11.dtd">
<svg xmlns="http://www.w3.org/2000/svg" version="1.1" width="238px" height="240px" style="shape-rendering:geometricPrecision; text-rendering:geometricPrecision; image-rendering:optimizeQuality; fill-rule:evenodd; clip-rule:evenodd" xmlns:xlink="http://www.w3.org/1999/xlink">
<g><path style="opacity:0.964" fill="#697b07" d="M 99.5,-0.5 C 110.5,-0.5 121.5,-0.5 132.5,-0.5C 153.533,2.27882 172.2,10.2788 188.5,23.5C 188.973,24.9063 189.973,25.573 191.5,25.5C 193.525,27.1964 195.525,28.863 197.5,30.5C 199.215,32.8818 201.215,34.8818 203.5,36.5C 203.731,39.0632 205.065,40.7298 207.5,41.5C 207.5,43.5 208.5,44.5 210.5,44.5C 211.723,48.0495 213.723,51.0495 216.5,53.5C 218.128,58.0901 220.295,62.4235 223,66.5C 224.43,69.3527 225.263,72.3527 225.5,75.5C 225.337,77.8568 225.503,80.1902 226,82.5C 228.667,87.8091 230.334,93.4757 231,99.5C 231.667,109.167 231.667,118.833 231,128.5C 229.447,137.913 227.28,147.247 224.5,156.5C 221.482,163.199 218.482,169.866 215.5,176.5C 205.549,192.451 192.549,205.451 176.5,215.5C 174.181,215.992 172.181,216.992 170.5,218.5C 168.75,219.87 166.75,220.87 164.5,221.5C 162.033,221.755 160.033,222.755 158.5,224.5C 155.421,225.304 152.421,226.304 149.5,227.5C 133.963,230.152 118.297,231.152 102.5,230.5C 96.8976,229.35 91.2309,228.684 85.5,228.5C 50.2676,218.598 25.2676,196.932 10.5,163.5C 8.58283,154.754 5.91617,146.421 2.5,138.5C 1.47533,125.183 1.30867,111.849 2,98.5C 3.85547,92.7021 5.02214,86.7021 5.5,80.5C 6.35593,76.4299 7.5226,72.4299 9,68.5C 12.5637,61.2662 16.3971,54.2662 20.5,47.5C 23.973,45.3633 26.3064,42.3633 27.5,38.5C 30.1667,37.8333 31.8333,36.1667 32.5,33.5C 32.8333,32.5 33.5,31.8333 34.5,31.5C 36.5,31.5 37.5,30.5 37.5,28.5C 38.1667,28.1667 38.8333,27.8333 39.5,27.5C 42.1667,26.8333 43.8333,25.1667 44.5,22.5C 60.9303,10.3545 79.2636,2.6878 99.5,-0.5 Z"/></g>
<g><path style="opacity:0.008" fill="#0b0a00" d="M 188.5,23.5 C 190.027,23.427 191.027,24.0937 191.5,25.5C 189.973,25.573 188.973,24.9063 188.5,23.5 Z"/></g>
<g><path style="opacity:0.145" fill="#374007" d="M 44.5,22.5 C 43.8333,25.1667 42.1667,26.8333 39.5,27.5C 40.8333,25.5 42.5,23.8333 44.5,22.5 Z"/></g>
<g><path style="opacity:1" fill="#778c02" d="M 102.5,4.5 C 148.756,1.71764 184.923,19.051 211,56.5C 235.306,101.548 232.639,144.882 203,186.5C 167.888,225.238 125.388,236.404 75.5,220C 66.5869,214.713 57.5869,209.713 48.5,205C 6.87662,168.946 -4.62338,124.779 14,72.5C 31.7869,34.53 61.2869,11.8633 102.5,4.5 Z"/></g>
<g><path style="opacity:0.027" fill="#141300" d="M 37.5,28.5 C 37.5,30.5 36.5,31.5 34.5,31.5C 35.1667,30.1667 36.1667,29.1667 37.5,28.5 Z"/></g>
<g><path style="opacity:0.006" fill="#050400" d="M 197.5,30.5 C 200.5,31.5 202.5,33.5 203.5,36.5C 201.215,34.8818 199.215,32.8818 197.5,30.5 Z"/></g>
<g><path style="opacity:0.039" fill="#1e2004" d="M 32.5,33.5 C 31.8333,36.1667 30.1667,37.8333 27.5,38.5C 28.8333,36.5 30.5,34.8333 32.5,33.5 Z"/></g>
<g><path style="opacity:0.122" fill="#313409" d="M 203.5,36.5 C 205.587,37.5846 206.92,39.2512 207.5,41.5C 205.065,40.7298 203.731,39.0632 203.5,36.5 Z"/></g>
<g><path style="opacity:0.013" fill="#090800" d="M 207.5,41.5 C 208.833,42.1667 209.833,43.1667 210.5,44.5C 208.5,44.5 207.5,43.5 207.5,41.5 Z"/></g>
<g><path style="opacity:0.012" fill="#101000" d="M 27.5,38.5 C 26.3064,42.3633 23.973,45.3633 20.5,47.5C 22.4581,44.2085 24.7915,41.2085 27.5,38.5 Z"/></g>
<g><path style="opacity:0.024" fill="#010200" d="M 20.5,47.5 C 16.3971,54.2662 12.5637,61.2662 9,68.5C 7.5226,72.4299 6.35593,76.4299 5.5,80.5C 2.02261,88.3389 0.355943,96.6722 0.5,105.5C 0.166667,105.5 -0.166667,105.5 -0.5,105.5C -0.5,100.5 -0.5,95.5 -0.5,90.5C 3.16415,78.4851 7.99748,66.8185 14,55.5C 15.9461,52.5798 18.1128,49.9131 20.5,47.5 Z"/></g>
<g><path style="opacity:0.01" fill="#030600" d="M 210.5,44.5 C 213.241,46.9754 215.241,49.9754 216.5,53.5C 213.723,51.0495 211.723,48.0495 210.5,44.5 Z"/></g>
<g><path style="opacity:0.104" fill="#040500" d="M 216.5,53.5 C 234.925,82.0397 240.425,113.04 233,146.5C 221.209,191.625 193.042,221.125 148.5,235C 139.15,237.309 129.817,238.809 120.5,239.5C 117.5,239.5 114.5,239.5 111.5,239.5C 62.9502,236.134 28.1168,212.467 7,168.5C 3.9701,161.569 1.4701,154.569 -0.5,147.5C -0.5,133.5 -0.5,119.5 -0.5,105.5C -0.166667,105.5 0.166667,105.5 0.5,105.5C 0.333531,115.172 0.500198,124.839 1,134.5C 1.21003,136.058 1.71003,137.391 2.5,138.5C 2.56422,142.22 3.06422,145.886 4,149.5C 5.89611,154.385 8.06277,159.052 10.5,163.5C 25.2676,196.932 50.2676,218.598 85.5,228.5C 90.8443,230.633 96.5109,231.633 102.5,231.5C 118.545,233.622 134.212,232.289 149.5,227.5C 152.421,226.304 155.421,225.304 158.5,224.5C 160.967,224.245 162.967,223.245 164.5,221.5C 166.75,220.87 168.75,219.87 170.5,218.5C 173.089,218.539 175.089,217.539 176.5,215.5C 192.549,205.451 205.549,192.451 215.5,176.5C 230.596,152.413 236.096,126.079 232,97.5C 231.36,89.5867 229.194,82.2534 225.5,75.5C 225.263,72.3527 224.43,69.3527 223,66.5C 220.295,62.4235 218.128,58.0901 216.5,53.5 Z"/></g>
<g><path style="opacity:1" fill="#849c00" d="M 108.5,7.5 C 135.599,6.25683 159.933,13.7568 181.5,30C 183.433,30.2511 185.266,30.7511 187,31.5C 195.124,40.3861 202.79,49.7195 210,59.5C 213.718,68.9169 217.385,78.2502 221,87.5C 229.552,128.13 220.052,163.63 192.5,194C 159.597,222.14 121.93,230.973 79.5,220.5C 79.719,219.325 79.3857,218.325 78.5,217.5C 40.5005,202.335 17.6671,174.668 10,134.5C 6.80943,112.512 9.14276,91.1786 17,70.5C 29.5361,47.632 47.0361,29.7987 69.5,17C 82.2543,12.3941 95.2543,9.22744 108.5,7.5 Z"/></g>
<g><path style="opacity:1" fill="#93ac07" d="M 169.5,204.5 C 169.5,203.167 168.833,202.5 167.5,202.5C 168.301,200.958 168.634,199.292 168.5,197.5C 170.003,198.682 171.67,199.182 173.5,199C 210.418,170.906 223.585,134.072 213,88.5C 206.302,65.7294 193.469,47.2294 174.5,33C 173.207,32.51 171.873,32.3433 170.5,32.5C 168.517,31.5294 166.517,30.5294 164.5,29.5C 160.941,26.7622 157.274,24.2622 153.5,22C 150.454,21.2612 147.454,20.4279 144.5,19.5C 139.223,17.9536 133.89,16.6203 128.5,15.5C 120.344,14.3434 112.01,14.1768 103.5,15C 100.478,15.0984 97.8109,15.9318 95.5,17.5C 86.6887,19.0976 78.6887,22.431 71.5,27.5C 68.8333,28.8333 66.1667,30.1667 63.5,31.5C 59.2169,32.6473 55.5502,34.814 52.5,38C 13.2329,75.5138 5.73292,118.681 30,167.5C 36.3077,177.82 44.141,186.987 53.5,195C 55.8098,195.497 58.1432,195.663 60.5,195.5C 59.1667,197.833 59.1667,200.167 60.5,202.5C 59.6618,202.842 59.3284,203.508 59.5,204.5C 58.8333,204.167 58.1667,203.833 57.5,203.5C 50.9453,196.443 44.112,189.443 37,182.5C 9.1698,144.434 6.1698,104.434 28,62.5C 56.4515,20.2415 95.2849,5.40821 144.5,18C 178.807,27.3005 201.973,48.8005 214,82.5C 226.405,126.263 216.239,163.763 183.5,195C 178.949,198.434 174.282,201.601 169.5,204.5 Z"/></g>
<g><path style="opacity:1" fill="#8ca500" d="M 167.5,207.5 C 168.167,206.5 168.833,205.5 169.5,204.5C 174.282,201.601 178.949,198.434 183.5,195C 216.239,163.763 226.405,126.263 214,82.5C 201.973,48.8005 178.807,27.3005 144.5,18C 95.2849,5.40821 56.4515,20.2415 28,62.5C 6.1698,104.434 9.1698,144.434 37,182.5C 44.112,189.443 50.9453,196.443 57.5,203.5C 22.3709,177.323 7.53758,142.323 13,98.5C 25.4984,43.6718 59.8317,14.3385 116,10.5C 166.966,13.1221 200.633,38.4554 217,86.5C 227.648,131.217 215.815,168.717 181.5,199C 177.193,202.483 172.527,205.317 167.5,207.5 Z"/></g>
<g><path style="opacity:1" fill="#96b200" d="M 63.5,31.5 C 62.8333,32.5 62.1667,33.5 61.5,34.5C 58.3968,36.4233 55.3968,38.59 52.5,41C 50.2101,42.7772 48.5434,44.9438 47.5,47.5C 43.5293,50.7759 40.5293,54.7759 38.5,59.5C 37.1077,61.2726 35.941,63.2726 35,65.5C 33.9035,71.1351 33.0702,76.8018 32.5,82.5C 29.8758,83.0764 29.2092,84.4098 30.5,86.5C 28.3631,97.8718 33.1964,103.205 45,102.5C 49.5561,102.468 54.0561,101.968 58.5,101C 70.4572,97.5056 82.4572,94.1723 94.5,91C 108.797,89.464 123.13,89.1307 137.5,90C 151.498,92.9141 165.165,96.5807 178.5,101C 189.425,104.221 195.758,100.387 197.5,89.5C 198.773,88.9232 198.773,88.2565 197.5,87.5C 195.929,88.3094 194.262,88.6427 192.5,88.5C 194.396,87.5195 196.396,86.5195 198.5,85.5C 199.773,84.7435 199.773,84.0768 198.5,83.5C 198.979,76.1474 197.979,69.1474 195.5,62.5C 194.37,58.6166 192.37,55.2833 189.5,52.5C 188.581,49.9108 186.914,47.9108 184.5,46.5C 183.856,43.856 182.189,42.1894 179.5,41.5C 176.806,38.1395 173.806,35.1395 170.5,32.5C 171.873,32.3433 173.207,32.51 174.5,33C 193.469,47.2294 206.302,65.7294 213,88.5C 223.585,134.072 210.418,170.906 173.5,199C 171.67,199.182 170.003,198.682 168.5,197.5C 166.515,193.544 164.015,189.878 161,186.5C 160.112,181.382 160.445,176.382 162,171.5C 165.088,168.919 167.588,165.919 169.5,162.5C 171.886,160.656 171.886,158.489 169.5,156C 162.361,155.277 157.695,158.444 155.5,165.5C 154.459,171.085 151.125,174.251 145.5,175C 123.167,175.667 100.833,175.667 78.5,175C 76.4796,172.625 74.8129,170.125 73.5,167.5C 72.9553,165.407 72.122,163.407 71,161.5C 68.8762,160.378 67.0429,158.878 65.5,157C 62.8078,156.57 60.1411,156.737 57.5,157.5C 57.8912,162.938 60.3912,167.271 65,170.5C 66.122,172.407 66.9553,174.407 67.5,176.5C 68.1191,183.981 65.7857,190.315 60.5,195.5C 58.1432,195.663 55.8098,195.497 53.5,195C 44.141,186.987 36.3077,177.82 30,167.5C 5.73292,118.681 13.2329,75.5138 52.5,38C 55.5502,34.814 59.2169,32.6473 63.5,31.5 Z"/></g>
<g><path style="opacity:1" fill="#bbcd66" d="M 184.5,46.5 C 186.914,47.9108 188.581,49.9108 189.5,52.5C 190.219,54.7638 190.552,57.0971 190.5,59.5C 176.817,59.1675 163.15,59.5008 149.5,60.5C 149.291,61.086 148.957,61.586 148.5,62C 125.094,62.8221 101.761,62.6555 78.5,61.5C 77.448,61.3505 76.448,61.5172 75.5,62C 71.3237,65.9191 66.657,69.0857 61.5,71.5C 53.6772,70.6708 45.6772,70.1708 37.5,70C 36.9415,69.2753 36.6082,68.4419 36.5,67.5C 37.762,64.978 38.4287,62.3113 38.5,59.5C 40.5293,54.7759 43.5293,50.7759 47.5,47.5C 46.3195,49.6929 45.3195,52.0262 44.5,54.5C 92.5,55.8333 140.5,55.8333 188.5,54.5C 187.547,51.574 186.213,48.9074 184.5,46.5 Z"/></g>
<g><path style="opacity:1" fill="#c3d377" d="M 61.5,34.5 C 59.1663,37.6662 56.3329,40.3329 53,42.5C 52.51,43.7932 52.3433,45.1266 52.5,46.5C 95.1667,46.5 137.833,46.5 180.5,46.5C 180.371,44.7839 180.038,43.1172 179.5,41.5C 182.189,42.1894 183.856,43.856 184.5,46.5C 186.213,48.9074 187.547,51.574 188.5,54.5C 140.5,55.8333 92.5,55.8333 44.5,54.5C 45.3195,52.0262 46.3195,49.6929 47.5,47.5C 48.5434,44.9438 50.2101,42.7772 52.5,41C 55.3968,38.59 58.3968,36.4233 61.5,34.5 Z"/></g>
<g><path style="opacity:1" fill="#cad888" d="M 71.5,27.5 C 70.7225,30.1122 69.0559,31.9455 66.5,33C 98.5451,33.4827 130.378,33.9827 162,34.5C 163.509,33.9103 165.009,33.2436 166.5,32.5C 165.388,31.7348 164.721,30.7348 164.5,29.5C 166.517,30.5294 168.517,31.5294 170.5,32.5C 173.806,35.1395 176.806,38.1395 179.5,41.5C 180.038,43.1172 180.371,44.7839 180.5,46.5C 137.833,46.5 95.1667,46.5 52.5,46.5C 52.3433,45.1266 52.51,43.7932 53,42.5C 56.3329,40.3329 59.1663,37.6662 61.5,34.5C 62.1667,33.5 62.8333,32.5 63.5,31.5C 66.1667,30.1667 68.8333,28.8333 71.5,27.5 Z"/></g>
<g><path style="opacity:1" fill="#d1dd97" d="M 95.5,17.5 C 90.9228,19.4485 86.2562,21.4485 81.5,23.5C 80.7132,24.2421 80.0465,25.0754 79.5,26C 104.164,26.5 128.831,26.6666 153.5,26.5C 153.67,25.1779 153.337,24.0113 152.5,23C 150.302,22.6271 148.135,22.1271 146,21.5C 144.97,21.1639 144.47,20.4972 144.5,19.5C 147.454,20.4279 150.454,21.2612 153.5,22C 157.274,24.2622 160.941,26.7622 164.5,29.5C 164.721,30.7348 165.388,31.7348 166.5,32.5C 165.009,33.2436 163.509,33.9103 162,34.5C 130.378,33.9827 98.5451,33.4827 66.5,33C 69.0559,31.9455 70.7225,30.1122 71.5,27.5C 78.6887,22.431 86.6887,19.0976 95.5,17.5 Z"/></g>
<g><path style="opacity:1" fill="#d7e1a4" d="M 128.5,15.5 C 133.89,16.6203 139.223,17.9536 144.5,19.5C 144.47,20.4972 144.97,21.1639 146,21.5C 148.135,22.1271 150.302,22.6271 152.5,23C 153.337,24.0113 153.67,25.1779 153.5,26.5C 128.831,26.6666 104.164,26.5 79.5,26C 80.0465,25.0754 80.7132,24.2421 81.5,23.5C 86.2562,21.4485 90.9228,19.4485 95.5,17.5C 106.42,15.793 117.42,15.1264 128.5,15.5 Z"/></g>
<g><path style="opacity:1" fill="#b8c962" d="M 128.5,15.5 C 117.42,15.1264 106.42,15.793 95.5,17.5C 97.8109,15.9318 100.478,15.0984 103.5,15C 112.01,14.1768 120.344,14.3434 128.5,15.5 Z"/></g>
<g><path style="opacity:1" fill="#b7ca5e" d="M 189.5,52.5 C 192.37,55.2833 194.37,58.6166 195.5,62.5C 195.5,65.1667 195.5,67.8333 195.5,70.5C 185.652,70.1729 175.986,70.5062 166.5,71.5C 162.12,69.2999 158.12,66.4665 154.5,63C 153.552,62.5172 152.552,62.3505 151.5,62.5C 151.5,63.8333 151.5,65.1667 151.5,66.5C 150.778,66.0825 150.278,65.4158 150,64.5C 149.505,66.4727 149.338,68.4727 149.5,70.5C 126.167,70.5 102.833,70.5 79.5,70.5C 79.7947,68.2646 79.4614,66.2646 78.5,64.5C 78.5,63.5 78.5,62.5 78.5,61.5C 101.761,62.6555 125.094,62.8221 148.5,62C 148.957,61.586 149.291,61.086 149.5,60.5C 163.15,59.5008 176.817,59.1675 190.5,59.5C 190.552,57.0971 190.219,54.7638 189.5,52.5 Z"/></g>
<g><path style="opacity:1" fill="#aec14b" d="M 195.5,62.5 C 197.979,69.1474 198.979,76.1474 198.5,83.5C 190.979,82.5825 183.646,80.7492 176.5,78C 173.453,75.3756 170.119,73.209 166.5,71.5C 175.986,70.5062 185.652,70.1729 195.5,70.5C 195.5,67.8333 195.5,65.1667 195.5,62.5 Z"/></g>
<g><path style="opacity:1" fill="#afc34b" d="M 38.5,59.5 C 38.4287,62.3113 37.762,64.978 36.5,67.5C 36.6082,68.4419 36.9415,69.2753 37.5,70C 45.6772,70.1708 53.6772,70.6708 61.5,71.5C 53.0527,78.0977 43.3861,81.7644 32.5,82.5C 33.0702,76.8018 33.9035,71.1351 35,65.5C 35.941,63.2726 37.1077,61.2726 38.5,59.5 Z"/></g>
<g><path style="opacity:1" fill="#b2c64f" d="M 78.5,64.5 C 79.4614,66.2646 79.7947,68.2646 79.5,70.5C 102.833,70.5 126.167,70.5 149.5,70.5C 149.338,68.4727 149.505,66.4727 150,64.5C 150.278,65.4158 150.778,66.0825 151.5,66.5C 152.338,66.8417 152.672,67.5084 152.5,68.5C 151.903,68.7352 151.57,69.2352 151.5,70C 152.632,71.7645 153.632,73.5979 154.5,75.5C 141.517,76.8326 128.184,77.4992 114.5,77.5C 101.167,77.3333 87.8333,77.1667 74.5,77C 75.2524,76.3292 75.5858,75.4959 75.5,74.5C 76.0283,73.2794 76.695,72.1127 77.5,71C 76.9056,70.5357 76.2389,70.369 75.5,70.5C 75.9752,68.2163 76.9752,66.2163 78.5,64.5 Z"/></g>
<g><path style="opacity:1" fill="#506408" d="M 166.5,71.5 C 170.119,73.209 173.453,75.3756 176.5,78C 183.646,80.7492 190.979,82.5825 198.5,83.5C 199.773,84.0768 199.773,84.7435 198.5,85.5C 196.396,86.5195 194.396,87.5195 192.5,88.5C 175.303,89.235 161.97,82.5683 152.5,68.5C 152.672,67.5084 152.338,66.8417 151.5,66.5C 151.5,65.1667 151.5,63.8333 151.5,62.5C 152.552,62.3505 153.552,62.5172 154.5,63C 158.12,66.4665 162.12,69.2999 166.5,71.5 Z"/></g>
<g><path style="opacity:1" fill="#adc241" d="M 75.5,74.5 C 75.5858,75.4959 75.2524,76.3292 74.5,77C 87.8333,77.1667 101.167,77.3333 114.5,77.5C 128.184,77.4992 141.517,76.8326 154.5,75.5C 158.593,79.9294 163.259,83.596 168.5,86.5C 150.846,87.8329 132.846,88.4996 114.5,88.5C 96.5,88.3333 78.5,88.1667 60.5,88C 65.4658,83.508 70.4658,79.008 75.5,74.5 Z"/></g>
<g><path style="opacity:1" fill="#4e6106" d="M 78.5,61.5 C 78.5,62.5 78.5,63.5 78.5,64.5C 76.9752,66.2163 75.9752,68.2163 75.5,70.5C 63.7288,85.2311 48.7288,90.5644 30.5,86.5C 29.2092,84.4098 29.8758,83.0764 32.5,82.5C 43.3861,81.7644 53.0527,78.0977 61.5,71.5C 66.657,69.0857 71.3237,65.9191 75.5,62C 76.448,61.5172 77.448,61.3505 78.5,61.5 Z"/></g>
<g><path style="opacity:1" fill="#a6bf2d" d="M 75.5,70.5 C 76.2389,70.369 76.9056,70.5357 77.5,71C 76.695,72.1127 76.0283,73.2794 75.5,74.5C 70.4658,79.008 65.4658,83.508 60.5,88C 78.5,88.1667 96.5,88.3333 114.5,88.5C 132.846,88.4996 150.846,87.8329 168.5,86.5C 177.698,91.8502 187.365,92.8502 197.5,89.5C 195.758,100.387 189.425,104.221 178.5,101C 165.165,96.5807 151.498,92.9141 137.5,90C 123.13,89.1307 108.797,89.464 94.5,91C 82.4572,94.1723 70.4572,97.5056 58.5,101C 54.0561,101.968 49.5561,102.468 45,102.5C 33.1964,103.205 28.3631,97.8718 30.5,86.5C 48.7288,90.5644 63.7288,85.2311 75.5,70.5 Z"/></g>
<g><path style="opacity:1" fill="#b2cd2b" d="M 152.5,68.5 C 161.97,82.5683 175.303,89.235 192.5,88.5C 194.262,88.6427 195.929,88.3094 197.5,87.5C 198.773,88.2565 198.773,88.9232 197.5,89.5C 187.365,92.8502 177.698,91.8502 168.5,86.5C 163.259,83.596 158.593,79.9294 154.5,75.5C 153.632,73.5979 152.632,71.7645 151.5,70C 151.57,69.2352 151.903,68.7352 152.5,68.5 Z"/></g>
<g><path style="opacity:0.475" fill="#4d5b05" d="M 225.5,75.5 C 229.194,82.2534 231.36,89.5867 232,97.5C 236.096,126.079 230.596,152.413 215.5,176.5C 218.482,169.866 221.482,163.199 224.5,156.5C 227.28,147.247 229.447,137.913 231,128.5C 231.667,118.833 231.667,109.167 231,99.5C 230.334,93.4757 228.667,87.8091 226,82.5C 225.503,80.1902 225.337,77.8568 225.5,75.5 Z"/></g>
<g><path style="opacity:0.661" fill="#586706" d="M 5.5,80.5 C 5.02214,86.7021 3.85547,92.7021 2,98.5C 1.30867,111.849 1.47533,125.183 2.5,138.5C 1.71003,137.391 1.21003,136.058 1,134.5C 0.500198,124.839 0.333531,115.172 0.5,105.5C 0.355943,96.6722 2.02261,88.3389 5.5,80.5 Z"/></g>
<g><path style="opacity:1" fill="#5b791b" d="M 59.5,114.5 C 58.6765,116.455 58.5099,118.455 59,120.5C 64.0348,113.459 69.7014,112.793 76,118.5C 79.0538,130.433 74.5538,135.933 62.5,135C 63.3805,135.708 64.0472,136.542 64.5,137.5C 62.9826,137.489 61.8159,136.823 61,135.5C 56.8654,130.526 55.5321,124.86 57,118.5C 57.2004,116.68 58.0337,115.347 59.5,114.5 Z"/></g>
<g><path style="opacity:1" fill="#546a09" d="M 158.5,109.5 C 170.273,110.32 174.773,116.653 172,128.5C 169.502,135.345 164.669,138.512 157.5,138C 150.164,131.987 147.998,124.487 151,115.5C 153.134,112.847 155.634,110.847 158.5,109.5 Z"/></g>
<g><path style="opacity:1" fill="#5f8022" d="M 158.5,114.5 C 167.51,115.012 171.01,119.679 169,128.5C 164.688,135.5 159.688,136.166 154,130.5C 152.205,123.986 153.705,118.653 158.5,114.5 Z"/></g>
<g><path style="opacity:1" fill="#506508" d="M 64.5,137.5 C 64.0472,136.542 63.3805,135.708 62.5,135C 74.5538,135.933 79.0538,130.433 76,118.5C 69.7014,112.793 64.0348,113.459 59,120.5C 58.5099,118.455 58.6765,116.455 59.5,114.5C 66.9483,107.347 73.4483,108.347 79,117.5C 81.3438,125.964 78.8438,132.464 71.5,137C 69.1902,137.497 66.8568,137.663 64.5,137.5 Z"/></g>
<g><path style="opacity:0.816" fill="#4b5806" d="M 2.5,138.5 C 5.91617,146.421 8.58283,154.754 10.5,163.5C 8.06277,159.052 5.89611,154.385 4,149.5C 3.06422,145.886 2.56422,142.22 2.5,138.5 Z"/></g>
<g><path style="opacity:1" fill="#445902" d="M 73.5,167.5 C 74.5192,169.54 74.5192,171.54 73.5,173.5C 71.4816,172.187 70.3149,172.853 70,175.5C 69.3292,176.252 68.4959,176.586 67.5,176.5C 66.9553,174.407 66.122,172.407 65,170.5C 60.3912,167.271 57.8912,162.938 57.5,157.5C 60.1411,156.737 62.8078,156.57 65.5,157C 67.0429,158.878 68.8762,160.378 71,161.5C 72.122,163.407 72.9553,165.407 73.5,167.5 Z"/></g>
<g><path style="opacity:1" fill="#607600" d="M 169.5,162.5 C 170.493,157.325 168.493,155.491 163.5,157C 160.544,159.783 157.877,162.616 155.5,165.5C 157.695,158.444 162.361,155.277 169.5,156C 171.886,158.489 171.886,160.656 169.5,162.5 Z"/></g>
<g><path style="opacity:1" fill="#4c650a" d="M 169.5,162.5 C 167.588,165.919 165.088,168.919 162,171.5C 160.445,176.382 160.112,181.382 161,186.5C 164.015,189.878 166.515,193.544 168.5,197.5C 168.634,199.292 168.301,200.958 167.5,202.5C 165.119,203.83 162.786,203.664 160.5,202C 158.018,197.693 155.018,193.86 151.5,190.5C 150.292,189.766 148.959,189.433 147.5,189.5C 124.337,188.337 101.004,188.17 77.5,189C 74.2105,194.225 70.2105,198.892 65.5,203C 63.735,203.64 62.0683,203.473 60.5,202.5C 59.1667,200.167 59.1667,197.833 60.5,195.5C 65.7857,190.315 68.1191,183.981 67.5,176.5C 68.4959,176.586 69.3292,176.252 70,175.5C 70.3149,172.853 71.4816,172.187 73.5,173.5C 74.5192,171.54 74.5192,169.54 73.5,167.5C 74.8129,170.125 76.4796,172.625 78.5,175C 100.833,175.667 123.167,175.667 145.5,175C 151.125,174.251 154.459,171.085 155.5,165.5C 157.877,162.616 160.544,159.783 163.5,157C 168.493,155.491 170.493,157.325 169.5,162.5 Z"/></g>
<g><path style="opacity:1" fill="#b2cf0f" d="M 147.5,189.5 C 148.959,189.433 150.292,189.766 151.5,190.5C 151.631,191.376 151.298,192.043 150.5,192.5C 126.209,191.676 101.876,191.176 77.5,191C 100.683,189.511 124.017,189.011 147.5,189.5 Z"/></g>
<g><path style="opacity:1" fill="#97b201" d="M 147.5,189.5 C 124.017,189.011 100.683,189.511 77.5,191C 101.876,191.176 126.209,191.676 150.5,192.5C 151.298,192.043 151.631,191.376 151.5,190.5C 155.018,193.86 158.018,197.693 160.5,202C 162.786,203.664 165.119,203.83 167.5,202.5C 168.833,202.5 169.5,203.167 169.5,204.5C 168.833,205.5 168.167,206.5 167.5,207.5C 141.895,221.575 114.895,224.742 86.5,217C 76.6275,214.393 67.6275,210.226 59.5,204.5C 59.3284,203.508 59.6618,202.842 60.5,202.5C 62.0683,203.473 63.735,203.64 65.5,203C 70.2105,198.892 74.2105,194.225 77.5,189C 101.004,188.17 124.337,188.337 147.5,189.5 Z"/></g>
<g><path style="opacity:0.565" fill="#374106" d="M 176.5,215.5 C 175.089,217.539 173.089,218.539 170.5,218.5C 172.181,216.992 174.181,215.992 176.5,215.5 Z"/></g>
<g><path style="opacity:0.541" fill="#384306" d="M 164.5,221.5 C 162.967,223.245 160.967,224.245 158.5,224.5C 160.033,222.755 162.033,221.755 164.5,221.5 Z"/></g>
<g><path style="opacity:0.855" fill="#414c08" d="M 85.5,228.5 C 91.2309,228.684 96.8976,229.35 102.5,230.5C 102.5,230.833 102.5,231.167 102.5,231.5C 96.5109,231.633 90.8443,230.633 85.5,228.5 Z"/></g>
<g><path style="opacity:0.908" fill="#536107" d="M 149.5,227.5 C 134.212,232.289 118.545,233.622 102.5,231.5C 102.5,231.167 102.5,230.833 102.5,230.5C 118.297,231.152 133.963,230.152 149.5,227.5 Z"/></g>
</svg>
