<?xml version="1.0" encoding="UTF-8"?>
<!DOCTYPE svg PUBLIC "-//W3C//DTD SVG 1.1//EN" "http://www.w3.org/Graphics/SVG/1.1/DTD/svg11.dtd">
<svg xmlns="http://www.w3.org/2000/svg" version="1.1" width="238px" height="240px" style="shape-rendering:geometricPrecision; text-rendering:geometricPrecision; image-rendering:optimizeQuality; fill-rule:evenodd; clip-rule:evenodd" xmlns:xlink="http://www.w3.org/1999/xlink">
<g><path style="opacity:0.658" fill="#445174" d="M 104.5,4.5 C 118.167,4.5 131.833,4.5 145.5,4.5C 145.5,5.83333 145.5,7.16667 145.5,8.5C 132.301,6.78135 118.967,5.94802 105.5,6C 104.944,5.61742 104.611,5.11742 104.5,4.5 Z"/></g>
<g><path style="opacity:0.147" fill="#4d4f58" d="M 145.5,4.5 C 147.806,4.99255 150.139,5.32588 152.5,5.5C 152.5,6.5 152.5,7.5 152.5,8.5C 150.167,8.5 147.833,8.5 145.5,8.5C 145.5,7.16667 145.5,5.83333 145.5,4.5 Z"/></g>
<g><path style="opacity:0.784" fill="#244799" d="M 100.5,4.5 C 101.833,4.5 103.167,4.5 104.5,4.5C 104.611,5.11742 104.944,5.61742 105.5,6C 118.967,5.94802 132.301,6.78135 145.5,8.5C 147.833,8.5 150.167,8.5 152.5,8.5C 152.5,7.5 152.5,6.5 152.5,5.5C 153.167,5.5 153.833,5.5 154.5,5.5C 154.5,5.83333 154.5,6.16667 154.5,6.5C 153.438,8.23411 153.438,9.90078 154.5,11.5C 133.653,6.52369 112.653,6.19036 91.5,10.5C 93.2789,8.65649 95.6122,7.98983 98.5,8.5C 98.5271,6.80072 99.1938,5.46739 100.5,4.5 Z"/></g>
<g><path style="opacity:0.569" fill="#484a56" d="M 100.5,4.5 C 99.1938,5.46739 98.5271,6.80072 98.5,8.5C 95.6122,7.98983 93.2789,8.65649 91.5,10.5C 86.8333,11.1667 82.1667,11.8333 77.5,12.5C 77.5,13.5 77.5,14.5 77.5,15.5C 75.5168,15.1568 74.1834,15.8235 73.5,17.5C 71.8333,17.5 70.1667,17.5 68.5,17.5C 68.5,18.5 68.5,19.5 68.5,20.5C 66.6776,20.8308 65.0109,21.4975 63.5,22.5C 63.5,21.5 63.5,20.5 63.5,19.5C 66.0447,16.8945 69.0447,14.7279 72.5,13C 78.7269,11.0693 84.7269,8.73594 90.5,6C 93.8273,5.38973 97.1606,4.88973 100.5,4.5 Z"/></g>
<g><path style="opacity:1" fill="#336be2" d="M 154.5,11.5 C 158.427,12.5254 162.427,13.1921 166.5,13.5C 166.5,14.5 166.5,15.5 166.5,16.5C 168.718,16.6138 170.718,17.2804 172.5,18.5C 172.414,19.4959 172.748,20.3292 173.5,21C 176.368,22.383 179.368,23.2163 182.5,23.5C 182.281,24.675 182.614,25.675 183.5,26.5C 187.061,28.7788 190.727,30.7788 194.5,32.5C 197.147,35.7637 199.814,39.097 202.5,42.5C 199.886,42.7229 198.219,41.5562 197.5,39C 191.132,37.1229 186.465,33.2896 183.5,27.5C 177.86,25.388 172.527,22.5546 167.5,19C 166.207,18.51 164.873,18.3433 163.5,18.5C 156.761,16.2791 150.095,13.7791 143.5,11C 129.833,10.3333 116.167,10.3333 102.5,11C 100.934,11.6082 99.6002,12.4415 98.5,13.5C 96.8008,13.3398 95.1341,13.5065 93.5,14C 88.8435,15.7065 84.5102,17.8731 80.5,20.5C 79.1266,20.3433 77.7932,20.51 76.5,21C 73.3954,24.1934 69.7287,26.36 65.5,27.5C 60.2192,33.2361 54.0526,37.9027 47,41.5C 46.51,40.2068 46.3433,38.8734 46.5,37.5C 48.7834,37.3921 50.7834,36.5588 52.5,35C 56.0539,29.1047 61.0539,25.1047 67.5,23C 69.7632,21.383 71.7632,19.5497 73.5,17.5C 79.4455,14.855 85.4455,12.5217 91.5,10.5C 112.653,6.19036 133.653,6.52369 154.5,11.5 Z"/></g>
<g><path style="opacity:0.086" fill="#4d4c46" d="M 154.5,6.5 C 154.5,6.16667 154.5,5.83333 154.5,5.5C 157.775,7.36405 161.108,9.03071 164.5,10.5C 164.631,11.3764 164.298,12.0431 163.5,12.5C 162.833,11.5 162.167,10.5 161.5,9.5C 159.591,10.3482 157.591,10.6816 155.5,10.5C 155.768,8.90097 155.434,7.56764 154.5,6.5 Z"/></g>
<g><path style="opacity:1" fill="#6e9af9" d="M 163.5,18.5 C 162.833,18.5 162.167,18.5 161.5,18.5C 157.056,17.4833 152.723,16.1499 148.5,14.5C 143.853,13.704 139.186,13.0373 134.5,12.5C 122.543,10.9647 110.543,11.298 98.5,13.5C 99.6002,12.4415 100.934,11.6082 102.5,11C 116.167,10.3333 129.833,10.3333 143.5,11C 150.095,13.7791 156.761,16.2791 163.5,18.5 Z"/></g>
<g><path style="opacity:0.365" fill="#344980" d="M 91.5,10.5 C 85.4455,12.5217 79.4455,14.855 73.5,17.5C 74.1834,15.8235 75.5168,15.1568 77.5,15.5C 77.5,14.5 77.5,13.5 77.5,12.5C 82.1667,11.8333 86.8333,11.1667 91.5,10.5 Z"/></g>
<g><path style="opacity:0.471" fill="#304377" d="M 154.5,6.5 C 155.434,7.56764 155.768,8.90097 155.5,10.5C 157.591,10.6816 159.591,10.3482 161.5,9.5C 162.167,10.5 162.833,11.5 163.5,12.5C 164.298,12.0431 164.631,11.3764 164.5,10.5C 166.781,10.0773 168.448,10.744 169.5,12.5C 168.596,13.209 168.263,14.209 168.5,15.5C 172.716,15.6078 176.049,17.2745 178.5,20.5C 176.5,19.8333 174.5,19.1667 172.5,18.5C 170.718,17.2804 168.718,16.6138 166.5,16.5C 166.5,15.5 166.5,14.5 166.5,13.5C 162.427,13.1921 158.427,12.5254 154.5,11.5C 153.438,9.90078 153.438,8.23411 154.5,6.5 Z"/></g>
<g><path style="opacity:1" fill="#d3e1fd" d="M 134.5,12.5 C 139.186,13.0373 143.853,13.704 148.5,14.5C 148.5,15.5 148.5,16.5 148.5,17.5C 153.297,17.1256 153.964,17.7923 150.5,19.5C 145.804,29.7203 137.971,35.387 127,36.5C 122.73,35.7124 118.563,34.5458 114.5,33C 112.295,30.4598 109.795,28.2932 107,26.5C 104.977,22.3398 102.811,18.3398 100.5,14.5C 111.747,12.781 123.08,12.1143 134.5,12.5 Z"/></g>
<g><path style="opacity:1" fill="#9fbcf6" d="M 134.5,12.5 C 123.08,12.1143 111.747,12.781 100.5,14.5C 98.8333,15.1667 97.1667,15.8333 95.5,16.5C 91.9513,16.4392 88.6179,17.2725 85.5,19C 84.9781,19.5613 84.6448,20.228 84.5,21C 86.5243,26.04 88.5243,31.04 90.5,36C 90.1081,37.0105 89.4415,37.5105 88.5,37.5C 89.1702,39.8631 89.8368,42.1964 90.5,44.5C 89.6236,44.3691 88.9569,44.7025 88.5,45.5C 88.2732,49.8712 88.9398,54.2045 90.5,58.5C 88.7085,58.634 87.0418,58.3007 85.5,57.5C 84.4168,57.5394 83.4168,57.8728 82.5,58.5C 81.6816,56.8917 81.0149,55.2251 80.5,53.5C 76.8384,52.6872 73.1718,52.0206 69.5,51.5C 71.6074,50.5318 73.9407,50.1984 76.5,50.5C 76.41,48.3037 76.0767,46.137 75.5,44C 77.6183,41.1307 77.6183,38.1307 75.5,35C 76.1667,34.6667 76.8333,34.3333 77.5,34C 76.1853,30.9192 75.1853,27.7526 74.5,24.5C 76.249,22.744 78.249,21.4106 80.5,20.5C 84.5102,17.8731 88.8435,15.7065 93.5,14C 95.1341,13.5065 96.8008,13.3398 98.5,13.5C 110.543,11.298 122.543,10.9647 134.5,12.5 Z"/></g>
<g><path style="opacity:0.463" fill="#504b51" d="M 169.5,12.5 C 179.878,15.8621 188.878,21.5288 196.5,29.5C 195.957,29.56 195.624,29.8933 195.5,30.5C 196.612,31.2652 197.279,32.2652 197.5,33.5C 196.609,32.8902 195.609,32.5569 194.5,32.5C 192.94,29.7924 190.607,28.1257 187.5,27.5C 187.5,26.5 187.5,25.5 187.5,24.5C 184.371,23.4351 181.371,22.1018 178.5,20.5C 176.049,17.2745 172.716,15.6078 168.5,15.5C 168.263,14.209 168.596,13.209 169.5,12.5 Z"/></g>
<g><path style="opacity:0.98" fill="#274ca5" d="M 172.5,18.5 C 174.5,19.1667 176.5,19.8333 178.5,20.5C 181.371,22.1018 184.371,23.4351 187.5,24.5C 187.5,25.5 187.5,26.5 187.5,27.5C 190.607,28.1257 192.94,29.7924 194.5,32.5C 190.727,30.7788 187.061,28.7788 183.5,26.5C 182.614,25.675 182.281,24.675 182.5,23.5C 179.368,23.2163 176.368,22.383 173.5,21C 172.748,20.3292 172.414,19.4959 172.5,18.5 Z"/></g>
<g><path style="opacity:0.153" fill="#5d554a" d="M 63.5,19.5 C 63.5,20.5 63.5,21.5 63.5,22.5C 58.896,24.7269 54.896,27.7269 51.5,31.5C 49.0706,31.8844 46.7373,32.551 44.5,33.5C 49.1015,28.7463 54.1015,24.2463 59.5,20C 60.7932,19.51 62.1266,19.3433 63.5,19.5 Z"/></g>
<g><path style="opacity:0.467" fill="#4d5473" d="M 51.5,31.5 C 49.5867,33.2911 47.92,35.2911 46.5,37.5C 43.7906,40.1752 41.1239,42.8419 38.5,45.5C 40.9993,41.8348 42.9993,37.8348 44.5,33.5C 46.7373,32.551 49.0706,31.8844 51.5,31.5 Z"/></g>
<g><path style="opacity:1" fill="#2f52a9" d="M 73.5,17.5 C 71.7632,19.5497 69.7632,21.383 67.5,23C 61.0539,25.1047 56.0539,29.1047 52.5,35C 50.7834,36.5588 48.7834,37.3921 46.5,37.5C 47.92,35.2911 49.5867,33.2911 51.5,31.5C 54.896,27.7269 58.896,24.7269 63.5,22.5C 65.0109,21.4975 66.6776,20.8308 68.5,20.5C 68.5,19.5 68.5,18.5 68.5,17.5C 70.1667,17.5 71.8333,17.5 73.5,17.5 Z"/></g>
<g><path style="opacity:1" fill="#85aaf3" d="M 74.5,24.5 C 75.1853,27.7526 76.1853,30.9192 77.5,34C 76.8333,34.3333 76.1667,34.6667 75.5,35C 77.6183,38.1307 77.6183,41.1307 75.5,44C 76.0767,46.137 76.41,48.3037 76.5,50.5C 73.9407,50.1984 71.6074,50.5318 69.5,51.5C 66.1667,51.5 62.8333,51.5 59.5,51.5C 61.574,48.9055 63.7407,46.2389 66,43.5C 67.2923,39.3828 68.7923,35.3828 70.5,31.5C 69.91,30.2011 68.91,29.3678 67.5,29C 69.7212,27.2405 72.0546,25.7405 74.5,24.5 Z"/></g>
<g><path style="opacity:0.965" fill="#37529c" d="M 194.5,32.5 C 195.609,32.5569 196.609,32.8902 197.5,33.5C 199.781,37.449 202.781,40.7824 206.5,43.5C 208.098,45.6979 209.431,48.0313 210.5,50.5C 206.833,48.8333 204.167,46.1667 202.5,42.5C 199.814,39.097 197.147,35.7637 194.5,32.5 Z"/></g>
<g><path style="opacity:0.502" fill="#4e5163" d="M 197.5,33.5 C 199.143,33.4802 200.476,34.1468 201.5,35.5C 203.649,37.9579 205.316,40.6246 206.5,43.5C 202.781,40.7824 199.781,37.449 197.5,33.5 Z"/></g>
<g><path style="opacity:1" fill="#6b95ea" d="M 163.5,18.5 C 164.873,18.3433 166.207,18.51 167.5,19C 172.527,22.5546 177.86,25.388 183.5,27.5C 186.465,33.2896 191.132,37.1229 197.5,39C 198.219,41.5562 199.886,42.7229 202.5,42.5C 204.167,46.1667 206.833,48.8333 210.5,50.5C 212.659,55.603 211.659,56.9363 207.5,54.5C 204.14,55.5364 200.974,56.2031 198,56.5C 196.815,54.6228 195.815,52.6228 195,50.5C 193.599,52.1922 191.766,52.8588 189.5,52.5C 187.176,51.1412 185.51,49.1412 184.5,46.5C 183.675,45.6143 182.675,45.281 181.5,45.5C 181.888,41.448 182.555,37.448 183.5,33.5C 181.089,28.7548 177.423,25.4215 172.5,23.5C 170.938,23.2671 169.605,22.6005 168.5,21.5C 166.435,21.047 164.768,20.047 163.5,18.5 Z"/></g>
<g><path style="opacity:1" fill="#c6d7fa" d="M 100.5,14.5 C 102.811,18.3398 104.977,22.3398 107,26.5C 109.795,28.2932 112.295,30.4598 114.5,33C 118.563,34.5458 122.73,35.7124 127,36.5C 137.971,35.387 145.804,29.7203 150.5,19.5C 153.964,17.7923 153.297,17.1256 148.5,17.5C 148.5,16.5 148.5,15.5 148.5,14.5C 152.723,16.1499 157.056,17.4833 161.5,18.5C 162.116,20.4171 163.45,21.5838 165.5,22C 160.693,27.268 156.36,32.9347 152.5,39C 148.182,38.978 144.848,40.6447 142.5,44C 126.557,51.0599 112.724,47.8933 101,34.5C 97.9465,29.3987 95.1132,24.0654 92.5,18.5C 93.6016,17.8243 94.6016,17.1577 95.5,16.5C 97.1667,15.8333 98.8333,15.1667 100.5,14.5 Z"/></g>
<g><path style="opacity:1" fill="#89adf3" d="M 172.5,23.5 C 177.423,25.4215 181.089,28.7548 183.5,33.5C 182.555,37.448 181.888,41.448 181.5,45.5C 182.675,45.281 183.675,45.6143 184.5,46.5C 185.51,49.1412 187.176,51.1412 189.5,52.5C 186.214,51.7929 182.881,51.4595 179.5,51.5C 177.159,48.8239 176.492,45.8239 177.5,42.5C 176.311,41.5713 174.978,41.238 173.5,41.5C 173.477,39.4004 174.144,37.5671 175.5,36C 175.333,35.5 175.167,35 175,34.5C 174.107,35.7112 173.274,35.7112 172.5,34.5C 173.305,32.0846 174.305,29.7513 175.5,27.5C 173.712,26.7174 172.712,25.3841 172.5,23.5 Z"/></g>
<g><path style="opacity:1" fill="#6a96e7" d="M 80.5,20.5 C 78.249,21.4106 76.249,22.744 74.5,24.5C 72.0546,25.7405 69.7212,27.2405 67.5,29C 68.91,29.3678 69.91,30.2011 70.5,31.5C 68.7923,35.3828 67.2923,39.3828 66,43.5C 63.7407,46.2389 61.574,48.9055 59.5,51.5C 58.0998,52.1001 57.0998,53.1001 56.5,54.5C 55.1266,54.3433 53.7932,54.51 52.5,55C 50.0439,56.6169 47.5439,58.1169 45,59.5C 42.5806,57.4152 39.7472,56.4152 36.5,56.5C 39.6849,54.8401 43.0182,53.1734 46.5,51.5C 48.3633,48.2876 51.03,46.2876 54.5,45.5C 55.64,42.9752 56.3067,40.3085 56.5,37.5C 57.8221,37.33 58.9887,37.6634 60,38.5C 60.3333,36.8333 60.6667,35.1667 61,33.5C 63.1019,31.9052 64.6019,29.9052 65.5,27.5C 69.7287,26.36 73.3954,24.1934 76.5,21C 77.7932,20.51 79.1266,20.3433 80.5,20.5 Z"/></g>
<g><path style="opacity:1" fill="#b8ccf5" d="M 95.5,16.5 C 94.6016,17.1577 93.6016,17.8243 92.5,18.5C 95.1132,24.0654 97.9465,29.3987 101,34.5C 112.724,47.8933 126.557,51.0599 142.5,44C 144.848,40.6447 148.182,38.978 152.5,39C 156.36,32.9347 160.693,27.268 165.5,22C 163.45,21.5838 162.116,20.4171 161.5,18.5C 162.167,18.5 162.833,18.5 163.5,18.5C 164.768,20.047 166.435,21.047 168.5,21.5C 168.626,23.1998 169.293,24.6998 170.5,26C 168.353,32.1458 166.686,38.3125 165.5,44.5C 162.784,44.6785 160.117,45.1785 157.5,46C 153.507,50.4974 148.507,53.164 142.5,54C 132.833,54.6667 123.167,54.6667 113.5,54C 109.724,51.8914 106.224,49.3914 103,46.5C 98.847,45.7102 94.6803,45.0436 90.5,44.5C 89.8368,42.1964 89.1702,39.8631 88.5,37.5C 89.4415,37.5105 90.1081,37.0105 90.5,36C 88.5243,31.04 86.5243,26.04 84.5,21C 84.6448,20.228 84.9781,19.5613 85.5,19C 88.6179,17.2725 91.9513,16.4392 95.5,16.5 Z"/></g>
<g><path style="opacity:1" fill="#5783dc" d="M 65.5,27.5 C 64.6019,29.9052 63.1019,31.9052 61,33.5C 60.6667,35.1667 60.3333,36.8333 60,38.5C 58.9887,37.6634 57.8221,37.33 56.5,37.5C 56.3067,40.3085 55.64,42.9752 54.5,45.5C 51.03,46.2876 48.3633,48.2876 46.5,51.5C 43.0182,53.1734 39.6849,54.8401 36.5,56.5C 35.713,58.1042 34.3797,58.7709 32.5,58.5C 32.5,57.5 32.5,56.5 32.5,55.5C 35.056,52.6108 36.7227,49.2775 37.5,45.5C 37.8333,45.5 38.1667,45.5 38.5,45.5C 41.1239,42.8419 43.7906,40.1752 46.5,37.5C 46.3433,38.8734 46.51,40.2068 47,41.5C 54.0526,37.9027 60.2192,33.2361 65.5,27.5 Z"/></g>
<g><path style="opacity:0.706" fill="#5c586a" d="M 206.5,43.5 C 207.5,43.5 208.5,43.5 209.5,43.5C 211.983,47.1331 213.983,51.1331 215.5,55.5C 216.5,55.5 217.5,55.5 218.5,55.5C 219.833,59.8333 221.167,64.1667 222.5,68.5C 221.5,67.8333 220.5,67.1667 219.5,66.5C 219.294,63.7616 218.294,61.4282 216.5,59.5C 214.462,56.4741 212.462,53.4741 210.5,50.5C 209.431,48.0313 208.098,45.6979 206.5,43.5 Z"/></g>
<g><path style="opacity:0.227" fill="#6e583f" d="M 44.5,33.5 C 42.9993,37.8348 40.9993,41.8348 38.5,45.5C 38.1667,45.5 37.8333,45.5 37.5,45.5C 35.071,46.2648 33.7377,47.9315 33.5,50.5C 32.5,50.5 31.5,50.5 30.5,50.5C 30.6602,52.1992 30.4935,53.8659 30,55.5C 27.3845,58.8293 25.5512,62.496 24.5,66.5C 24.5,67.1667 24.5,67.8333 24.5,68.5C 22.684,70.1184 21.3507,72.1184 20.5,74.5C 20.1667,74.5 19.8333,74.5 19.5,74.5C 21.036,69.558 22.3693,64.558 23.5,59.5C 28.7535,49.3164 35.7535,40.6497 44.5,33.5 Z"/></g>
<g><path style="opacity:1" fill="#9ab8f1" d="M 168.5,21.5 C 169.605,22.6005 170.938,23.2671 172.5,23.5C 172.712,25.3841 173.712,26.7174 175.5,27.5C 174.305,29.7513 173.305,32.0846 172.5,34.5C 173.274,35.7112 174.107,35.7112 175,34.5C 175.167,35 175.333,35.5 175.5,36C 174.144,37.5671 173.477,39.4004 173.5,41.5C 174.978,41.238 176.311,41.5713 177.5,42.5C 176.492,45.8239 177.159,48.8239 179.5,51.5C 176.941,51.1984 174.607,51.5318 172.5,52.5C 171.833,52.5 171.167,52.5 170.5,52.5C 168.833,52.5 167.167,52.5 165.5,52.5C 165.52,50.857 164.853,49.5237 163.5,48.5C 164.63,47.3777 165.297,46.0443 165.5,44.5C 166.686,38.3125 168.353,32.1458 170.5,26C 169.293,24.6998 168.626,23.1998 168.5,21.5 Z"/></g>
<g><path style="opacity:1" fill="#abc0e4" d="M 90.5,44.5 C 94.6803,45.0436 98.847,45.7102 103,46.5C 106.224,49.3914 109.724,51.8914 113.5,54C 123.167,54.6667 132.833,54.6667 142.5,54C 148.507,53.164 153.507,50.4974 157.5,46C 160.117,45.1785 162.784,44.6785 165.5,44.5C 165.297,46.0443 164.63,47.3777 163.5,48.5C 164.853,49.5237 165.52,50.857 165.5,52.5C 167.167,52.5 168.833,52.5 170.5,52.5C 170.5,53.1667 170.167,53.5 169.5,53.5C 168.417,53.5394 167.417,53.8728 166.5,54.5C 165.023,57.6737 162.857,60.3403 160,62.5C 160.409,64.2251 160.242,65.8918 159.5,67.5C 157.199,68.3249 154.865,68.9916 152.5,69.5C 152.5,68.5 152.5,67.5 152.5,66.5C 150.131,66.8511 147.797,67.0178 145.5,67C 146.308,66.6924 146.975,66.1924 147.5,65.5C 141.964,64.5494 136.464,64.8827 131,66.5C 124.128,66.0645 117.128,65.3978 110,64.5C 108.381,65.3773 107.215,66.3773 106.5,67.5C 102.342,66.7927 98.1752,66.126 94,65.5C 92.6739,65.7549 91.6739,66.4216 91,67.5C 87.6122,65.7403 86.4456,66.407 87.5,69.5C 84.2186,69.5797 81.2186,68.913 78.5,67.5C 79.657,65.8624 80.8236,64.1957 82,62.5C 83.0113,63.3366 84.1779,63.67 85.5,63.5C 85.5,61.5 85.5,59.5 85.5,57.5C 87.0418,58.3007 88.7085,58.634 90.5,58.5C 88.9398,54.2045 88.2732,49.8712 88.5,45.5C 88.9569,44.7025 89.6236,44.3691 90.5,44.5 Z"/></g>
<g><path style="opacity:1" fill="#767a8d" d="M 170.5,52.5 C 171.167,52.5 171.833,52.5 172.5,52.5C 177.032,52.1818 181.366,52.5151 185.5,53.5C 180.821,53.3342 176.155,53.5008 171.5,54C 170.643,54.6891 169.977,55.5224 169.5,56.5C 172.977,57.1672 176.311,57.8339 179.5,58.5C 175.818,58.6653 172.152,58.4986 168.5,58C 167.419,56.2894 167.752,54.7894 169.5,53.5C 170.167,53.5 170.5,53.1667 170.5,52.5 Z"/></g>
<g><path style="opacity:1" fill="#432210" d="M 191.5,56.5 C 192.605,57.6005 193.938,58.2671 195.5,58.5C 196.373,60.8863 197.873,62.8863 200,64.5C 201.309,66.7467 201.975,69.0801 202,71.5C 195.98,65.4747 189.147,60.6414 181.5,57C 184.817,56.5017 188.15,56.335 191.5,56.5 Z"/></g>
<g><path style="opacity:1" fill="#6b666b" d="M 55.5,65.5 C 52.808,67.8623 50.1413,70.1956 47.5,72.5C 46.0019,75.3309 43.6685,76.9975 40.5,77.5C 40.5,75.8333 40.5,74.1667 40.5,72.5C 41.2756,69.4496 42.9423,67.1163 45.5,65.5C 44.8717,68.09 43.705,70.4234 42,72.5C 41.3333,73.8333 41.3333,75.1667 42,76.5C 44.6961,72.6393 47.8627,69.306 51.5,66.5C 53.6365,64.1996 55.9698,62.0329 58.5,60C 62.9083,59.2837 66.9083,57.7837 70.5,55.5C 65.8442,54.4312 61.1776,54.4312 56.5,55.5C 56.5,55.1667 56.5,54.8333 56.5,54.5C 63.8071,53.2359 71.1405,53.2359 78.5,54.5C 79.7111,55.7202 79.7111,56.8869 78.5,58C 69.6714,57.4436 62.0047,59.9436 55.5,65.5 Z"/></g>
<g><path style="opacity:0.925" fill="#5c5c77" d="M 37.5,45.5 C 36.7227,49.2775 35.056,52.6108 32.5,55.5C 30.8722,58.1412 29.2056,60.8079 27.5,63.5C 26.7281,64.6935 25.7281,65.6935 24.5,66.5C 25.5512,62.496 27.3845,58.8293 30,55.5C 30.4935,53.8659 30.6602,52.1992 30.5,50.5C 31.5,50.5 32.5,50.5 33.5,50.5C 33.7377,47.9315 35.071,46.2648 37.5,45.5 Z"/></g>
<g><path style="opacity:1" fill="#452311" d="M 51.5,66.5 C 49.9557,66.7031 48.6223,67.3698 47.5,68.5C 46.3861,67.277 46.2195,65.9437 47,64.5C 50.0379,61.6306 52.8712,58.6306 55.5,55.5C 55.8333,55.5 56.1667,55.5 56.5,55.5C 61.1776,54.4312 65.8442,54.4312 70.5,55.5C 66.9083,57.7837 62.9083,59.2837 58.5,60C 55.9698,62.0329 53.6365,64.1996 51.5,66.5 Z"/></g>
<g><path style="opacity:1" fill="#6a8bc8" d="M 210.5,50.5 C 212.462,53.4741 214.462,56.4741 216.5,59.5C 216.5,61.1667 216.5,62.8333 216.5,64.5C 214.61,64.7035 213.11,64.0368 212,62.5C 209.162,63.6753 206.329,63.5086 203.5,62C 200.833,60 198.167,58 195.5,56C 192.607,54.8512 189.607,54.3512 186.5,54.5C 186.5,53.8333 186.167,53.5 185.5,53.5C 181.366,52.5151 177.032,52.1818 172.5,52.5C 174.607,51.5318 176.941,51.1984 179.5,51.5C 182.881,51.4595 186.214,51.7929 189.5,52.5C 191.766,52.8588 193.599,52.1922 195,50.5C 195.815,52.6228 196.815,54.6228 198,56.5C 200.974,56.2031 204.14,55.5364 207.5,54.5C 211.659,56.9363 212.659,55.603 210.5,50.5 Z"/></g>
<g><path style="opacity:1" fill="#6a89bf" d="M 56.5,54.5 C 56.5,54.8333 56.5,55.1667 56.5,55.5C 56.1667,55.5 55.8333,55.5 55.5,55.5C 53.2459,56.4151 51.2459,57.7484 49.5,59.5C 46.7404,60.423 44.7404,62.2563 43.5,65C 38.2203,66.0946 32.887,66.5946 27.5,66.5C 27.5,65.5 27.5,64.5 27.5,63.5C 29.2056,60.8079 30.8722,58.1412 32.5,55.5C 32.5,56.5 32.5,57.5 32.5,58.5C 34.3797,58.7709 35.713,58.1042 36.5,56.5C 39.7472,56.4152 42.5806,57.4152 45,59.5C 47.5439,58.1169 50.0439,56.6169 52.5,55C 53.7932,54.51 55.1266,54.3433 56.5,54.5 Z"/></g>
<g><path style="opacity:1" fill="#738bb4" d="M 186.5,54.5 C 189.607,54.3512 192.607,54.8512 195.5,56C 198.167,58 200.833,60 203.5,62C 206.329,63.5086 209.162,63.6753 212,62.5C 213.11,64.0368 214.61,64.7035 216.5,64.5C 216.5,62.8333 216.5,61.1667 216.5,59.5C 218.294,61.4282 219.294,63.7616 219.5,66.5C 220.038,68.1172 220.371,69.7839 220.5,71.5C 215.823,71.1655 211.156,70.6655 206.5,70C 204.92,67.7393 203.254,65.5727 201.5,63.5C 199.5,61.8333 197.5,60.1667 195.5,58.5C 193.938,58.2671 192.605,57.6005 191.5,56.5C 189.833,55.8333 188.167,55.1667 186.5,54.5 Z"/></g>
<g><path style="opacity:1" fill="#768cac" d="M 49.5,59.5 C 47.7484,61.2459 46.4151,63.2459 45.5,65.5C 42.9423,67.1163 41.2756,69.4496 40.5,72.5C 39.2794,73.0283 38.1127,73.695 37,74.5C 36.6667,74.1667 36.3333,73.8333 36,73.5C 31.9341,74.5814 27.7674,75.2481 23.5,75.5C 23.448,73.0971 23.7814,70.7638 24.5,68.5C 24.5,67.8333 24.5,67.1667 24.5,66.5C 25.7281,65.6935 26.7281,64.6935 27.5,63.5C 27.5,64.5 27.5,65.5 27.5,66.5C 32.887,66.5946 38.2203,66.0946 43.5,65C 44.7404,62.2563 46.7404,60.423 49.5,59.5 Z"/></g>
<g><path style="opacity:1" fill="#86a1ca" d="M 59.5,51.5 C 62.8333,51.5 66.1667,51.5 69.5,51.5C 73.1718,52.0206 76.8384,52.6872 80.5,53.5C 81.0149,55.2251 81.6816,56.8917 82.5,58.5C 83.4168,57.8728 84.4168,57.5394 85.5,57.5C 85.5,59.5 85.5,61.5 85.5,63.5C 84.1779,63.67 83.0113,63.3366 82,62.5C 80.8236,64.1957 79.657,65.8624 78.5,67.5C 71.9172,68.3469 65.4172,68.6803 59,68.5C 57.0503,68.2926 55.8836,67.2926 55.5,65.5C 62.0047,59.9436 69.6714,57.4436 78.5,58C 79.7111,56.8869 79.7111,55.7202 78.5,54.5C 71.1405,53.2359 63.8071,53.2359 56.5,54.5C 57.0998,53.1001 58.0998,52.1001 59.5,51.5 Z"/></g>
<g><path style="opacity:1" fill="#5a4439" d="M 55.5,55.5 C 52.8712,58.6306 50.0379,61.6306 47,64.5C 46.2195,65.9437 46.3861,67.277 47.5,68.5C 48.6223,67.3698 49.9557,66.7031 51.5,66.5C 47.8627,69.306 44.6961,72.6393 42,76.5C 41.3333,75.1667 41.3333,73.8333 42,72.5C 43.705,70.4234 44.8717,68.09 45.5,65.5C 46.4151,63.2459 47.7484,61.2459 49.5,59.5C 51.2459,57.7484 53.2459,56.4151 55.5,55.5 Z"/></g>
<g><path style="opacity:1" fill="#a7b9d0" d="M 152.5,69.5 C 152.5,70.1667 152.5,70.8333 152.5,71.5C 130.715,74.6139 109.048,73.9473 87.5,69.5C 86.4456,66.407 87.6122,65.7403 91,67.5C 91.6739,66.4216 92.6739,65.7549 94,65.5C 98.1752,66.126 102.342,66.7927 106.5,67.5C 107.215,66.3773 108.381,65.3773 110,64.5C 117.128,65.3978 124.128,66.0645 131,66.5C 136.464,64.8827 141.964,64.5494 147.5,65.5C 146.975,66.1924 146.308,66.6924 145.5,67C 147.797,67.0178 150.131,66.8511 152.5,66.5C 152.5,67.5 152.5,68.5 152.5,69.5 Z"/></g>
<g><path style="opacity:1" fill="#91a9ca" d="M 169.5,53.5 C 167.752,54.7894 167.419,56.2894 168.5,58C 172.152,58.4986 175.818,58.6653 179.5,58.5C 184.128,60.8139 188.795,63.1473 193.5,65.5C 193.877,67.258 194.544,68.9246 195.5,70.5C 195.167,70.8333 194.833,71.1667 194.5,71.5C 180.582,70.6704 166.582,70.6704 152.5,71.5C 152.5,70.8333 152.5,70.1667 152.5,69.5C 154.865,68.9916 157.199,68.3249 159.5,67.5C 160.242,65.8918 160.409,64.2251 160,62.5C 162.857,60.3403 165.023,57.6737 166.5,54.5C 167.417,53.8728 168.417,53.5394 169.5,53.5 Z"/></g>
<g><path style="opacity:0.698" fill="#765b3c" d="M 196.5,29.5 C 203.82,34.9871 210.32,41.3204 216,48.5C 218.755,52.7385 221.255,57.0718 223.5,61.5C 224.525,65.4274 225.192,69.4274 225.5,73.5C 224.728,72.3065 223.728,71.3065 222.5,70.5C 222.5,69.8333 222.5,69.1667 222.5,68.5C 221.167,64.1667 219.833,59.8333 218.5,55.5C 217.5,55.5 216.5,55.5 215.5,55.5C 213.983,51.1331 211.983,47.1331 209.5,43.5C 208.5,43.5 207.5,43.5 206.5,43.5C 205.316,40.6246 203.649,37.9579 201.5,35.5C 200.476,34.1468 199.143,33.4802 197.5,33.5C 197.279,32.2652 196.612,31.2652 195.5,30.5C 195.624,29.8933 195.957,29.56 196.5,29.5 Z"/></g>
<g><path style="opacity:1" fill="#5d4940" d="M 185.5,53.5 C 186.167,53.5 186.5,53.8333 186.5,54.5C 188.167,55.1667 189.833,55.8333 191.5,56.5C 188.15,56.335 184.817,56.5017 181.5,57C 189.147,60.6414 195.98,65.4747 202,71.5C 201.975,69.0801 201.309,66.7467 200,64.5C 197.873,62.8863 196.373,60.8863 195.5,58.5C 197.5,60.1667 199.5,61.8333 201.5,63.5C 202.088,66.0631 203.088,68.3964 204.5,70.5C 204.821,71.8175 205.154,73.1508 205.5,74.5C 205.253,75.7133 204.586,76.38 203.5,76.5C 200.899,72.2294 197.566,68.5628 193.5,65.5C 188.795,63.1473 184.128,60.8139 179.5,58.5C 176.311,57.8339 172.977,57.1672 169.5,56.5C 169.977,55.5224 170.643,54.6891 171.5,54C 176.155,53.5008 180.821,53.3342 185.5,53.5 Z"/></g>
<g><path style="opacity:1" fill="#98abbb" d="M 55.5,65.5 C 55.8836,67.2926 57.0503,68.2926 59,68.5C 65.4172,68.6803 71.9172,68.3469 78.5,67.5C 81.2186,68.913 84.2186,69.5797 87.5,69.5C 109.048,73.9473 130.715,74.6139 152.5,71.5C 166.582,70.6704 180.582,70.6704 194.5,71.5C 194.833,71.1667 195.167,70.8333 195.5,70.5C 194.544,68.9246 193.877,67.258 193.5,65.5C 197.566,68.5628 200.899,72.2294 203.5,76.5C 203.5,76.8333 203.5,77.1667 203.5,77.5C 193.316,78.4598 183.149,78.7932 173,78.5C 170.908,78.121 168.908,77.4543 167,76.5C 161.252,78.0107 155.752,77.344 150.5,74.5C 142.858,75.343 135.191,76.0097 127.5,76.5C 114.909,75.4308 102.409,74.7641 90,74.5C 89.0053,75.0659 88.172,75.7326 87.5,76.5C 81.619,76.2909 75.7857,75.6242 70,74.5C 62.607,75.064 55.2737,75.3973 48,75.5C 47.5172,74.552 47.3505,73.552 47.5,72.5C 50.1413,70.1956 52.808,67.8623 55.5,65.5 Z"/></g>
<g><path style="opacity:1" fill="#808c9d" d="M 201.5,63.5 C 203.254,65.5727 204.92,67.7393 206.5,70C 211.156,70.6655 215.823,71.1655 220.5,71.5C 220.371,69.7839 220.038,68.1172 219.5,66.5C 220.5,67.1667 221.5,67.8333 222.5,68.5C 222.5,69.1667 222.5,69.8333 222.5,70.5C 223.219,72.7638 223.552,75.0971 223.5,77.5C 217.797,77.6252 212.13,77.2919 206.5,76.5C 206.946,73.9899 206.28,71.9899 204.5,70.5C 203.088,68.3964 202.088,66.0631 201.5,63.5 Z"/></g>
<g><path style="opacity:1" fill="#92a0a4" d="M 24.5,68.5 C 23.7814,70.7638 23.448,73.0971 23.5,75.5C 27.7674,75.2481 31.9341,74.5814 36,73.5C 36.3333,73.8333 36.6667,74.1667 37,74.5C 38.1127,73.695 39.2794,73.0283 40.5,72.5C 40.5,74.1667 40.5,75.8333 40.5,77.5C 43.6685,76.9975 46.0019,75.3309 47.5,72.5C 47.3505,73.552 47.5172,74.552 48,75.5C 55.2737,75.3973 62.607,75.064 70,74.5C 75.7857,75.6242 81.619,76.2909 87.5,76.5C 89.7463,77.2096 92.0796,77.7096 94.5,78C 91.7493,78.9428 89.0826,79.7761 86.5,80.5C 81.3589,80.6773 76.0256,80.8439 70.5,81C 66.0294,82.0717 61.5294,82.9051 57,83.5C 51.7634,82.0076 46.43,81.0076 41,80.5C 34.2619,81.4208 27.4286,81.7541 20.5,81.5C 20.5,79.1667 20.5,76.8333 20.5,74.5C 21.3507,72.1184 22.684,70.1184 24.5,68.5 Z"/></g>
<g><path style="opacity:1" fill="#a4b1b5" d="M 203.5,77.5 C 198.217,79.4125 192.55,80.7458 186.5,81.5C 174.465,81.149 162.631,81.149 151,81.5C 148.942,80.0416 146.609,79.3749 144,79.5C 131.825,80.7943 119.825,80.7943 108,79.5C 105.965,80.6014 103.798,81.268 101.5,81.5C 96.5338,80.6695 91.5338,80.3362 86.5,80.5C 89.0826,79.7761 91.7493,78.9428 94.5,78C 92.0796,77.7096 89.7463,77.2096 87.5,76.5C 88.172,75.7326 89.0053,75.0659 90,74.5C 102.409,74.7641 114.909,75.4308 127.5,76.5C 135.191,76.0097 142.858,75.343 150.5,74.5C 155.752,77.344 161.252,78.0107 167,76.5C 168.908,77.4543 170.908,78.121 173,78.5C 183.149,78.7932 193.316,78.4598 203.5,77.5 Z"/></g>
<g><path style="opacity:1" fill="#919894" d="M 204.5,70.5 C 206.28,71.9899 206.946,73.9899 206.5,76.5C 212.13,77.2919 217.797,77.6252 223.5,77.5C 223.552,75.0971 223.219,72.7638 222.5,70.5C 223.728,71.3065 224.728,72.3065 225.5,73.5C 226.15,75.4352 226.483,77.4352 226.5,79.5C 226.662,81.5273 226.495,83.5273 226,85.5C 224.989,86.3366 223.822,86.67 222.5,86.5C 221.833,85.8333 221.167,85.1667 220.5,84.5C 217.764,82.9212 214.764,81.5879 211.5,80.5C 206.553,81.2826 201.553,81.7826 196.5,82C 195.584,82.3742 194.75,82.8742 194,83.5C 191.393,82.8767 188.893,82.21 186.5,81.5C 192.55,80.7458 198.217,79.4125 203.5,77.5C 203.5,77.1667 203.5,76.8333 203.5,76.5C 204.586,76.38 205.253,75.7133 205.5,74.5C 205.154,73.1508 204.821,71.8175 204.5,70.5 Z"/></g>
<g><path style="opacity:1" fill="#a5ada2" d="M 186.5,81.5 C 188.893,82.21 191.393,82.8767 194,83.5C 194.75,82.8742 195.584,82.3742 196.5,82C 201.553,81.7826 206.553,81.2826 211.5,80.5C 214.764,81.5879 217.764,82.9212 220.5,84.5C 214.353,85.4383 208.02,85.4383 201.5,84.5C 196.522,85.3278 191.522,85.9944 186.5,86.5C 174.608,83.9812 162.775,83.9812 151,86.5C 147.265,85.5128 143.432,84.8461 139.5,84.5C 133.468,85.6844 127.468,85.6844 121.5,84.5C 117.862,85.2472 114.195,85.9138 110.5,86.5C 95.4759,84.4116 80.4759,84.4116 65.5,86.5C 54.1825,86.2653 43.0158,84.9319 32,82.5C 29.4762,83.1043 26.9762,83.771 24.5,84.5C 22.517,84.1852 21.1837,83.1852 20.5,81.5C 27.4286,81.7541 34.2619,81.4208 41,80.5C 46.43,81.0076 51.7634,82.0076 57,83.5C 61.5294,82.9051 66.0294,82.0717 70.5,81C 76.0256,80.8439 81.3589,80.6773 86.5,80.5C 91.5338,80.3362 96.5338,80.6695 101.5,81.5C 103.798,81.268 105.965,80.6014 108,79.5C 119.825,80.7943 131.825,80.7943 144,79.5C 146.609,79.3749 148.942,80.0416 151,81.5C 162.631,81.149 174.465,81.149 186.5,81.5 Z"/></g>
<g><path style="opacity:1" fill="#a4a383" d="M 19.5,74.5 C 19.8333,74.5 20.1667,74.5 20.5,74.5C 20.5,76.8333 20.5,79.1667 20.5,81.5C 21.1837,83.1852 22.517,84.1852 24.5,84.5C 26.9762,83.771 29.4762,83.1043 32,82.5C 43.0158,84.9319 54.1825,86.2653 65.5,86.5C 70.3165,87.3261 75.3165,87.8261 80.5,88C 82.2487,89.2915 84.082,90.4582 86,91.5C 89.0469,91.0712 92.2136,91.0712 95.5,91.5C 95.5,92.5 95.5,93.5 95.5,94.5C 93.1046,93.6365 90.7713,93.6365 88.5,94.5C 89.6302,95.6223 90.2969,96.9557 90.5,98.5C 87.2804,95.1169 83.6138,92.2835 79.5,90C 73.4651,88.8927 67.7985,89.7261 62.5,92.5C 60.9382,92.7329 59.6049,93.3995 58.5,94.5C 57.7375,93.7321 56.7375,93.2321 55.5,93C 44.6079,92.5853 33.9412,92.752 23.5,93.5C 23.6107,92.8826 23.944,92.3826 24.5,92C 22.5273,91.5045 20.5273,91.3379 18.5,91.5C 18.5,90.1667 18.5,88.8333 18.5,87.5C 18.5865,83.1434 18.9198,78.81 19.5,74.5 Z"/></g>
<g><path style="opacity:1" fill="#b0b297" d="M 220.5,84.5 C 221.167,85.1667 221.833,85.8333 222.5,86.5C 223.087,87.7666 223.087,88.7666 222.5,89.5C 214.638,87.1276 206.804,87.1276 199,89.5C 195.874,88.8978 192.707,88.5645 189.5,88.5C 186.41,88.5217 183.743,89.1883 181.5,90.5C 180.833,90.5 180.167,90.5 179.5,90.5C 179.082,89.7784 178.416,89.2784 177.5,89C 174.167,88.3333 170.833,88.3333 167.5,89C 164.333,90.6888 161.333,92.5221 158.5,94.5C 158.209,93.3509 157.376,92.6842 156,92.5C 143.193,93.235 130.36,93.5684 117.5,93.5C 110.101,92.9489 102.768,92.2822 95.5,91.5C 92.2136,91.0712 89.0469,91.0712 86,91.5C 84.082,90.4582 82.2487,89.2915 80.5,88C 75.3165,87.8261 70.3165,87.3261 65.5,86.5C 80.4759,84.4116 95.4759,84.4116 110.5,86.5C 114.195,85.9138 117.862,85.2472 121.5,84.5C 127.468,85.6844 133.468,85.6844 139.5,84.5C 143.432,84.8461 147.265,85.5128 151,86.5C 162.775,83.9812 174.608,83.9812 186.5,86.5C 191.522,85.9944 196.522,85.3278 201.5,84.5C 208.02,85.4383 214.353,85.4383 220.5,84.5 Z"/></g>
<g><path style="opacity:0.98" fill="#8f693c" d="M 23.5,59.5 C 22.3693,64.558 21.036,69.558 19.5,74.5C 18.9198,78.81 18.5865,83.1434 18.5,87.5C 17.7321,88.2625 17.2321,89.2625 17,90.5C 16.7216,89.5842 16.2216,88.9175 15.5,88.5C 15.6361,85.65 15.9695,82.8166 16.5,80C 16.3917,78.3189 15.7251,77.1522 14.5,76.5C 16.7198,70.3925 19.7198,64.7259 23.5,59.5 Z"/></g>
<g><path style="opacity:1" fill="#aaa67f" d="M 226.5,79.5 C 228.217,82.8448 228.884,86.5115 228.5,90.5C 227.77,92.045 226.437,92.8784 224.5,93C 219.483,93.5898 214.483,93.4231 209.5,92.5C 203.279,94.102 196.946,94.7687 190.5,94.5C 190.768,96.099 190.434,97.4324 189.5,98.5C 187.14,95.4728 184.473,92.8062 181.5,90.5C 183.743,89.1883 186.41,88.5217 189.5,88.5C 192.707,88.5645 195.874,88.8978 199,89.5C 206.804,87.1276 214.638,87.1276 222.5,89.5C 223.087,88.7666 223.087,87.7666 222.5,86.5C 223.822,86.67 224.989,86.3366 226,85.5C 226.495,83.5273 226.662,81.5273 226.5,79.5 Z"/></g>
<g><path style="opacity:1" fill="#291408" d="M 90.5,98.5 C 91.4201,102.102 92.0867,105.769 92.5,109.5C 91.658,114.179 89.9913,118.512 87.5,122.5C 84.2837,123.555 81.2837,125.055 78.5,127C 75.5,127.667 72.5,127.667 69.5,127C 66.1853,125.962 63.1853,124.462 60.5,122.5C 59.8333,122.167 59.1667,121.833 58.5,121.5C 58.0113,120.005 57.3446,118.671 56.5,117.5C 56.1667,116.167 55.8333,114.833 55.5,113.5C 54.4018,105.297 56.7351,98.2967 62.5,92.5C 67.7985,89.7261 73.4651,88.8927 79.5,90C 83.6138,92.2835 87.2804,95.1169 90.5,98.5 Z"/></g>
<g><path style="opacity:1" fill="#bcb787" d="M 95.5,91.5 C 102.768,92.2822 110.101,92.9489 117.5,93.5C 130.36,93.5684 143.193,93.235 156,92.5C 157.376,92.6842 158.209,93.3509 158.5,94.5C 157.4,95.6049 156.733,96.9382 156.5,98.5C 155.833,98.8333 155.167,99.1667 154.5,99.5C 154.53,98.5028 154.03,97.8361 153,97.5C 151.208,96.9633 149.375,96.6299 147.5,96.5C 129.167,97.7713 110.834,97.7713 92.5,96.5C 92.5,97.5 92.5,98.5 92.5,99.5C 91.8333,99.1667 91.1667,98.8333 90.5,98.5C 90.2969,96.9557 89.6302,95.6223 88.5,94.5C 90.7713,93.6365 93.1046,93.6365 95.5,94.5C 95.5,93.5 95.5,92.5 95.5,91.5 Z"/></g>
<g><path style="opacity:1" fill="#6b5e45" d="M 179.5,90.5 C 170.498,89.6106 162.831,92.2773 156.5,98.5C 156.733,96.9382 157.4,95.6049 158.5,94.5C 161.333,92.5221 164.333,90.6888 167.5,89C 170.833,88.3333 174.167,88.3333 177.5,89C 178.416,89.2784 179.082,89.7784 179.5,90.5 Z"/></g>
<g><path style="opacity:1" fill="#524032" d="M 179.5,90.5 C 180.167,90.5 180.833,90.5 181.5,90.5C 184.473,92.8062 187.14,95.4728 189.5,98.5C 189.5,98.8333 189.5,99.1667 189.5,99.5C 188.185,98.5244 186.852,97.5244 185.5,96.5C 185.295,103.215 181.961,106.048 175.5,105C 172.928,101.974 172.928,99.1407 175.5,96.5C 176.152,95.2749 177.319,94.6083 179,94.5C 180.436,94.5589 181.769,94.8922 183,95.5C 183.167,95.1667 183.333,94.8333 183.5,94.5C 182.311,93.5713 180.978,93.238 179.5,93.5C 179.5,92.5 179.5,91.5 179.5,90.5 Z"/></g>
<g><path style="opacity:0.95" fill="#946427" d="M 223.5,61.5 C 230.869,71.908 235.202,83.5747 236.5,96.5C 234.92,99.1818 233.754,102.182 233,105.5C 232.392,103.846 231.892,102.179 231.5,100.5C 231.664,97.8127 231.497,95.146 231,92.5C 230.667,92.8333 230.333,93.1667 230,93.5C 229.768,92.2625 229.268,91.2625 228.5,90.5C 228.884,86.5115 228.217,82.8448 226.5,79.5C 226.483,77.4352 226.15,75.4352 225.5,73.5C 225.192,69.4274 224.525,65.4274 223.5,61.5 Z"/></g>
<g><path style="opacity:1" fill="#baac6a" d="M 228.5,90.5 C 229.268,91.2625 229.768,92.2625 230,93.5C 230.333,93.1667 230.667,92.8333 231,92.5C 231.497,95.146 231.664,97.8127 231.5,100.5C 231.167,100.5 230.833,100.5 230.5,100.5C 226.515,99.5729 222.515,99.0729 218.5,99C 219.252,99.6708 219.586,100.504 219.5,101.5C 213.119,102.509 206.786,103.842 200.5,105.5C 198.488,105.16 196.488,104.827 194.5,104.5C 194.324,107.727 193.657,110.727 192.5,113.5C 192.665,109.818 192.499,106.152 192,102.5C 191.292,101.619 190.458,100.953 189.5,100.5C 189.5,100.167 189.5,99.8333 189.5,99.5C 189.5,99.1667 189.5,98.8333 189.5,98.5C 190.434,97.4324 190.768,96.099 190.5,94.5C 196.946,94.7687 203.279,94.102 209.5,92.5C 214.483,93.4231 219.483,93.5898 224.5,93C 226.437,92.8784 227.77,92.045 228.5,90.5 Z"/></g>
<g><path style="opacity:1" fill="#b29159" d="M 18.5,87.5 C 18.5,88.8333 18.5,90.1667 18.5,91.5C 20.5273,91.3379 22.5273,91.5045 24.5,92C 23.944,92.3826 23.6107,92.8826 23.5,93.5C 22.4861,95.5739 21.4861,97.5739 20.5,99.5C 18.0968,99.393 16.2635,100.393 15,102.5C 14.6174,101.944 14.1174,101.611 13.5,101.5C 15.2783,97.4347 15.9449,93.1014 15.5,88.5C 16.2216,88.9175 16.7216,89.5842 17,90.5C 17.2321,89.2625 17.7321,88.2625 18.5,87.5 Z"/></g>
<g><path style="opacity:1" fill="#bdb36e" d="M 58.5,94.5 C 57.5202,97.1161 56.0202,99.4494 54,101.5C 53.502,104.482 53.3354,107.482 53.5,110.5C 52.8007,108.444 51.8007,106.444 50.5,104.5C 49.0615,105.063 47.5615,105.397 46,105.5C 40.379,104.042 34.7124,102.709 29,101.5C 26.813,101.788 24.6463,102.122 22.5,102.5C 21.4489,101.778 20.7822,100.778 20.5,99.5C 21.4861,97.5739 22.4861,95.5739 23.5,93.5C 33.9412,92.752 44.6079,92.5853 55.5,93C 56.7375,93.2321 57.7375,93.7321 58.5,94.5 Z"/></g>
<g><path style="opacity:1" fill="#c5b97a" d="M 154.5,99.5 C 153.833,101.167 153.167,102.833 152.5,104.5C 151.732,103.737 151.232,102.737 151,101.5C 132.613,102.64 114.279,102.64 96,101.5C 94.9614,102.244 94.4614,103.244 94.5,104.5C 94.5,106.833 94.5,109.167 94.5,111.5C 94.6716,112.492 94.3382,113.158 93.5,113.5C 93.5628,108.797 93.2295,104.13 92.5,99.5C 92.5,98.5 92.5,97.5 92.5,96.5C 110.834,97.7713 129.167,97.7713 147.5,96.5C 149.375,96.6299 151.208,96.9633 153,97.5C 154.03,97.8361 154.53,98.5028 154.5,99.5 Z"/></g>
<g><path style="opacity:1" fill="#ccc6c3" d="M 175.5,96.5 C 181.589,94.0864 183.755,96.0864 182,102.5C 175.423,105.088 173.256,103.088 175.5,96.5 Z"/></g>
<g><path style="opacity:1" fill="#271205" d="M 179.5,90.5 C 179.5,91.5 179.5,92.5 179.5,93.5C 180.978,93.238 182.311,93.5713 183.5,94.5C 183.333,94.8333 183.167,95.1667 183,95.5C 181.769,94.8922 180.436,94.5589 179,94.5C 177.319,94.6083 176.152,95.2749 175.5,96.5C 172.928,99.1407 172.928,101.974 175.5,105C 181.961,106.048 185.295,103.215 185.5,96.5C 186.852,97.5244 188.185,98.5244 189.5,99.5C 189.5,99.8333 189.5,100.167 189.5,100.5C 191.384,103.901 191.884,107.567 191,111.5C 189.342,115.169 187.842,118.835 186.5,122.5C 184.718,123.991 183.052,125.658 181.5,127.5C 180.167,127.5 178.833,127.5 177.5,127.5C 171.943,127.847 166.61,127.18 161.5,125.5C 160.167,123.833 158.833,122.167 157.5,120.5C 155.917,116.661 154.917,112.661 154.5,108.5C 154.55,105.024 155.217,101.69 156.5,98.5C 162.831,92.2773 170.498,89.6106 179.5,90.5 Z"/></g>
<g><path style="opacity:1" fill="#ccc6c2" d="M 84.5,98.5 C 86.8333,104.833 84.8333,106.833 78.5,104.5C 76.5684,100.726 77.7351,98.3931 82,97.5C 83.0698,97.528 83.9032,97.8614 84.5,98.5 Z"/></g>
<g><path style="opacity:1" fill="#c49b4a" d="M 230.5,100.5 C 230.5,103.167 230.5,105.833 230.5,108.5C 228.958,107.699 227.292,107.366 225.5,107.5C 224.952,105.468 223.619,104.468 221.5,104.5C 221.573,102.973 220.906,101.973 219.5,101.5C 219.586,100.504 219.252,99.6708 218.5,99C 222.515,99.0729 226.515,99.5729 230.5,100.5 Z"/></g>
<g><path style="opacity:1" fill="#cfbe6f" d="M 152.5,104.5 C 152.5,105.833 152.5,107.167 152.5,108.5C 150.108,107.287 147.441,106.621 144.5,106.5C 132.493,106.384 120.66,106.718 109,107.5C 103.96,107.055 99.1265,106.055 94.5,104.5C 94.4614,103.244 94.9614,102.244 96,101.5C 114.279,102.64 132.613,102.64 151,101.5C 151.232,102.737 151.732,103.737 152.5,104.5 Z"/></g>
<g><path style="opacity:1" fill="#7e7169" d="M 84.5,98.5 C 87.7772,100.177 88.2772,102.51 86,105.5C 84.9383,106.097 83.7716,106.43 82.5,106.5C 80.6455,106.66 79.3121,105.993 78.5,104.5C 84.8333,106.833 86.8333,104.833 84.5,98.5 Z"/></g>
<g><path style="opacity:1" fill="#cfb655" d="M 53.5,110.5 C 53.2852,112.179 53.9519,113.179 55.5,113.5C 55.8333,114.833 56.1667,116.167 56.5,117.5C 54.1756,116.413 52.3422,114.747 51,112.5C 50.6667,112.833 50.3333,113.167 50,113.5C 45.7398,112.577 41.9064,110.743 38.5,108C 34.5,107.333 30.5,107.333 26.5,108C 25.695,109.113 25.0283,110.279 24.5,111.5C 23.8333,111.5 23.1667,111.5 22.5,111.5C 20.6203,111.771 19.287,111.104 18.5,109.5C 18.5,107.833 18.5,106.167 18.5,104.5C 20.1993,104.473 21.5326,103.806 22.5,102.5C 24.6463,102.122 26.813,101.788 29,101.5C 34.7124,102.709 40.379,104.042 46,105.5C 47.5615,105.397 49.0615,105.063 50.5,104.5C 51.8007,106.444 52.8007,108.444 53.5,110.5 Z"/></g>
<g><path style="opacity:1" fill="#826e37" d="M 156.5,98.5 C 155.217,101.69 154.55,105.024 154.5,108.5C 154.917,112.661 155.917,116.661 157.5,120.5C 156.272,119.694 155.272,118.694 154.5,117.5C 153.071,114.692 152.405,111.692 152.5,108.5C 152.5,107.167 152.5,105.833 152.5,104.5C 153.167,102.833 153.833,101.167 154.5,99.5C 155.167,99.1667 155.833,98.8333 156.5,98.5 Z"/></g>
<g><path style="opacity:1" fill="#8b7942" d="M 62.5,92.5 C 56.7351,98.2967 54.4018,105.297 55.5,113.5C 53.9519,113.179 53.2852,112.179 53.5,110.5C 53.3354,107.482 53.502,104.482 54,101.5C 56.0202,99.4494 57.5202,97.1161 58.5,94.5C 59.6049,93.3995 60.9382,92.7329 62.5,92.5 Z"/></g>
<g><path style="opacity:1" fill="#6a5626" d="M 90.5,98.5 C 91.1667,98.8333 91.8333,99.1667 92.5,99.5C 93.2295,104.13 93.5628,108.797 93.5,113.5C 92.2768,117.049 90.2768,120.049 87.5,122.5C 89.9913,118.512 91.658,114.179 92.5,109.5C 92.0867,105.769 91.4201,102.102 90.5,98.5 Z"/></g>
<g><path style="opacity:1" fill="#d8c262" d="M 94.5,104.5 C 99.1265,106.055 103.96,107.055 109,107.5C 120.66,106.718 132.493,106.384 144.5,106.5C 147.441,106.621 150.108,107.287 152.5,108.5C 152.405,111.692 153.071,114.692 154.5,117.5C 152.125,115.934 150.958,113.601 151,110.5C 150.5,111 150,111.5 149.5,112C 146.475,112.361 143.475,112.861 140.5,113.5C 126.859,112.701 113.192,112.201 99.5,112C 97.9808,110.782 96.8141,109.282 96,107.5C 95.79,109.058 95.29,110.391 94.5,111.5C 94.5,109.167 94.5,106.833 94.5,104.5 Z"/></g>
<g><path style="opacity:1" fill="#d3bb52" d="M 219.5,101.5 C 220.906,101.973 221.573,102.973 221.5,104.5C 220.024,107.218 218.357,109.884 216.5,112.5C 213.524,113.73 210.524,113.73 207.5,112.5C 202.432,113.942 197.432,115.442 192.5,117C 191.364,118.145 190.364,119.312 189.5,120.5C 189.716,117.744 190.716,115.41 192.5,113.5C 193.657,110.727 194.324,107.727 194.5,104.5C 196.488,104.827 198.488,105.16 200.5,105.5C 206.786,103.842 213.119,102.509 219.5,101.5 Z"/></g>
<g><path style="opacity:1" fill="#ce9438" d="M 20.5,99.5 C 20.7822,100.778 21.4489,101.778 22.5,102.5C 21.5326,103.806 20.1993,104.473 18.5,104.5C 18.5,106.167 18.5,107.833 18.5,109.5C 17.5386,111.265 17.2053,113.265 17.5,115.5C 16.5,115.5 15.5,115.5 14.5,115.5C 14.1667,115.5 13.8333,115.5 13.5,115.5C 13.5,114.5 13.5,113.5 13.5,112.5C 13.5,108.833 13.5,105.167 13.5,101.5C 14.1174,101.611 14.6174,101.944 15,102.5C 16.2635,100.393 18.0968,99.393 20.5,99.5 Z"/></g>
<g><path style="opacity:1" fill="#dcbf4b" d="M 56.5,117.5 C 57.3446,118.671 58.0113,120.005 58.5,121.5C 56.8679,120.554 55.2012,119.554 53.5,118.5C 52.5318,119.489 51.3651,120.156 50,120.5C 46.7852,119.143 43.6186,117.643 40.5,116C 38.4325,115.313 36.4325,115.48 34.5,116.5C 32.8067,114.973 30.9734,113.64 29,112.5C 27.2507,113.553 25.7507,113.22 24.5,111.5C 25.0283,110.279 25.695,109.113 26.5,108C 30.5,107.333 34.5,107.333 38.5,108C 41.9064,110.743 45.7398,112.577 50,113.5C 50.3333,113.167 50.6667,112.833 51,112.5C 52.3422,114.747 54.1756,116.413 56.5,117.5 Z"/></g>
<g><path style="opacity:1" fill="#59461c" d="M 189.5,100.5 C 190.458,100.953 191.292,101.619 192,102.5C 192.499,106.152 192.665,109.818 192.5,113.5C 190.716,115.41 189.716,117.744 189.5,120.5C 188.5,121.167 187.5,121.833 186.5,122.5C 187.842,118.835 189.342,115.169 191,111.5C 191.884,107.567 191.384,103.901 189.5,100.5 Z"/></g>
<g><path style="opacity:1" fill="#e4c753" d="M 154.5,117.5 C 155.272,118.694 156.272,119.694 157.5,120.5C 158.833,122.167 160.167,123.833 161.5,125.5C 159.167,124.167 156.833,122.833 154.5,121.5C 154.539,120.244 154.039,119.244 153,118.5C 152.804,120.286 151.971,121.619 150.5,122.5C 131.645,122.487 112.812,121.821 94,120.5C 91.0223,121.99 88.1889,123.657 85.5,125.5C 86.1667,124.5 86.8333,123.5 87.5,122.5C 90.2768,120.049 92.2768,117.049 93.5,113.5C 94.3382,113.158 94.6716,112.492 94.5,111.5C 95.29,110.391 95.79,109.058 96,107.5C 96.8141,109.282 97.9808,110.782 99.5,112C 113.192,112.201 126.859,112.701 140.5,113.5C 143.475,112.861 146.475,112.361 149.5,112C 150,111.5 150.5,111 151,110.5C 150.958,113.601 152.125,115.934 154.5,117.5 Z"/></g>
<g><path style="opacity:0.596" fill="#9a6313" d="M 14.5,76.5 C 15.7251,77.1522 16.3917,78.3189 16.5,80C 15.9695,82.8166 15.6361,85.65 15.5,88.5C 15.9449,93.1014 15.2783,97.4347 13.5,101.5C 13.5,105.167 13.5,108.833 13.5,112.5C 12.8341,117.155 12.5007,121.988 12.5,127C 12.5975,132.612 13.2641,138.112 14.5,143.5C 14.4841,145.516 13.4841,146.516 11.5,146.5C 11.7148,144.821 11.0481,143.821 9.5,143.5C 7.43853,128.625 6.93853,113.625 8,98.5C 9.77108,91.1585 11.9377,83.8252 14.5,76.5 Z"/></g>
<g><path style="opacity:1" fill="#ddbc42" d="M 221.5,104.5 C 223.619,104.468 224.952,105.468 225.5,107.5C 225.062,107.435 224.728,107.601 224.5,108C 225.523,110.449 226.023,112.949 226,115.5C 225.667,115.833 225.333,116.167 225,116.5C 222.962,114.227 220.795,114.227 218.5,116.5C 218.217,115.711 217.717,115.044 217,114.5C 213.899,114.805 211.066,116.305 208.5,119C 205.06,119.649 201.727,120.482 198.5,121.5C 196.9,121.449 195.4,121.116 194,120.5C 189.735,122.714 185.569,125.048 181.5,127.5C 183.052,125.658 184.718,123.991 186.5,122.5C 187.5,121.833 188.5,121.167 189.5,120.5C 190.364,119.312 191.364,118.145 192.5,117C 197.432,115.442 202.432,113.942 207.5,112.5C 210.524,113.73 213.524,113.73 216.5,112.5C 218.357,109.884 220.024,107.218 221.5,104.5 Z"/></g>
<g><path style="opacity:1" fill="#e5c541" d="M 22.5,111.5 C 23.1667,111.5 23.8333,111.5 24.5,111.5C 25.7507,113.22 27.2507,113.553 29,112.5C 30.9734,113.64 32.8067,114.973 34.5,116.5C 36.4325,115.48 38.4325,115.313 40.5,116C 43.6186,117.643 46.7852,119.143 50,120.5C 51.3651,120.156 52.5318,119.489 53.5,118.5C 55.2012,119.554 56.8679,120.554 58.5,121.5C 59.1667,121.833 59.8333,122.167 60.5,122.5C 62.2752,125.211 64.6085,127.211 67.5,128.5C 65.712,128.785 64.0453,128.452 62.5,127.5C 61.5,125.833 60.1667,124.5 58.5,123.5C 57.7492,124.376 57.2492,125.376 57,126.5C 56.3333,125.167 55.6667,123.833 55,122.5C 54.6667,123.5 54.3333,124.5 54,125.5C 49.2313,122.906 44.2313,122.239 39,123.5C 37.2856,122.924 36.1189,121.757 35.5,120C 34.2161,119.316 33.0495,119.483 32,120.5C 31.2917,119.619 30.4584,118.953 29.5,118.5C 29.189,117.522 28.5223,116.855 27.5,116.5C 22.0809,118.415 20.4142,116.748 22.5,111.5 Z"/></g>
<g><path style="opacity:1" fill="#fbd138" d="M 218.5,116.5 C 217.032,117.779 216.365,119.446 216.5,121.5C 214.122,122.692 212.122,124.359 210.5,126.5C 209.914,126.291 209.414,125.957 209,125.5C 206.667,128.167 204.333,130.833 202,133.5C 199.676,144.151 195.676,154.151 190,163.5C 186.109,166.956 182.442,170.623 179,174.5C 178.228,181.052 176.561,187.385 174,193.5C 172.961,194.71 171.794,195.71 170.5,196.5C 171.5,194.5 172.5,192.5 173.5,190.5C 175.466,186.057 175.966,181.39 175,176.5C 172.685,172.362 169.852,168.695 166.5,165.5C 165.457,162.944 163.79,160.777 161.5,159C 155.394,154.95 149.061,151.45 142.5,148.5C 141.737,147.732 140.737,147.232 139.5,147C 127.167,146.333 114.833,146.333 102.5,147C 96.8154,148.836 91.8154,151.67 87.5,155.5C 85.7356,156.326 84.4023,157.659 83.5,159.5C 81.9826,159.511 80.8159,160.177 80,161.5C 78.2226,164.059 76.7226,166.726 75.5,169.5C 70.7147,174.366 69.3813,180.033 71.5,186.5C 71.3379,188.527 71.5045,190.527 72,192.5C 74.0396,194.37 75.8729,196.37 77.5,198.5C 76.8333,198.5 76.1667,198.5 75.5,198.5C 71.72,194.572 68.72,190.239 66.5,185.5C 65.8951,182.873 65.3951,180.207 65,177.5C 48.4151,163.471 37.4151,146.471 32,126.5C 31.9386,123.723 30.772,121.723 28.5,120.5C 28.8333,119.833 29.1667,119.167 29.5,118.5C 30.4584,118.953 31.2917,119.619 32,120.5C 33.0495,119.483 34.2161,119.316 35.5,120C 36.1189,121.757 37.2856,122.924 39,123.5C 44.2313,122.239 49.2313,122.906 54,125.5C 54.3333,124.5 54.6667,123.5 55,122.5C 55.6667,123.833 56.3333,125.167 57,126.5C 57.2492,125.376 57.7492,124.376 58.5,123.5C 60.1667,124.5 61.5,125.833 62.5,127.5C 64.0453,128.452 65.712,128.785 67.5,128.5C 67.6107,129.117 67.944,129.617 68.5,130C 73.7308,130.982 78.7308,130.482 83.5,128.5C 85.2362,129.425 87.0695,130.092 89,130.5C 94.7283,130.597 100.395,130.264 106,129.5C 108.092,129.879 110.092,130.546 112,131.5C 118.959,131.565 125.959,130.898 133,129.5C 141.339,129.659 149.506,129.993 157.5,130.5C 157.833,130.167 158.167,129.833 158.5,129.5C 156.703,127.045 155.37,124.378 154.5,121.5C 156.833,122.833 159.167,124.167 161.5,125.5C 162.659,127.25 164.326,128.25 166.5,128.5C 166.611,129.117 166.944,129.617 167.5,130C 171.541,130.827 175.541,130.66 179.5,129.5C 180.243,128.818 180.909,128.151 181.5,127.5C 185.569,125.048 189.735,122.714 194,120.5C 195.4,121.116 196.9,121.449 198.5,121.5C 201.727,120.482 205.06,119.649 208.5,119C 211.066,116.305 213.899,114.805 217,114.5C 217.717,115.044 218.217,115.711 218.5,116.5 Z"/></g>
<g><path style="opacity:1" fill="#f4ce42" d="M 154.5,121.5 C 155.37,124.378 156.703,127.045 158.5,129.5C 158.167,129.833 157.833,130.167 157.5,130.5C 149.506,129.993 141.339,129.659 133,129.5C 125.959,130.898 118.959,131.565 112,131.5C 110.092,130.546 108.092,129.879 106,129.5C 100.395,130.264 94.7283,130.597 89,130.5C 87.0695,130.092 85.2362,129.425 83.5,128.5C 78.7308,130.482 73.7308,130.982 68.5,130C 67.944,129.617 67.6107,129.117 67.5,128.5C 73.8707,129.143 79.8707,128.143 85.5,125.5C 88.1889,123.657 91.0223,121.99 94,120.5C 112.812,121.821 131.645,122.487 150.5,122.5C 151.971,121.619 152.804,120.286 153,118.5C 154.039,119.244 154.539,120.244 154.5,121.5 Z"/></g>
<g><path style="opacity:1" fill="#544313" d="M 60.5,122.5 C 63.1853,124.462 66.1853,125.962 69.5,127C 72.5,127.667 75.5,127.667 78.5,127C 81.2837,125.055 84.2837,123.555 87.5,122.5C 86.8333,123.5 86.1667,124.5 85.5,125.5C 79.8707,128.143 73.8707,129.143 67.5,128.5C 64.6085,127.211 62.2752,125.211 60.5,122.5 Z"/></g>
<g><path style="opacity:1" fill="#cf7e10" d="M 230.5,112.5 C 231.117,112.611 231.617,112.944 232,113.5C 232.255,124.173 231.921,134.84 231,145.5C 230.251,148.503 229.085,151.169 227.5,153.5C 229.342,146.968 230.342,140.302 230.5,133.5C 230.5,128.833 230.5,124.167 230.5,119.5C 230.5,117.167 230.5,114.833 230.5,112.5 Z"/></g>
<g><path style="opacity:0.988" fill="#a6610b" d="M 13.5,112.5 C 13.5,113.5 13.5,114.5 13.5,115.5C 13.3337,122.508 13.5004,129.508 14,136.5C 15.9406,142.37 17.6072,148.37 19,154.5C 19.8518,155.571 20.6851,156.571 21.5,157.5C 22.8127,161.541 24.3127,165.541 26,169.5C 29.363,175.009 32.863,180.342 36.5,185.5C 37.925,186.922 38.925,188.589 39.5,190.5C 35.4278,187.431 32.0944,183.765 29.5,179.5C 29.1667,179.5 28.8333,179.5 28.5,179.5C 24.0266,172.482 21.0266,164.815 19.5,156.5C 17.7839,156.629 16.1172,156.962 14.5,157.5C 14.913,154.68 13.913,152.68 11.5,151.5C 11.5,150.833 11.5,150.167 11.5,149.5C 11.5,148.5 11.5,147.5 11.5,146.5C 13.4841,146.516 14.4841,145.516 14.5,143.5C 13.2641,138.112 12.5975,132.612 12.5,127C 12.5007,121.988 12.8341,117.155 13.5,112.5 Z"/></g>
<g><path style="opacity:0.013" fill="#030300" d="M 9.5,143.5 C 11.0481,143.821 11.7148,144.821 11.5,146.5C 11.5,147.5 11.5,148.5 11.5,149.5C 9.92606,147.898 9.25939,145.898 9.5,143.5 Z"/></g>
<g><path style="opacity:0.014" fill="#020200" d="M 234.5,149.5 C 234.88,151.698 234.213,153.365 232.5,154.5C 232.077,152.219 232.744,150.552 234.5,149.5 Z"/></g>
<g><path style="opacity:1" fill="#f9c21f" d="M 28.5,120.5 C 30.772,121.723 31.9386,123.723 32,126.5C 37.4151,146.471 48.4151,163.471 65,177.5C 65.3951,180.207 65.8951,182.873 66.5,185.5C 48.2241,171.3 35.0574,153.3 27,131.5C 26.3333,128.167 26.3333,124.833 27,121.5C 28.1068,122.712 28.6068,122.379 28.5,120.5 Z"/></g>
<g><path style="opacity:0.011" fill="#0b0100" d="M 11.5,151.5 C 13.913,152.68 14.913,154.68 14.5,157.5C 12.461,156.089 11.461,154.089 11.5,151.5 Z"/></g>
<g><path style="opacity:0.871" fill="#9b600e" d="M 236.5,96.5 C 236.667,112.503 236.5,128.503 236,144.5C 234.991,146.025 234.491,147.692 234.5,149.5C 232.744,150.552 232.077,152.219 232.5,154.5C 232.5,155.167 232.5,155.833 232.5,156.5C 231.5,156.5 230.5,156.5 229.5,156.5C 228.594,159.436 227.928,162.436 227.5,165.5C 226.167,165.5 224.833,165.5 223.5,165.5C 223.41,167.696 223.077,169.863 222.5,172C 222.316,173.376 221.649,174.209 220.5,174.5C 220.5,172.833 220.5,171.167 220.5,169.5C 220.805,165.039 222.638,161.373 226,158.5C 226.49,157.207 226.657,155.873 226.5,154.5C 226.5,153.833 226.833,153.5 227.5,153.5C 229.085,151.169 230.251,148.503 231,145.5C 231.921,134.84 232.255,124.173 232,113.5C 231.617,112.944 231.117,112.611 230.5,112.5C 230.5,111.167 230.5,109.833 230.5,108.5C 230.5,105.833 230.5,103.167 230.5,100.5C 230.833,100.5 231.167,100.5 231.5,100.5C 231.892,102.179 232.392,103.846 233,105.5C 233.754,102.182 234.92,99.1818 236.5,96.5 Z"/></g>
<g><path style="opacity:1" fill="#f4ab12" d="M 225.5,107.5 C 227.292,107.366 228.958,107.699 230.5,108.5C 230.5,109.833 230.5,111.167 230.5,112.5C 230.5,114.833 230.5,117.167 230.5,119.5C 224.277,146.042 210.61,168.542 189.5,187C 183.952,191.603 177.952,195.437 171.5,198.5C 173.923,196.243 175.757,193.576 177,190.5C 193.869,177.119 207.203,160.786 217,141.5C 219.227,135.672 219.893,129.672 219,123.5C 218.282,124.451 217.449,124.617 216.5,124C 217.774,123.023 217.774,122.189 216.5,121.5C 216.365,119.446 217.032,117.779 218.5,116.5C 220.795,114.227 222.962,114.227 225,116.5C 225.333,116.167 225.667,115.833 226,115.5C 226.023,112.949 225.523,110.449 224.5,108C 224.728,107.601 225.062,107.435 225.5,107.5 Z"/></g>
<g><path style="opacity:0.278" fill="#73490c" d="M 28.5,179.5 C 26.6776,179.169 25.0109,178.502 23.5,177.5C 22.0687,176.22 21.4021,174.553 21.5,172.5C 21.5,171.167 21.5,169.833 21.5,168.5C 20.5,168.5 19.5,168.5 18.5,168.5C 18.9227,166.219 18.256,164.552 16.5,163.5C 14.9261,161.898 14.2594,159.898 14.5,157.5C 16.1172,156.962 17.7839,156.629 19.5,156.5C 21.0266,164.815 24.0266,172.482 28.5,179.5 Z"/></g>
<g><path style="opacity:0.009" fill="#120800" d="M 16.5,163.5 C 18.256,164.552 18.9227,166.219 18.5,168.5C 17.0687,167.22 16.4021,165.553 16.5,163.5 Z"/></g>
<g><path style="opacity:1" fill="#f4b118" d="M 18.5,109.5 C 19.287,111.104 20.6203,111.771 22.5,111.5C 20.4142,116.748 22.0809,118.415 27.5,116.5C 28.5223,116.855 29.189,117.522 29.5,118.5C 29.1667,119.167 28.8333,119.833 28.5,120.5C 28.6068,122.379 28.1068,122.712 27,121.5C 26.3333,124.833 26.3333,128.167 27,131.5C 35.0574,153.3 48.2241,171.3 66.5,185.5C 68.72,190.239 71.72,194.572 75.5,198.5C 69.8695,194.55 64.2028,190.55 58.5,186.5C 49.2814,176.39 40.7814,165.724 33,154.5C 28.1754,145.183 24.1754,135.516 21,125.5C 19.2435,124.015 18.0768,124.348 17.5,126.5C 16.8333,126.167 16.1667,125.833 15.5,125.5C 14.6758,122.236 14.3424,118.902 14.5,115.5C 15.5,115.5 16.5,115.5 17.5,115.5C 17.2053,113.265 17.5386,111.265 18.5,109.5 Z"/></g>
<g><path style="opacity:0.149" fill="#422a09" d="M 232.5,156.5 C 230.231,162.6 227.731,168.6 225,174.5C 223.951,176.618 222.451,178.284 220.5,179.5C 220.5,177.833 220.5,176.167 220.5,174.5C 221.649,174.209 222.316,173.376 222.5,172C 223.077,169.863 223.41,167.696 223.5,165.5C 224.833,165.5 226.167,165.5 227.5,165.5C 227.928,162.436 228.594,159.436 229.5,156.5C 230.5,156.5 231.5,156.5 232.5,156.5 Z"/></g>
<g><path style="opacity:0.011" fill="#110600" d="M 18.5,168.5 C 19.5,168.5 20.5,168.5 21.5,168.5C 21.5,169.833 21.5,171.167 21.5,172.5C 19.5544,171.965 18.5544,170.632 18.5,168.5 Z"/></g>
<g><path style="opacity:0.345" fill="#342208" d="M 23.5,177.5 C 25.0109,178.502 26.6776,179.169 28.5,179.5C 28.8333,179.5 29.1667,179.5 29.5,179.5C 29.6287,181.216 29.962,182.883 30.5,184.5C 29.8333,184.5 29.1667,184.5 28.5,184.5C 25.491,183.152 23.8244,180.819 23.5,177.5 Z"/></g>
<g><path style="opacity:0.138" fill="#050200" d="M 220.5,179.5 C 220.919,182.325 219.919,184.491 217.5,186C 218.833,187.84 218.666,188.34 217,187.5C 215.332,190.866 213.665,194.199 212,197.5C 196.352,217.38 176.852,231.38 153.5,239.5C 132.833,239.5 112.167,239.5 91.5,239.5C 69.3863,231.284 50.553,217.951 35,199.5C 31.7786,194.933 29.6119,189.933 28.5,184.5C 29.1667,184.5 29.8333,184.5 30.5,184.5C 30.5,185.833 31.1667,186.5 32.5,186.5C 32.3433,187.873 32.51,189.207 33,190.5C 36.3222,193.988 39.8222,197.321 43.5,200.5C 44.6223,201.63 45.9557,202.297 47.5,202.5C 51.5952,205.09 55.2618,208.256 58.5,212C 63.3413,214.064 68.008,216.231 72.5,218.5C 72.5,219.5 72.5,220.5 72.5,221.5C 77.229,221.865 81.5624,223.365 85.5,226C 89.7946,226.912 94.1279,227.579 98.5,228C 98.9574,228.414 99.2907,228.914 99.5,229.5C 104.456,230.494 109.456,230.827 114.5,230.5C 115.091,231.151 115.757,231.818 116.5,232.5C 122.726,234.127 128.726,233.627 134.5,231C 141.776,230.984 148.776,229.817 155.5,227.5C 157.977,226.278 160.31,224.945 162.5,223.5C 165.748,223.584 168.748,222.751 171.5,221C 174.896,217.912 178.562,215.245 182.5,213C 184.167,212.667 185.833,212.333 187.5,212C 190.438,210.436 192.772,208.27 194.5,205.5C 200.167,203.167 204.167,199.167 206.5,193.5C 210.167,192.5 212.5,190.167 213.5,186.5C 214.675,186.719 215.675,186.386 216.5,185.5C 217.543,183.151 218.876,181.151 220.5,179.5 Z"/></g>
<g><path style="opacity:1" fill="#f18d08" d="M 13.5,115.5 C 13.8333,115.5 14.1667,115.5 14.5,115.5C 14.3424,118.902 14.6758,122.236 15.5,125.5C 19.1419,146.618 28.4752,164.784 43.5,180C 86.2816,220.263 132.948,225.429 183.5,195.5C 205.973,179.841 221.639,159.175 230.5,133.5C 230.342,140.302 229.342,146.968 227.5,153.5C 226.833,153.5 226.5,153.833 226.5,154.5C 214.458,173.71 198.791,189.544 179.5,202C 130.593,228.095 85.5926,222.595 44.5,185.5C 35.9138,176.613 28.2471,167.28 21.5,157.5C 20.6851,156.571 19.8518,155.571 19,154.5C 17.6072,148.37 15.9406,142.37 14,136.5C 13.5004,129.508 13.3337,122.508 13.5,115.5 Z"/></g>
<g><path style="opacity:0.945" fill="#c06107" d="M 220.5,169.5 C 220.5,171.167 220.5,172.833 220.5,174.5C 217.351,175.16 215.851,177.16 216,180.5C 206.488,191.679 195.988,201.845 184.5,211C 181.477,213.189 178.144,214.689 174.5,215.5C 174.821,213.952 175.821,213.285 177.5,213.5C 177.5,212.5 177.5,211.5 177.5,210.5C 179.527,210.662 181.527,210.495 183.5,210C 184.102,207.964 185.102,206.13 186.5,204.5C 197.057,199.278 205.39,191.611 211.5,181.5C 214.512,177.462 217.512,173.462 220.5,169.5 Z"/></g>
<g><path style="opacity:1" fill="#ea7404" d="M 211.5,181.5 C 205.39,191.611 197.057,199.278 186.5,204.5C 185.102,206.13 184.102,207.964 183.5,210C 181.527,210.495 179.527,210.662 177.5,210.5C 177.5,211.5 177.5,212.5 177.5,213.5C 175.821,213.285 174.821,213.952 174.5,215.5C 171.975,217.177 169.309,218.677 166.5,220C 164.527,220.495 162.527,220.662 160.5,220.5C 160.5,221.5 160.5,222.5 160.5,223.5C 156.36,223.689 152.36,224.356 148.5,225.5C 129.246,228.74 110.246,228.073 91.5,223.5C 91.1667,223.5 90.8333,223.5 90.5,223.5C 85.3297,221.444 79.9964,219.777 74.5,218.5C 74.0472,217.542 73.3805,216.708 72.5,216C 66.818,212.997 61.1514,209.997 55.5,207C 49.9637,201.631 44.6303,196.131 39.5,190.5C 38.925,188.589 37.925,186.922 36.5,185.5C 37.8734,185.343 39.2068,185.51 40.5,186C 77.7209,222.978 120.721,231.644 169.5,212C 184.934,203.484 198.934,193.317 211.5,181.5 Z"/></g>
<g><path style="opacity:0.514" fill="#412a0a" d="M 32.5,186.5 C 36.5695,191.817 41.4029,196.484 47,200.5C 47.4643,201.094 47.631,201.761 47.5,202.5C 45.9557,202.297 44.6223,201.63 43.5,200.5C 39.8222,197.321 36.3222,193.988 33,190.5C 32.51,189.207 32.3433,187.873 32.5,186.5 Z"/></g>
<g><path style="opacity:1" fill="#fac429" d="M 216.5,121.5 C 217.774,122.189 217.774,123.023 216.5,124C 217.449,124.617 218.282,124.451 219,123.5C 219.893,129.672 219.227,135.672 217,141.5C 207.203,160.786 193.869,177.119 177,190.5C 175.757,193.576 173.923,196.243 171.5,198.5C 161.118,199.442 150.952,201.776 141,205.5C 137.751,202.916 134.251,200.75 130.5,199C 120.083,197.514 110.083,198.681 100.5,202.5C 92.6817,201.26 85.015,199.926 77.5,198.5C 93.9103,197.079 110.41,196.079 127,195.5C 138.722,195.839 150.388,196.839 162,198.5C 165.024,198.519 167.858,197.853 170.5,196.5C 171.794,195.71 172.961,194.71 174,193.5C 176.561,187.385 178.228,181.052 179,174.5C 182.442,170.623 186.109,166.956 190,163.5C 195.676,154.151 199.676,144.151 202,133.5C 204.333,130.833 206.667,128.167 209,125.5C 209.414,125.957 209.914,126.291 210.5,126.5C 212.122,124.359 214.122,122.692 216.5,121.5 Z"/></g>
<g><path style="opacity:1" fill="#f08305" d="M 226.5,154.5 C 226.657,155.873 226.49,157.207 226,158.5C 222.638,161.373 220.805,165.039 220.5,169.5C 217.512,173.462 214.512,177.462 211.5,181.5C 198.934,193.317 184.934,203.484 169.5,212C 120.721,231.644 77.7209,222.978 40.5,186C 39.2068,185.51 37.8734,185.343 36.5,185.5C 32.863,180.342 29.363,175.009 26,169.5C 24.3127,165.541 22.8127,161.541 21.5,157.5C 28.2471,167.28 35.9138,176.613 44.5,185.5C 85.5926,222.595 130.593,228.095 179.5,202C 198.791,189.544 214.458,173.71 226.5,154.5 Z"/></g>
<g><path style="opacity:1" fill="#f49b0c" d="M 230.5,119.5 C 230.5,124.167 230.5,128.833 230.5,133.5C 221.639,159.175 205.973,179.841 183.5,195.5C 132.948,225.429 86.2816,220.263 43.5,180C 28.4752,164.784 19.1419,146.618 15.5,125.5C 16.1667,125.833 16.8333,126.167 17.5,126.5C 23.0552,147.112 33.3886,164.945 48.5,180C 56.5796,186.687 64.5796,193.354 72.5,200C 81.7735,202.958 91.1069,205.958 100.5,209C 125.856,214.713 149.522,211.213 171.5,198.5C 177.952,195.437 183.952,191.603 189.5,187C 210.61,168.542 224.277,146.042 230.5,119.5 Z"/></g>
<g><path style="opacity:1" fill="#f9e464" d="M 71.5,186.5 C 72.8175,188.751 74.4842,190.751 76.5,192.5C 78.0276,193.309 79.6943,193.976 81.5,194.5C 83.9664,195.634 86.633,195.801 89.5,195C 99.5363,192.613 109.703,190.779 120,189.5C 127.462,190.644 134.962,191.311 142.5,191.5C 146.573,191.808 150.573,192.475 154.5,193.5C 158.244,195.152 162.244,195.652 166.5,195C 168.717,193.277 171.05,191.777 173.5,190.5C 172.5,192.5 171.5,194.5 170.5,196.5C 167.858,197.853 165.024,198.519 162,198.5C 150.388,196.839 138.722,195.839 127,195.5C 110.41,196.079 93.9103,197.079 77.5,198.5C 75.8729,196.37 74.0396,194.37 72,192.5C 71.5045,190.527 71.3379,188.527 71.5,186.5 Z"/></g>
<g><path style="opacity:1" fill="#dd6457" d="M 90.5,182.5 C 88.5975,184.628 86.9308,186.961 85.5,189.5C 89.7828,190.492 94.1161,190.826 98.5,190.5C 93.1222,192.616 87.4555,193.95 81.5,194.5C 79.6943,193.976 78.0276,193.309 76.5,192.5C 81.7744,192.416 85.2744,189.75 87,184.5C 87.8159,183.177 88.9826,182.511 90.5,182.5 Z"/></g>
<g><path style="opacity:1" fill="#d58c56" d="M 142.5,191.5 C 142.5,191.167 142.5,190.833 142.5,190.5C 143.833,190.5 145.167,190.5 146.5,190.5C 150.384,190.424 154.05,191.09 157.5,192.5C 160.5,192.5 163.5,192.5 166.5,192.5C 162.702,193.483 158.702,193.817 154.5,193.5C 150.573,192.475 146.573,191.808 142.5,191.5 Z"/></g>
<g><path style="opacity:1" fill="#d8b15e" d="M 142.5,190.5 C 142.5,190.833 142.5,191.167 142.5,191.5C 134.962,191.311 127.462,190.644 120,189.5C 109.703,190.779 99.5363,192.613 89.5,195C 86.633,195.801 83.9664,195.634 81.5,194.5C 87.4555,193.95 93.1222,192.616 98.5,190.5C 99.1667,190.5 99.8333,190.5 100.5,190.5C 112.704,188.466 125.037,187.966 137.5,189C 139.382,189.198 141.048,189.698 142.5,190.5 Z"/></g>
<g><path style="opacity:1" fill="#9b4113" d="M 170.5,172.5 C 174.353,178.424 174.353,184.424 170.5,190.5C 169.378,191.63 168.044,192.297 166.5,192.5C 163.5,192.5 160.5,192.5 157.5,192.5C 157.66,190.801 157.494,189.134 157,187.5C 149.679,178.669 140.179,174.336 128.5,174.5C 121.687,173.509 114.687,173.175 107.5,173.5C 110.938,172.177 114.771,171.51 119,171.5C 122.833,171.667 126.667,171.833 130.5,172C 139.511,174.846 148.678,175.679 158,174.5C 161.167,174.667 164.333,174.833 167.5,175C 169.821,176.713 170.821,175.88 170.5,172.5 Z"/></g>
<g><path style="opacity:1" fill="#cea338" d="M 166.5,165.5 C 169.852,168.695 172.685,172.362 175,176.5C 175.966,181.39 175.466,186.057 173.5,190.5C 171.05,191.777 168.717,193.277 166.5,195C 162.244,195.652 158.244,195.152 154.5,193.5C 158.702,193.817 162.702,193.483 166.5,192.5C 168.044,192.297 169.378,191.63 170.5,190.5C 174.353,184.424 174.353,178.424 170.5,172.5C 169.833,171.833 169.167,171.167 168.5,170.5C 167.833,168.833 167.167,167.167 166.5,165.5 Z"/></g>
<g><path style="opacity:1" fill="#f25b6e" d="M 128.5,174.5 C 140.179,174.336 149.679,178.669 157,187.5C 157.494,189.134 157.66,190.801 157.5,192.5C 154.05,191.09 150.384,190.424 146.5,190.5C 143.815,188.81 140.815,187.31 137.5,186C 128.167,185.333 118.833,185.333 109.5,186C 106.387,187.417 103.387,188.917 100.5,190.5C 99.8333,190.5 99.1667,190.5 98.5,190.5C 94.1161,190.826 89.7828,190.492 85.5,189.5C 86.9308,186.961 88.5975,184.628 90.5,182.5C 94.7294,180.249 99.0628,178.082 103.5,176C 111.797,174.877 120.13,174.377 128.5,174.5 Z"/></g>
<g><path style="opacity:1" fill="#c25441" d="M 146.5,190.5 C 145.167,190.5 143.833,190.5 142.5,190.5C 141.048,189.698 139.382,189.198 137.5,189C 125.037,187.966 112.704,188.466 100.5,190.5C 103.387,188.917 106.387,187.417 109.5,186C 118.833,185.333 128.167,185.333 137.5,186C 140.815,187.31 143.815,188.81 146.5,190.5 Z"/></g>
<g><path style="opacity:1" fill="#bc483d" d="M 102.5,173.5 C 104.167,173.5 105.833,173.5 107.5,173.5C 114.687,173.175 121.687,173.509 128.5,174.5C 120.13,174.377 111.797,174.877 103.5,176C 99.0628,178.082 94.7294,180.249 90.5,182.5C 91.2899,181.206 92.2899,180.039 93.5,179C 96.7679,177.432 99.7679,175.599 102.5,173.5 Z"/></g>
<g><path style="opacity:1" fill="#933e0f" d="M 75.5,169.5 C 74.6765,171.455 74.5099,173.455 75,175.5C 76.365,173.14 78.365,171.473 81,170.5C 87.4191,171.313 93.9191,171.813 100.5,172C 101.044,172.717 101.711,173.217 102.5,173.5C 99.7679,175.599 96.7679,177.432 93.5,179C 92.2899,180.039 91.2899,181.206 90.5,182.5C 88.9826,182.511 87.8159,183.177 87,184.5C 85.2744,189.75 81.7744,192.416 76.5,192.5C 74.4842,190.751 72.8175,188.751 71.5,186.5C 69.3813,180.033 70.7147,174.366 75.5,169.5 Z"/></g>
<g><path style="opacity:1" fill="#722c06" d="M 168.5,170.5 C 169.167,171.167 169.833,171.833 170.5,172.5C 170.821,175.88 169.821,176.713 167.5,175C 164.333,174.833 161.167,174.667 158,174.5C 148.678,175.679 139.511,174.846 130.5,172C 126.667,171.833 122.833,171.667 119,171.5C 114.771,171.51 110.938,172.177 107.5,173.5C 105.833,173.5 104.167,173.5 102.5,173.5C 101.711,173.217 101.044,172.717 100.5,172C 93.9191,171.813 87.4191,171.313 81,170.5C 78.365,171.473 76.365,173.14 75,175.5C 74.5099,173.455 74.6765,171.455 75.5,169.5C 75.8333,169.5 76.1667,169.5 76.5,169.5C 77.3132,170.653 78.3132,170.653 79.5,169.5C 80.5403,167.625 82.0403,166.292 84,165.5C 86.4416,166.97 88.9416,168.304 91.5,169.5C 113.676,166.854 135.842,166.854 158,169.5C 159.764,169.456 161.431,169.122 163,168.5C 164.725,169.464 166.559,170.131 168.5,170.5 Z"/></g>
<g><path style="opacity:1" fill="#612305" d="M 83.5,159.5 C 84.8589,160.007 85.8589,161.007 86.5,162.5C 88.0709,163.309 89.7376,163.643 91.5,163.5C 91.7911,164.649 92.6244,165.316 94,165.5C 113.611,160.258 133.277,160.258 153,165.5C 157.578,166.615 159.744,164.949 159.5,160.5C 162.093,161.754 164.427,163.42 166.5,165.5C 167.167,167.167 167.833,168.833 168.5,170.5C 166.559,170.131 164.725,169.464 163,168.5C 161.431,169.122 159.764,169.456 158,169.5C 135.842,166.854 113.676,166.854 91.5,169.5C 88.9416,168.304 86.4416,166.97 84,165.5C 82.0403,166.292 80.5403,167.625 79.5,169.5C 78.3132,170.653 77.3132,170.653 76.5,169.5C 78.8333,166.167 81.1667,162.833 83.5,159.5 Z"/></g>
<g><path style="opacity:1" fill="#996d1b" d="M 83.5,159.5 C 81.1667,162.833 78.8333,166.167 76.5,169.5C 76.1667,169.5 75.8333,169.5 75.5,169.5C 76.7226,166.726 78.2226,164.059 80,161.5C 80.8159,160.177 81.9826,159.511 83.5,159.5 Z"/></g>
<g><path style="opacity:1" fill="#471b0f" d="M 133.5,157.5 C 137.944,158.813 142.611,159.646 147.5,160C 150.769,161.694 154.103,162.694 157.5,163C 158.252,162.329 158.586,161.496 158.5,160.5C 158.833,160.5 159.167,160.5 159.5,160.5C 159.744,164.949 157.578,166.615 153,165.5C 133.277,160.258 113.611,160.258 94,165.5C 92.6244,165.316 91.7911,164.649 91.5,163.5C 98.0911,161.563 104.758,159.73 111.5,158C 118.826,157.5 126.159,157.334 133.5,157.5 Z"/></g>
<g><path style="opacity:1" fill="#a3781c" d="M 142.5,148.5 C 128.071,146.762 113.737,147.262 99.5,150C 95.3705,151.589 91.3705,153.423 87.5,155.5C 91.8154,151.67 96.8154,148.836 102.5,147C 114.833,146.333 127.167,146.333 139.5,147C 140.737,147.232 141.737,147.732 142.5,148.5 Z"/></g>
<g><path style="opacity:1" fill="#835931" d="M 142.5,148.5 C 149.061,151.45 155.394,154.95 161.5,159C 163.79,160.777 165.457,162.944 166.5,165.5C 164.427,163.42 162.093,161.754 159.5,160.5C 159.167,160.5 158.833,160.5 158.5,160.5C 155.91,158.676 152.91,157.343 149.5,156.5C 146.753,153.793 143.42,152.127 139.5,151.5C 137.852,150.073 135.852,149.24 133.5,149C 118.39,147.038 104.056,149.205 90.5,155.5C 90.5,156.5 90.5,157.5 90.5,158.5C 89.5,158.5 88.5,158.5 87.5,158.5C 87.5,159.5 87.5,160.5 87.5,161.5C 90.1667,161.167 92.8333,160.833 95.5,160.5C 94.1667,161.5 92.8333,162.5 91.5,163.5C 89.7376,163.643 88.0709,163.309 86.5,162.5C 85.8589,161.007 84.8589,160.007 83.5,159.5C 84.4023,157.659 85.7356,156.326 87.5,155.5C 91.3705,153.423 95.3705,151.589 99.5,150C 113.737,147.262 128.071,146.762 142.5,148.5 Z"/></g>
<g><path style="opacity:1" fill="#c8bab4" d="M 149.5,156.5 C 152.91,157.343 155.91,158.676 158.5,160.5C 158.586,161.496 158.252,162.329 157.5,163C 154.103,162.694 150.769,161.694 147.5,160C 142.611,159.646 137.944,158.813 133.5,157.5C 139.026,157.821 144.36,157.488 149.5,156.5 Z"/></g>
<g><path style="opacity:1" fill="#674537" d="M 133.5,156.5 C 133.5,156.833 133.5,157.167 133.5,157.5C 126.159,157.334 118.826,157.5 111.5,158C 104.758,159.73 98.0911,161.563 91.5,163.5C 92.8333,162.5 94.1667,161.5 95.5,160.5C 107.851,156.897 120.518,155.564 133.5,156.5 Z"/></g>
<g><path style="opacity:1" fill="#c4b4ae" d="M 139.5,151.5 C 126.93,149.92 114.43,150.254 102,152.5C 100.382,154.783 98.2154,156.283 95.5,157C 103.939,156.312 112.439,155.812 121,155.5C 125.347,155.501 129.514,155.834 133.5,156.5C 120.518,155.564 107.851,156.897 95.5,160.5C 92.8333,160.833 90.1667,161.167 87.5,161.5C 87.5,160.5 87.5,159.5 87.5,158.5C 88.5,158.5 89.5,158.5 90.5,158.5C 90.5,157.5 90.5,156.5 90.5,155.5C 104.056,149.205 118.39,147.038 133.5,149C 135.852,149.24 137.852,150.073 139.5,151.5 Z"/></g>
<g><path style="opacity:1" fill="#efeae9" d="M 139.5,151.5 C 143.42,152.127 146.753,153.793 149.5,156.5C 144.36,157.488 139.026,157.821 133.5,157.5C 133.5,157.167 133.5,156.833 133.5,156.5C 129.514,155.834 125.347,155.501 121,155.5C 112.439,155.812 103.939,156.312 95.5,157C 98.2154,156.283 100.382,154.783 102,152.5C 114.43,150.254 126.93,149.92 139.5,151.5 Z"/></g>
<g><path style="opacity:1" fill="#c0af2e" d="M 177.5,127.5 C 178.833,127.5 180.167,127.5 181.5,127.5C 180.909,128.151 180.243,128.818 179.5,129.5C 175.541,130.66 171.541,130.827 167.5,130C 166.944,129.617 166.611,129.117 166.5,128.5C 170.371,128.815 174.038,128.482 177.5,127.5 Z"/></g>
<g><path style="opacity:1" fill="#6e5d19" d="M 161.5,125.5 C 166.61,127.18 171.943,127.847 177.5,127.5C 174.038,128.482 170.371,128.815 166.5,128.5C 164.326,128.25 162.659,127.25 161.5,125.5 Z"/></g>
<g><path style="opacity:1" fill="#f5a917" d="M 75.5,198.5 C 76.1667,198.5 76.8333,198.5 77.5,198.5C 85.015,199.926 92.6817,201.26 100.5,202.5C 110.083,198.681 120.083,197.514 130.5,199C 134.251,200.75 137.751,202.916 141,205.5C 150.952,201.776 161.118,199.442 171.5,198.5C 149.522,211.213 125.856,214.713 100.5,209C 91.1069,205.958 81.7735,202.958 72.5,200C 64.5796,193.354 56.5796,186.687 48.5,180C 33.3886,164.945 23.0552,147.112 17.5,126.5C 18.0768,124.348 19.2435,124.015 21,125.5C 24.1754,135.516 28.1754,145.183 33,154.5C 40.7814,165.724 49.2814,176.39 58.5,186.5C 64.2028,190.55 69.8695,194.55 75.5,198.5 Z"/></g>
<g><path style="opacity:0.345" fill="#422809" d="M 206.5,193.5 C 204.167,199.167 200.167,203.167 194.5,205.5C 198.167,201.167 202.167,197.167 206.5,193.5 Z"/></g>
<g><path style="opacity:0.925" fill="#6d3c0a" d="M 29.5,179.5 C 32.0944,183.765 35.4278,187.431 39.5,190.5C 44.6303,196.131 49.9637,201.631 55.5,207C 61.1514,209.997 66.818,212.997 72.5,216C 73.3805,216.708 74.0472,217.542 74.5,218.5C 73.8333,218.5 73.1667,218.5 72.5,218.5C 68.008,216.231 63.3413,214.064 58.5,212C 55.2618,208.256 51.5952,205.09 47.5,202.5C 47.631,201.761 47.4643,201.094 47,200.5C 41.4029,196.484 36.5695,191.817 32.5,186.5C 31.1667,186.5 30.5,185.833 30.5,184.5C 29.962,182.883 29.6287,181.216 29.5,179.5 Z"/></g>
<g><path style="opacity:1" fill="#8f4505" d="M 74.5,218.5 C 79.9964,219.777 85.3297,221.444 90.5,223.5C 84.7405,223.024 79.4072,221.357 74.5,218.5 Z"/></g>
<g><path style="opacity:0.945" fill="#6b3a09" d="M 220.5,174.5 C 220.5,176.167 220.5,177.833 220.5,179.5C 218.876,181.151 217.543,183.151 216.5,185.5C 215.675,186.386 214.675,186.719 213.5,186.5C 212.5,190.167 210.167,192.5 206.5,193.5C 202.167,197.167 198.167,201.167 194.5,205.5C 192.772,208.27 190.438,210.436 187.5,212C 185.833,212.333 184.167,212.667 182.5,213C 178.562,215.245 174.896,217.912 171.5,221C 168.748,222.751 165.748,223.584 162.5,223.5C 157.801,224.568 153.134,225.568 148.5,226.5C 148.5,226.167 148.5,225.833 148.5,225.5C 152.36,224.356 156.36,223.689 160.5,223.5C 160.5,222.5 160.5,221.5 160.5,220.5C 162.527,220.662 164.527,220.495 166.5,220C 169.309,218.677 171.975,217.177 174.5,215.5C 178.144,214.689 181.477,213.189 184.5,211C 195.988,201.845 206.488,191.679 216,180.5C 215.851,177.16 217.351,175.16 220.5,174.5 Z"/></g>
<g><path style="opacity:1" fill="#8a4203" d="M 91.5,223.5 C 110.246,228.073 129.246,228.74 148.5,225.5C 148.5,225.833 148.5,226.167 148.5,226.5C 143.672,228.151 138.672,228.817 133.5,228.5C 119.323,228.982 105.323,228.315 91.5,226.5C 91.5,225.5 91.5,224.5 91.5,223.5 Z"/></g>
<g><path style="opacity:0.678" fill="#361d03" d="M 72.5,218.5 C 73.1667,218.5 73.8333,218.5 74.5,218.5C 79.4072,221.357 84.7405,223.024 90.5,223.5C 90.8333,223.5 91.1667,223.5 91.5,223.5C 91.5,224.5 91.5,225.5 91.5,226.5C 105.323,228.315 119.323,228.982 133.5,228.5C 133.389,229.117 133.056,229.617 132.5,230C 126.509,230.499 120.509,230.666 114.5,230.5C 109.456,230.827 104.456,230.494 99.5,229.5C 99.2907,228.914 98.9574,228.414 98.5,228C 94.1279,227.579 89.7946,226.912 85.5,226C 81.5624,223.365 77.229,221.865 72.5,221.5C 72.5,220.5 72.5,219.5 72.5,218.5 Z"/></g>
<g><path style="opacity:0.475" fill="#1f1201" d="M 162.5,223.5 C 160.31,224.945 157.977,226.278 155.5,227.5C 148.776,229.817 141.776,230.984 134.5,231C 128.726,233.627 122.726,234.127 116.5,232.5C 115.757,231.818 115.091,231.151 114.5,230.5C 120.509,230.666 126.509,230.499 132.5,230C 133.056,229.617 133.389,229.117 133.5,228.5C 138.672,228.817 143.672,228.151 148.5,226.5C 153.134,225.568 157.801,224.568 162.5,223.5 Z"/></g>
</svg>
