<?xml version="1.0" encoding="UTF-8"?>
<!DOCTYPE svg PUBLIC "-//W3C//DTD SVG 1.1//EN" "http://www.w3.org/Graphics/SVG/1.1/DTD/svg11.dtd">
<svg xmlns="http://www.w3.org/2000/svg" version="1.1" width="238px" height="240px" style="shape-rendering:geometricPrecision; text-rendering:geometricPrecision; image-rendering:optimizeQuality; fill-rule:evenodd; clip-rule:evenodd" xmlns:xlink="http://www.w3.org/1999/xlink">
<g><path style="opacity:1" fill="#febb22" d="M 191.5,39.5 C 190.427,40.2506 190.26,41.2506 191,42.5C 214.397,67.0718 222.397,96.0718 215,129.5C 210.33,144.329 201.163,155.329 187.5,162.5C 183.783,166.546 180.116,170.546 176.5,174.5C 178.749,170.402 181.249,166.402 184,162.5C 185.128,160.655 185.628,158.655 185.5,156.5C 187.096,151.544 188.596,146.544 190,141.5C 190.634,138.445 190.468,135.445 189.5,132.5C 190.167,132.833 190.833,133.167 191.5,133.5C 191.728,138.297 191.895,142.963 192,147.5C 197.61,142.934 202.777,137.934 207.5,132.5C 210.848,123.942 213.181,115.108 214.5,106C 211.281,68.6231 193.281,40.9564 160.5,23C 126.096,8.00334 92.4291,9.67 59.5,28C 33.3305,45.844 18.3305,70.5107 14.5,102C 15.8894,107.372 16.7227,112.872 17,118.5C 20.0167,130.135 26.5167,139.135 36.5,145.5C 37.9849,149.305 39.6516,152.971 41.5,156.5C 27.319,149.469 18.4856,138.136 15,122.5C 10.1388,88.2462 20.4721,59.5795 46,36.5C 46.6172,35.5509 46.4506,34.7175 45.5,34C 49.7668,33.0128 50.1002,32.1795 46.5,31.5C 80.9613,6.27649 118.295,1.44316 158.5,17C 170.919,22.5334 181.919,30.0334 191.5,39.5 Z"/></g>
<g><path style="opacity:1" fill="#fec62c" d="M 191.5,133.5 C 194.154,131.175 196.488,128.508 198.5,125.5C 201.073,119.275 203.74,113.108 206.5,107C 206.484,101.675 206.484,96.3415 206.5,91C 198.043,56.5433 177.043,33.5433 143.5,22C 103.963,11.5071 70.1296,21.0071 42,50.5C 30.856,63.6048 24.0227,78.4381 21.5,95C 22.1667,95.6667 22.8333,96.3333 23.5,97C 22.6317,99.8708 22.2984,103.038 22.5,106.5C 23.1892,108.444 23.6892,110.444 24,112.5C 24.7504,113.126 25.5838,113.626 26.5,114C 27.4361,121.316 31.1027,127.816 37.5,133.5C 37.6054,137.548 37.2721,141.548 36.5,145.5C 26.5167,139.135 20.0167,130.135 17,118.5C 16.7227,112.872 15.8894,107.372 14.5,102C 18.3305,70.5107 33.3305,45.844 59.5,28C 92.4291,9.67 126.096,8.00334 160.5,23C 193.281,40.9564 211.281,68.6231 214.5,106C 213.181,115.108 210.848,123.942 207.5,132.5C 202.777,137.934 197.61,142.934 192,147.5C 191.895,142.963 191.728,138.297 191.5,133.5 Z"/></g>
<g><path style="opacity:1" fill="#fcca32" d="M 191.5,133.5 C 190.833,133.167 190.167,132.833 189.5,132.5C 189.027,131.094 188.027,130.427 186.5,130.5C 184.958,129.699 183.292,129.366 181.5,129.5C 184.908,128.98 188.241,127.98 191.5,126.5C 192.742,123.09 194.909,120.424 198,118.5C 198.78,115.488 199.947,112.655 201.5,110C 201.512,102.988 201.512,95.1548 201.5,86.5C 196.365,64.6819 184.699,47.5152 166.5,35C 124.425,11.8486 85.0914,15.5153 48.5,46C 44.6777,51.1584 40.8444,56.325 37,61.5C 33.1605,68.1486 29.9938,75.1486 27.5,82.5C 27.8588,87.4237 27.8588,92.257 27.5,97C 27.9591,101.01 28.9591,104.843 30.5,108.5C 30.1667,109.167 29.8333,109.833 29.5,110.5C 32.229,116.575 35.229,122.408 38.5,128C 42.8206,128.499 47.1539,128.666 51.5,128.5C 57.4204,129.817 63.4204,130.483 69.5,130.5C 75.7708,131.711 82.1041,132.378 88.5,132.5C 104.5,132.5 120.5,132.5 136.5,132.5C 141.833,132.167 147.167,131.833 152.5,131.5C 155.167,131.167 157.833,130.833 160.5,130.5C 165.141,129.873 169.807,129.54 174.5,129.5C 175.833,129.5 177.167,129.5 178.5,129.5C 155.944,134.743 132.944,137.077 109.5,136.5C 89.2055,137.005 69.2055,134.839 49.5,130C 46.633,129.199 43.9664,129.366 41.5,130.5C 40.5,130.833 39.8333,131.5 39.5,132.5C 38.8333,132.833 38.1667,133.167 37.5,133.5C 31.1027,127.816 27.4361,121.316 26.5,114C 25.5838,113.626 24.7504,113.126 24,112.5C 23.6892,110.444 23.1892,108.444 22.5,106.5C 22.2984,103.038 22.6317,99.8708 23.5,97C 22.8333,96.3333 22.1667,95.6667 21.5,95C 24.0227,78.4381 30.856,63.6048 42,50.5C 70.1296,21.0071 103.963,11.5071 143.5,22C 177.043,33.5433 198.043,56.5433 206.5,91C 206.484,96.3415 206.484,101.675 206.5,107C 203.74,113.108 201.073,119.275 198.5,125.5C 196.488,128.508 194.154,131.175 191.5,133.5 Z"/></g>
<g><path style="opacity:1" fill="#fbdd5b" d="M 152.5,131.5 C 147.167,131.833 141.833,132.167 136.5,132.5C 141.184,129.833 146.184,126.333 151.5,122C 155.147,121.226 158.814,120.559 162.5,120C 165.039,117.63 167.372,115.13 169.5,112.5C 170.301,108.103 171.301,103.769 172.5,99.5C 173.289,89.3359 169.622,81.3359 161.5,75.5C 157.542,65.8901 151.876,57.5568 144.5,50.5C 142.885,49.846 141.218,49.346 139.5,49C 140.167,48.6667 140.833,48.3333 141.5,48C 110.219,34.2919 86.2186,41.7919 69.5,70.5C 68.5713,71.6888 68.238,73.0222 68.5,74.5C 66.1877,76.636 63.6877,78.636 61,80.5C 57.0358,86.1934 55.5358,92.5268 56.5,99.5C 56.1134,103.444 56.78,107.111 58.5,110.5C 57.6236,110.631 56.9569,110.298 56.5,109.5C 54.1278,105.855 53.4611,102.355 54.5,99C 53.7433,97.4878 52.7433,96.1545 51.5,95C 52.5733,93.7496 52.5733,92.4162 51.5,91C 53.3282,89.4936 53.6616,87.8269 52.5,86C 54.3937,84.9207 54.727,83.5874 53.5,82C 54.5853,79.828 55.9186,77.828 57.5,76C 56.8333,75.6667 56.1667,75.3333 55.5,75C 56.8333,74.3333 56.8333,73.6667 55.5,73C 56.4491,72.3828 57.2825,72.5494 58,73.5C 57.5704,71.873 57.4037,70.373 57.5,69C 59.5,67 61.5,65 63.5,63C 63.5,62 63.5,61 63.5,60C 72.0101,51.8125 81.3435,44.8125 91.5,39C 97.7004,36.8139 104.367,35.3139 111.5,34.5C 122.186,34.9767 132.852,37.3101 143.5,41.5C 149.785,46.319 156.118,51.1523 162.5,56C 161.549,56.7175 161.383,57.5509 162,58.5C 163.117,58.6651 164.284,58.9984 165.5,59.5C 166.386,60.325 166.719,61.325 166.5,62.5C 169.999,62.259 170.332,63.0924 167.5,65C 169.167,66.6667 170.833,68.3333 172.5,70C 172.167,71 171.833,72 171.5,73C 172.94,76.3549 174.607,79.8549 176.5,83.5C 176.182,84.6473 175.516,85.4806 174.5,86C 175.5,87 176.5,88 177.5,89C 176.305,98.0261 173.639,106.859 169.5,115.5C 163.738,120.935 158.071,126.268 152.5,131.5 Z"/></g>
<g><path style="opacity:1" fill="#ffdd54" d="M 160.5,130.5 C 157.833,130.833 155.167,131.167 152.5,131.5C 158.071,126.268 163.738,120.935 169.5,115.5C 173.639,106.859 176.305,98.0261 177.5,89C 176.5,88 175.5,87 174.5,86C 175.516,85.4806 176.182,84.6473 176.5,83.5C 174.607,79.8549 172.94,76.3549 171.5,73C 171.833,72 172.167,71 172.5,70C 170.833,68.3333 169.167,66.6667 167.5,65C 170.332,63.0924 169.999,62.259 166.5,62.5C 166.719,61.325 166.386,60.325 165.5,59.5C 164.284,58.9984 163.117,58.6651 162,58.5C 161.383,57.5509 161.549,56.7175 162.5,56C 156.118,51.1523 149.785,46.319 143.5,41.5C 132.852,37.3101 122.186,34.9767 111.5,34.5C 104.367,35.3139 97.7004,36.8139 91.5,39C 81.3435,44.8125 72.0101,51.8125 63.5,60C 63.5,61 63.5,62 63.5,63C 61.5,65 59.5,67 57.5,69C 57.4037,70.373 57.5704,71.873 58,73.5C 57.2825,72.5494 56.4491,72.3828 55.5,73C 56.8333,73.6667 56.8333,74.3333 55.5,75C 56.1667,75.3333 56.8333,75.6667 57.5,76C 55.9186,77.828 54.5853,79.828 53.5,82C 54.727,83.5874 54.3937,84.9207 52.5,86C 53.6616,87.8269 53.3282,89.4936 51.5,91C 52.5733,92.4162 52.5733,93.7496 51.5,95C 52.7433,96.1545 53.7433,97.4878 54.5,99C 53.4611,102.355 54.1278,105.855 56.5,109.5C 56.9569,110.298 57.6236,110.631 58.5,110.5C 58.8333,111.5 59.5,112.167 60.5,112.5C 63.5801,118.057 68.2467,121.723 74.5,123.5C 76.5879,125.585 78.5879,127.752 80.5,130C 83.3102,130.782 85.9768,131.616 88.5,132.5C 82.1041,132.378 75.7708,131.711 69.5,130.5C 63.6295,125.691 58.2962,120.358 53.5,114.5C 52.1667,113.5 52.1667,112.5 53.5,111.5C 52.91,110.201 51.91,109.368 50.5,109C 50.8333,108.667 51.1667,108.333 51.5,108C 49.5455,105.832 48.8788,103.498 49.5,101C 47.6063,99.9207 47.273,98.5874 48.5,97C 47.8333,95.6667 47.1667,94.3333 46.5,93C 46.8704,89.408 46.8704,86.0747 46.5,83C 47.009,80.4303 48.009,78.0969 49.5,76C 48.6548,74.4419 49.3215,73.4419 51.5,73C 50.6919,72.6924 50.0253,72.1924 49.5,71.5C 50.8333,70.5 52.1667,69.5 53.5,68.5C 53.0233,67.5224 52.3567,66.6891 51.5,66C 55.2928,60.8717 59.4594,56.0384 64,51.5C 65.8333,50.3333 67.6667,49.1667 69.5,48C 69.1667,47.6667 68.8333,47.3333 68.5,47C 88.3478,33.4646 111.014,29.4646 136.5,35C 142.152,36.2163 147.485,38.2163 152.5,41C 156.262,44.2871 160.262,47.2871 164.5,50C 167.976,54.9718 171.809,59.8052 176,64.5C 176.595,65.8989 176.428,67.2322 175.5,68.5C 178.53,72.7168 181.196,77.2168 183.5,82C 182.833,82.3333 182.167,82.6667 181.5,83C 182.006,86.9817 182.339,90.9817 182.5,95C 180.699,95.3173 180.366,95.984 181.5,97C 180.939,98.676 179.939,100.009 178.5,101C 179.815,102.395 179.481,103.395 177.5,104C 178.357,104.689 179.023,105.522 179.5,106.5C 174.424,115.629 168.091,123.629 160.5,130.5 Z"/></g>
<g><path style="opacity:1" fill="#ffd94c" d="M 174.5,129.5 C 169.807,129.54 165.141,129.873 160.5,130.5C 168.091,123.629 174.424,115.629 179.5,106.5C 179.023,105.522 178.357,104.689 177.5,104C 179.481,103.395 179.815,102.395 178.5,101C 179.939,100.009 180.939,98.676 181.5,97C 180.366,95.984 180.699,95.3173 182.5,95C 182.339,90.9817 182.006,86.9817 181.5,83C 182.167,82.6667 182.833,82.3333 183.5,82C 181.196,77.2168 178.53,72.7168 175.5,68.5C 176.428,67.2322 176.595,65.8989 176,64.5C 171.809,59.8052 167.976,54.9718 164.5,50C 160.262,47.2871 156.262,44.2871 152.5,41C 147.485,38.2163 142.152,36.2163 136.5,35C 111.014,29.4646 88.3478,33.4646 68.5,47C 68.8333,47.3333 69.1667,47.6667 69.5,48C 67.6667,49.1667 65.8333,50.3333 64,51.5C 59.4594,56.0384 55.2928,60.8717 51.5,66C 52.3567,66.6891 53.0233,67.5224 53.5,68.5C 52.1667,69.5 50.8333,70.5 49.5,71.5C 50.0253,72.1924 50.6919,72.6924 51.5,73C 49.3215,73.4419 48.6548,74.4419 49.5,76C 48.009,78.0969 47.009,80.4303 46.5,83C 46.8704,86.0747 46.8704,89.408 46.5,93C 47.1667,94.3333 47.8333,95.6667 48.5,97C 47.273,98.5874 47.6063,99.9207 49.5,101C 48.8788,103.498 49.5455,105.832 51.5,108C 51.1667,108.333 50.8333,108.667 50.5,109C 51.91,109.368 52.91,110.201 53.5,111.5C 52.1667,112.5 52.1667,113.5 53.5,114.5C 58.2962,120.358 63.6295,125.691 69.5,130.5C 63.4204,130.483 57.4204,129.817 51.5,128.5C 49.914,125.077 47.414,122.411 44,120.5C 43.5768,117.867 42.4101,115.701 40.5,114C 40.9574,113.586 41.2907,113.086 41.5,112.5C 39.1824,110.026 37.5157,107.192 36.5,104C 37.4581,102.853 37.1247,101.853 35.5,101C 35.8333,100.667 36.1667,100.333 36.5,100C 34.1256,95.5654 34.1256,91.0654 36.5,86.5C 36.0063,83.4498 36.6729,80.4498 38.5,77.5C 38.2907,76.914 37.9574,76.414 37.5,76C 40.0214,72.0932 42.3547,68.0932 44.5,64C 44.1667,63.6667 43.8333,63.3333 43.5,63C 65.3583,33.4746 94.6917,21.4746 131.5,27C 157.453,32.4067 176.619,46.9067 189,70.5C 191.478,76.2214 192.644,82.0547 192.5,88C 195.167,88.6667 195.167,89.3333 192.5,90C 193.357,90.6891 194.023,91.5224 194.5,92.5C 193.305,93.9675 193.305,95.4675 194.5,97C 193.428,101.673 191.761,106.006 189.5,110C 189.833,111 190.167,112 190.5,113C 187.151,114.017 185.817,116.017 186.5,119C 185.552,119.483 184.552,119.649 183.5,119.5C 183.762,120.978 183.429,122.311 182.5,123.5C 179.785,125.564 177.118,127.564 174.5,129.5 Z"/></g>
<g><path style="opacity:0.959" fill="#ffb11a" d="M 191.5,39.5 C 204.291,51.4083 213.291,65.7416 218.5,82.5C 219.582,93.4834 220.082,104.483 220,115.5C 217.795,141.108 205.295,159.608 182.5,171C 177.274,175.734 171.941,180.234 166.5,184.5C 169.5,180.833 172.833,177.5 176.5,174.5C 180.116,170.546 183.783,166.546 187.5,162.5C 201.163,155.329 210.33,144.329 215,129.5C 222.397,96.0718 214.397,67.0718 191,42.5C 190.26,41.2506 190.427,40.2506 191.5,39.5 Z"/></g>
<g><path style="opacity:1" fill="#ffd33f" d="M 181.5,129.5 C 180.5,129.5 179.5,129.5 178.5,129.5C 177.167,129.5 175.833,129.5 174.5,129.5C 177.118,127.564 179.785,125.564 182.5,123.5C 183.429,122.311 183.762,120.978 183.5,119.5C 184.552,119.649 185.552,119.483 186.5,119C 185.817,116.017 187.151,114.017 190.5,113C 190.167,112 189.833,111 189.5,110C 191.761,106.006 193.428,101.673 194.5,97C 193.305,95.4675 193.305,93.9675 194.5,92.5C 194.023,91.5224 193.357,90.6891 192.5,90C 195.167,89.3333 195.167,88.6667 192.5,88C 192.644,82.0547 191.478,76.2214 189,70.5C 176.619,46.9067 157.453,32.4067 131.5,27C 94.6917,21.4746 65.3583,33.4746 43.5,63C 43.8333,63.3333 44.1667,63.6667 44.5,64C 42.3547,68.0932 40.0214,72.0932 37.5,76C 37.9574,76.414 38.2907,76.914 38.5,77.5C 36.6729,80.4498 36.0063,83.4498 36.5,86.5C 34.1256,91.0654 34.1256,95.5654 36.5,100C 36.1667,100.333 35.8333,100.667 35.5,101C 37.1247,101.853 37.4581,102.853 36.5,104C 37.5157,107.192 39.1824,110.026 41.5,112.5C 41.2907,113.086 40.9574,113.586 40.5,114C 42.4101,115.701 43.5768,117.867 44,120.5C 47.414,122.411 49.914,125.077 51.5,128.5C 47.1539,128.666 42.8206,128.499 38.5,128C 35.229,122.408 32.229,116.575 29.5,110.5C 29.8333,109.833 30.1667,109.167 30.5,108.5C 28.9591,104.843 27.9591,101.01 27.5,97C 27.8588,92.257 27.8588,87.4237 27.5,82.5C 29.9938,75.1486 33.1605,68.1486 37,61.5C 40.8444,56.325 44.6777,51.1584 48.5,46C 85.0914,15.5153 124.425,11.8486 166.5,35C 184.699,47.5152 196.365,64.6819 201.5,86.5C 201.512,95.1548 201.512,102.988 201.5,110C 199.947,112.655 198.78,115.488 198,118.5C 194.909,120.424 192.742,123.09 191.5,126.5C 188.241,127.98 184.908,128.98 181.5,129.5 Z"/></g>
<g><path style="opacity:1" fill="#fcec80" d="M 139.5,91.5 C 139.194,94.3854 139.527,97.0521 140.5,99.5C 142.024,105.534 145.358,110.367 150.5,114C 157.549,115.886 163.382,114.053 168,108.5C 169.424,105.352 170.924,102.352 172.5,99.5C 171.301,103.769 170.301,108.103 169.5,112.5C 166.397,114.423 163.397,116.59 160.5,119C 156.238,119.917 152.238,119.417 148.5,117.5C 144.59,114.456 141.09,110.789 138,106.5C 137.526,108.787 136.359,111.12 134.5,113.5C 132.263,114.269 130.263,115.436 128.5,117C 124.961,117.282 121.461,117.782 118,118.5C 112.97,117.53 107.803,117.53 102.5,118.5C 100.869,116.703 98.8689,115.536 96.5,115C 93.5077,112.776 91.6743,110.276 91,107.5C 87.253,109.626 83.753,112.126 80.5,115C 76.6425,115.81 72.9758,115.643 69.5,114.5C 80.2901,114.958 86.6234,109.958 88.5,99.5C 89.4731,97.0521 89.8064,94.3854 89.5,91.5C 90.1635,93.0419 90.8302,94.7086 91.5,96.5C 92.2868,95.7579 92.9535,94.9246 93.5,94C 91.6061,92.8989 90.9394,91.5655 91.5,90C 94.5439,87.9413 95.5439,85.2746 94.5,82C 95.6853,80.647 97.0186,79.4803 98.5,78.5C 97.9747,77.8076 97.3081,77.3076 96.5,77C 98.3289,76.7265 99.8289,75.8932 101,74.5C 102.133,76.2112 103.633,76.7112 105.5,76C 103.519,75.3946 103.185,74.3946 104.5,73C 113.613,70.5562 122.28,71.5562 130.5,76C 129.376,76.2492 128.376,76.7492 127.5,77.5C 129.902,78.5754 132.236,79.7421 134.5,81C 133.833,81.3333 133.167,81.6667 132.5,82C 134.235,84.1922 135.402,86.6922 136,89.5C 136.816,90.8228 137.983,91.4894 139.5,91.5 Z"/></g>
<g><path style="opacity:1" fill="#fdea78" d="M 152.5,74.5 C 147.861,77.1391 144.194,80.8058 141.5,85.5C 140.262,87.2143 139.595,89.2143 139.5,91.5C 137.983,91.4894 136.816,90.8228 136,89.5C 135.402,86.6922 134.235,84.1922 132.5,82C 133.167,81.6667 133.833,81.3333 134.5,81C 132.236,79.7421 129.902,78.5754 127.5,77.5C 128.376,76.7492 129.376,76.2492 130.5,76C 122.28,71.5562 113.613,70.5562 104.5,73C 103.185,74.3946 103.519,75.3946 105.5,76C 103.633,76.7112 102.133,76.2112 101,74.5C 99.8289,75.8932 98.3289,76.7265 96.5,77C 97.3081,77.3076 97.9747,77.8076 98.5,78.5C 97.0186,79.4803 95.6853,80.647 94.5,82C 95.5439,85.2746 94.5439,87.9413 91.5,90C 90.9394,91.5655 91.6061,92.8989 93.5,94C 92.9535,94.9246 92.2868,95.7579 91.5,96.5C 90.8302,94.7086 90.1635,93.0419 89.5,91.5C 89.405,89.2143 88.7384,87.2143 87.5,85.5C 86.8763,83.246 85.543,81.5794 83.5,80.5C 81.1911,78.0134 78.5244,76.0134 75.5,74.5C 76.9778,74.762 78.3112,74.4287 79.5,73.5C 80.7044,70.5853 82.7044,68.4186 85.5,67C 85.1667,66.6667 84.8333,66.3333 84.5,66C 87.8333,63.3428 90.8333,60.3428 93.5,57C 98.3398,54.8214 103.173,52.6548 108,50.5C 111.135,51.7994 114.301,51.7994 117.5,50.5C 119.564,52.2614 121.731,52.5947 124,51.5C 127.169,53.8329 130.669,55.4996 134.5,56.5C 138.266,60.5549 142.266,64.3882 146.5,68C 146.167,68.3333 145.833,68.6667 145.5,69C 147.48,71.5029 149.813,73.3362 152.5,74.5 Z"/></g>
<g><path style="opacity:1" fill="#fee66b" d="M 161.5,75.5 C 158.545,74.8413 155.545,74.5079 152.5,74.5C 149.813,73.3362 147.48,71.5029 145.5,69C 145.833,68.6667 146.167,68.3333 146.5,68C 142.266,64.3882 138.266,60.5549 134.5,56.5C 130.669,55.4996 127.169,53.8329 124,51.5C 121.731,52.5947 119.564,52.2614 117.5,50.5C 114.301,51.7994 111.135,51.7994 108,50.5C 103.173,52.6548 98.3398,54.8214 93.5,57C 90.8333,60.3428 87.8333,63.3428 84.5,66C 84.8333,66.3333 85.1667,66.6667 85.5,67C 82.7044,68.4186 80.7044,70.5853 79.5,73.5C 78.3112,74.4287 76.9778,74.762 75.5,74.5C 73.1667,74.5 70.8333,74.5 68.5,74.5C 68.238,73.0222 68.5713,71.6888 69.5,70.5C 86.2186,41.7919 110.219,34.2919 141.5,48C 140.833,48.3333 140.167,48.6667 139.5,49C 141.218,49.346 142.885,49.846 144.5,50.5C 151.876,57.5568 157.542,65.8901 161.5,75.5 Z"/></g>
<g><path style="opacity:0.945" fill="#ffa915" d="M 218.5,82.5 C 223.326,95.588 225.66,109.255 225.5,123.5C 224.175,124.953 223.342,124.619 223,122.5C 217.699,153.349 200.532,174.182 171.5,185C 165.953,188.518 160.286,191.851 154.5,195C 152.527,195.495 150.527,195.662 148.5,195.5C 154.495,191.841 160.495,188.174 166.5,184.5C 171.941,180.234 177.274,175.734 182.5,171C 205.295,159.608 217.795,141.108 220,115.5C 220.082,104.483 219.582,93.4834 218.5,82.5 Z"/></g>
<g><path style="opacity:0.97" fill="#ffa915" d="M 8.5,87.5 C 9.53254,88.9117 10.1992,90.5784 10.5,92.5C 6.02696,115.254 10.8603,136.254 25,155.5C 28.5,158.667 32,161.833 35.5,165C 42.7324,168.44 49.399,172.606 55.5,177.5C 62.1499,184.146 69.4832,189.813 77.5,194.5C 66.7876,189.981 56.121,185.148 45.5,180C 22.1584,166.352 8.99176,146.185 6,119.5C 5.2917,120.381 4.45837,121.047 3.5,121.5C 3.71103,109.925 5.3777,98.5922 8.5,87.5 Z"/></g>
<g><path style="opacity:1" fill="#8e8551" d="M 87.5,85.5 C 88.7384,87.2143 89.405,89.2143 89.5,91.5C 89.8064,94.3854 89.4731,97.0521 88.5,99.5C 88.5628,94.7971 88.2295,90.1304 87.5,85.5 Z"/></g>
<g><path style="opacity:1" fill="#928952" d="M 141.5,85.5 C 140.771,90.1304 140.437,94.7971 140.5,99.5C 139.527,97.0521 139.194,94.3854 139.5,91.5C 139.595,89.2143 140.262,87.2143 141.5,85.5 Z"/></g>
<g><path style="opacity:1" fill="#ffb61d" d="M 46.5,31.5 C 50.1002,32.1795 49.7668,33.0128 45.5,34C 46.4506,34.7175 46.6172,35.5509 46,36.5C 20.4721,59.5795 10.1388,88.2462 15,122.5C 18.4856,138.136 27.319,149.469 41.5,156.5C 43.8499,162.891 47.8499,167.891 53.5,171.5C 53.7036,173.685 54.3702,175.685 55.5,177.5C 49.399,172.606 42.7324,168.44 35.5,165C 32,161.833 28.5,158.667 25,155.5C 10.8603,136.254 6.02696,115.254 10.5,92.5C 10.1992,90.5784 9.53254,88.9117 8.5,87.5C 15.272,64.7462 27.9387,46.0796 46.5,31.5 Z"/></g>
<g><path style="opacity:0.031" fill="#000000" d="M 237.5,94.5 C 237.5,110.5 237.5,126.5 237.5,142.5C 235.212,134.8 234.212,126.8 234.5,118.5C 234.212,110.2 235.212,102.2 237.5,94.5 Z"/></g>
<g><path style="opacity:1" fill="#1e1f2d" d="M 68.5,74.5 C 70.8333,74.5 73.1667,74.5 75.5,74.5C 78.5244,76.0134 81.1911,78.0134 83.5,80.5C 85.543,81.5794 86.8763,83.246 87.5,85.5C 88.2295,90.1304 88.5628,94.7971 88.5,99.5C 86.6234,109.958 80.2901,114.958 69.5,114.5C 66.0108,113.523 63.1775,111.523 61,108.5C 59.5765,105.352 58.0765,102.352 56.5,99.5C 55.5358,92.5268 57.0358,86.1934 61,80.5C 63.6877,78.636 66.1877,76.636 68.5,74.5 Z"/></g>
<g><path style="opacity:1" fill="#1b1e37" d="M 83.5,80.5 C 83.4598,83.4245 84.2932,86.0912 86,88.5C 86.6667,93.1667 86.6667,97.8333 86,102.5C 84.3267,104.789 82.4934,106.789 80.5,108.5C 85.0647,99.8157 82.7313,94.149 73.5,91.5C 75.3649,82.5392 72.1983,80.2058 64,84.5C 63.8985,87.6996 63.2319,90.6996 62,93.5C 61.2206,98.3182 61.7206,102.985 63.5,107.5C 60.4384,104.844 59.105,101.344 59.5,97C 60.022,80.2549 68.022,74.7549 83.5,80.5 Z"/></g>
<g><path style="opacity:1" fill="#363d60" d="M 80.5,108.5 C 74.5512,112.601 68.8845,112.268 63.5,107.5C 61.7206,102.985 61.2206,98.3182 62,93.5C 63.2319,90.6996 63.8985,87.6996 64,84.5C 72.1983,80.2058 75.3649,82.5392 73.5,91.5C 82.7313,94.149 85.0647,99.8157 80.5,108.5 Z"/></g>
<g><path style="opacity:1" fill="#fde977" d="M 56.5,99.5 C 58.0765,102.352 59.5765,105.352 61,108.5C 63.1775,111.523 66.0108,113.523 69.5,114.5C 72.9758,115.643 76.6425,115.81 80.5,115C 83.753,112.126 87.253,109.626 91,107.5C 91.6743,110.276 93.5077,112.776 96.5,115C 98.8689,115.536 100.869,116.703 102.5,118.5C 107.803,117.53 112.97,117.53 118,118.5C 121.461,117.782 124.961,117.282 128.5,117C 130.263,115.436 132.263,114.269 134.5,113.5C 136.359,111.12 137.526,108.787 138,106.5C 141.09,110.789 144.59,114.456 148.5,117.5C 146.473,117.338 144.473,117.505 142.5,118C 139.744,121.427 136.41,124.093 132.5,126C 121.013,131.125 109.013,131.125 96.5,126C 92.3937,122.934 88.3937,119.768 84.5,116.5C 78.9124,118.896 73.4124,118.896 68,116.5C 67.6667,117.167 67.3333,117.833 67,118.5C 64.9633,116.294 62.7966,114.294 60.5,112.5C 59.5,112.167 58.8333,111.5 58.5,110.5C 56.78,107.111 56.1134,103.444 56.5,99.5 Z"/></g>
<g><path style="opacity:1" fill="#1b1d2f" d="M 152.5,74.5 C 155.545,74.5079 158.545,74.8413 161.5,75.5C 169.622,81.3359 173.289,89.3359 172.5,99.5C 170.924,102.352 169.424,105.352 168,108.5C 163.382,114.053 157.549,115.886 150.5,114C 145.358,110.367 142.024,105.534 140.5,99.5C 140.437,94.7971 140.771,90.1304 141.5,85.5C 144.194,80.8058 147.861,77.1391 152.5,74.5 Z"/></g>
<g><path style="opacity:1" fill="#303656" d="M 153.5,80.5 C 157.803,79.7962 161.303,81.1295 164,84.5C 171.798,93.9387 171.298,102.772 162.5,111C 153.495,114.413 147.661,111.58 145,102.5C 143.965,96.5584 144.632,90.8917 147,85.5C 148.805,83.1743 150.972,81.5077 153.5,80.5 Z"/></g>
<g><path style="opacity:1" fill="#ffe56a" d="M 60.5,112.5 C 62.7966,114.294 64.9633,116.294 67,118.5C 67.3333,117.833 67.6667,117.167 68,116.5C 73.4124,118.896 78.9124,118.896 84.5,116.5C 88.3937,119.768 92.3937,122.934 96.5,126C 109.013,131.125 121.013,131.125 132.5,126C 136.41,124.093 139.744,121.427 142.5,118C 144.473,117.505 146.473,117.338 148.5,117.5C 152.238,119.417 156.238,119.917 160.5,119C 163.397,116.59 166.397,114.423 169.5,112.5C 167.372,115.13 165.039,117.63 162.5,120C 158.814,120.559 155.147,121.226 151.5,122C 146.184,126.333 141.184,129.833 136.5,132.5C 120.5,132.5 104.5,132.5 88.5,132.5C 85.9768,131.616 83.3102,130.782 80.5,130C 78.5879,127.752 76.5879,125.585 74.5,123.5C 68.2467,121.723 63.5801,118.057 60.5,112.5 Z"/></g>
<g><path style="opacity:0.986" fill="#ff9008" d="M 6.5,140.5 C 7.37644,140.369 8.04311,140.702 8.5,141.5C 21.4043,174.933 45.2377,194.933 80,201.5C 90.4035,204.965 101.237,206.632 112.5,206.5C 135.599,206.368 157.599,201.535 178.5,192C 188.533,185.971 197.366,178.471 205,169.5C 211.162,160.214 216.995,150.881 222.5,141.5C 221.541,146.306 220.208,150.973 218.5,155.5C 192.074,199.316 153.074,219.483 101.5,216C 63.5885,210.958 33.9218,192.458 12.5,160.5C 9.3786,154.274 7.3786,147.607 6.5,140.5 Z"/></g>
<g><path style="opacity:0.961" fill="#ff8503" d="M 218.5,155.5 C 216.04,162.947 212.706,169.947 208.5,176.5C 201.304,182.94 193.971,189.44 186.5,196C 141.922,226.432 96.2556,228.099 49.5,201C 42.3814,195.787 35.7148,190.121 29.5,184C 28.2068,183.51 26.8734,183.343 25.5,183.5C 19.9044,176.653 15.5711,168.986 12.5,160.5C 33.9218,192.458 63.5885,210.958 101.5,216C 153.074,219.483 192.074,199.316 218.5,155.5 Z"/></g>
<g><path style="opacity:1" fill="#ff9b0f" d="M 77.5,194.5 C 101.015,204.639 124.682,204.973 148.5,195.5C 150.527,195.662 152.527,195.495 154.5,195C 160.286,191.851 165.953,188.518 171.5,185C 200.532,174.182 217.699,153.349 223,122.5C 223.342,124.619 224.175,124.953 225.5,123.5C 224.661,129.551 223.661,135.551 222.5,141.5C 216.995,150.881 211.162,160.214 205,169.5C 197.366,178.471 188.533,185.971 178.5,192C 157.599,201.535 135.599,206.368 112.5,206.5C 101.237,206.632 90.4035,204.965 80,201.5C 45.2377,194.933 21.4043,174.933 8.5,141.5C 8.04311,140.702 7.37644,140.369 6.5,140.5C 5.14421,134.351 4.14421,128.017 3.5,121.5C 4.45837,121.047 5.2917,120.381 6,119.5C 8.99176,146.185 22.1584,166.352 45.5,180C 56.121,185.148 66.7876,189.981 77.5,194.5 Z"/></g>
<g><path style="opacity:1" fill="#5e1713" d="M 177.5,167.5 C 165.747,183.386 150.081,193.22 130.5,197C 114.417,200.012 98.7508,198.679 83.5,193C 79.4401,191.311 75.7734,189.144 72.5,186.5C 72.4431,185.391 72.1098,184.391 71.5,183.5C 78.2095,187.521 85.2095,191.021 92.5,194C 115.87,199.877 137.537,196.377 157.5,183.5C 161.439,180.738 165.272,177.738 169,174.5C 171.49,171.167 170.824,168.833 167,167.5C 132.012,172.724 97.0122,172.724 62,167.5C 60.3376,167.388 59.1709,168.054 58.5,169.5C 59.2458,170.736 59.5792,172.07 59.5,173.5C 55.2612,171.162 53.2612,167.495 53.5,162.5C 94.1716,170.48 134.838,170.48 175.5,162.5C 175.12,164.698 175.787,166.365 177.5,167.5 Z"/></g>
<g><path style="opacity:1" fill="#521716" d="M 186.5,130.5 C 188.027,130.427 189.027,131.094 189.5,132.5C 190.468,135.445 190.634,138.445 190,141.5C 188.596,146.544 187.096,151.544 185.5,156.5C 183.078,160.344 180.411,164.01 177.5,167.5C 175.787,166.365 175.12,164.698 175.5,162.5C 134.838,170.48 94.1716,170.48 53.5,162.5C 53.2612,167.495 55.2612,171.162 59.5,173.5C 62.7524,177.784 66.7524,181.118 71.5,183.5C 72.1098,184.391 72.4431,185.391 72.5,186.5C 65.3236,182.667 58.9902,177.667 53.5,171.5C 53.5,170.833 53.5,170.167 53.5,169.5C 52.6569,166.484 51.1569,163.817 49,161.5C 48.2025,159.741 48.3691,158.074 49.5,156.5C 53.3223,158.311 57.3223,159.645 61.5,160.5C 68.7882,161.822 76.1215,162.822 83.5,163.5C 85.2922,164.309 87.2922,164.809 89.5,165C 111.265,166.202 132.932,165.369 154.5,162.5C 164.286,161.633 172.786,157.966 180,151.5C 181.664,148.673 182.83,145.673 183.5,142.5C 184.458,140.698 185.125,138.698 185.5,136.5C 186.461,134.735 186.795,132.735 186.5,130.5 Z"/></g>
<g><path style="opacity:1" fill="#3f1114" d="M 41.5,130.5 C 43.0984,132.857 44.0984,135.523 44.5,138.5C 45.6927,149.352 51.3594,156.685 61.5,160.5C 57.3223,159.645 53.3223,158.311 49.5,156.5C 48.3691,158.074 48.2025,159.741 49,161.5C 51.1569,163.817 52.6569,166.484 53.5,169.5C 43.5104,159.186 38.8438,146.853 39.5,132.5C 39.8333,131.5 40.5,130.833 41.5,130.5 Z"/></g>
<g><path style="opacity:1" fill="#d2daeb" d="M 60.5,139.5 C 70.7827,141.724 81.1161,143.39 91.5,144.5C 85.1067,144.207 78.7734,144.54 72.5,145.5C 72.1024,150.181 73.1024,154.681 75.5,159C 78.4403,160.152 81.4403,161.152 84.5,162C 90.5389,162.337 96.5389,163.003 102.5,164C 109.679,164.821 116.679,164.655 123.5,163.5C 127.842,163.261 132.176,162.927 136.5,162.5C 141.177,162.165 145.844,161.665 150.5,161C 153.458,160.771 155.958,159.604 158,157.5C 159.118,154.145 160.618,150.978 162.5,148C 161.445,143.954 158.779,142.454 154.5,143.5C 158.911,141.87 163.578,140.87 168.5,140.5C 168.938,140.435 169.272,140.601 169.5,141C 168.693,146.083 168.193,151.25 168,156.5C 163.184,158.039 158.684,160.039 154.5,162.5C 132.932,165.369 111.265,166.202 89.5,165C 87.2922,164.809 85.2922,164.309 83.5,163.5C 73.706,161.126 64.0394,158.126 54.5,154.5C 51.8636,150.033 51.8636,145.533 54.5,141C 56.7078,140.809 58.7078,140.309 60.5,139.5 Z"/></g>
<g><path style="opacity:1" fill="#f9fafd" d="M 136.5,162.5 C 132.176,162.927 127.842,163.261 123.5,163.5C 114.792,163.701 106.125,163.201 97.5,162C 94.7728,159.759 94.1062,157.093 95.5,154C 93.8446,152.556 93.178,150.722 93.5,148.5C 109.518,145.843 125.518,146.009 141.5,149C 141.833,149.333 142.167,149.667 142.5,150C 141.046,152.587 139.379,155.087 137.5,157.5C 138.904,159.547 138.571,161.213 136.5,162.5 Z"/></g>
<g><path style="opacity:1" fill="#eaeef7" d="M 154.5,143.5 C 158.779,142.454 161.445,143.954 162.5,148C 160.618,150.978 159.118,154.145 158,157.5C 155.958,159.604 153.458,160.771 150.5,161C 145.844,161.665 141.177,162.165 136.5,162.5C 138.571,161.213 138.904,159.547 137.5,157.5C 139.379,155.087 141.046,152.587 142.5,150C 142.167,149.667 141.833,149.333 141.5,149C 125.518,146.009 109.518,145.843 93.5,148.5C 93.178,150.722 93.8446,152.556 95.5,154C 94.1062,157.093 94.7728,159.759 97.5,162C 106.125,163.201 114.792,163.701 123.5,163.5C 116.679,164.655 109.679,164.821 102.5,164C 96.5389,163.003 90.5389,162.337 84.5,162C 81.4403,161.152 78.4403,160.152 75.5,159C 73.1024,154.681 72.1024,150.181 72.5,145.5C 78.7734,144.54 85.1067,144.207 91.5,144.5C 112.515,144.722 133.515,144.389 154.5,143.5 Z"/></g>
<g><path style="opacity:1" fill="#a8b1cb" d="M 67.5,138.5 C 64.3467,138.157 62.0134,138.49 60.5,139.5C 58.7078,140.309 56.7078,140.809 54.5,141C 51.8636,145.533 51.8636,150.033 54.5,154.5C 64.0394,158.126 73.706,161.126 83.5,163.5C 76.1215,162.822 68.7882,161.822 61.5,160.5C 51.3594,156.685 45.6927,149.352 44.5,138.5C 44.2366,135.266 45.7366,133.932 49,134.5C 55.3687,135.519 61.5354,136.853 67.5,138.5 Z"/></g>
<g><path style="opacity:1" fill="#b4c0da" d="M 174.5,136.5 C 177.5,136.5 180.5,136.5 183.5,136.5C 183.5,138.5 183.5,140.5 183.5,142.5C 182.83,145.673 181.664,148.673 180,151.5C 172.786,157.966 164.286,161.633 154.5,162.5C 158.684,160.039 163.184,158.039 168,156.5C 168.193,151.25 168.693,146.083 169.5,141C 169.272,140.601 168.938,140.435 168.5,140.5C 168.5,139.833 168.167,139.5 167.5,139.5C 169.975,138.869 172.309,137.869 174.5,136.5 Z"/></g>
<g><path style="opacity:1" fill="#d0cfd4" d="M 67.5,138.5 C 67.8333,138.5 68.1667,138.5 68.5,138.5C 73.6322,139.973 78.9656,141.14 84.5,142C 112.244,143.101 139.911,142.268 167.5,139.5C 168.167,139.5 168.5,139.833 168.5,140.5C 163.578,140.87 158.911,141.87 154.5,143.5C 133.515,144.389 112.515,144.722 91.5,144.5C 81.1161,143.39 70.7827,141.724 60.5,139.5C 62.0134,138.49 64.3467,138.157 67.5,138.5 Z"/></g>
<g><path style="opacity:1" fill="#deac31" d="M 39.5,132.5 C 38.8438,146.853 43.5104,159.186 53.5,169.5C 53.5,170.167 53.5,170.833 53.5,171.5C 47.8499,167.891 43.8499,162.891 41.5,156.5C 39.6516,152.971 37.9849,149.305 36.5,145.5C 37.2721,141.548 37.6054,137.548 37.5,133.5C 38.1667,133.167 38.8333,132.833 39.5,132.5 Z"/></g>
<g><path style="opacity:1" fill="#aba0a1" d="M 174.5,136.5 C 172.309,137.869 169.975,138.869 167.5,139.5C 139.911,142.268 112.244,143.101 84.5,142C 78.9656,141.14 73.6322,139.973 68.5,138.5C 72.8566,138.586 77.19,138.92 81.5,139.5C 112.446,141.448 143.446,140.448 174.5,136.5 Z"/></g>
<g><path style="opacity:1" fill="#897878" d="M 185.5,136.5 C 185.125,138.698 184.458,140.698 183.5,142.5C 183.5,140.5 183.5,138.5 183.5,136.5C 180.5,136.5 177.5,136.5 174.5,136.5C 143.446,140.448 112.446,141.448 81.5,139.5C 114.254,141.023 146.754,139.023 179,133.5C 180.833,133.667 182.667,133.833 184.5,134C 185.252,134.671 185.586,135.504 185.5,136.5 Z"/></g>
<g><path style="opacity:1" fill="#6b5650" d="M 41.5,130.5 C 43.9664,129.366 46.633,129.199 49.5,130C 69.2055,134.839 89.2055,137.005 109.5,136.5C 132.944,137.077 155.944,134.743 178.5,129.5C 179.5,129.5 180.5,129.5 181.5,129.5C 183.292,129.366 184.958,129.699 186.5,130.5C 186.795,132.735 186.461,134.735 185.5,136.5C 185.586,135.504 185.252,134.671 184.5,134C 182.667,133.833 180.833,133.667 179,133.5C 146.754,139.023 114.254,141.023 81.5,139.5C 77.19,138.92 72.8566,138.586 68.5,138.5C 68.1667,138.5 67.8333,138.5 67.5,138.5C 61.5354,136.853 55.3687,135.519 49,134.5C 45.7366,133.932 44.2366,135.266 44.5,138.5C 44.0984,135.523 43.0984,132.857 41.5,130.5 Z"/></g>
<g><path style="opacity:1" fill="#6a1917" d="M 157.5,183.5 C 159.337,181.154 161.004,178.654 162.5,176C 162,175.5 161.5,175 161,174.5C 130.058,175.782 99.0581,175.782 68,174.5C 67.5,175 67,175.5 66.5,176C 67.8049,178.787 69.4715,181.287 71.5,183.5C 66.7524,181.118 62.7524,177.784 59.5,173.5C 59.5792,172.07 59.2458,170.736 58.5,169.5C 59.1709,168.054 60.3376,167.388 62,167.5C 97.0122,172.724 132.012,172.724 167,167.5C 170.824,168.833 171.49,171.167 169,174.5C 165.272,177.738 161.439,180.738 157.5,183.5 Z"/></g>
<g><path style="opacity:0.876" fill="#ff7e00" d="M 208.5,176.5 C 182.586,215.119 146.252,232.285 99.5,228C 68.6159,223.239 43.9492,208.406 25.5,183.5C 26.8734,183.343 28.2068,183.51 29.5,184C 35.7148,190.121 42.3814,195.787 49.5,201C 96.2556,228.099 141.922,226.432 186.5,196C 193.971,189.44 201.304,182.94 208.5,176.5 Z"/></g>
<g><path style="opacity:1" fill="#f6c946" d="M 185.5,156.5 C 185.628,158.655 185.128,160.655 184,162.5C 181.249,166.402 178.749,170.402 176.5,174.5C 172.833,177.5 169.5,180.833 166.5,184.5C 160.495,188.174 154.495,191.841 148.5,195.5C 124.682,204.973 101.015,204.639 77.5,194.5C 69.4832,189.813 62.1499,184.146 55.5,177.5C 54.3702,175.685 53.7036,173.685 53.5,171.5C 58.9902,177.667 65.3236,182.667 72.5,186.5C 75.7734,189.144 79.4401,191.311 83.5,193C 98.7508,198.679 114.417,200.012 130.5,197C 150.081,193.22 165.747,183.386 177.5,167.5C 180.411,164.01 183.078,160.344 185.5,156.5 Z"/></g>
<g><path style="opacity:1" fill="#791e19" d="M 157.5,183.5 C 137.537,196.377 115.87,199.877 92.5,194C 85.2095,191.021 78.2095,187.521 71.5,183.5C 69.4715,181.287 67.8049,178.787 66.5,176C 67,175.5 67.5,175 68,174.5C 99.0581,175.782 130.058,175.782 161,174.5C 161.5,175 162,175.5 162.5,176C 161.004,178.654 159.337,181.154 157.5,183.5 Z"/></g>
</svg>
