<?xml version="1.0" encoding="UTF-8"?>
<!DOCTYPE svg PUBLIC "-//W3C//DTD SVG 1.1//EN" "http://www.w3.org/Graphics/SVG/1.1/DTD/svg11.dtd">
<svg xmlns="http://www.w3.org/2000/svg" version="1.1" width="238px" height="240px" style="shape-rendering:geometricPrecision; text-rendering:geometricPrecision; image-rendering:optimizeQuality; fill-rule:evenodd; clip-rule:evenodd" xmlns:xlink="http://www.w3.org/1999/xlink">
<g><path style="opacity:1" fill="#feba20" d="M 209.5,53.5 C 209.343,54.8734 209.51,56.2068 210,57.5C 225.645,82.9398 228.978,109.94 220,138.5C 215.66,147.506 209.493,155.006 201.5,161C 186.666,169.272 171.166,176.105 155,181.5C 154.586,181.043 154.086,180.709 153.5,180.5C 151.814,181.857 150.148,183.19 148.5,184.5C 149.344,180.901 149.677,177.234 149.5,173.5C 174.903,167.588 196.07,155.588 213,137.5C 222.227,117.489 222.894,97.1562 215,76.5C 200.361,42.5412 174.861,21.7079 138.5,14C 95.3593,8.08813 60.6927,22.2548 34.5,56.5C 18.581,80.8856 15.081,106.219 24,132.5C 26.6667,136.5 29.3333,140.5 32,144.5C 48.6978,157.527 66.8645,166.86 86.5,172.5C 85.8333,173.167 85.1667,173.833 84.5,174.5C 82.8333,175.167 81.1667,175.833 79.5,176.5C 64.0773,171.303 49.4106,164.47 35.5,156C 31.8333,152.333 28.1667,148.667 24.5,145C 24.9574,144.586 25.2907,144.086 25.5,143.5C 14.4835,120.966 13.6502,97.9665 23,74.5C 26.7335,65.621 31.4002,57.2876 37,49.5C 43.5428,42.2895 50.7095,35.7895 58.5,30C 57.9341,29.0053 57.2674,28.172 56.5,27.5C 91.3493,5.73948 128.016,2.57282 166.5,18C 184.013,26.0156 198.346,37.8489 209.5,53.5 Z"/></g>
<g><path style="opacity:1" fill="#fec328" d="M 149.5,173.5 C 149.5,173.167 149.5,172.833 149.5,172.5C 149.063,170.926 148.063,169.759 146.5,169C 161.295,164.61 175.295,158.776 188.5,151.5C 195.562,149.119 201.228,144.786 205.5,138.5C 217.772,119.507 220.272,99.5073 213,78.5C 194.827,37.9637 163.327,16.6303 118.5,14.5C 76.4636,17.2272 46.297,37.2272 28,74.5C 20.8313,91.7656 20.3313,108.932 26.5,126C 29.1248,130.081 31.6248,134.248 34,138.5C 38.8061,141.973 42.9728,146.139 46.5,151C 61.9719,158.324 77.9719,164.157 94.5,168.5C 91.9648,170.017 89.2982,171.35 86.5,172.5C 66.8645,166.86 48.6978,157.527 32,144.5C 29.3333,140.5 26.6667,136.5 24,132.5C 15.081,106.219 18.581,80.8856 34.5,56.5C 60.6927,22.2548 95.3593,8.08813 138.5,14C 174.861,21.7079 200.361,42.5412 215,76.5C 222.894,97.1562 222.227,117.489 213,137.5C 196.07,155.588 174.903,167.588 149.5,173.5 Z"/></g>
<g><path style="opacity:1" fill="#fdc931" d="M 188.5,151.5 C 175.295,158.776 161.295,164.61 146.5,169C 148.063,169.759 149.063,170.926 149.5,172.5C 149.167,172.5 148.833,172.5 148.5,172.5C 143.2,168.827 137.2,166.66 130.5,166C 118.307,164.84 106.307,165.673 94.5,168.5C 77.9719,164.157 61.9719,158.324 46.5,151C 42.9728,146.139 38.8061,141.973 34,138.5C 31.6248,134.248 29.1248,130.081 26.5,126C 20.3313,108.932 20.8313,91.7656 28,74.5C 46.297,37.2272 76.4636,17.2272 118.5,14.5C 163.327,16.6303 194.827,37.9637 213,78.5C 220.272,99.5073 217.772,119.507 205.5,138.5C 201.228,144.786 195.562,149.119 188.5,151.5 Z"/></g>
<g><path style="opacity:1" fill="#fed13b" d="M 207.5,103.5 C 207.167,103.5 206.833,103.5 206.5,103.5C 206.08,99.9925 205.08,96.6592 203.5,93.5C 204.16,90.1021 203.494,86.7687 201.5,83.5C 202.668,82.0944 202.335,80.9277 200.5,80C 200.616,78.7318 200.949,77.3985 201.5,76C 186.47,44.2184 161.136,26.385 125.5,22.5C 120.558,23.0567 115.725,23.0567 111,22.5C 103.803,23.7702 96.6364,25.6035 89.5,28C 83.244,31.111 76.9106,33.9443 70.5,36.5C 70.5,37.5 70.5,38.5 70.5,39.5C 65.8125,40.3446 61.8125,42.5113 58.5,46C 49.3913,54.7306 43.058,64.3972 39.5,75C 39.1728,79.9771 37.8395,84.6437 35.5,89C 35.9891,90.1385 36.3225,91.3052 36.5,92.5C 34.1955,97.0739 32.1955,101.741 30.5,106.5C 30.8436,102.772 31.5102,99.1051 32.5,95.5C 31.8333,94.5 31.1667,93.5 30.5,92.5C 32.3884,85.7279 33.8884,79.0612 35,72.5C 38.926,67.7587 41.926,62.4253 44,56.5C 48.5206,52.9789 52.3539,48.8122 55.5,44C 81.4728,22.6891 111.139,15.6891 144.5,23C 149.564,24.8489 154.564,26.8489 159.5,29C 161.134,29.4935 162.801,29.6602 164.5,29.5C 164.5,30.5 164.5,31.5 164.5,32.5C 166.262,32.3573 167.929,32.6906 169.5,33.5C 173.072,36.7632 176.739,39.7632 180.5,42.5C 181.729,43.2811 183.062,43.7811 184.5,44C 186.413,47.3681 188.913,50.2014 192,52.5C 192.49,53.7932 192.657,55.1266 192.5,56.5C 193.5,56.5 194.5,56.5 195.5,56.5C 200.058,65.7599 204.058,74.9266 207.5,84C 206.268,86.0266 206.602,87.3599 208.5,88C 206.285,89.9426 206.285,91.6093 208.5,93C 208.167,93.3333 207.833,93.6667 207.5,94C 210.071,97.1939 210.071,100.361 207.5,103.5 Z"/></g>
<g><path style="opacity:1" fill="#fed543" d="M 203.5,93.5 C 200.529,90.1924 197.529,86.859 194.5,83.5C 192.939,80.2269 191.272,76.8936 189.5,73.5C 190.565,71.1472 190.398,68.8139 189,66.5C 185.77,63.7033 183.27,60.37 181.5,56.5C 178.073,53.8014 174.073,50.968 169.5,48C 168.167,47 168.167,46 169.5,45C 167.655,43.872 165.655,43.372 163.5,43.5C 163.67,42.1779 163.337,41.0113 162.5,40C 133.645,25.1234 104.645,25.4568 75.5,41C 68.0028,46.6666 61.3361,52.6666 55.5,59C 51.7715,64.4354 48.4382,70.602 45.5,77.5C 45.8333,78.1667 46.1667,78.8333 46.5,79.5C 45.1468,80.5237 44.4802,81.857 44.5,83.5C 41.8046,86.5256 39.1379,89.5256 36.5,92.5C 36.3225,91.3052 35.9891,90.1385 35.5,89C 37.8395,84.6437 39.1728,79.9771 39.5,75C 43.058,64.3972 49.3913,54.7306 58.5,46C 61.8125,42.5113 65.8125,40.3446 70.5,39.5C 70.5,38.5 70.5,37.5 70.5,36.5C 76.9106,33.9443 83.244,31.111 89.5,28C 96.6364,25.6035 103.803,23.7702 111,22.5C 115.725,23.0567 120.558,23.0567 125.5,22.5C 161.136,26.385 186.47,44.2184 201.5,76C 200.949,77.3985 200.616,78.7318 200.5,80C 202.335,80.9277 202.668,82.0944 201.5,83.5C 203.494,86.7687 204.16,90.1021 203.5,93.5 Z"/></g>
<g><path style="opacity:1" fill="#feda4e" d="M 194.5,83.5 C 191.996,82.4161 189.663,81.0828 187.5,79.5C 185.766,75.7004 183.766,72.0337 181.5,68.5C 181.68,67.4461 182.013,66.4461 182.5,65.5C 177.908,60.5955 173.575,55.5955 169.5,50.5C 168.264,49.7542 166.93,49.4208 165.5,49.5C 165.5,48.1667 165.5,46.8333 165.5,45.5C 164.127,45.6567 162.793,45.49 161.5,45C 161.833,44.6667 162.167,44.3333 162.5,44C 158.838,41.6753 154.838,40.3419 150.5,40C 150.833,39.6667 151.167,39.3333 151.5,39C 147.89,37.7246 144.39,36.2246 141,34.5C 139.856,34.9111 138.689,35.2444 137.5,35.5C 133.446,34.0863 129.28,33.0863 125,32.5C 122.106,32.9566 119.106,32.9566 116,32.5C 113.432,32.9337 110.932,33.6003 108.5,34.5C 107.554,34.0133 106.554,33.6799 105.5,33.5C 101.434,34.4023 97.6011,35.7356 94,37.5C 93.6667,37.1667 93.3333,36.8333 93,36.5C 90.1586,38.5058 86.9919,39.8391 83.5,40.5C 81.1797,41.6203 79.0131,43.6203 77,46.5C 76.2825,45.5494 75.4491,45.3828 74.5,46C 70.7226,51.6122 66.0559,56.4455 60.5,60.5C 59.9806,64.1776 58.6473,67.8443 56.5,71.5C 55.5762,73.3905 54.2429,74.8905 52.5,76C 53.2524,76.6708 53.5858,77.5041 53.5,78.5C 50.8646,79.8109 48.5313,81.4776 46.5,83.5C 45.8333,83.5 45.1667,83.5 44.5,83.5C 44.4802,81.857 45.1468,80.5237 46.5,79.5C 46.1667,78.8333 45.8333,78.1667 45.5,77.5C 48.4382,70.602 51.7715,64.4354 55.5,59C 61.3361,52.6666 68.0028,46.6666 75.5,41C 104.645,25.4568 133.645,25.1234 162.5,40C 163.337,41.0113 163.67,42.1779 163.5,43.5C 165.655,43.372 167.655,43.872 169.5,45C 168.167,46 168.167,47 169.5,48C 174.073,50.968 178.073,53.8014 181.5,56.5C 183.27,60.37 185.77,63.7033 189,66.5C 190.398,68.8139 190.565,71.1472 189.5,73.5C 191.272,76.8936 192.939,80.2269 194.5,83.5 Z"/></g>
<g><path style="opacity:1" fill="#fedd54" d="M 187.5,79.5 C 184.426,78.6976 181.426,77.6976 178.5,76.5C 175.875,75.5595 175.875,74.3928 178.5,73C 174.5,72.3333 174.5,71.6667 178.5,71C 176.833,69.3333 175.167,67.6667 173.5,66C 174.167,65.3333 174.833,64.6667 175.5,64C 173.947,62.9032 172.614,61.5699 171.5,60C 170.551,59.3828 169.718,59.5494 169,60.5C 154.645,41.7336 135.812,33.5669 112.5,36C 103.796,36.8399 95.796,39.6732 88.5,44.5C 86.7859,43.3915 86.1192,44.0582 86.5,46.5C 82.4717,48.343 78.8051,50.843 75.5,54C 73.9632,55.1096 73.2965,56.6096 73.5,58.5C 72.1266,58.3433 70.7932,58.51 69.5,59C 69.8333,59.3333 70.1667,59.6667 70.5,60C 67.4557,60.3589 67.1224,61.0255 69.5,62C 68.5,62.3333 67.5,62.6667 66.5,63C 67.0606,64.5655 66.3939,65.8989 64.5,67C 64.8333,67.3333 65.1667,67.6667 65.5,68C 62.6971,69.1122 61.6971,70.9455 62.5,73.5C 62.1543,74.6956 61.6543,74.6956 61,73.5C 60.5357,74.0944 60.369,74.7611 60.5,75.5C 60.5,75.8333 60.5,76.1667 60.5,76.5C 58.2278,77.3186 55.8945,77.9853 53.5,78.5C 53.5858,77.5041 53.2524,76.6708 52.5,76C 54.2429,74.8905 55.5762,73.3905 56.5,71.5C 58.6473,67.8443 59.9806,64.1776 60.5,60.5C 66.0559,56.4455 70.7226,51.6122 74.5,46C 75.4491,45.3828 76.2825,45.5494 77,46.5C 79.0131,43.6203 81.1797,41.6203 83.5,40.5C 86.9919,39.8391 90.1586,38.5058 93,36.5C 93.3333,36.8333 93.6667,37.1667 94,37.5C 97.6011,35.7356 101.434,34.4023 105.5,33.5C 106.554,33.6799 107.554,34.0133 108.5,34.5C 110.932,33.6003 113.432,32.9337 116,32.5C 119.106,32.9566 122.106,32.9566 125,32.5C 129.28,33.0863 133.446,34.0863 137.5,35.5C 138.689,35.2444 139.856,34.9111 141,34.5C 144.39,36.2246 147.89,37.7246 151.5,39C 151.167,39.3333 150.833,39.6667 150.5,40C 154.838,40.3419 158.838,41.6753 162.5,44C 162.167,44.3333 161.833,44.6667 161.5,45C 162.793,45.49 164.127,45.6567 165.5,45.5C 165.5,46.8333 165.5,48.1667 165.5,49.5C 166.93,49.4208 168.264,49.7542 169.5,50.5C 173.575,55.5955 177.908,60.5955 182.5,65.5C 182.013,66.4461 181.68,67.4461 181.5,68.5C 183.766,72.0337 185.766,75.7004 187.5,79.5 Z"/></g>
<g><path style="opacity:1" fill="#fee56a" d="M 174.5,76.5 C 172.833,76.5 171.167,76.5 169.5,76.5C 166.833,76.5 164.167,76.5 161.5,76.5C 157.623,75.473 155.623,72.8063 155.5,68.5C 153.801,68.6602 152.134,68.4935 150.5,68C 147.119,63.6171 143.119,59.9504 138.5,57C 123.171,49.746 108.504,51.0793 94.5,61C 94.8333,61.3333 95.1667,61.6667 95.5,62C 93.8333,63.1667 92.1667,64.3333 90.5,65.5C 89.7554,67.7471 88.422,69.5804 86.5,71C 86.8333,71.3333 87.1667,71.6667 87.5,72C 84.5744,72.687 83.2411,74.5203 83.5,77.5C 80.8333,77.1667 78.1667,76.8333 75.5,76.5C 72.1667,76.5 68.8333,76.5 65.5,76.5C 63.8333,76.5 62.1667,76.5 60.5,76.5C 60.5,76.1667 60.5,75.8333 60.5,75.5C 64.5546,75.8242 68.5546,75.4909 72.5,74.5C 74.3555,72.4562 75.0222,70.2895 74.5,68C 78.0922,64.6589 81.0922,60.8256 83.5,56.5C 87.9294,54.5608 91.5961,51.7274 94.5,48C 117.099,37.6017 137.932,40.7684 157,57.5C 160.574,63.3806 164.074,69.2139 167.5,75C 170.036,75.1862 172.369,75.6862 174.5,76.5 Z"/></g>
<g><path style="opacity:1" fill="#fee05c" d="M 178.5,76.5 C 177.167,76.5 175.833,76.5 174.5,76.5C 172.369,75.6862 170.036,75.1862 167.5,75C 164.074,69.2139 160.574,63.3806 157,57.5C 137.932,40.7684 117.099,37.6017 94.5,48C 91.5961,51.7274 87.9294,54.5608 83.5,56.5C 81.0922,60.8256 78.0922,64.6589 74.5,68C 75.0222,70.2895 74.3555,72.4562 72.5,74.5C 68.5546,75.4909 64.5546,75.8242 60.5,75.5C 60.369,74.7611 60.5357,74.0944 61,73.5C 61.6543,74.6956 62.1543,74.6956 62.5,73.5C 61.6971,70.9455 62.6971,69.1122 65.5,68C 65.1667,67.6667 64.8333,67.3333 64.5,67C 66.3939,65.8989 67.0606,64.5655 66.5,63C 67.5,62.6667 68.5,62.3333 69.5,62C 67.1224,61.0255 67.4557,60.3589 70.5,60C 70.1667,59.6667 69.8333,59.3333 69.5,59C 70.7932,58.51 72.1266,58.3433 73.5,58.5C 73.2965,56.6096 73.9632,55.1096 75.5,54C 78.8051,50.843 82.4717,48.343 86.5,46.5C 86.1192,44.0582 86.7859,43.3915 88.5,44.5C 95.796,39.6732 103.796,36.8399 112.5,36C 135.812,33.5669 154.645,41.7336 169,60.5C 169.718,59.5494 170.551,59.3828 171.5,60C 172.614,61.5699 173.947,62.9032 175.5,64C 174.833,64.6667 174.167,65.3333 173.5,66C 175.167,67.6667 176.833,69.3333 178.5,71C 174.5,71.6667 174.5,72.3333 178.5,73C 175.875,74.3928 175.875,75.5595 178.5,76.5 Z"/></g>
<g><path style="opacity:0.988" fill="#ffb11a" d="M 209.5,53.5 C 217.617,64.3283 223.617,76.3283 227.5,89.5C 226.053,90.1342 225.387,91.3009 225.5,93C 231.315,120.062 224.648,143.729 205.5,164C 198.924,168.787 191.924,172.787 184.5,176C 168.882,181.651 153.048,186.485 137,190.5C 136.439,189.978 135.772,189.645 135,189.5C 121.175,190.213 107.341,190.88 93.5,191.5C 99.898,189.404 106.565,187.904 113.5,187C 124.5,186.667 135.5,186.333 146.5,186C 147.416,185.722 148.082,185.222 148.5,184.5C 150.148,183.19 151.814,181.857 153.5,180.5C 154.086,180.709 154.586,181.043 155,181.5C 171.166,176.105 186.666,169.272 201.5,161C 209.493,155.006 215.66,147.506 220,138.5C 228.978,109.94 225.645,82.9398 210,57.5C 209.51,56.2068 209.343,54.8734 209.5,53.5 Z"/></g>
<g><path style="opacity:1" fill="#feea77" d="M 161.5,76.5 C 157.74,78.2155 154.073,80.2155 150.5,82.5C 148.999,83.7515 147.332,84.7515 145.5,85.5C 144.448,85.6495 143.448,85.4828 142.5,85C 143.239,82.7646 143.239,80.7646 142.5,79C 140.1,78.8142 137.766,78.3142 135.5,77.5C 135.167,76.8333 134.833,76.1667 134.5,75.5C 132.5,74.8333 130.5,74.1667 128.5,73.5C 129.98,72.8869 131.313,72.5536 132.5,72.5C 128.964,70.9102 125.297,70.4102 121.5,71C 125.424,71.7985 125.424,72.2985 121.5,72.5C 118.643,70.5386 115.643,69.8719 112.5,70.5C 109.972,71.4978 109.972,72.3311 112.5,73C 110.433,73.5356 108.599,73.0356 107,71.5C 106.508,72.549 106.674,73.549 107.5,74.5C 106.271,75.2811 104.938,75.7811 103.5,76C 103.833,76.3333 104.167,76.6667 104.5,77C 103.5,77.3333 102.5,77.6667 101.5,78C 101.833,78.3333 102.167,78.6667 102.5,79C 100.167,79.3333 97.8333,79.6667 95.5,80C 97.3939,81.1011 98.0606,82.4345 97.5,84C 96.6266,85.045 95.6266,85.8783 94.5,86.5C 91.7139,84.8874 89.0472,83.054 86.5,81C 82.693,79.5716 79.0264,78.0716 75.5,76.5C 78.1667,76.8333 80.8333,77.1667 83.5,77.5C 83.2411,74.5203 84.5744,72.687 87.5,72C 87.1667,71.6667 86.8333,71.3333 86.5,71C 88.422,69.5804 89.7554,67.7471 90.5,65.5C 92.1667,64.3333 93.8333,63.1667 95.5,62C 95.1667,61.6667 94.8333,61.3333 94.5,61C 108.504,51.0793 123.171,49.746 138.5,57C 143.119,59.9504 147.119,63.6171 150.5,68C 152.134,68.4935 153.801,68.6602 155.5,68.5C 155.623,72.8063 157.623,75.473 161.5,76.5 Z"/></g>
<g><path style="opacity:1" fill="#867b6c" d="M 169.5,76.5 C 171.167,76.5 172.833,76.5 174.5,76.5C 175.833,76.5 177.167,76.5 178.5,76.5C 181.426,77.6976 184.426,78.6976 187.5,79.5C 189.663,81.0828 191.996,82.4161 194.5,83.5C 197.529,86.859 200.529,90.1924 203.5,93.5C 205.08,96.6592 206.08,99.9925 206.5,103.5C 202.513,96.3302 197.513,89.8302 191.5,84C 187.952,82.0593 184.286,80.3926 180.5,79C 177.961,78.2042 175.628,78.3709 173.5,79.5C 171.77,78.9744 170.436,77.9744 169.5,76.5 Z"/></g>
<g><path style="opacity:1" fill="#fdec81" d="M 145.5,85.5 C 132.7,100.569 131.033,116.902 140.5,134.5C 138.983,134.489 137.816,133.823 137,132.5C 136.122,129.785 134.622,127.451 132.5,125.5C 123.795,128.895 115.295,128.895 107,125.5C 105.674,126.799 104.34,128.132 103,129.5C 102.383,130.449 102.549,131.282 103.5,132C 100.654,135.443 97.9872,138.943 95.5,142.5C 92.8174,144.336 89.8174,145.336 86.5,145.5C 90.8333,142.5 94.5,138.833 97.5,134.5C 104.415,123.752 106.249,112.085 103,99.5C 100.643,94.7678 97.81,90.4345 94.5,86.5C 95.6266,85.8783 96.6266,85.045 97.5,84C 98.0606,82.4345 97.3939,81.1011 95.5,80C 97.8333,79.6667 100.167,79.3333 102.5,79C 102.167,78.6667 101.833,78.3333 101.5,78C 102.5,77.6667 103.5,77.3333 104.5,77C 104.167,76.6667 103.833,76.3333 103.5,76C 104.938,75.7811 106.271,75.2811 107.5,74.5C 106.674,73.549 106.508,72.549 107,71.5C 108.599,73.0356 110.433,73.5356 112.5,73C 109.972,72.3311 109.972,71.4978 112.5,70.5C 115.643,69.8719 118.643,70.5386 121.5,72.5C 125.424,72.2985 125.424,71.7985 121.5,71C 125.297,70.4102 128.964,70.9102 132.5,72.5C 131.313,72.5536 129.98,72.8869 128.5,73.5C 130.5,74.1667 132.5,74.8333 134.5,75.5C 134.833,76.1667 135.167,76.8333 135.5,77.5C 137.766,78.3142 140.1,78.8142 142.5,79C 143.239,80.7646 143.239,82.7646 142.5,85C 143.448,85.4828 144.448,85.6495 145.5,85.5 Z"/></g>
<g><path style="opacity:1" fill="#1a1c2d" d="M 161.5,76.5 C 164.167,76.5 166.833,76.5 169.5,76.5C 170.436,77.9744 171.77,78.9744 173.5,79.5C 175.196,81.5248 176.863,83.5248 178.5,85.5C 178.731,89.993 178.064,94.3263 176.5,98.5C 172.109,104.853 166.109,107.019 158.5,105C 156.004,103.334 153.671,101.5 151.5,99.5C 151.107,97.7162 150.441,96.0495 149.5,94.5C 149.307,90.4338 149.64,86.4338 150.5,82.5C 154.073,80.2155 157.74,78.2155 161.5,76.5 Z"/></g>
<g><path style="opacity:1" fill="#58586a" d="M 167.5,85.5 C 167.312,90.8631 164.645,93.0297 159.5,92C 158.364,90.8549 157.364,89.6883 156.5,88.5C 156.644,83.1872 159.31,81.0206 164.5,82C 165.71,83.0391 166.71,84.2058 167.5,85.5 Z"/></g>
<g><path style="opacity:0.986" fill="#feaa16" d="M 12.5,88.5 C 13.3764,88.3691 14.0431,88.7025 14.5,89.5C 5.0954,138.79 24.7621,169.79 73.5,182.5C 74.1835,182.137 74.8501,181.804 75.5,181.5C 75.2155,183.415 75.5489,185.081 76.5,186.5C 76.5,187.167 76.5,187.833 76.5,188.5C 76.9652,192.629 79.2985,194.629 83.5,194.5C 86.7874,193.304 90.1207,192.304 93.5,191.5C 107.341,190.88 121.175,190.213 135,189.5C 135.772,189.645 136.439,189.978 137,190.5C 153.048,186.485 168.882,181.651 184.5,176C 191.924,172.787 198.924,168.787 205.5,164C 224.648,143.729 231.315,120.062 225.5,93C 225.387,91.3009 226.053,90.1342 227.5,89.5C 230.058,98.2952 231.392,107.295 231.5,116.5C 229.348,117.077 229.015,118.244 230.5,120C 229.572,120.388 228.905,121.055 228.5,122C 223.504,152.717 206.504,173.383 177.5,184C 164.454,186.845 151.454,189.845 138.5,193C 125.982,193.764 113.482,193.597 101,192.5C 95.0003,193.058 89.167,194.058 83.5,195.5C 77.8119,195.159 74.1452,192.159 72.5,186.5C 32.2811,176.961 11.6144,151.628 10.5,110.5C 9.67504,109.614 8.67504,109.281 7.5,109.5C 8.39525,104.188 9.22858,98.8546 10,93.5C 10.3736,91.5087 11.207,89.842 12.5,88.5 Z"/></g>
<g><path style="opacity:1" fill="#181a2a" d="M 60.5,76.5 C 62.1667,76.5 63.8333,76.5 65.5,76.5C 67.4632,77.8202 69.4632,79.1535 71.5,80.5C 71.5,80.8333 71.5,81.1667 71.5,81.5C 70.7109,81.7828 70.0442,82.2828 69.5,83C 73.2027,86.396 74.3694,90.5626 73,95.5C 71.4709,91.3085 68.6375,88.3085 64.5,86.5C 64.6716,85.5084 64.3382,84.8417 63.5,84.5C 60.0855,80.6072 56.7522,80.6072 53.5,84.5C 49.2807,89.0347 48.614,94.0347 51.5,99.5C 51.0431,100.298 50.3764,100.631 49.5,100.5C 49.1667,99.5 48.5,98.8333 47.5,98.5C 46.8333,96.5 46.1667,94.5 45.5,92.5C 45.2641,89.3915 45.5975,86.3915 46.5,83.5C 48.5313,81.4776 50.8646,79.8109 53.5,78.5C 55.8945,77.9853 58.2278,77.3186 60.5,76.5 Z"/></g>
<g><path style="opacity:1" fill="#56576a" d="M 63.5,84.5 C 63.8942,92.5644 60.5609,94.5644 53.5,90.5C 53.5,88.5 53.5,86.5 53.5,84.5C 56.7522,80.6072 60.0855,80.6072 63.5,84.5 Z"/></g>
<g><path style="opacity:1" fill="#feb51c" d="M 56.5,27.5 C 57.2674,28.172 57.9341,29.0053 58.5,30C 50.7095,35.7895 43.5428,42.2895 37,49.5C 31.4002,57.2876 26.7335,65.621 23,74.5C 13.6502,97.9665 14.4835,120.966 25.5,143.5C 25.2907,144.086 24.9574,144.586 24.5,145C 28.1667,148.667 31.8333,152.333 35.5,156C 49.4106,164.47 64.0773,171.303 79.5,176.5C 78.1667,178.167 76.8333,179.833 75.5,181.5C 74.8501,181.804 74.1835,182.137 73.5,182.5C 24.7621,169.79 5.0954,138.79 14.5,89.5C 14.0431,88.7025 13.3764,88.3691 12.5,88.5C 19.7484,62.9032 34.4151,42.5699 56.5,27.5 Z"/></g>
<g><path style="opacity:1" fill="#2f3659" d="M 167.5,85.5 C 168.337,87.8587 169.837,89.8587 172,91.5C 173.605,100.894 169.771,104.394 160.5,102C 154.19,98.9433 152.857,94.4433 156.5,88.5C 157.364,89.6883 158.364,90.8549 159.5,92C 164.645,93.0297 167.312,90.8631 167.5,85.5 Z"/></g>
<g><path style="opacity:1" fill="#23273d" d="M 71.5,81.5 C 72.7899,82.0577 73.6232,83.0577 74,84.5C 74.498,87.4816 74.6646,90.4816 74.5,93.5C 74.3713,95.2161 74.038,96.8828 73.5,98.5C 66.3714,106.423 58.3714,107.423 49.5,101.5C 49.5,101.167 49.5,100.833 49.5,100.5C 50.3764,100.631 51.0431,100.298 51.5,99.5C 48.614,94.0347 49.2807,89.0347 53.5,84.5C 53.5,86.5 53.5,88.5 53.5,90.5C 51.9232,99.0872 55.5898,102.587 64.5,101C 66.448,99.561 67.7814,97.7277 68.5,95.5C 66.9948,92.478 65.6615,89.478 64.5,86.5C 68.6375,88.3085 71.4709,91.3085 73,95.5C 74.3694,90.5626 73.2027,86.396 69.5,83C 70.0442,82.2828 70.7109,81.7828 71.5,81.5 Z"/></g>
<g><path style="opacity:1" fill="#333b5f" d="M 63.5,84.5 C 64.3382,84.8417 64.6716,85.5084 64.5,86.5C 65.6615,89.478 66.9948,92.478 68.5,95.5C 67.7814,97.7277 66.448,99.561 64.5,101C 55.5898,102.587 51.9232,99.0872 53.5,90.5C 60.5609,94.5644 63.8942,92.5644 63.5,84.5 Z"/></g>
<g><path style="opacity:1" fill="#968f82" d="M 65.5,76.5 C 68.8333,76.5 72.1667,76.5 75.5,76.5C 79.0264,78.0716 82.693,79.5716 86.5,81C 89.0472,83.054 91.7139,84.8874 94.5,86.5C 97.81,90.4345 100.643,94.7678 103,99.5C 106.249,112.085 104.415,123.752 97.5,134.5C 99.0904,129.559 100.59,124.559 102,119.5C 104.5,106.605 101,95.7718 91.5,87C 87.0587,84.2277 82.392,81.8944 77.5,80C 75.2884,79.2109 73.2884,79.3775 71.5,80.5C 69.4632,79.1535 67.4632,77.8202 65.5,76.5 Z"/></g>
<g><path style="opacity:1" fill="#e6e9eb" d="M 199.5,125.5 C 184.293,139.281 167.626,141.115 149.5,131C 140.443,122.589 137.943,112.423 142,100.5C 143.301,97.042 145.467,94.3754 148.5,92.5C 148.328,93.4916 148.662,94.1583 149.5,94.5C 150.441,96.0495 151.107,97.7162 151.5,99.5C 150.85,99.1961 150.183,98.8627 149.5,98.5C 146.681,103.939 146.847,109.272 150,114.5C 160.915,126.291 173.415,128.291 187.5,120.5C 192.368,116.804 195.368,111.971 196.5,106C 194.834,100.488 192.5,95.3211 189.5,90.5C 186.348,89.091 183.348,87.4243 180.5,85.5C 179.833,89.5 179.167,93.5 178.5,97.5C 177.817,97.8627 177.15,98.1961 176.5,98.5C 178.064,94.3263 178.731,89.993 178.5,85.5C 182.14,82.8629 185.807,83.1962 189.5,86.5C 193.855,91.6993 197.855,97.1993 201.5,103C 204.6,110.978 203.933,118.478 199.5,125.5 Z"/></g>
<g><path style="opacity:1" fill="#f1f2f4" d="M 151.5,99.5 C 153.671,101.5 156.004,103.334 158.5,105C 166.109,107.019 172.109,104.853 176.5,98.5C 177.15,98.1961 177.817,97.8627 178.5,97.5C 179.167,93.5 179.833,89.5 180.5,85.5C 183.348,87.4243 186.348,89.091 189.5,90.5C 192.5,95.3211 194.834,100.488 196.5,106C 195.368,111.971 192.368,116.804 187.5,120.5C 173.415,128.291 160.915,126.291 150,114.5C 146.847,109.272 146.681,103.939 149.5,98.5C 150.183,98.8627 150.85,99.1961 151.5,99.5 Z"/></g>
<g><path style="opacity:0.992" fill="#ff9e0f" d="M 6.5,121.5 C 8.74526,121.541 9.41193,122.375 8.5,124C 12.4584,142.91 21.125,159.243 34.5,173C 40.3613,178.059 46.6946,182.392 53.5,186C 63.7033,189.54 73.7033,193.374 83.5,197.5C 90.0235,195.024 96.5235,195.024 103,197.5C 112.755,197.539 122.589,197.372 132.5,197C 141.625,196.153 150.958,195.153 160.5,194C 198.037,186.799 220.87,164.299 229,126.5C 229.671,127.252 230.504,127.586 231.5,127.5C 231.384,130.86 231.051,134.193 230.5,137.5C 226.085,143.992 222.418,150.992 219.5,158.5C 212.894,168.319 204.894,176.986 195.5,184.5C 185.456,189.953 175.123,194.619 164.5,198.5C 163.833,198.167 163.167,197.833 162.5,197.5C 157.875,198.925 153.208,200.258 148.5,201.5C 146.329,201.273 144.162,200.94 142,200.5C 136.741,201.917 131.408,202.917 126,203.5C 119.004,203.352 111.838,202.685 104.5,201.5C 103.446,201.68 102.446,202.013 101.5,202.5C 97.0587,202.183 92.8921,201.183 89,199.5C 87.3333,199.833 85.6667,200.167 84,200.5C 71.6087,196.925 59.442,192.759 47.5,188C 38.6938,180.527 30.5271,172.36 23,163.5C 17.2659,155.308 13.2659,146.308 11,136.5C 10.3292,135.748 9.4959,135.414 8.5,135.5C 7.47938,131.02 6.81271,126.353 6.5,121.5 Z"/></g>
<g><path style="opacity:1" fill="#9c968a" d="M 44.5,83.5 C 45.1667,83.5 45.8333,83.5 46.5,83.5C 45.5975,86.3915 45.2641,89.3915 45.5,92.5C 44.71,91.3915 44.21,90.0581 44,88.5C 33.9146,98.8858 30.9146,111.219 35,125.5C 37.592,131.239 40.7587,136.573 44.5,141.5C 38.9152,136.921 34.9152,131.254 32.5,124.5C 30.9365,118.645 30.2698,112.645 30.5,106.5C 32.1955,101.741 34.1955,97.0739 36.5,92.5C 39.1379,89.5256 41.8046,86.5256 44.5,83.5 Z"/></g>
<g><path style="opacity:1" fill="#d4d8dd" d="M 148.5,92.5 C 145.467,94.3754 143.301,97.042 142,100.5C 137.943,112.423 140.443,122.589 149.5,131C 167.626,141.115 184.293,139.281 199.5,125.5C 199.858,129.95 198.192,133.45 194.5,136C 175.265,148.692 157.765,146.525 142,129.5C 138.008,121.997 136.508,113.997 137.5,105.5C 140.721,99.685 144.221,94.0183 148,88.5C 148.49,89.7932 148.657,91.1266 148.5,92.5 Z"/></g>
<g><path style="opacity:1" fill="#c1c6ca" d="M 206.5,103.5 C 209.012,122.98 201.679,137.147 184.5,146C 161.806,151.903 145.973,144.07 137,122.5C 136.182,116.651 136.348,110.985 137.5,105.5C 136.508,113.997 138.008,121.997 142,129.5C 157.765,146.525 175.265,148.692 194.5,136C 198.192,133.45 199.858,129.95 199.5,125.5C 203.933,118.478 204.6,110.978 201.5,103C 197.855,97.1993 193.855,91.6993 189.5,86.5C 185.807,83.1962 182.14,82.8629 178.5,85.5C 176.863,83.5248 175.196,81.5248 173.5,79.5C 175.628,78.3709 177.961,78.2042 180.5,79C 184.286,80.3926 187.952,82.0593 191.5,84C 197.513,89.8302 202.513,96.3302 206.5,103.5 Z"/></g>
<g><path style="opacity:1" fill="#c8ccd0" d="M 97.5,134.5 C 93.5325,136.832 89.8658,139.665 86.5,143C 77.8251,148.13 68.4917,149.796 58.5,148C 54.1378,145.128 49.4712,142.961 44.5,141.5C 40.7587,136.573 37.592,131.239 35,125.5C 30.9146,111.219 33.9146,98.8858 44,88.5C 44.21,90.0581 44.71,91.3915 45.5,92.5C 46.1667,94.5 46.8333,96.5 47.5,98.5C 46.5272,97.2086 45.5272,97.2086 44.5,98.5C 42.4104,95.9912 40.5771,96.3246 39,99.5C 35.2284,110.181 36.0617,120.514 41.5,130.5C 45.5144,132.004 48.8478,134.504 51.5,138C 71.0496,145.661 86.883,141.161 99,124.5C 104.92,107.711 100.253,95.0441 85,86.5C 81.9739,85.1282 78.8073,84.4615 75.5,84.5C 75.81,87.7131 75.4767,90.7131 74.5,93.5C 74.6646,90.4816 74.498,87.4816 74,84.5C 73.6232,83.0577 72.7899,82.0577 71.5,81.5C 71.5,81.1667 71.5,80.8333 71.5,80.5C 73.2884,79.3775 75.2884,79.2109 77.5,80C 82.392,81.8944 87.0587,84.2277 91.5,87C 101,95.7718 104.5,106.605 102,119.5C 100.59,124.559 99.0904,129.559 97.5,134.5 Z"/></g>
<g><path style="opacity:1" fill="#e7e9ec" d="M 47.5,98.5 C 48.5,98.8333 49.1667,99.5 49.5,100.5C 49.5,100.833 49.5,101.167 49.5,101.5C 48.8501,101.196 48.1835,100.863 47.5,100.5C 46.3452,103.446 46.1786,106.446 47,109.5C 55.7417,122.138 66.9083,125.305 80.5,119C 84.5138,115.685 87.8472,111.685 90.5,107C 89.2955,103.284 88.4622,99.4503 88,95.5C 85.1291,91.9841 81.6291,89.3174 77.5,87.5C 76.018,90.2565 76.518,92.5899 79,94.5C 79.6667,95.8333 79.6667,97.1667 79,98.5C 78.8038,96.7139 77.9705,95.3805 76.5,94.5C 75.8503,96.1836 74.8503,97.5169 73.5,98.5C 74.038,96.8828 74.3713,95.2161 74.5,93.5C 75.4767,90.7131 75.81,87.7131 75.5,84.5C 78.8073,84.4615 81.9739,85.1282 85,86.5C 100.253,95.0441 104.92,107.711 99,124.5C 86.883,141.161 71.0496,145.661 51.5,138C 48.8478,134.504 45.5144,132.004 41.5,130.5C 36.0617,120.514 35.2284,110.181 39,99.5C 40.5771,96.3246 42.4104,95.9912 44.5,98.5C 45.5272,97.2086 46.5272,97.2086 47.5,98.5 Z"/></g>
<g><path style="opacity:1" fill="#f4f5f6" d="M 49.5,101.5 C 58.3714,107.423 66.3714,106.423 73.5,98.5C 74.8503,97.5169 75.8503,96.1836 76.5,94.5C 77.9705,95.3805 78.8038,96.7139 79,98.5C 79.6667,97.1667 79.6667,95.8333 79,94.5C 76.518,92.5899 76.018,90.2565 77.5,87.5C 81.6291,89.3174 85.1291,91.9841 88,95.5C 88.4622,99.4503 89.2955,103.284 90.5,107C 87.8472,111.685 84.5138,115.685 80.5,119C 66.9083,125.305 55.7417,122.138 47,109.5C 46.1786,106.446 46.3452,103.446 47.5,100.5C 48.1835,100.863 48.8501,101.196 49.5,101.5 Z"/></g>
<g><path style="opacity:0.996" fill="#ff9008" d="M 230.5,137.5 C 229.127,145.657 227.127,153.657 224.5,161.5C 223.425,160.438 222.425,160.438 221.5,161.5C 220.003,164.791 218.503,168.124 217,171.5C 192.963,203.271 160.797,219.604 120.5,220.5C 79.6171,219.975 46.7837,203.642 22,171.5C 20.2478,165.988 17.9144,160.654 15,155.5C 14.2303,154.402 13.397,154.402 12.5,155.5C 11.5075,152.177 10.5075,148.844 9.5,145.5C 10.675,145.281 11.675,145.614 12.5,146.5C 24.2804,174.781 44.6137,193.948 73.5,204C 82.2845,206.523 91.1179,208.356 100,209.5C 100.333,209.167 100.667,208.833 101,208.5C 102.785,209.24 104.618,209.907 106.5,210.5C 116.246,210.108 126.079,210.108 136,210.5C 152.839,208.244 169.006,203.411 184.5,196C 198.262,187.239 209.762,176.072 219,162.5C 219.49,161.207 219.657,159.873 219.5,158.5C 222.418,150.992 226.085,143.992 230.5,137.5 Z"/></g>
<g><path style="opacity:1" fill="#9a9283" d="M 150.5,82.5 C 149.64,86.4338 149.307,90.4338 149.5,94.5C 148.662,94.1583 148.328,93.4916 148.5,92.5C 148.657,91.1266 148.49,89.7932 148,88.5C 144.221,94.0183 140.721,99.685 137.5,105.5C 136.348,110.985 136.182,116.651 137,122.5C 145.973,144.07 161.806,151.903 184.5,146C 201.679,137.147 209.012,122.98 206.5,103.5C 206.833,103.5 207.167,103.5 207.5,103.5C 209.348,114.103 207.681,124.103 202.5,133.5C 191.991,146.674 178.324,152.007 161.5,149.5C 153.135,146.477 146.135,141.477 140.5,134.5C 131.033,116.902 132.7,100.569 145.5,85.5C 147.332,84.7515 148.999,83.7515 150.5,82.5 Z"/></g>
<g><path style="opacity:1" fill="#ff980b" d="M 8.5,135.5 C 9.4959,135.414 10.3292,135.748 11,136.5C 13.2659,146.308 17.2659,155.308 23,163.5C 30.5271,172.36 38.6938,180.527 47.5,188C 59.442,192.759 71.6087,196.925 84,200.5C 85.6667,200.167 87.3333,199.833 89,199.5C 92.8921,201.183 97.0587,202.183 101.5,202.5C 102.446,202.013 103.446,201.68 104.5,201.5C 111.838,202.685 119.004,203.352 126,203.5C 131.408,202.917 136.741,201.917 142,200.5C 144.162,200.94 146.329,201.273 148.5,201.5C 153.208,200.258 157.875,198.925 162.5,197.5C 163.167,197.833 163.833,198.167 164.5,198.5C 175.123,194.619 185.456,189.953 195.5,184.5C 204.894,176.986 212.894,168.319 219.5,158.5C 219.657,159.873 219.49,161.207 219,162.5C 209.762,176.072 198.262,187.239 184.5,196C 169.006,203.411 152.839,208.244 136,210.5C 126.079,210.108 116.246,210.108 106.5,210.5C 104.618,209.907 102.785,209.24 101,208.5C 100.667,208.833 100.333,209.167 100,209.5C 91.1179,208.356 82.2845,206.523 73.5,204C 44.6137,193.948 24.2804,174.781 12.5,146.5C 11.675,145.614 10.675,145.281 9.5,145.5C 9.16667,142.167 8.83333,138.833 8.5,135.5 Z"/></g>
<g><path style="opacity:1" fill="#ffa412" d="M 7.5,109.5 C 8.67504,109.281 9.67504,109.614 10.5,110.5C 11.6144,151.628 32.2811,176.961 72.5,186.5C 74.1452,192.159 77.8119,195.159 83.5,195.5C 89.167,194.058 95.0003,193.058 101,192.5C 113.482,193.597 125.982,193.764 138.5,193C 151.454,189.845 164.454,186.845 177.5,184C 206.504,173.383 223.504,152.717 228.5,122C 228.905,121.055 229.572,120.388 230.5,120C 229.015,118.244 229.348,117.077 231.5,116.5C 231.5,120.167 231.5,123.833 231.5,127.5C 230.504,127.586 229.671,127.252 229,126.5C 220.87,164.299 198.037,186.799 160.5,194C 150.958,195.153 141.625,196.153 132.5,197C 122.589,197.372 112.755,197.539 103,197.5C 96.5235,195.024 90.0235,195.024 83.5,197.5C 73.7033,193.374 63.7033,189.54 53.5,186C 46.6946,182.392 40.3613,178.059 34.5,173C 21.125,159.243 12.4584,142.91 8.5,124C 9.41193,122.375 8.74526,121.541 6.5,121.5C 6.6458,117.481 6.97913,113.481 7.5,109.5 Z"/></g>
<g><path style="opacity:1" fill="#fdd952" d="M 32.5,124.5 C 34.9152,131.254 38.9152,136.921 44.5,141.5C 52.4315,148.642 61.7648,151.475 72.5,150C 77.288,148.793 81.9547,147.293 86.5,145.5C 89.8174,145.336 92.8174,144.336 95.5,142.5C 97.7814,141.793 99.9481,140.793 102,139.5C 102.652,141.723 104.152,142.89 106.5,143C 112.177,144.394 117.844,144.56 123.5,143.5C 124.623,144.544 125.956,145.21 127.5,145.5C 131.642,144.423 135.809,143.423 140,142.5C 144.796,144.598 149.629,146.765 154.5,149C 156.81,149.497 159.143,149.663 161.5,149.5C 178.324,152.007 191.991,146.674 202.5,133.5C 202.659,136.187 201.825,138.52 200,140.5C 196.224,144.447 192.391,148.114 188.5,151.5C 184.765,152.301 181.099,153.301 177.5,154.5C 172.156,154.666 166.823,154.499 161.5,154C 156.425,151.632 151.092,150.132 145.5,149.5C 144.006,149.709 142.839,150.376 142,151.5C 140.703,150.216 139.536,150.383 138.5,152C 131.69,153.528 124.857,154.695 118,155.5C 109.133,153.826 100.3,151.826 91.5,149.5C 88.5252,150.139 85.5252,150.639 82.5,151C 76.9083,153.927 70.9083,155.094 64.5,154.5C 53.1544,154.51 45.1544,149.51 40.5,139.5C 38.3944,139.321 36.7277,138.321 35.5,136.5C 33.0307,132.91 32.0307,128.91 32.5,124.5 Z"/></g>
<g><path style="opacity:1" fill="#9b9281" d="M 97.5,134.5 C 94.5,138.833 90.8333,142.5 86.5,145.5C 81.9547,147.293 77.288,148.793 72.5,150C 61.7648,151.475 52.4315,148.642 44.5,141.5C 49.4712,142.961 54.1378,145.128 58.5,148C 68.4917,149.796 77.8251,148.13 86.5,143C 89.8658,139.665 93.5325,136.832 97.5,134.5 Z"/></g>
<g><path style="opacity:1" fill="#fee466" d="M 140.5,134.5 C 146.135,141.477 153.135,146.477 161.5,149.5C 159.143,149.663 156.81,149.497 154.5,149C 149.629,146.765 144.796,144.598 140,142.5C 135.809,143.423 131.642,144.423 127.5,145.5C 125.956,145.21 124.623,144.544 123.5,143.5C 117.844,144.56 112.177,144.394 106.5,143C 104.152,142.89 102.652,141.723 102,139.5C 99.9481,140.793 97.7814,141.793 95.5,142.5C 97.9872,138.943 100.654,135.443 103.5,132C 102.549,131.282 102.383,130.449 103,129.5C 104.34,128.132 105.674,126.799 107,125.5C 115.295,128.895 123.795,128.895 132.5,125.5C 134.622,127.451 136.122,129.785 137,132.5C 137.816,133.823 138.983,134.489 140.5,134.5 Z"/></g>
<g><path style="opacity:1" fill="#ffd441" d="M 177.5,154.5 C 169.628,155.176 161.628,156.009 153.5,157C 142.693,162.011 131.193,164.177 119,163.5C 114.46,163.105 110.126,163.105 106,163.5C 97.6314,161.73 89.4648,159.23 81.5,156C 75.6518,155.827 69.9851,155.327 64.5,154.5C 70.9083,155.094 76.9083,153.927 82.5,151C 85.5252,150.639 88.5252,150.139 91.5,149.5C 100.3,151.826 109.133,153.826 118,155.5C 124.857,154.695 131.69,153.528 138.5,152C 139.536,150.383 140.703,150.216 142,151.5C 142.839,150.376 144.006,149.709 145.5,149.5C 151.092,150.132 156.425,151.632 161.5,154C 166.823,154.499 172.156,154.666 177.5,154.5 Z"/></g>
<g><path style="opacity:0.96" fill="#ff8503" d="M 224.5,161.5 C 221.397,169.918 217.064,177.585 211.5,184.5C 210.883,184.389 210.383,184.056 210,183.5C 178.801,215.9 140.968,228.733 96.5,222C 71.3813,216.528 49.8813,204.695 32,186.5C 31.5172,187.448 31.3505,188.448 31.5,189.5C 22.9329,179.517 16.5996,168.184 12.5,155.5C 13.397,154.402 14.2303,154.402 15,155.5C 17.9144,160.654 20.2478,165.988 22,171.5C 46.7837,203.642 79.6171,219.975 120.5,220.5C 160.797,219.604 192.963,203.271 217,171.5C 218.503,168.124 220.003,164.791 221.5,161.5C 222.425,160.438 223.425,160.438 224.5,161.5 Z"/></g>
<g><path style="opacity:1" fill="#260908" d="M 148.5,172.5 C 148.702,174.95 148.369,177.283 147.5,179.5C 146.458,177.261 145.125,175.095 143.5,173C 123.494,168.755 103.827,169.922 84.5,176.5C 83.537,176.03 83.537,175.363 84.5,174.5C 85.1667,173.833 85.8333,173.167 86.5,172.5C 89.2982,171.35 91.9648,170.017 94.5,168.5C 106.307,165.673 118.307,164.84 130.5,166C 137.2,166.66 143.2,168.827 148.5,172.5 Z"/></g>
<g><path style="opacity:1" fill="#3f0c0d" d="M 147.5,179.5 C 147.027,180.906 146.027,181.573 144.5,181.5C 144.526,180.184 144.193,178.684 143.5,177C 141.285,175.956 138.952,175.29 136.5,175C 117.015,172.83 98.0155,174.83 79.5,181C 78.1312,182.719 77.1312,184.552 76.5,186.5C 75.5489,185.081 75.2155,183.415 75.5,181.5C 76.8333,179.833 78.1667,178.167 79.5,176.5C 81.1667,175.833 82.8333,175.167 84.5,174.5C 83.537,175.363 83.537,176.03 84.5,176.5C 103.827,169.922 123.494,168.755 143.5,173C 145.125,175.095 146.458,177.261 147.5,179.5 Z"/></g>
<g><path style="opacity:1" fill="#551312" d="M 144.5,181.5 C 142.393,182.468 140.059,182.802 137.5,182.5C 118.865,179.118 101.199,181.785 84.5,190.5C 81.4867,190.893 78.8201,190.226 76.5,188.5C 76.5,187.833 76.5,187.167 76.5,186.5C 77.1312,184.552 78.1312,182.719 79.5,181C 98.0155,174.83 117.015,172.83 136.5,175C 138.952,175.29 141.285,175.956 143.5,177C 144.193,178.684 144.526,180.184 144.5,181.5 Z"/></g>
<g><path style="opacity:1" fill="#f1c648" d="M 137.5,182.5 C 139.292,183.309 141.292,183.809 143.5,184C 133.177,183.701 122.844,183.701 112.5,184C 102.994,184.834 93.9942,187.501 85.5,192C 83.8333,192.667 82.1667,192.667 80.5,192C 82.0581,191.79 83.3915,191.29 84.5,190.5C 101.199,181.785 118.865,179.118 137.5,182.5 Z"/></g>
<g><path style="opacity:1" fill="#fbbc39" d="M 148.5,172.5 C 148.833,172.5 149.167,172.5 149.5,172.5C 149.5,172.833 149.5,173.167 149.5,173.5C 149.677,177.234 149.344,180.901 148.5,184.5C 148.082,185.222 147.416,185.722 146.5,186C 135.5,186.333 124.5,186.667 113.5,187C 106.565,187.904 99.898,189.404 93.5,191.5C 90.1207,192.304 86.7874,193.304 83.5,194.5C 79.2985,194.629 76.9652,192.629 76.5,188.5C 78.8201,190.226 81.4867,190.893 84.5,190.5C 83.3915,191.29 82.0581,191.79 80.5,192C 82.1667,192.667 83.8333,192.667 85.5,192C 93.9942,187.501 102.994,184.834 112.5,184C 122.844,183.701 133.177,183.701 143.5,184C 141.292,183.809 139.292,183.309 137.5,182.5C 140.059,182.802 142.393,182.468 144.5,181.5C 146.027,181.573 147.027,180.906 147.5,179.5C 148.369,177.283 148.702,174.95 148.5,172.5 Z"/></g>
<g><path style="opacity:0.902" fill="#ff7f00" d="M 211.5,184.5 C 189.237,216.173 158.57,232.173 119.5,232.5C 88.1406,232.33 61.3072,221.33 39,199.5C 36.2589,196.271 33.7589,192.938 31.5,189.5C 31.3505,188.448 31.5172,187.448 32,186.5C 49.8813,204.695 71.3813,216.528 96.5,222C 140.968,228.733 178.801,215.9 210,183.5C 210.383,184.056 210.883,184.389 211.5,184.5 Z"/></g>
</svg>
