<?xml version="1.0" encoding="UTF-8"?>
<!DOCTYPE svg PUBLIC "-//W3C//DTD SVG 1.1//EN" "http://www.w3.org/Graphics/SVG/1.1/DTD/svg11.dtd">
<svg xmlns="http://www.w3.org/2000/svg" version="1.1" width="238px" height="240px" style="shape-rendering:geometricPrecision; text-rendering:geometricPrecision; image-rendering:optimizeQuality; fill-rule:evenodd; clip-rule:evenodd" xmlns:xlink="http://www.w3.org/1999/xlink">
<g><path style="opacity:1" fill="#f7ad27" d="M 218.5,126.5 C 218.573,124.973 217.906,123.973 216.5,123.5C 216.029,121.421 215.363,119.421 214.5,117.5C 214.67,116.178 214.337,115.011 213.5,114C 215.333,113.5 216.5,112.333 217,110.5C 218.702,90.8043 214.202,72.8043 203.5,56.5C 202.833,56.1667 202.167,55.8333 201.5,55.5C 200.617,52.2957 198.95,49.6291 196.5,47.5C 193.236,42.5661 189.236,38.2328 184.5,34.5C 180.693,30.7612 176.36,27.7612 171.5,25.5C 169.711,24.1228 167.711,23.1228 165.5,22.5C 154.911,17.0182 143.577,14.0182 131.5,13.5C 121.008,12.3412 110.341,12.1745 99.5,13C 95.7062,14.1136 92.0396,15.2802 88.5,16.5C 87.791,17.404 86.791,17.7373 85.5,17.5C 78.4397,19.1991 72.1063,22.1991 66.5,26.5C 58.7401,30.2029 52.4068,35.5362 47.5,42.5C 44.5512,44.3727 42.5512,47.0393 41.5,50.5C 39.2705,53.1896 37.6038,56.1896 36.5,59.5C 16.4376,101.14 21.6043,139.473 52,174.5C 61.079,182.956 71.2457,189.789 82.5,195C 83.614,196.57 84.9474,197.903 86.5,199C 97.5804,200.82 108.747,201.987 120,202.5C 130.919,202.083 141.752,200.916 152.5,199C 156.156,195.837 160.156,193.171 164.5,191C 166.563,188.489 168.063,185.656 169,182.5C 169.333,183.167 169.667,183.833 170,184.5C 169.981,181.214 169.814,177.881 169.5,174.5C 169.459,169.921 170.126,165.588 171.5,161.5C 171.595,163.786 172.262,165.786 173.5,167.5C 175.122,171.476 176.789,175.476 178.5,179.5C 176.726,178.63 175.393,177.297 174.5,175.5C 173.732,174.737 173.232,173.737 173,172.5C 173.165,178.493 173.665,184.493 174.5,190.5C 173.883,190.389 173.383,190.056 173,189.5C 172.379,194.124 169.879,197.291 165.5,199C 119.37,218.759 78.5364,210.926 43,175.5C 13.2469,137.046 9.91359,96.3789 33,53.5C 42.7746,40.5557 54.2746,29.5557 67.5,20.5C 68.9142,18.9458 70.5808,17.6125 72.5,16.5C 78.4358,14.5304 84.1025,12.0304 89.5,9C 123.809,0.613149 155.142,6.61315 183.5,27C 213.299,51.4435 226.465,82.9435 223,121.5C 222.846,124.525 221.346,126.191 218.5,126.5 Z"/></g>
<g><path style="opacity:0.808" fill="#e28119" d="M 105.5,-0.5 C 115.167,-0.5 124.833,-0.5 134.5,-0.5C 168.175,4.45876 194.842,20.6254 214.5,48C 233.812,77.6577 239.146,109.824 230.5,144.5C 228.427,143.7 226.76,142.367 225.5,140.5C 225.167,139.167 224.833,137.833 224.5,136.5C 226.531,133.578 227.698,130.245 228,126.5C 230.058,95.0594 221.725,66.7261 203,41.5C 202.667,40.1667 202.333,38.8333 202,37.5C 194.454,30.9522 186.621,24.7855 178.5,19C 145.992,0.0240346 111.992,-2.64263 76.5,11C 68.7065,16.0402 60.7065,20.7068 52.5,25C 50.2764,29.7106 46.7764,33.2106 42,35.5C 38.7147,40.4537 35.048,45.1203 31,49.5C 29.4472,54.2121 26.6138,57.8787 22.5,60.5C 23.1697,57.3271 24.3364,54.3271 26,51.5C 31.0439,44.7277 36.5439,38.3943 42.5,32.5C 43.3094,30.9291 43.6427,29.2624 43.5,27.5C 46.0109,24.2273 49.0109,21.394 52.5,19C 68.8433,8.47714 86.51,1.97714 105.5,-0.5 Z"/></g>
<g><path style="opacity:1" fill="#f7a522" d="M 67.5,20.5 C 54.2746,29.5557 42.7746,40.5557 33,53.5C 9.91359,96.3789 13.2469,137.046 43,175.5C 78.5364,210.926 119.37,218.759 165.5,199C 169.879,197.291 172.379,194.124 173,189.5C 173.383,190.056 173.883,190.389 174.5,190.5C 175.125,193.97 174.125,196.804 171.5,199C 129.178,221.003 89.1778,217.336 51.5,188C 21.6882,160.859 10.1882,127.359 17,87.5C 22.2459,67.4955 31.7459,49.9955 45.5,35C 46.5,34.6667 47.5,34.3333 48.5,34C 53.791,27.7524 60.1243,23.2524 67.5,20.5 Z"/></g>
<g><path style="opacity:1" fill="#f49c1f" d="M 224.5,136.5 C 222.322,133.338 220.322,130.005 218.5,126.5C 221.346,126.191 222.846,124.525 223,121.5C 226.465,82.9435 213.299,51.4435 183.5,27C 155.142,6.61315 123.809,0.613149 89.5,9C 84.1025,12.0304 78.4358,14.5304 72.5,16.5C 70.5808,17.6125 68.9142,18.9458 67.5,20.5C 60.1243,23.2524 53.791,27.7524 48.5,34C 47.5,34.3333 46.5,34.6667 45.5,35C 31.7459,49.9955 22.2459,67.4955 17,87.5C 10.1882,127.359 21.6882,160.859 51.5,188C 89.1778,217.336 129.178,221.003 171.5,199C 174.125,196.804 175.125,193.97 174.5,190.5C 173.665,184.493 173.165,178.493 173,172.5C 173.232,173.737 173.732,174.737 174.5,175.5C 175.532,182.228 177.698,188.562 181,194.5C 182.176,198.26 181.01,201.093 177.5,203C 130.819,228.696 86.819,224.696 45.5,191C 17.637,162.405 6.80368,128.238 13,88.5C 15.0827,79.0834 18.2494,70.0834 22.5,61.5C 22.5,61.1667 22.5,60.8333 22.5,60.5C 26.6138,57.8787 29.4472,54.2121 31,49.5C 35.048,45.1203 38.7147,40.4537 42,35.5C 46.7764,33.2106 50.2764,29.7106 52.5,25C 60.7065,20.7068 68.7065,16.0402 76.5,11C 111.992,-2.64263 145.992,0.0240346 178.5,19C 186.621,24.7855 194.454,30.9522 202,37.5C 202.333,38.8333 202.667,40.1667 203,41.5C 221.725,66.7261 230.058,95.0594 228,126.5C 227.698,130.245 226.531,133.578 224.5,136.5 Z"/></g>
<g><path style="opacity:1" fill="#f6d365" d="M 41.5,50.5 C 39.769,54.6822 39.269,59.0156 40,63.5C 41.6667,64.1667 43.3333,64.8333 45,65.5C 45.4028,61.7595 47.2362,60.7595 50.5,62.5C 51.4287,63.6888 51.762,65.0222 51.5,66.5C 54.1667,67.1667 56.8333,67.8333 59.5,68.5C 59.5,69.5 59.5,70.5 59.5,71.5C 55.9719,74.0984 52.6386,76.9317 49.5,80C 46.2102,80.7249 43.2102,81.8916 40.5,83.5C 38.5648,84.1495 36.5648,84.4828 34.5,84.5C 34.0495,76.0398 34.7162,67.7065 36.5,59.5C 37.6038,56.1896 39.2705,53.1896 41.5,50.5 Z"/></g>
<g><path style="opacity:1" fill="#f6d264" d="M 201.5,55.5 C 202.167,55.8333 202.833,56.1667 203.5,56.5C 205.18,65.7423 205.846,75.0756 205.5,84.5C 202.513,84.0022 199.513,83.5022 196.5,83C 191.721,80.6969 187.387,77.8635 183.5,74.5C 185.571,76.1004 187.905,76.6004 190.5,76C 189.577,73.9592 189.244,71.7925 189.5,69.5C 190.833,69.5 192.167,69.5 193.5,69.5C 193.5,67.8333 193.5,66.1667 193.5,64.5C 195.167,64.5 196.833,64.5 198.5,64.5C 198.5,65.5 198.5,66.5 198.5,67.5C 200.144,67.7135 201.644,67.3802 203,66.5C 203.587,62.6899 203.087,59.0232 201.5,55.5 Z"/></g>
<g><path style="opacity:1" fill="#f9e586" d="M 155.5,64.5 C 157.136,65.7489 158.303,67.4156 159,69.5C 159.671,70.2524 160.504,70.5858 161.5,70.5C 173.892,82.8603 188.892,89.1936 206.5,89.5C 206.027,90.9063 205.027,91.573 203.5,91.5C 198.07,91.4833 192.737,90.8166 187.5,89.5C 182.059,86.7542 176.393,84.4209 170.5,82.5C 168.536,80.8726 167.203,78.8726 166.5,76.5C 163.174,75.6548 159.84,75.1548 156.5,75C 150.593,77.9026 144.927,81.2359 139.5,85C 126.5,85.6667 113.5,85.6667 100.5,85C 94.2386,80.7029 87.572,77.2029 80.5,74.5C 77.5069,76.8246 74.5069,79.1579 71.5,81.5C 60.8424,87.5989 49.1757,90.9323 36.5,91.5C 35.5,91.1667 34.8333,90.5 34.5,89.5C 38.5546,89.8242 42.5546,89.4909 46.5,88.5C 53.6148,85.8288 60.6148,83.1621 67.5,80.5C 76.145,76.5217 82.4783,70.1884 86.5,61.5C 87.5307,60.645 88.6974,59.9783 90,59.5C 109.847,67.4305 129.68,67.4305 149.5,59.5C 151.699,60.8608 153.699,62.5275 155.5,64.5 Z"/></g>
<g><path style="opacity:1" fill="#fae477" d="M 170.5,82.5 C 168.218,81.6103 165.885,81.4436 163.5,82C 159.942,84.9462 155.942,87.1129 151.5,88.5C 130.677,85.8926 109.843,85.8926 89,88.5C 84.2958,86.8054 79.7958,84.6388 75.5,82C 74.2068,81.51 72.8734,81.3433 71.5,81.5C 74.5069,79.1579 77.5069,76.8246 80.5,74.5C 87.572,77.2029 94.2386,80.7029 100.5,85C 113.5,85.6667 126.5,85.6667 139.5,85C 144.927,81.2359 150.593,77.9026 156.5,75C 159.84,75.1548 163.174,75.6548 166.5,76.5C 167.203,78.8726 168.536,80.8726 170.5,82.5 Z"/></g>
<g><path style="opacity:1" fill="#d8c27a" d="M 84.5,49.5 C 86.3079,50.9179 86.9746,52.9179 86.5,55.5C 86.5,57.5 86.5,59.5 86.5,61.5C 82.4783,70.1884 76.145,76.5217 67.5,80.5C 72.4473,76.0449 76.9473,71.0449 81,65.5C 83.7346,60.5563 84.9013,55.223 84.5,49.5 Z"/></g>
<g><path style="opacity:1" fill="#f5b52a" d="M 203.5,56.5 C 214.202,72.8043 218.702,90.8043 217,110.5C 216.5,112.333 215.333,113.5 213.5,114C 214.337,115.011 214.67,116.178 214.5,117.5C 214.167,117.5 213.833,117.5 213.5,117.5C 211.719,111.647 209.052,106.314 205.5,101.5C 205.5,101.167 205.5,100.833 205.5,100.5C 206.388,97.9455 206.721,95.2788 206.5,92.5C 205.5,92.5 204.5,92.5 203.5,92.5C 203.5,92.1667 203.5,91.8333 203.5,91.5C 205.027,91.573 206.027,90.9063 206.5,89.5C 206.784,87.5853 206.451,85.9187 205.5,84.5C 205.846,75.0756 205.18,65.7423 203.5,56.5 Z"/></g>
<g><path style="opacity:1" fill="#f7df77" d="M 186.5,54.5 C 186.292,56.9201 186.626,59.2534 187.5,61.5C 188.776,62.6446 190.109,62.6446 191.5,61.5C 192.919,62.0047 193.585,63.0047 193.5,64.5C 193.5,66.1667 193.5,67.8333 193.5,69.5C 192.167,69.5 190.833,69.5 189.5,69.5C 189.244,71.7925 189.577,73.9592 190.5,76C 187.905,76.6004 185.571,76.1004 183.5,74.5C 178.004,71.3305 173.17,67.3305 169,62.5C 168.153,60.8068 167.32,59.1401 166.5,57.5C 167.735,57.7214 168.735,58.3881 169.5,59.5C 171.481,57.6703 173.815,56.5036 176.5,56C 179.919,55.7515 183.253,55.2515 186.5,54.5 Z"/></g>
<g><path style="opacity:1" fill="#895b14" d="M 78.5,50.5 C 77.4712,53.4068 75.9712,56.0735 74,58.5C 73.5085,64.6495 71.0085,69.8161 66.5,74C 59.0096,80.934 50.343,84.1007 40.5,83.5C 43.2102,81.8916 46.2102,80.7249 49.5,80C 52.6386,76.9317 55.9719,74.0984 59.5,71.5C 66.2492,67.7525 71.2492,62.4192 74.5,55.5C 75.1276,53.3384 76.461,51.6718 78.5,50.5 Z"/></g>
<g><path style="opacity:1" fill="#f9e182" d="M 47.5,42.5 C 46.612,45.0545 46.2786,47.7212 46.5,50.5C 52.2473,50.5935 57.9139,51.2602 63.5,52.5C 64.2432,51.0921 65.0766,49.7588 66,48.5C 68.7383,49.4817 71.5716,50.1484 74.5,50.5C 74.5,52.1667 74.5,53.8333 74.5,55.5C 71.2492,62.4192 66.2492,67.7525 59.5,71.5C 59.5,70.5 59.5,69.5 59.5,68.5C 56.8333,67.8333 54.1667,67.1667 51.5,66.5C 51.762,65.0222 51.4287,63.6888 50.5,62.5C 47.2362,60.7595 45.4028,61.7595 45,65.5C 43.3333,64.8333 41.6667,64.1667 40,63.5C 39.269,59.0156 39.769,54.6822 41.5,50.5C 42.5512,47.0393 44.5512,44.3727 47.5,42.5 Z"/></g>
<g><path style="opacity:1" fill="#fad77e" d="M 196.5,47.5 C 198.95,49.6291 200.617,52.2957 201.5,55.5C 203.087,59.0232 203.587,62.6899 203,66.5C 201.644,67.3802 200.144,67.7135 198.5,67.5C 198.5,66.5 198.5,65.5 198.5,64.5C 196.833,64.5 195.167,64.5 193.5,64.5C 193.585,63.0047 192.919,62.0047 191.5,61.5C 190.109,62.6446 188.776,62.6446 187.5,61.5C 186.626,59.2534 186.292,56.9201 186.5,54.5C 189.813,53.9552 193.146,53.4552 196.5,53C 197.536,51.2245 197.536,49.3911 196.5,47.5 Z"/></g>
<g><path style="opacity:1" fill="#774c0c" d="M 166.5,57.5 C 167.32,59.1401 168.153,60.8068 169,62.5C 173.17,67.3305 178.004,71.3305 183.5,74.5C 187.387,77.8635 191.721,80.6969 196.5,83C 199.513,83.5022 202.513,84.0022 205.5,84.5C 206.451,85.9187 206.784,87.5853 206.5,89.5C 188.892,89.1936 173.892,82.8603 161.5,70.5C 156.429,64.4515 154.263,57.4515 155,49.5C 156.067,47.7174 157.567,47.2174 159.5,48C 161.705,51.3555 164.038,54.5222 166.5,57.5 Z"/></g>
<g><path style="opacity:1" fill="#fbea94" d="M 155.5,64.5 C 153.699,62.5275 151.699,60.8608 149.5,59.5C 129.68,67.4305 109.847,67.4305 90,59.5C 88.6974,59.9783 87.5307,60.645 86.5,61.5C 86.5,59.5 86.5,57.5 86.5,55.5C 87.8143,53.1047 87.8143,50.6047 86.5,48C 87.1667,47.8333 87.8333,47.6667 88.5,47.5C 109.839,52.833 131.172,52.833 152.5,47.5C 151.996,53.5162 152.996,59.1828 155.5,64.5 Z"/></g>
<g><path style="opacity:1" fill="#73490b" d="M 84.5,49.5 C 84.9013,55.223 83.7346,60.5563 81,65.5C 76.9473,71.0449 72.4473,76.0449 67.5,80.5C 60.6148,83.1621 53.6148,85.8288 46.5,88.5C 42.5546,89.4909 38.5546,89.8242 34.5,89.5C 33.2801,87.9504 33.2801,86.2837 34.5,84.5C 36.5648,84.4828 38.5648,84.1495 40.5,83.5C 50.343,84.1007 59.0096,80.934 66.5,74C 71.0085,69.8161 73.5085,64.6495 74,58.5C 75.9712,56.0735 77.4712,53.4068 78.5,50.5C 78.8836,48.7074 80.0503,47.7074 82,47.5C 83.301,47.6387 84.1344,48.3054 84.5,49.5 Z"/></g>
<g><path style="opacity:1" fill="#f9e598" d="M 66.5,26.5 C 63.5242,29.3021 60.3575,31.9688 57,34.5C 55.9914,36.0249 55.4914,37.6916 55.5,39.5C 60.1522,39.9981 64.8189,40.3314 69.5,40.5C 86.1981,43.4851 103.031,45.4851 120,46.5C 141.555,44.3495 163.055,41.6828 184.5,38.5C 185.363,37.2736 185.363,35.9403 184.5,34.5C 189.236,38.2328 193.236,42.5661 196.5,47.5C 197.536,49.3911 197.536,51.2245 196.5,53C 193.146,53.4552 189.813,53.9552 186.5,54.5C 183.253,55.2515 179.919,55.7515 176.5,56C 173.815,56.5036 171.481,57.6703 169.5,59.5C 168.735,58.3881 167.735,57.7214 166.5,57.5C 164.038,54.5222 161.705,51.3555 159.5,48C 157.567,47.2174 156.067,47.7174 155,49.5C 154.263,57.4515 156.429,64.4515 161.5,70.5C 160.504,70.5858 159.671,70.2524 159,69.5C 158.303,67.4156 157.136,65.7489 155.5,64.5C 152.996,59.1828 151.996,53.5162 152.5,47.5C 131.172,52.833 109.839,52.833 88.5,47.5C 87.8333,47.6667 87.1667,47.8333 86.5,48C 87.8143,50.6047 87.8143,53.1047 86.5,55.5C 86.9746,52.9179 86.3079,50.9179 84.5,49.5C 84.1344,48.3054 83.301,47.6387 82,47.5C 80.0503,47.7074 78.8836,48.7074 78.5,50.5C 76.461,51.6718 75.1276,53.3384 74.5,55.5C 74.5,53.8333 74.5,52.1667 74.5,50.5C 71.5716,50.1484 68.7383,49.4817 66,48.5C 65.0766,49.7588 64.2432,51.0921 63.5,52.5C 57.9139,51.2602 52.2473,50.5935 46.5,50.5C 46.2786,47.7212 46.612,45.0545 47.5,42.5C 52.4068,35.5362 58.7401,30.2029 66.5,26.5 Z"/></g>
<g><path style="opacity:1" fill="#fcecab" d="M 171.5,25.5 C 176.36,27.7612 180.693,30.7612 184.5,34.5C 185.363,35.9403 185.363,37.2736 184.5,38.5C 163.055,41.6828 141.555,44.3495 120,46.5C 103.031,45.4851 86.1981,43.4851 69.5,40.5C 69.6988,37.9887 70.0321,35.822 70.5,34C 74.8489,33.4639 79.1823,33.6305 83.5,34.5C 86.5294,34.4713 89.1961,33.4713 91.5,31.5C 100.985,30.5539 110.485,30.5539 120,31.5C 137.878,30.7939 155.712,29.6273 173.5,28C 172.244,27.5831 171.577,26.7498 171.5,25.5 Z"/></g>
<g><path style="opacity:1" fill="#fcebb5" d="M 85.5,17.5 C 83.8157,19.2018 81.8157,20.7018 79.5,22C 85.1958,22.1701 90.8624,22.6701 96.5,23.5C 96.8333,24.1667 97.1667,24.8333 97.5,25.5C 101.796,26.3275 106.129,26.8275 110.5,27C 129.869,27.2343 149.202,26.5676 168.5,25C 166.881,24.7645 165.881,23.9311 165.5,22.5C 167.711,23.1228 169.711,24.1228 171.5,25.5C 171.577,26.7498 172.244,27.5831 173.5,28C 155.712,29.6273 137.878,30.7939 120,31.5C 110.485,30.5539 100.985,30.5539 91.5,31.5C 89.1961,33.4713 86.5294,34.4713 83.5,34.5C 79.1823,33.6305 74.8489,33.4639 70.5,34C 70.0321,35.822 69.6988,37.9887 69.5,40.5C 64.8189,40.3314 60.1522,39.9981 55.5,39.5C 55.4914,37.6916 55.9914,36.0249 57,34.5C 60.3575,31.9688 63.5242,29.3021 66.5,26.5C 72.1063,22.1991 78.4397,19.1991 85.5,17.5 Z"/></g>
<g><path style="opacity:1" fill="#fcedc3" d="M 131.5,13.5 C 143.577,14.0182 154.911,17.0182 165.5,22.5C 165.881,23.9311 166.881,24.7645 168.5,25C 149.202,26.5676 129.869,27.2343 110.5,27C 106.129,26.8275 101.796,26.3275 97.5,25.5C 97.1667,24.8333 96.8333,24.1667 96.5,23.5C 90.8624,22.6701 85.1958,22.1701 79.5,22C 81.8157,20.7018 83.8157,19.2018 85.5,17.5C 86.791,17.7373 87.791,17.404 88.5,16.5C 93.0509,16.9473 97.3843,16.2806 101.5,14.5C 111.478,13.5015 121.478,13.1681 131.5,13.5 Z"/></g>
<g><path style="opacity:1" fill="#fcdc9a" d="M 131.5,13.5 C 121.478,13.1681 111.478,13.5015 101.5,14.5C 97.3843,16.2806 93.0509,16.9473 88.5,16.5C 92.0396,15.2802 95.7062,14.1136 99.5,13C 110.341,12.1745 121.008,12.3412 131.5,13.5 Z"/></g>
<g><path style="opacity:1" fill="#f8df64" d="M 71.5,81.5 C 72.8734,81.3433 74.2068,81.51 75.5,82C 79.7958,84.6388 84.2958,86.8054 89,88.5C 109.843,85.8926 130.677,85.8926 151.5,88.5C 155.942,87.1129 159.942,84.9462 163.5,82C 165.885,81.4436 168.218,81.6103 170.5,82.5C 176.393,84.4209 182.059,86.7542 187.5,89.5C 183.854,88.7166 180.188,88.5499 176.5,89C 174.884,89.6152 173.551,90.6152 172.5,92C 171.167,92.1667 169.833,92.3333 168.5,92.5C 161.369,90.4667 154.035,89.6334 146.5,90C 149.141,93.7816 150.808,97.9482 151.5,102.5C 154.295,102.938 156.628,103.938 158.5,105.5C 152.444,104.516 147.111,105.849 142.5,109.5C 141.167,109.5 139.833,109.5 138.5,109.5C 138.201,97.3656 132.034,90.3656 120,88.5C 108.566,90.2688 102.232,96.9355 101,108.5C 99.9887,109.337 98.8221,109.67 97.5,109.5C 95.4559,108.969 93.7893,107.802 92.5,106C 88.8484,105.501 85.1817,105.335 81.5,105.5C 82.1366,100.786 83.4699,96.2856 85.5,92C 79.3481,92.2048 73.1814,92.7048 67,93.5C 63.0419,93.5362 59.3752,92.5362 56,90.5C 49.9037,91.7828 43.737,92.4495 37.5,92.5C 36.8333,92.5 36.5,92.1667 36.5,91.5C 49.1757,90.9323 60.8424,87.5989 71.5,81.5 Z"/></g>
<g><path style="opacity:1" fill="#f7df6f" d="M 142.5,109.5 C 140.239,112.439 138.906,115.773 138.5,119.5C 139.474,123.625 140.808,127.625 142.5,131.5C 141.761,131.631 141.094,131.464 140.5,131C 137.607,127.013 135.94,122.513 135.5,117.5C 126.237,128.549 116.237,129.215 105.5,119.5C 103.701,123.345 102.201,127.345 101,131.5C 99.3333,132.733 97.8333,134.067 96.5,135.5C 84.8988,140.796 75.7321,138.13 69,127.5C 68.2713,123.623 68.438,119.789 69.5,116C 69.8361,114.97 70.5028,114.47 71.5,114.5C 69.3662,122.598 71.6995,129.098 78.5,134C 83.4571,135.861 88.4571,135.861 93.5,134C 94.3805,133.292 95.0472,132.458 95.5,131.5C 98.255,130.039 100.088,127.705 101,124.5C 101.667,121.833 101.667,119.167 101,116.5C 100.722,115.584 100.222,114.918 99.5,114.5C 98.5592,112.95 97.8925,111.284 97.5,109.5C 98.8221,109.67 99.9887,109.337 101,108.5C 102.232,96.9355 108.566,90.2688 120,88.5C 132.034,90.3656 138.201,97.3656 138.5,109.5C 139.833,109.5 141.167,109.5 142.5,109.5 Z"/></g>
<g><path style="opacity:1" fill="#f8c82d" d="M 37.5,93.5 C 38.1667,93.5 38.5,93.8333 38.5,94.5C 35.5352,129.73 48.5352,157.23 77.5,177C 81.8789,179.694 86.5456,181.527 91.5,182.5C 89.4689,183.539 88.1355,185.205 87.5,187.5C 85.146,188.684 82.8126,188.518 80.5,187C 42.8072,166.118 27.3072,134.618 34,92.5C 35.1385,92.9891 36.3052,93.3225 37.5,93.5 Z"/></g>
<g><path style="opacity:1" fill="#f8dc4d" d="M 187.5,89.5 C 192.737,90.8166 198.07,91.4833 203.5,91.5C 203.5,91.8333 203.5,92.1667 203.5,92.5C 200.882,93.9721 198.049,94.9721 195,95.5C 192.762,92.9201 190.596,93.0868 188.5,96C 184.514,96.4988 180.514,96.6655 176.5,96.5C 179.239,123.52 169.239,144.353 146.5,159C 119.028,170.62 95.1947,165.454 75,143.5C 64.8743,129.786 60.8743,114.452 63,97.5C 56.9242,96.5236 50.7576,96.1903 44.5,96.5C 42.3146,96.2964 40.3146,95.6298 38.5,94.5C 38.5,93.8333 38.1667,93.5 37.5,93.5C 37.5,93.1667 37.5,92.8333 37.5,92.5C 43.737,92.4495 49.9037,91.7828 56,90.5C 59.3752,92.5362 63.0419,93.5362 67,93.5C 73.1814,92.7048 79.3481,92.2048 85.5,92C 83.4699,96.2856 82.1366,100.786 81.5,105.5C 76.6045,106.727 73.2712,109.727 71.5,114.5C 70.5028,114.47 69.8361,114.97 69.5,116C 68.438,119.789 68.2713,123.623 69,127.5C 75.7321,138.13 84.8988,140.796 96.5,135.5C 98.258,135.123 99.9246,134.456 101.5,133.5C 110.097,139.395 119.43,140.895 129.5,138C 132.808,136.097 136.308,134.597 140,133.5C 157.072,144.715 167.239,140.215 170.5,120C 170.68,117.198 169.68,115.031 167.5,113.5C 167.141,111.629 166.141,110.129 164.5,109C 162.308,108.074 160.308,106.907 158.5,105.5C 156.628,103.938 154.295,102.938 151.5,102.5C 150.808,97.9482 149.141,93.7816 146.5,90C 154.035,89.6334 161.369,90.4667 168.5,92.5C 169.833,92.3333 171.167,92.1667 172.5,92C 173.551,90.6152 174.884,89.6152 176.5,89C 180.188,88.5499 183.854,88.7166 187.5,89.5 Z"/></g>
<g><path style="opacity:1" fill="#f8d633" d="M 38.5,94.5 C 40.3146,95.6298 42.3146,96.2964 44.5,96.5C 45.9972,97.3058 47.6639,97.9724 49.5,98.5C 48.6518,134.01 64.3185,158.843 96.5,173C 97.0989,174.622 97.7656,176.122 98.5,177.5C 96.4079,179.169 94.4079,180.836 92.5,182.5C 92.1667,182.5 91.8333,182.5 91.5,182.5C 86.5456,181.527 81.8789,179.694 77.5,177C 48.5352,157.23 35.5352,129.73 38.5,94.5 Z"/></g>
<g><path style="opacity:1" fill="#f7d83d" d="M 203.5,92.5 C 204.5,92.5 205.5,92.5 206.5,92.5C 206.721,95.2788 206.388,97.9455 205.5,100.5C 200.215,99.5939 196.881,101.594 195.5,106.5C 192.69,108.25 190.69,110.75 189.5,114C 188.552,114.483 187.552,114.649 186.5,114.5C 181.657,127.187 175.49,139.187 168,150.5C 165.681,158.443 163.681,166.443 162,174.5C 159.548,177.821 156.382,180.321 152.5,182C 150.311,182.322 148.311,181.822 146.5,180.5C 134.827,170.198 121.494,167.365 106.5,172C 103.709,173.748 101.042,175.581 98.5,177.5C 97.7656,176.122 97.0989,174.622 96.5,173C 64.3185,158.843 48.6518,134.01 49.5,98.5C 47.6639,97.9724 45.9972,97.3058 44.5,96.5C 50.7576,96.1903 56.9242,96.5236 63,97.5C 60.8743,114.452 64.8743,129.786 75,143.5C 95.1947,165.454 119.028,170.62 146.5,159C 169.239,144.353 179.239,123.52 176.5,96.5C 180.514,96.6655 184.514,96.4988 188.5,96C 190.596,93.0868 192.762,92.9201 195,95.5C 198.049,94.9721 200.882,93.9721 203.5,92.5 Z"/></g>
<g><path style="opacity:1" fill="#8db07f" d="M 205.5,100.5 C 205.5,100.833 205.5,101.167 205.5,101.5C 203.265,101.205 201.265,101.539 199.5,102.5C 199.167,103.167 198.833,103.833 198.5,104.5C 197.857,106.076 196.857,107.41 195.5,108.5C 195.5,107.833 195.5,107.167 195.5,106.5C 196.881,101.594 200.215,99.5939 205.5,100.5 Z"/></g>
<g><path style="opacity:1" fill="#764b0c" d="M 158.5,105.5 C 160.308,106.907 162.308,108.074 164.5,109C 166.141,110.129 167.141,111.629 167.5,113.5C 170.942,126.049 166.276,133.382 153.5,135.5C 149.325,135.333 145.658,134 142.5,131.5C 140.808,127.625 139.474,123.625 138.5,119.5C 138.906,115.773 140.239,112.439 142.5,109.5C 147.111,105.849 152.444,104.516 158.5,105.5 Z"/></g>
<g><path style="opacity:1" fill="#744a0b" d="M 81.5,105.5 C 85.1817,105.335 88.8484,105.501 92.5,106C 93.7893,107.802 95.4559,108.969 97.5,109.5C 97.8925,111.284 98.5592,112.95 99.5,114.5C 100.518,120.877 99.1842,126.544 95.5,131.5C 95.0472,132.458 94.3805,133.292 93.5,134C 88.4571,135.861 83.4571,135.861 78.5,134C 71.6995,129.098 69.3662,122.598 71.5,114.5C 73.2712,109.727 76.6045,106.727 81.5,105.5 Z"/></g>
<g><path style="opacity:1" fill="#b9a07c" d="M 81.5,107.5 C 92.8494,106.356 95.5161,110.523 89.5,120C 81.1476,121.977 77.6476,118.81 79,110.5C 80.045,109.627 80.8783,108.627 81.5,107.5 Z"/></g>
<g><path style="opacity:1" fill="#bca27d" d="M 150.5,107.5 C 156.999,105.674 160.333,108.008 160.5,114.5C 160.563,116.481 159.896,118.148 158.5,119.5C 150.554,122.268 146.721,119.602 147,111.5C 147.69,109.65 148.856,108.316 150.5,107.5 Z"/></g>
<g><path style="opacity:1" fill="#819a6f" d="M 213.5,117.5 C 213.833,117.5 214.167,117.5 214.5,117.5C 215.363,119.421 216.029,121.421 216.5,123.5C 214.755,121.967 213.755,119.967 213.5,117.5 Z"/></g>
<g><path style="opacity:1" fill="#f7de64" d="M 167.5,113.5 C 169.68,115.031 170.68,117.198 170.5,120C 167.239,140.215 157.072,144.715 140,133.5C 136.308,134.597 132.808,136.097 129.5,138C 119.43,140.895 110.097,139.395 101.5,133.5C 99.9246,134.456 98.258,135.123 96.5,135.5C 97.8333,134.067 99.3333,132.733 101,131.5C 102.201,127.345 103.701,123.345 105.5,119.5C 116.237,129.215 126.237,128.549 135.5,117.5C 135.94,122.513 137.607,127.013 140.5,131C 141.094,131.464 141.761,131.631 142.5,131.5C 145.658,134 149.325,135.333 153.5,135.5C 166.276,133.382 170.942,126.049 167.5,113.5 Z"/></g>
<g><path style="opacity:1" fill="#d3f7f6" d="M 199.5,102.5 C 201.5,102.5 203.5,102.5 205.5,102.5C 206.428,107.247 207.595,111.914 209,116.5C 211.548,122.646 214.381,128.646 217.5,134.5C 217.674,136.861 218.007,139.194 218.5,141.5C 208.119,142.975 197.786,142.809 187.5,141C 187.561,137.91 188.228,134.743 189.5,131.5C 191.445,125.321 193.945,119.321 197,113.5C 197.696,110.522 198.196,107.522 198.5,104.5C 198.833,103.833 199.167,103.167 199.5,102.5 Z"/></g>
<g><path style="opacity:1" fill="#b09247" d="M 99.5,114.5 C 100.222,114.918 100.722,115.584 101,116.5C 101.667,119.167 101.667,121.833 101,124.5C 100.088,127.705 98.255,130.039 95.5,131.5C 99.1842,126.544 100.518,120.877 99.5,114.5 Z"/></g>
<g><path style="opacity:1" fill="#81a673" d="M 183.5,133.5 C 183.25,135.674 182.25,137.341 180.5,138.5C 180.75,136.326 181.75,134.659 183.5,133.5 Z"/></g>
<g><path style="opacity:1" fill="#5f928b" d="M 216.5,123.5 C 217.906,123.973 218.573,124.973 218.5,126.5C 220.322,130.005 222.322,133.338 224.5,136.5C 224.833,137.833 225.167,139.167 225.5,140.5C 224.115,139.426 222.949,138.093 222,136.5C 219.62,132.406 217.787,128.073 216.5,123.5 Z"/></g>
<g><path style="opacity:1" fill="#7ba677" d="M 180.5,138.5 C 180.25,140.674 179.25,142.341 177.5,143.5C 177.75,141.326 178.75,139.659 180.5,138.5 Z"/></g>
<g><path style="opacity:1" fill="#2c9fbd" d="M 198.5,104.5 C 198.196,107.522 197.696,110.522 197,113.5C 193.945,119.321 191.445,125.321 189.5,131.5C 187.75,132.659 186.75,134.326 186.5,136.5C 185.034,137.347 184.2,138.68 184,140.5C 182.78,146.866 183.613,152.866 186.5,158.5C 186.049,164.123 187.049,169.456 189.5,174.5C 187.144,175.294 184.811,174.961 182.5,173.5C 182.167,174 181.833,174.5 181.5,175C 183.37,178.033 185.704,180.533 188.5,182.5C 189.833,183.167 190.833,184.167 191.5,185.5C 191.62,186.586 192.287,187.253 193.5,187.5C 196.806,188.163 200.139,188.663 203.5,189C 204.252,189.671 204.586,190.504 204.5,191.5C 204.167,191.5 203.833,191.5 203.5,191.5C 201.393,190.532 199.059,190.198 196.5,190.5C 189.645,188.398 183.645,184.731 178.5,179.5C 176.789,175.476 175.122,171.476 173.5,167.5C 173.254,161.441 173.587,155.441 174.5,149.5C 174.461,146.911 175.461,144.911 177.5,143.5C 179.25,142.341 180.25,140.674 180.5,138.5C 182.25,137.341 183.25,135.674 183.5,133.5C 187.888,125.327 191.888,116.993 195.5,108.5C 196.857,107.41 197.857,106.076 198.5,104.5 Z"/></g>
<g><path style="opacity:1" fill="#a3eced" d="M 189.5,131.5 C 188.228,134.743 187.561,137.91 187.5,141C 197.786,142.809 208.119,142.975 218.5,141.5C 218.007,139.194 217.674,136.861 217.5,134.5C 219.008,136.181 220.008,138.181 220.5,140.5C 220.5,143.833 220.5,147.167 220.5,150.5C 214.465,150.842 208.465,151.508 202.5,152.5C 196.503,151.502 190.503,150.502 184.5,149.5C 184.269,145.007 184.936,140.674 186.5,136.5C 186.75,134.326 187.75,132.659 189.5,131.5 Z"/></g>
<g><path style="opacity:1" fill="#72dce0" d="M 186.5,136.5 C 184.936,140.674 184.269,145.007 184.5,149.5C 190.503,150.502 196.503,151.502 202.5,152.5C 208.465,151.508 214.465,150.842 220.5,150.5C 220.5,147.167 220.5,143.833 220.5,140.5C 222.636,144.276 222.969,148.276 221.5,152.5C 220.443,155.587 218.609,158.254 216,160.5C 215.219,166.583 213.386,172.25 210.5,177.5C 205.758,178.188 204.925,177.188 208,174.5C 208.781,173.056 208.614,171.723 207.5,170.5C 202.859,176.235 199.359,175.568 197,168.5C 196.333,169.833 195.667,171.167 195,172.5C 193.873,169.623 193.206,166.623 193,163.5C 190.074,162.731 187.907,161.065 186.5,158.5C 183.613,152.866 182.78,146.866 184,140.5C 184.2,138.68 185.034,137.347 186.5,136.5 Z"/></g>
<g><path style="opacity:1" fill="#7c9f71" d="M 174.5,149.5 C 173.587,155.441 173.254,161.441 173.5,167.5C 172.262,165.786 171.595,163.786 171.5,161.5C 171.5,159.167 171.5,156.833 171.5,154.5C 171.777,152.272 172.777,150.605 174.5,149.5 Z"/></g>
<g><path style="opacity:0.95" fill="#209dc6" d="M 199.5,102.5 C 201.265,101.539 203.265,101.205 205.5,101.5C 209.052,106.314 211.719,111.647 213.5,117.5C 213.755,119.967 214.755,121.967 216.5,123.5C 217.787,128.073 219.62,132.406 222,136.5C 222.949,138.093 224.115,139.426 225.5,140.5C 226.76,142.367 228.427,143.7 230.5,144.5C 232.96,149.464 233.96,154.798 233.5,160.5C 232.978,179.283 223.311,189.616 204.5,191.5C 204.586,190.504 204.252,189.671 203.5,189C 200.139,188.663 196.806,188.163 193.5,187.5C 192.287,187.253 191.62,186.586 191.5,185.5C 200.815,187.785 209.482,186.452 217.5,181.5C 221.514,179.805 223.847,176.805 224.5,172.5C 223.167,172.5 221.833,172.5 220.5,172.5C 221.276,165.863 221.609,159.196 221.5,152.5C 222.969,148.276 222.636,144.276 220.5,140.5C 220.008,138.181 219.008,136.181 217.5,134.5C 214.381,128.646 211.548,122.646 209,116.5C 207.595,111.914 206.428,107.247 205.5,102.5C 203.5,102.5 201.5,102.5 199.5,102.5 Z"/></g>
<g><path style="opacity:1" fill="#f2c52f" d="M 195.5,106.5 C 195.5,107.167 195.5,107.833 195.5,108.5C 191.888,116.993 187.888,125.327 183.5,133.5C 181.75,134.659 180.75,136.326 180.5,138.5C 178.75,139.659 177.75,141.326 177.5,143.5C 175.461,144.911 174.461,146.911 174.5,149.5C 172.777,150.605 171.777,152.272 171.5,154.5C 169.864,155.749 168.697,157.416 168,159.5C 167.163,166.193 166.163,172.86 165,179.5C 163.244,183.966 160.078,186.966 155.5,188.5C 154.583,187.873 153.583,187.539 152.5,187.5C 151.167,185.5 149.5,183.833 147.5,182.5C 147.167,181.833 146.833,181.167 146.5,180.5C 148.311,181.822 150.311,182.322 152.5,182C 156.382,180.321 159.548,177.821 162,174.5C 163.681,166.443 165.681,158.443 168,150.5C 175.49,139.187 181.657,127.187 186.5,114.5C 187.552,114.649 188.552,114.483 189.5,114C 190.69,110.75 192.69,108.25 195.5,106.5 Z"/></g>
<g><path style="opacity:1" fill="#f08e1b" d="M 22.5,61.5 C 18.2494,70.0834 15.0827,79.0834 13,88.5C 6.80368,128.238 17.637,162.405 45.5,191C 86.819,224.696 130.819,228.696 177.5,203C 181.01,201.093 182.176,198.26 181,194.5C 177.698,188.562 175.532,182.228 174.5,175.5C 175.393,177.297 176.726,178.63 178.5,179.5C 179.091,184.005 181.258,187.671 185,190.5C 185.333,190.167 185.667,189.833 186,189.5C 190.533,194.987 189.699,199.82 183.5,204C 169.81,212.172 155.143,218.172 139.5,222C 100.746,227.861 67.5791,217.028 40,189.5C 38.0752,184.312 34.7419,180.312 30,177.5C 6.86751,144.889 2.20084,109.556 16,71.5C 17.4685,67.5233 19.6352,64.1899 22.5,61.5 Z"/></g>
<g><path style="opacity:1" fill="#5dcbd9" d="M 221.5,152.5 C 221.609,159.196 221.276,165.863 220.5,172.5C 221.833,172.5 223.167,172.5 224.5,172.5C 223.847,176.805 221.514,179.805 217.5,181.5C 217.423,180.25 216.756,179.417 215.5,179C 206.173,178.5 196.839,178.334 187.5,178.5C 187.433,179.959 187.766,181.292 188.5,182.5C 185.704,180.533 183.37,178.033 181.5,175C 181.833,174.5 182.167,174 182.5,173.5C 184.811,174.961 187.144,175.294 189.5,174.5C 187.049,169.456 186.049,164.123 186.5,158.5C 187.907,161.065 190.074,162.731 193,163.5C 193.206,166.623 193.873,169.623 195,172.5C 195.667,171.167 196.333,169.833 197,168.5C 199.359,175.568 202.859,176.235 207.5,170.5C 208.614,171.723 208.781,173.056 208,174.5C 204.925,177.188 205.758,178.188 210.5,177.5C 213.386,172.25 215.219,166.583 216,160.5C 218.609,158.254 220.443,155.587 221.5,152.5 Z"/></g>
<g><path style="opacity:0.999" fill="#98e5ed" d="M 217.5,181.5 C 209.482,186.452 200.815,187.785 191.5,185.5C 190.833,184.167 189.833,183.167 188.5,182.5C 187.766,181.292 187.433,179.959 187.5,178.5C 196.839,178.334 206.173,178.5 215.5,179C 216.756,179.417 217.423,180.25 217.5,181.5 Z"/></g>
<g><path style="opacity:1" fill="#f7bc2c" d="M 36.5,59.5 C 34.7162,67.7065 34.0495,76.0398 34.5,84.5C 33.2801,86.2837 33.2801,87.9504 34.5,89.5C 34.8333,90.5 35.5,91.1667 36.5,91.5C 36.5,92.1667 36.8333,92.5 37.5,92.5C 37.5,92.8333 37.5,93.1667 37.5,93.5C 36.3052,93.3225 35.1385,92.9891 34,92.5C 27.3072,134.618 42.8072,166.118 80.5,187C 82.8126,188.518 85.146,188.684 87.5,187.5C 85.8325,189.479 85.1658,191.812 85.5,194.5C 85.6848,196.89 87.0182,197.89 89.5,197.5C 90.5,197.333 91.5,197.167 92.5,197C 94.5264,195.406 96.5264,193.906 98.5,192.5C 111.689,188.713 125.023,188.546 138.5,192C 142.285,193.976 146.118,195.81 150,197.5C 151.971,197.532 153.471,196.698 154.5,195C 153.906,194.536 153.239,194.369 152.5,194.5C 153.833,192.167 153.833,189.833 152.5,187.5C 153.583,187.539 154.583,187.873 155.5,188.5C 160.078,186.966 163.244,183.966 165,179.5C 166.163,172.86 167.163,166.193 168,159.5C 168.697,157.416 169.864,155.749 171.5,154.5C 171.5,156.833 171.5,159.167 171.5,161.5C 170.126,165.588 169.459,169.921 169.5,174.5C 169.814,177.881 169.981,181.214 170,184.5C 169.667,183.833 169.333,183.167 169,182.5C 168.063,185.656 166.563,188.489 164.5,191C 160.156,193.171 156.156,195.837 152.5,199C 141.752,200.916 130.919,202.083 120,202.5C 108.747,201.987 97.5804,200.82 86.5,199C 84.9474,197.903 83.614,196.57 82.5,195C 71.2457,189.789 61.079,182.956 52,174.5C 21.6043,139.473 16.4376,101.14 36.5,59.5 Z"/></g>
<g><path style="opacity:1" fill="#6a4204" d="M 146.5,180.5 C 146.833,181.167 147.167,181.833 147.5,182.5C 147.414,183.496 147.748,184.329 148.5,185C 129.836,185.5 111.17,185.667 92.5,185.5C 92.5,184.5 92.5,183.5 92.5,182.5C 94.4079,180.836 96.4079,179.169 98.5,177.5C 101.042,175.581 103.709,173.748 106.5,172C 121.494,167.365 134.827,170.198 146.5,180.5 Z"/></g>
<g><path style="opacity:1" fill="#e57f18" d="M 43.5,27.5 C 43.6427,29.2624 43.3094,30.9291 42.5,32.5C 36.5439,38.3943 31.0439,44.7277 26,51.5C 24.3364,54.3271 23.1697,57.3271 22.5,60.5C 22.5,60.8333 22.5,61.1667 22.5,61.5C 19.6352,64.1899 17.4685,67.5233 16,71.5C 2.20084,109.556 6.86751,144.889 30,177.5C 34.7419,180.312 38.0752,184.312 40,189.5C 67.5791,217.028 100.746,227.861 139.5,222C 155.143,218.172 169.81,212.172 183.5,204C 189.699,199.82 190.533,194.987 186,189.5C 185.667,189.833 185.333,190.167 185,190.5C 181.258,187.671 179.091,184.005 178.5,179.5C 183.645,184.731 189.645,188.398 196.5,190.5C 194.833,190.5 193.167,190.5 191.5,190.5C 192.256,193.831 191.756,197.165 190,200.5C 183.413,206.876 175.913,211.876 167.5,215.5C 166.614,216.325 166.281,217.325 166.5,218.5C 157.16,220.556 147.826,222.723 138.5,225C 114.619,228.159 91.6188,225.159 69.5,216C 67.8839,215.385 66.5505,214.385 65.5,213C 63.735,212.36 62.0683,212.527 60.5,213.5C 30.1864,195.592 12.0197,168.925 6,133.5C -0.69396,90.7316 11.806,55.3983 43.5,27.5 Z"/></g>
<g><path style="opacity:1" fill="#e2b55c" d="M 98.5,192.5 C 96.5264,193.906 94.5264,195.406 92.5,197C 91.5,197.167 90.5,197.333 89.5,197.5C 87.0182,197.89 85.6848,196.89 85.5,194.5C 86.7421,195.043 88.0755,195.377 89.5,195.5C 92.2039,193.65 95.2039,192.65 98.5,192.5 Z"/></g>
<g><path style="opacity:1" fill="#e6c467" d="M 152.5,194.5 C 153.239,194.369 153.906,194.536 154.5,195C 153.471,196.698 151.971,197.532 150,197.5C 146.118,195.81 142.285,193.976 138.5,192C 125.023,188.546 111.689,188.713 98.5,192.5C 105.168,189.229 112.335,187.229 120,186.5C 126.487,187.747 132.987,188.914 139.5,190C 143.144,191.933 146.81,193.767 150.5,195.5C 151.416,195.457 152.083,195.124 152.5,194.5 Z"/></g>
<g><path style="opacity:1" fill="#87530a" d="M 91.5,182.5 C 91.8333,182.5 92.1667,182.5 92.5,182.5C 92.5,183.5 92.5,184.5 92.5,185.5C 111.17,185.667 129.836,185.5 148.5,185C 147.748,184.329 147.414,183.496 147.5,182.5C 149.5,183.833 151.167,185.5 152.5,187.5C 153.833,189.833 153.833,192.167 152.5,194.5C 152.083,195.124 151.416,195.457 150.5,195.5C 146.81,193.767 143.144,191.933 139.5,190C 132.987,188.914 126.487,187.747 120,186.5C 112.335,187.229 105.168,189.229 98.5,192.5C 95.2039,192.65 92.2039,193.65 89.5,195.5C 88.0755,195.377 86.7421,195.043 85.5,194.5C 85.1658,191.812 85.8325,189.479 87.5,187.5C 88.1355,185.205 89.4689,183.539 91.5,182.5 Z"/></g>
<g><path style="opacity:0.634" fill="#df7616" d="M 196.5,190.5 C 199.059,190.198 201.393,190.532 203.5,191.5C 203.607,193.903 202.607,195.736 200.5,197C 166.183,228.075 126.349,236.908 81,223.5C 73.8588,220.455 67.0255,217.122 60.5,213.5C 62.0683,212.527 63.735,212.36 65.5,213C 66.5505,214.385 67.8839,215.385 69.5,216C 91.6188,225.159 114.619,228.159 138.5,225C 147.826,222.723 157.16,220.556 166.5,218.5C 166.281,217.325 166.614,216.325 167.5,215.5C 175.913,211.876 183.413,206.876 190,200.5C 191.756,197.165 192.256,193.831 191.5,190.5C 193.167,190.5 194.833,190.5 196.5,190.5 Z"/></g>
</svg>
