<?xml version="1.0" encoding="UTF-8"?>
<!DOCTYPE svg PUBLIC "-//W3C//DTD SVG 1.1//EN" "http://www.w3.org/Graphics/SVG/1.1/DTD/svg11.dtd">
<svg xmlns="http://www.w3.org/2000/svg" version="1.1" width="238px" height="240px" style="shape-rendering:geometricPrecision; text-rendering:geometricPrecision; image-rendering:optimizeQuality; fill-rule:evenodd; clip-rule:evenodd" xmlns:xlink="http://www.w3.org/1999/xlink">
<g><path style="opacity:1" fill="#fecd36" d="M 192.5,48.5 C 189.5,46.5 186.5,44.5 183.5,42.5C 174.432,37.036 164.765,33.3693 154.5,31.5C 155.873,31.6567 157.207,31.49 158.5,31C 157.906,30.5357 157.239,30.369 156.5,30.5C 145.362,26.5474 134.029,23.8807 122.5,22.5C 118.348,23.0905 114.015,23.0905 109.5,22.5C 99.2825,24.8027 89.2825,27.4693 79.5,30.5C 76.8344,30.933 74.1677,31.433 71.5,32C 69.0808,32.2903 67.7475,33.1237 67.5,34.5C 62.4075,36.8811 57.4075,39.5478 52.5,42.5C 47.4703,45.6843 42.8036,49.351 38.5,53.5C 37.5272,51.7084 38.1939,50.375 40.5,49.5C 75.8493,14.2717 116.849,6.10501 163.5,25C 173.874,31.0451 183.374,38.2118 192,46.5C 192.464,47.0944 192.631,47.7611 192.5,48.5 Z"/></g>
<g><path style="opacity:1" fill="#fcda54" d="M 156.5,30.5 C 157.239,30.369 157.906,30.5357 158.5,31C 157.207,31.49 155.873,31.6567 154.5,31.5C 150.537,31.0889 146.87,31.9222 143.5,34C 141.84,35.4877 140.84,37.321 140.5,39.5C 138.761,43.3927 139.427,46.8927 142.5,50C 153.571,53.1351 164.571,56.4684 175.5,60C 179.554,63.7243 183.888,67.0576 188.5,70C 189.267,71.4705 189.933,72.9705 190.5,74.5C 181.738,69.9773 172.405,67.9773 162.5,68.5C 160.879,65.4328 158.879,62.5995 156.5,60C 150.672,58.0574 145.005,55.724 139.5,53C 136.161,49.6561 134.161,45.6561 133.5,41C 132.146,39.7063 130.812,39.5396 129.5,40.5C 128.692,40.1924 128.025,39.6924 127.5,39C 121.167,38.3333 114.833,38.3333 108.5,39C 105.322,39.177 102.488,40.677 100,43.5C 98.7894,46.7591 96.9561,49.5925 94.5,52C 86.7582,54.4694 79.0916,57.1361 71.5,60C 68.0015,62.3961 65.0015,65.2294 62.5,68.5C 53.1207,69.8563 45.1207,73.8563 38.5,80.5C 38.3505,79.448 38.5172,78.448 39,77.5C 43.3804,71.6185 48.5471,66.6185 54.5,62.5C 68.1148,56.5696 82.1148,51.9029 96.5,48.5C 96.8064,45.6146 96.4731,42.9479 95.5,40.5C 95.1022,35.6004 92.4355,32.7671 87.5,32C 84.1667,31.3333 80.8333,31.3333 77.5,32C 74.176,32.9428 70.8426,33.7761 67.5,34.5C 67.7475,33.1237 69.0808,32.2903 71.5,32C 74.1677,31.433 76.8344,30.933 79.5,30.5C 84.4854,30.1481 89.3187,30.8148 94,32.5C 110.562,27.3875 126.729,27.3875 142.5,32.5C 146.991,30.7832 151.657,30.1165 156.5,30.5 Z"/></g>
<g><path style="opacity:1" fill="#d16d01" d="M 95.5,40.5 C 95.634,42.2915 95.3007,43.9582 94.5,45.5C 92.1667,45.5 89.8333,45.5 87.5,45.5C 78.4116,46.4174 69.5783,48.4174 61,51.5C 59.2785,51.3893 59.1118,50.8893 60.5,50C 66.5,47.6667 72.5,45.3333 78.5,43C 69.6428,42.7228 60.9762,42.5562 52.5,42.5C 57.4075,39.5478 62.4075,36.8811 67.5,34.5C 70.8426,33.7761 74.176,32.9428 77.5,32C 80.8333,31.3333 84.1667,31.3333 87.5,32C 92.4355,32.7671 95.1022,35.6004 95.5,40.5 Z"/></g>
<g><path style="opacity:1" fill="#d16d01" d="M 154.5,31.5 C 164.765,33.3693 174.432,37.036 183.5,42.5C 175.024,42.5562 166.357,42.7228 157.5,43C 162.72,45.3049 168.053,47.3049 173.5,49C 174.672,49.4186 175.672,50.0853 176.5,51C 170.134,50.1612 163.801,48.8279 157.5,47C 152.882,46.006 148.215,45.506 143.5,45.5C 143.167,45.5 142.833,45.5 142.5,45.5C 140.72,44.0101 140.054,42.0101 140.5,39.5C 140.84,37.321 141.84,35.4877 143.5,34C 146.87,31.9222 150.537,31.0889 154.5,31.5 Z"/></g>
<g><path style="opacity:1" fill="#db7a07" d="M 52.5,42.5 C 60.9762,42.5562 69.6428,42.7228 78.5,43C 72.5,45.3333 66.5,47.6667 60.5,50C 59.1118,50.8893 59.2785,51.3893 61,51.5C 69.5783,48.4174 78.4116,46.4174 87.5,45.5C 87.0296,46.6935 86.0296,47.3601 84.5,47.5C 78.3754,48.1594 72.3754,49.326 66.5,51C 59.1667,54.3333 51.8333,57.6667 44.5,61C 39.0866,62.9 36.7532,61.0666 37.5,55.5C 37.8333,54.8333 38.1667,54.1667 38.5,53.5C 42.8036,49.351 47.4703,45.6843 52.5,42.5 Z"/></g>
<g><path style="opacity:1" fill="#db7b09" d="M 183.5,42.5 C 186.5,44.5 189.5,46.5 192.5,48.5C 195.706,50.5458 198.039,53.3791 199.5,57C 199.481,58.833 198.815,60.333 197.5,61.5C 193.16,60.4976 188.826,59.3309 184.5,58C 172.919,52.0149 160.586,48.6816 147.5,48C 145.934,47.3918 144.6,46.5585 143.5,45.5C 148.215,45.506 152.882,46.006 157.5,47C 163.801,48.8279 170.134,50.1612 176.5,51C 175.672,50.0853 174.672,49.4186 173.5,49C 168.053,47.3049 162.72,45.3049 157.5,43C 166.357,42.7228 175.024,42.5562 183.5,42.5 Z"/></g>
<g><path style="opacity:1" fill="#fee469" d="M 162.5,68.5 C 160.698,69.4582 158.698,70.1249 156.5,70.5C 154.801,70.6602 153.134,70.4935 151.5,70C 152.956,69.5774 153.456,68.7441 153,67.5C 151.951,68.5171 150.784,68.6838 149.5,68C 147.995,65.3304 145.995,63.1637 143.5,61.5C 139.673,58.1019 135.34,55.4352 130.5,53.5C 129.045,52.6102 127.711,52.6102 126.5,53.5C 125.522,53.0233 124.689,52.3567 124,51.5C 120.02,52.2719 115.854,52.2719 111.5,51.5C 107.131,53.3538 102.798,55.1872 98.5,57C 95.235,60.7124 91.5684,64.0458 87.5,67C 87.8333,67.3333 88.1667,67.6667 88.5,68C 86.8876,68.7203 85.3876,68.5536 84,67.5C 83.7098,69.1107 82.8765,70.444 81.5,71.5C 75.3392,69.5289 69.0059,68.5289 62.5,68.5C 65.0015,65.2294 68.0015,62.3961 71.5,60C 79.0916,57.1361 86.7582,54.4694 94.5,52C 96.9561,49.5925 98.7894,46.7591 100,43.5C 102.488,40.677 105.322,39.177 108.5,39C 114.833,38.3333 121.167,38.3333 127.5,39C 128.025,39.6924 128.692,40.1924 129.5,40.5C 130.812,39.5396 132.146,39.7063 133.5,41C 134.161,45.6561 136.161,49.6561 139.5,53C 145.005,55.724 150.672,58.0574 156.5,60C 158.879,62.5995 160.879,65.4328 162.5,68.5 Z"/></g>
<g><path style="opacity:1" fill="#eea830" d="M 87.5,45.5 C 89.8333,45.5 92.1667,45.5 94.5,45.5C 92.5216,48.0123 89.8549,49.5123 86.5,50C 81.489,50.5847 76.489,51.2514 71.5,52C 62.3704,54.8967 53.7038,58.8967 45.5,64C 43.1902,64.4966 40.8568,64.6633 38.5,64.5C 37.5876,62.8227 36.9209,60.9893 36.5,59C 36.5143,57.6153 36.8476,56.4486 37.5,55.5C 36.7532,61.0666 39.0866,62.9 44.5,61C 51.8333,57.6667 59.1667,54.3333 66.5,51C 72.3754,49.326 78.3754,48.1594 84.5,47.5C 86.0296,47.3601 87.0296,46.6935 87.5,45.5 Z"/></g>
<g><path style="opacity:1" fill="#febe24" d="M 55.5,33.5 C 51.2272,36.4335 47.2272,39.7668 43.5,43.5C 41.9668,45.289 40.9668,47.289 40.5,49.5C 38.1939,50.375 37.5272,51.7084 38.5,53.5C 38.1667,54.1667 37.8333,54.8333 37.5,55.5C 36.8476,56.4486 36.5143,57.6153 36.5,59C 36.9209,60.9893 37.5876,62.8227 38.5,64.5C 38.1667,64.5 37.8333,64.5 37.5,64.5C 35.8546,63.5213 34.5213,62.188 33.5,60.5C 31.5171,61.982 29.6837,63.6487 28,65.5C 24.5911,73.0697 21.5911,80.7363 19,88.5C 17.5655,98.7194 17.0655,108.886 17.5,119C 18.9799,121.559 20.3133,124.226 21.5,127C 21.1667,127.333 20.8333,127.667 20.5,128C 24.0175,132.407 26.6842,137.241 28.5,142.5C 35.7686,146.813 42.7686,151.646 49.5,157C 54.2663,158.584 58.5996,160.917 62.5,164C 63.4491,164.617 64.2825,164.451 65,163.5C 69.2092,166.068 73.7092,167.735 78.5,168.5C 78.5,169.5 78.5,170.5 78.5,171.5C 81.8806,171.46 85.2139,171.793 88.5,172.5C 88.1667,173.833 87.8333,175.167 87.5,176.5C 77.0154,174.752 67.0154,171.585 57.5,167C 49.3434,162.183 41.1768,157.349 33,152.5C 23.3454,144.179 17.6787,133.846 16,121.5C 13.488,105.857 15.1547,90.5235 21,75.5C 25.0607,67.046 29.394,58.7127 34,50.5C 39.505,44.6619 45.3384,39.1619 51.5,34C 52.7932,33.51 54.1266,33.3433 55.5,33.5 Z"/></g>
<g><path style="opacity:1" fill="#fec026" d="M 168.5,25.5 C 172.032,28.1852 176.032,30.0186 180.5,31C 183.5,33.3333 186.5,35.6667 189.5,38C 196.19,45.2218 202.523,52.7218 208.5,60.5C 218.18,77.556 222.347,95.8894 221,115.5C 219.833,132.651 212.333,146.151 198.5,156C 186.552,162.808 174.218,168.808 161.5,174C 157.297,175.569 152.964,176.402 148.5,176.5C 148.204,174.597 147.537,172.93 146.5,171.5C 146.167,170.167 145.833,168.833 145.5,167.5C 152.952,166.505 160.286,164.672 167.5,162C 173.202,158.994 178.869,155.994 184.5,153C 189.951,149.39 195.285,145.556 200.5,141.5C 204.535,137.695 207.702,133.695 210,129.5C 218.286,109.791 217.452,89.7907 207.5,69.5C 205.472,68.451 203.472,67.451 201.5,66.5C 198.512,64.8598 195.179,64.0265 191.5,64C 194.051,63.9977 196.051,63.1644 197.5,61.5C 198.815,60.333 199.481,58.833 199.5,57C 198.039,53.3791 195.706,50.5458 192.5,48.5C 192.631,47.7611 192.464,47.0944 192,46.5C 183.374,38.2118 173.874,31.0451 163.5,25C 116.849,6.10501 75.8493,14.2717 40.5,49.5C 40.9668,47.289 41.9668,45.289 43.5,43.5C 47.2272,39.7668 51.2272,36.4335 55.5,33.5C 91.4958,8.47879 129.163,5.81212 168.5,25.5 Z"/></g>
<g><path style="opacity:1" fill="#ffd543" d="M 156.5,30.5 C 151.657,30.1165 146.991,30.7832 142.5,32.5C 126.729,27.3875 110.562,27.3875 94,32.5C 89.3187,30.8148 84.4854,30.1481 79.5,30.5C 89.2825,27.4693 99.2825,24.8027 109.5,22.5C 114.015,23.0905 118.348,23.0905 122.5,22.5C 134.029,23.8807 145.362,26.5474 156.5,30.5 Z"/></g>
<g><path style="opacity:1" fill="#feea77" d="M 156.5,70.5 C 154.364,71.6528 152.364,72.9862 150.5,74.5C 147.907,75.7536 145.573,77.4202 143.5,79.5C 142.069,78.9181 140.736,78.0848 139.5,77C 140.696,76.3457 140.696,75.8457 139.5,75.5C 138.264,76.2458 136.93,76.5792 135.5,76.5C 134.386,73.225 132.053,71.0583 128.5,70C 129.833,69.3333 129.833,68.6667 128.5,68C 125.049,67.2528 124.716,67.9195 127.5,70C 124.813,70.0506 122.146,69.5506 119.5,68.5C 120.025,67.8076 120.692,67.3076 121.5,67C 119.167,66.3333 116.833,66.3333 114.5,67C 115.5,67.3333 116.5,67.6667 117.5,68C 118.696,68.6543 118.696,69.1543 117.5,69.5C 116.289,68.6102 114.955,68.6102 113.5,69.5C 112.328,69.0814 111.328,68.4147 110.5,67.5C 107.539,68.1831 107.205,69.0164 109.5,70C 107.598,71.6511 105.598,71.9845 103.5,71C 103.833,71.3333 104.167,71.6667 104.5,72C 101.397,72.6016 99.3974,74.4349 98.5,77.5C 96.9783,78.562 95.3117,79.2287 93.5,79.5C 89.749,76.4077 85.749,73.7411 81.5,71.5C 82.8765,70.444 83.7098,69.1107 84,67.5C 85.3876,68.5536 86.8876,68.7203 88.5,68C 88.1667,67.6667 87.8333,67.3333 87.5,67C 91.5684,64.0458 95.235,60.7124 98.5,57C 102.798,55.1872 107.131,53.3538 111.5,51.5C 115.854,52.2719 120.02,52.2719 124,51.5C 124.689,52.3567 125.522,53.0233 126.5,53.5C 127.711,52.6102 129.045,52.6102 130.5,53.5C 135.34,55.4352 139.673,58.1019 143.5,61.5C 145.995,63.1637 147.995,65.3304 149.5,68C 150.784,68.6838 151.951,68.5171 153,67.5C 153.456,68.7441 152.956,69.5774 151.5,70C 153.134,70.4935 154.801,70.6602 156.5,70.5 Z"/></g>
<g><path style="opacity:1" fill="#f3b635" d="M 142.5,45.5 C 142.833,45.5 143.167,45.5 143.5,45.5C 144.6,46.5585 145.934,47.3918 147.5,48C 160.586,48.6816 172.919,52.0149 184.5,58C 188.826,59.3309 193.16,60.4976 197.5,61.5C 196.051,63.1644 194.051,63.9977 191.5,64C 195.179,64.0265 198.512,64.8598 201.5,66.5C 199.5,66.5 197.5,66.5 195.5,66.5C 193.473,66.6621 191.473,66.4955 189.5,66C 186.167,63.6667 182.833,61.3333 179.5,59C 172.973,57.1211 166.64,54.7877 160.5,52C 156.181,51.2401 151.848,50.5735 147.5,50C 145.292,48.9525 143.626,47.4525 142.5,45.5 Z"/></g>
<g><path style="opacity:1" fill="#fec62c" d="M 37.5,64.5 C 32.9014,67.6611 29.7348,71.9944 28,77.5C 22.2991,96.4232 23.9658,114.423 33,131.5C 37.5939,138.096 43.4273,143.262 50.5,147C 61.0123,152.031 71.6789,156.698 82.5,161C 86.2179,162.554 89.8845,163.054 93.5,162.5C 92.8333,163.833 92.1667,165.167 91.5,166.5C 89.9121,168.113 88.9121,170.113 88.5,172.5C 85.2139,171.793 81.8806,171.46 78.5,171.5C 78.5,170.5 78.5,169.5 78.5,168.5C 73.7092,167.735 69.2092,166.068 65,163.5C 64.2825,164.451 63.4491,164.617 62.5,164C 58.5996,160.917 54.2663,158.584 49.5,157C 42.7686,151.646 35.7686,146.813 28.5,142.5C 26.6842,137.241 24.0175,132.407 20.5,128C 20.8333,127.667 21.1667,127.333 21.5,127C 20.3133,124.226 18.9799,121.559 17.5,119C 17.0655,108.886 17.5655,98.7194 19,88.5C 21.5911,80.7363 24.5911,73.0697 28,65.5C 29.6837,63.6487 31.5171,61.982 33.5,60.5C 34.5213,62.188 35.8546,63.5213 37.5,64.5 Z"/></g>
<g><path style="opacity:1" fill="#fdcd3a" d="M 95.5,40.5 C 96.4731,42.9479 96.8064,45.6146 96.5,48.5C 82.1148,51.9029 68.1148,56.5696 54.5,62.5C 48.5471,66.6185 43.3804,71.6185 39,77.5C 38.5172,78.448 38.3505,79.448 38.5,80.5C 30.0146,90.7791 27.3479,102.446 30.5,115.5C 30.3015,121.358 31.8015,126.691 35,131.5C 37.057,133.269 38.8903,135.269 40.5,137.5C 44.2135,139.04 47.5468,141.207 50.5,144C 53.9567,145.743 57.6233,146.743 61.5,147C 69.5155,147.331 77.5155,147.331 85.5,147C 90.1385,149.601 95.1385,151.101 100.5,151.5C 98.8624,152.705 98.5291,154.038 99.5,155.5C 98.1667,157.167 96.8333,158.833 95.5,160.5C 94.5,160.833 93.8333,161.5 93.5,162.5C 89.8845,163.054 86.2179,162.554 82.5,161C 71.6789,156.698 61.0123,152.031 50.5,147C 43.4273,143.262 37.5939,138.096 33,131.5C 23.9658,114.423 22.2991,96.4232 28,77.5C 29.7348,71.9944 32.9014,67.6611 37.5,64.5C 37.8333,64.5 38.1667,64.5 38.5,64.5C 40.8568,64.6633 43.1902,64.4966 45.5,64C 53.7038,58.8967 62.3704,54.8967 71.5,52C 76.489,51.2514 81.489,50.5847 86.5,50C 89.8549,49.5123 92.5216,48.0123 94.5,45.5C 95.3007,43.9582 95.634,42.2915 95.5,40.5 Z"/></g>
<g><path style="opacity:1" fill="#fcc831" d="M 195.5,66.5 C 197.5,66.5 199.5,66.5 201.5,66.5C 203.472,67.451 205.472,68.451 207.5,69.5C 217.452,89.7907 218.286,109.791 210,129.5C 207.702,133.695 204.535,137.695 200.5,141.5C 195.285,145.556 189.951,149.39 184.5,153C 178.869,155.994 173.202,158.994 167.5,162C 160.286,164.672 152.952,166.505 145.5,167.5C 145.573,165.973 144.906,164.973 143.5,164.5C 142.581,161.911 140.914,159.911 138.5,158.5C 134.803,154.416 130.136,151.916 124.5,151C 115.46,149.24 107.127,150.74 99.5,155.5C 98.5291,154.038 98.8624,152.705 100.5,151.5C 107.167,147.105 114.501,145.438 122.5,146.5C 124.292,147.309 126.292,147.809 128.5,148C 133.319,150.666 137.985,153.5 142.5,156.5C 148.527,154.435 154.527,152.269 160.5,150C 166.814,149.153 173.147,148.487 179.5,148C 184.571,145.751 188.904,142.584 192.5,138.5C 196.137,135.694 199.304,132.361 202,128.5C 203.202,126.323 203.702,123.989 203.5,121.5C 204.503,117.479 205.503,113.479 206.5,109.5C 207.342,103.728 207.675,97.8944 207.5,92C 205.408,91.0475 205.075,89.7141 206.5,88C 205.124,82.3985 203.29,76.8985 201,71.5C 199.153,69.7544 197.319,68.0877 195.5,66.5 Z"/></g>
<g><path style="opacity:1" fill="#f7cb42" d="M 140.5,39.5 C 140.054,42.0101 140.72,44.0101 142.5,45.5C 143.626,47.4525 145.292,48.9525 147.5,50C 151.848,50.5735 156.181,51.2401 160.5,52C 166.64,54.7877 172.973,57.1211 179.5,59C 182.833,61.3333 186.167,63.6667 189.5,66C 191.473,66.4955 193.473,66.6621 195.5,66.5C 197.319,68.0877 199.153,69.7544 201,71.5C 203.29,76.8985 205.124,82.3985 206.5,88C 205.075,89.7141 205.408,91.0475 207.5,92C 207.675,97.8944 207.342,103.728 206.5,109.5C 206.404,103.802 205.904,98.1354 205,92.5C 203.611,89.4332 201.778,86.7666 199.5,84.5C 197.205,80.5384 194.205,77.2051 190.5,74.5C 189.933,72.9705 189.267,71.4705 188.5,70C 183.888,67.0576 179.554,63.7243 175.5,60C 164.571,56.4684 153.571,53.1351 142.5,50C 139.427,46.8927 138.761,43.3927 140.5,39.5 Z"/></g>
<g><path style="opacity:1" fill="#fdec80" d="M 143.5,79.5 C 139.605,83.7008 136.605,88.3675 134.5,93.5C 133.883,93.6107 133.383,93.944 133,94.5C 131.167,93 129.333,91.5 127.5,90C 128.337,88.9887 128.67,87.8221 128.5,86.5C 127.127,86.6567 125.793,86.49 124.5,86C 126.044,85.7104 127.377,85.0437 128.5,84C 127.167,83.3333 126.167,82.3333 125.5,81C 123.801,80.6068 122.301,81.1068 121,82.5C 118.946,81.8107 117.946,80.8107 118,79.5C 115.201,80.237 115.034,81.0703 117.5,82C 115.385,82.5573 113.385,83.3906 111.5,84.5C 110.232,83.5721 108.899,83.4054 107.5,84C 108.634,85.016 108.301,85.6827 106.5,86C 109.106,86.4505 110.439,87.9505 110.5,90.5C 107.592,91.2872 104.926,92.6205 102.5,94.5C 101.32,91.4604 99.653,88.7937 97.5,86.5C 96.4314,84.0313 95.0981,81.6979 93.5,79.5C 95.3117,79.2287 96.9783,78.562 98.5,77.5C 99.3974,74.4349 101.397,72.6016 104.5,72C 104.167,71.6667 103.833,71.3333 103.5,71C 105.598,71.9845 107.598,71.6511 109.5,70C 107.205,69.0164 107.539,68.1831 110.5,67.5C 111.328,68.4147 112.328,69.0814 113.5,69.5C 114.955,68.6102 116.289,68.6102 117.5,69.5C 118.696,69.1543 118.696,68.6543 117.5,68C 116.5,67.6667 115.5,67.3333 114.5,67C 116.833,66.3333 119.167,66.3333 121.5,67C 120.692,67.3076 120.025,67.8076 119.5,68.5C 122.146,69.5506 124.813,70.0506 127.5,70C 124.716,67.9195 125.049,67.2528 128.5,68C 129.833,68.6667 129.833,69.3333 128.5,70C 132.053,71.0583 134.386,73.225 135.5,76.5C 136.93,76.5792 138.264,76.2458 139.5,75.5C 140.696,75.8457 140.696,76.3457 139.5,77C 140.736,78.0848 142.069,78.9181 143.5,79.5 Z"/></g>
<g><path style="opacity:1" fill="#847867" d="M 162.5,68.5 C 172.405,67.9773 181.738,69.9773 190.5,74.5C 194.205,77.2051 197.205,80.5384 199.5,84.5C 194.998,80.3151 189.998,76.9818 184.5,74.5C 182.52,72.8951 180.187,71.7285 177.5,71C 171.833,70.3333 166.167,70.3333 160.5,71C 157.204,72.5107 153.871,73.6774 150.5,74.5C 152.364,72.9862 154.364,71.6528 156.5,70.5C 158.698,70.1249 160.698,69.4582 162.5,68.5 Z"/></g>
<g><path style="opacity:1" fill="#aaa9a8" d="M 184.5,74.5 C 173.535,71.3071 162.869,72.1404 152.5,77C 148.271,81.3978 143.938,85.5644 139.5,89.5C 141.144,86.9955 142.644,84.3289 144,81.5C 146.372,79.2968 148.539,76.9635 150.5,74.5C 153.871,73.6774 157.204,72.5107 160.5,71C 166.167,70.3333 171.833,70.3333 177.5,71C 180.187,71.7285 182.52,72.8951 184.5,74.5 Z"/></g>
<g><path style="opacity:1" fill="#fded83" d="M 134.5,93.5 C 131.474,106.691 133.807,118.691 141.5,129.5C 140.417,129.461 139.417,129.127 138.5,128.5C 136.561,126.363 134.894,124.03 133.5,121.5C 128.765,119.839 124.432,120.506 120.5,123.5C 119.304,123.154 119.304,122.654 120.5,122C 118.765,121.349 117.098,121.515 115.5,122.5C 113.335,121.502 111.168,120.502 109,119.5C 107.21,120.285 105.543,120.285 104,119.5C 102.681,122.652 100.514,124.985 97.5,126.5C 99.0477,122.402 100.881,118.402 103,114.5C 103.713,107.797 103.546,101.13 102.5,94.5C 104.926,92.6205 107.592,91.2872 110.5,90.5C 110.439,87.9505 109.106,86.4505 106.5,86C 108.301,85.6827 108.634,85.016 107.5,84C 108.899,83.4054 110.232,83.5721 111.5,84.5C 113.385,83.3906 115.385,82.5573 117.5,82C 115.034,81.0703 115.201,80.237 118,79.5C 117.946,80.8107 118.946,81.8107 121,82.5C 122.301,81.1068 123.801,80.6068 125.5,81C 126.167,82.3333 127.167,83.3333 128.5,84C 127.377,85.0437 126.044,85.7104 124.5,86C 125.793,86.49 127.127,86.6567 128.5,86.5C 128.67,87.8221 128.337,88.9887 127.5,90C 129.333,91.5 131.167,93 133,94.5C 133.383,93.944 133.883,93.6107 134.5,93.5 Z"/></g>
<g><path style="opacity:0.981" fill="#fdac18" d="M 30.5,50.5 C 27.2404,59.0241 23.4071,67.3574 19,75.5C 10.8491,96.4075 10.5158,117.407 18,138.5C 23.4442,150.277 31.9442,159.111 43.5,165C 56.7377,172.141 70.7377,177.641 85.5,181.5C 87.2174,180.332 87.8841,178.665 87.5,176.5C 87.8333,175.167 88.1667,173.833 88.5,172.5C 88.9121,170.113 89.9121,168.113 91.5,166.5C 90.6766,169.461 90.01,172.461 89.5,175.5C 88.0517,182.224 88.7184,188.89 91.5,195.5C 89.1804,194.041 87.1804,192.208 85.5,190C 78.1926,188.117 70.8593,186.45 63.5,185C 27.66,173.035 9.32669,148.035 8.5,110C 8.43135,108.014 7.76468,106.514 6.5,105.5C 9.48788,84.8328 17.4879,66.4995 30.5,50.5 Z"/></g>
<g><path style="opacity:0.976" fill="#ffad17" d="M 208.5,54.5 C 221.622,71.1078 228.956,90.1078 230.5,111.5C 229.5,111.5 228.5,111.5 227.5,111.5C 226.736,147.446 209.403,171.613 175.5,184C 166.784,185.433 158.284,187.599 150,190.5C 148.684,187.312 148.184,183.978 148.5,180.5C 149.15,180.804 149.817,181.137 150.5,181.5C 170.721,176.055 189.387,167.388 206.5,155.5C 220.353,139.428 225.853,120.761 223,99.5C 221.111,83.6642 215.944,68.9976 207.5,55.5C 207.624,54.8933 207.957,54.56 208.5,54.5 Z"/></g>
<g><path style="opacity:1" fill="#ffb81e" d="M 164.5,18.5 C 179.828,25.0945 192.994,34.7612 204,47.5C 205.75,49.7343 207.25,52.0676 208.5,54.5C 207.957,54.56 207.624,54.8933 207.5,55.5C 215.944,68.9976 221.111,83.6642 223,99.5C 225.853,120.761 220.353,139.428 206.5,155.5C 189.387,167.388 170.721,176.055 150.5,181.5C 149.817,181.137 149.15,180.804 148.5,180.5C 148.5,179.167 148.5,177.833 148.5,176.5C 152.964,176.402 157.297,175.569 161.5,174C 174.218,168.808 186.552,162.808 198.5,156C 212.333,146.151 219.833,132.651 221,115.5C 222.347,95.8894 218.18,77.556 208.5,60.5C 202.523,52.7218 196.19,45.2218 189.5,38C 186.5,35.6667 183.5,33.3333 180.5,31C 176.032,30.0186 172.032,28.1852 168.5,25.5C 167.909,22.6408 166.576,20.3075 164.5,18.5 Z"/></g>
<g><path style="opacity:1" fill="#fde876" d="M 141.5,129.5 C 143.612,132.941 146.612,135.275 150.5,136.5C 151.984,138.074 153.651,139.407 155.5,140.5C 151.838,140.966 148.505,140.299 145.5,138.5C 142.554,134.724 139.054,131.391 135,128.5C 130.472,130.149 125.806,131.482 121,132.5C 118.321,132.475 115.654,132.475 113,132.5C 112.072,130.665 110.906,130.332 109.5,131.5C 102.532,127.295 97.1984,128.962 93.5,136.5C 91.6743,137.438 89.841,138.438 88,139.5C 85.5379,140.159 83.0379,140.493 80.5,140.5C 87.1268,137.017 92.7934,132.35 97.5,126.5C 100.514,124.985 102.681,122.652 104,119.5C 105.543,120.285 107.21,120.285 109,119.5C 111.168,120.502 113.335,121.502 115.5,122.5C 117.098,121.515 118.765,121.349 120.5,122C 119.304,122.654 119.304,123.154 120.5,123.5C 124.432,120.506 128.765,119.839 133.5,121.5C 134.894,124.03 136.561,126.363 138.5,128.5C 139.417,129.127 140.417,129.461 141.5,129.5 Z"/></g>
<g><path style="opacity:1" fill="#9a9386" d="M 150.5,74.5 C 148.539,76.9635 146.372,79.2968 144,81.5C 142.644,84.3289 141.144,86.9955 139.5,89.5C 137.883,91.1209 136.716,93.1209 136,95.5C 135.333,102.167 135.333,108.833 136,115.5C 138,119.5 140,123.5 142,127.5C 144.849,130.574 147.683,133.574 150.5,136.5C 146.612,135.275 143.612,132.941 141.5,129.5C 133.807,118.691 131.474,106.691 134.5,93.5C 136.605,88.3675 139.605,83.7008 143.5,79.5C 145.573,77.4202 147.907,75.7536 150.5,74.5 Z"/></g>
<g><path style="opacity:1" fill="#c9ced1" d="M 184.5,74.5 C 189.998,76.9818 194.998,80.3151 199.5,84.5C 199.5,85.8333 199.5,87.1667 199.5,88.5C 201.619,89.9861 203.119,91.9861 204,94.5C 204.762,102.215 204.429,109.881 203,117.5C 201.113,121.997 198.446,125.997 195,129.5C 193.736,131.607 191.903,132.607 189.5,132.5C 189.67,133.822 189.337,134.989 188.5,136C 175.856,141.792 163.189,141.959 150.5,136.5C 147.683,133.574 144.849,130.574 142,127.5C 140,123.5 138,119.5 136,115.5C 135.333,108.833 135.333,102.167 136,95.5C 136.716,93.1209 137.883,91.1209 139.5,89.5C 143.938,85.5644 148.271,81.3978 152.5,77C 162.869,72.1404 173.535,71.3071 184.5,74.5 Z"/></g>
<g><path style="opacity:1" fill="#dee1e4" d="M 199.5,88.5 C 203.702,98.9439 203.369,109.277 198.5,119.5C 186.734,133.861 172.067,137.694 154.5,131C 146.845,126.272 141.345,119.772 138,111.5C 137.1,105.366 137.6,99.3658 139.5,93.5C 143.383,87.7022 148.05,82.5355 153.5,78C 163.406,75.1399 173.406,74.8066 183.5,77C 185.5,78 187.5,79 189.5,80C 192.927,82.583 196.26,85.4163 199.5,88.5 Z"/></g>
<g><path style="opacity:1" fill="#ebecee" d="M 168.5,76.5 C 180.081,77.2051 189.248,82.2051 196,91.5C 202.672,107.147 198.172,118.314 182.5,125C 170.426,128.51 159.092,126.843 148.5,120C 137.287,107.434 137.954,95.4341 150.5,84C 156.028,80.0603 162.028,77.5603 168.5,76.5 Z"/></g>
<g><path style="opacity:1" fill="#1e2137" d="M 165.5,90.5 C 173.879,89.7725 180.046,93.1059 184,100.5C 185.22,116.275 178.054,122.442 162.5,119C 155.973,114.036 153.807,107.536 156,99.5C 158.406,95.5915 161.572,92.5915 165.5,90.5 Z"/></g>
<g><path style="opacity:1" fill="#353d63" d="M 173.5,104.5 C 180.061,113.157 177.728,116.99 166.5,116C 162.779,113.285 161.779,109.785 163.5,105.5C 167.114,108.313 170.448,107.979 173.5,104.5 Z"/></g>
<g><path style="opacity:1" fill="#4c4d64" d="M 173.5,104.5 C 170.448,107.979 167.114,108.313 163.5,105.5C 161.303,100.647 162.803,97.6468 168,96.5C 172.436,97.2436 174.27,99.9103 173.5,104.5 Z"/></g>
<g><path style="opacity:1" fill="#fddd5b" d="M 30.5,115.5 C 39.5259,138.643 56.1926,146.976 80.5,140.5C 83.0379,140.493 85.5379,140.159 88,139.5C 89.841,138.438 91.6743,137.438 93.5,136.5C 94.9305,136.579 96.2638,136.246 97.5,135.5C 103.644,138.774 109.977,140.774 116.5,141.5C 120.445,140.732 124.445,140.232 128.5,140C 133.97,136.552 139.637,136.052 145.5,138.5C 148.505,140.299 151.838,140.966 155.5,140.5C 176.46,146.298 192.46,139.965 203.5,121.5C 203.702,123.989 203.202,126.323 202,128.5C 199.304,132.361 196.137,135.694 192.5,138.5C 189.507,138.995 187.174,140.495 185.5,143C 177.46,146.274 169.126,147.274 160.5,146C 151.5,141.333 142.5,141.333 133.5,146C 129.848,146.499 126.182,146.665 122.5,146.5C 114.501,145.438 107.167,147.105 100.5,151.5C 95.1385,151.101 90.1385,149.601 85.5,147C 77.5155,147.331 69.5155,147.331 61.5,147C 57.6233,146.743 53.9567,145.743 50.5,144C 47.5468,141.207 44.2135,139.04 40.5,137.5C 38.8903,135.269 37.057,133.269 35,131.5C 31.8015,126.691 30.3015,121.358 30.5,115.5 Z"/></g>
<g><path style="opacity:1" fill="#ffe568" d="M 145.5,138.5 C 139.637,136.052 133.97,136.552 128.5,140C 124.445,140.232 120.445,140.732 116.5,141.5C 109.977,140.774 103.644,138.774 97.5,135.5C 96.2638,136.246 94.9305,136.579 93.5,136.5C 97.1984,128.962 102.532,127.295 109.5,131.5C 110.906,130.332 112.072,130.665 113,132.5C 115.654,132.475 118.321,132.475 121,132.5C 125.806,131.482 130.472,130.149 135,128.5C 139.054,131.391 142.554,134.724 145.5,138.5 Z"/></g>
<g><path style="opacity:1" fill="#989080" d="M 62.5,68.5 C 69.0059,68.5289 75.3392,69.5289 81.5,71.5C 85.749,73.7411 89.749,76.4077 93.5,79.5C 95.0981,81.6979 96.4314,84.0313 97.5,86.5C 99.653,88.7937 101.32,91.4604 102.5,94.5C 103.546,101.13 103.713,107.797 103,114.5C 100.881,118.402 99.0477,122.402 97.5,126.5C 92.7934,132.35 87.1268,137.017 80.5,140.5C 56.1926,146.976 39.5259,138.643 30.5,115.5C 27.3479,102.446 30.0146,90.7791 38.5,80.5C 45.1207,73.8563 53.1207,69.8563 62.5,68.5 Z"/></g>
<g><path style="opacity:1" fill="#c0c3c5" d="M 97.5,86.5 C 98.662,90.7664 99.8287,95.0998 101,99.5C 102.533,112.1 98.6997,122.766 89.5,131.5C 89.4457,128.033 90.9457,125.366 94,123.5C 99.9645,111.819 99.9645,100.152 94,88.5C 93.3292,87.7476 92.4959,87.4142 91.5,87.5C 80.1312,75.2463 66.4645,72.0797 50.5,78C 47.9634,80.872 45.1301,83.372 42,85.5C 40.2502,87.7343 38.7502,90.0676 37.5,92.5C 35.6885,94.3854 34.5218,96.7187 34,99.5C 33.2825,105.225 33.6159,110.891 35,116.5C 37.4033,120.06 39.5699,123.727 41.5,127.5C 44.2361,129.569 46.5695,131.903 48.5,134.5C 44.8527,134.378 42.0194,132.712 40,129.5C 32.0013,119.487 29.3347,108.154 32,95.5C 33.424,91.2075 35.5907,87.3741 38.5,84C 42.7475,81.7565 46.4142,78.7565 49.5,75C 60.3421,70.6994 71.3421,70.3661 82.5,74C 87.4455,78.4646 92.4455,82.6312 97.5,86.5 Z"/></g>
<g><path style="opacity:1" fill="#d5d9de" d="M 91.5,87.5 C 92.4959,87.4142 93.3292,87.7476 94,88.5C 99.9645,100.152 99.9645,111.819 94,123.5C 90.9457,125.366 89.4457,128.033 89.5,131.5C 85.4745,135.852 80.4745,138.685 74.5,140C 67.4436,140.788 60.4436,140.455 53.5,139C 51.3825,137.951 49.7158,136.451 48.5,134.5C 46.5695,131.903 44.2361,129.569 41.5,127.5C 39.5699,123.727 37.4033,120.06 35,116.5C 33.6159,110.891 33.2825,105.225 34,99.5C 34.5218,96.7187 35.6885,94.3854 37.5,92.5C 32.4732,111.264 39.4732,123.097 58.5,128C 69.8262,129.918 80.1595,127.584 89.5,121C 96.6876,113.42 98.5209,104.587 95,94.5C 93.8068,92.1136 92.6401,89.7802 91.5,87.5 Z"/></g>
<g><path style="opacity:1" fill="#e5e7e9" d="M 91.5,87.5 C 92.6401,89.7802 93.8068,92.1136 95,94.5C 98.5209,104.587 96.6876,113.42 89.5,121C 80.1595,127.584 69.8262,129.918 58.5,128C 39.4732,123.097 32.4732,111.264 37.5,92.5C 38.7502,90.0676 40.2502,87.7343 42,85.5C 45.1301,83.372 47.9634,80.872 50.5,78C 66.4645,72.0797 80.1312,75.2463 91.5,87.5 Z"/></g>
<g><path style="opacity:1" fill="#1c1e31" d="M 80.5,111.5 C 74.1363,120.591 66.1363,122.425 56.5,117C 54.415,114.318 52.7483,111.484 51.5,108.5C 51.3633,98.2976 56.3633,92.2976 66.5,90.5C 78.3798,92.7102 83.0464,99.7102 80.5,111.5 Z"/></g>
<g><path style="opacity:1" fill="#30375a" d="M 59.5,99.5 C 59.2117,106.833 62.2117,108.833 68.5,105.5C 69.9501,104.15 70.6168,102.484 70.5,100.5C 75.8453,102.644 77.6786,106.644 76,112.5C 71.8259,116.953 66.6593,118.453 60.5,117C 57.6519,115.139 56.3185,112.472 56.5,109C 57.4412,105.683 58.4412,102.516 59.5,99.5 Z"/></g>
<g><path style="opacity:1" fill="#f2f3f4" d="M 80.5,111.5 C 83.0464,99.7102 78.3798,92.7102 66.5,90.5C 56.3633,92.2976 51.3633,98.2976 51.5,108.5C 51.6602,110.199 51.4935,111.866 51,113.5C 38.9858,103.727 38.8191,93.56 50.5,83C 64.4249,75.5876 76.9249,77.4209 88,88.5C 93.2374,99.1217 90.9041,107.455 81,113.5C 80.5357,112.906 80.369,112.239 80.5,111.5 Z"/></g>
<g><path style="opacity:1" fill="#4c4d64" d="M 70.5,100.5 C 70.6168,102.484 69.9501,104.15 68.5,105.5C 62.2117,108.833 59.2117,106.833 59.5,99.5C 63.4829,95.3262 67.1496,95.6596 70.5,100.5 Z"/></g>
<g><path style="opacity:1" fill="#9b958a" d="M 199.5,84.5 C 201.778,86.7666 203.611,89.4332 205,92.5C 205.904,98.1354 206.404,103.802 206.5,109.5C 205.503,113.479 204.503,117.479 203.5,121.5C 192.46,139.965 176.46,146.298 155.5,140.5C 153.651,139.407 151.984,138.074 150.5,136.5C 163.189,141.959 175.856,141.792 188.5,136C 189.337,134.989 189.67,133.822 189.5,132.5C 191.903,132.607 193.736,131.607 195,129.5C 198.446,125.997 201.113,121.997 203,117.5C 204.429,109.881 204.762,102.215 204,94.5C 203.119,91.9861 201.619,89.9861 199.5,88.5C 199.5,87.1667 199.5,85.8333 199.5,84.5 Z"/></g>
<g><path style="opacity:1" fill="#ffb91f" d="M 164.5,18.5 C 166.576,20.3075 167.909,22.6408 168.5,25.5C 129.163,5.81212 91.4958,8.47879 55.5,33.5C 54.1266,33.3433 52.7932,33.51 51.5,34C 45.3384,39.1619 39.505,44.6619 34,50.5C 29.394,58.7127 25.0607,67.046 21,75.5C 15.1547,90.5235 13.488,105.857 16,121.5C 17.6787,133.846 23.3454,144.179 33,152.5C 41.1768,157.349 49.3434,162.183 57.5,167C 67.0154,171.585 77.0154,174.752 87.5,176.5C 87.8841,178.665 87.2174,180.332 85.5,181.5C 70.7377,177.641 56.7377,172.141 43.5,165C 31.9442,159.111 23.4442,150.277 18,138.5C 10.5158,117.407 10.8491,96.4075 19,75.5C 23.4071,67.3574 27.2404,59.0241 30.5,50.5C 57.2123,18.499 91.5457,4.66562 133.5,9C 144.462,10.5015 154.795,13.6682 164.5,18.5 Z"/></g>
<g><path style="opacity:1" fill="#fea213" d="M 6.5,105.5 C 7.76468,106.514 8.43135,108.014 8.5,110C 9.32669,148.035 27.66,173.035 63.5,185C 70.8593,186.45 78.1926,188.117 85.5,190C 87.1804,192.208 89.1804,194.041 91.5,195.5C 92.6737,196.514 93.3404,197.847 93.5,199.5C 93.7086,200.922 94.2086,202.255 95,203.5C 97.7749,206.78 100.942,209.446 104.5,211.5C 98.6122,210.109 93.9455,206.942 90.5,202C 75.2626,199.177 60.5959,194.177 46.5,187C 28.2568,175.054 15.9234,158.554 9.5,137.5C 8.67504,136.614 7.67504,136.281 6.5,136.5C 5.2492,126.163 5.2492,115.83 6.5,105.5 Z"/></g>
<g><path style="opacity:1" fill="#fca414" d="M 230.5,111.5 C 230.5,115.167 230.5,118.833 230.5,122.5C 229.503,122.47 228.836,122.97 228.5,124C 222.899,156.602 204.566,178.602 173.5,190C 165.904,191.963 158.238,193.629 150.5,195C 147.995,198.005 145.328,200.838 142.5,203.5C 143.117,200.645 144.117,197.978 145.5,195.5C 145.993,193.194 146.326,190.861 146.5,188.5C 147.651,182.985 147.651,177.318 146.5,171.5C 147.537,172.93 148.204,174.597 148.5,176.5C 148.5,177.833 148.5,179.167 148.5,180.5C 148.184,183.978 148.684,187.312 150,190.5C 158.284,187.599 166.784,185.433 175.5,184C 209.403,171.613 226.736,147.446 227.5,111.5C 228.5,111.5 229.5,111.5 230.5,111.5 Z"/></g>
<g><path style="opacity:1" fill="#ff9209" d="M 229.5,139.5 C 228.328,145.07 226.661,150.403 224.5,155.5C 202.905,192.133 170.905,212.3 128.5,216C 90.3452,218.397 57.5119,206.564 30,180.5C 26.9616,176.307 23.7949,172.307 20.5,168.5C 17.9225,166.045 15.5892,163.378 13.5,160.5C 10.854,155.218 9.18732,149.552 8.5,143.5C 17.4007,163.404 30.734,179.904 48.5,193C 62.603,200.544 77.603,205.544 93.5,208C 104.664,214.899 116.664,216.899 129.5,214C 137.199,210.317 145.199,207.484 153.5,205.5C 186.593,198.945 210.26,180.112 224.5,149C 223.24,144.275 224.906,141.109 229.5,139.5 Z"/></g>
<g><path style="opacity:0.973" fill="#ff8603" d="M 13.5,160.5 C 15.5892,163.378 17.9225,166.045 20.5,168.5C 20.6079,170.783 21.4412,172.783 23,174.5C 52.7986,210.331 90.9653,225.164 137.5,219C 172.588,213.051 199.755,195.218 219,165.5C 219.671,164.748 220.504,164.414 221.5,164.5C 219.26,170.65 216.26,176.316 212.5,181.5C 205.661,186.25 199.328,191.75 193.5,198C 155.578,225.276 114.911,230.942 71.5,215C 62.5065,210.505 53.8399,205.505 45.5,200C 37.793,193.691 30.4597,187.191 23.5,180.5C 19.1317,174.43 15.7984,167.764 13.5,160.5 Z"/></g>
<g><path style="opacity:1" fill="#ff9a0f" d="M 230.5,122.5 C 230.553,128.196 230.22,133.862 229.5,139.5C 224.906,141.109 223.24,144.275 224.5,149C 210.26,180.112 186.593,198.945 153.5,205.5C 145.199,207.484 137.199,210.317 129.5,214C 116.664,216.899 104.664,214.899 93.5,208C 77.603,205.544 62.603,200.544 48.5,193C 30.734,179.904 17.4007,163.404 8.5,143.5C 7.83333,141.167 7.16667,138.833 6.5,136.5C 7.67504,136.281 8.67504,136.614 9.5,137.5C 15.9234,158.554 28.2568,175.054 46.5,187C 60.5959,194.177 75.2626,199.177 90.5,202C 93.9455,206.942 98.6122,210.109 104.5,211.5C 118.616,215.469 131.283,212.803 142.5,203.5C 145.328,200.838 147.995,198.005 150.5,195C 158.238,193.629 165.904,191.963 173.5,190C 204.566,178.602 222.899,156.602 228.5,124C 228.836,122.97 229.503,122.47 230.5,122.5 Z"/></g>
<g><path style="opacity:1" fill="#4d0f13" d="M 143.5,164.5 C 144.906,164.973 145.573,165.973 145.5,167.5C 145.833,168.833 146.167,170.167 146.5,171.5C 147.651,177.318 147.651,182.985 146.5,188.5C 144.489,186.333 143.322,183.666 143,180.5C 141.363,178.19 139.196,176.69 136.5,176C 124.167,175.333 111.833,175.333 99.5,176C 93.4036,177.894 90.5703,182.061 91,188.5C 90.5026,185.854 90.3359,183.187 90.5,180.5C 90.3184,178.409 90.6518,176.409 91.5,174.5C 96.5445,168.81 102.878,165.477 110.5,164.5C 117.784,165.3 125.117,165.8 132.5,166C 136.289,167.631 139.956,169.464 143.5,171.5C 144.575,169.189 144.575,166.856 143.5,164.5 Z"/></g>
<g><path style="opacity:1" fill="#390a0f" d="M 138.5,158.5 C 140.914,159.911 142.581,161.911 143.5,164.5C 144.575,166.856 144.575,169.189 143.5,171.5C 139.956,169.464 136.289,167.631 132.5,166C 125.117,165.8 117.784,165.3 110.5,164.5C 102.878,165.477 96.5445,168.81 91.5,174.5C 90.6518,176.409 90.3184,178.409 90.5,180.5C 89.5489,179.081 89.2155,177.415 89.5,175.5C 90.01,172.461 90.6766,169.461 91.5,166.5C 92.1667,165.167 92.8333,163.833 93.5,162.5C 93.8333,161.5 94.5,160.833 95.5,160.5C 95.369,161.239 95.5357,161.906 96,162.5C 105.148,155.912 115.315,153.746 126.5,156C 130.263,156.92 133.763,158.42 137,160.5C 137.717,159.956 138.217,159.289 138.5,158.5 Z"/></g>
<g><path style="opacity:1" fill="#1f0707" d="M 138.5,158.5 C 138.217,159.289 137.717,159.956 137,160.5C 133.763,158.42 130.263,156.92 126.5,156C 115.315,153.746 105.148,155.912 96,162.5C 95.5357,161.906 95.369,161.239 95.5,160.5C 96.8333,158.833 98.1667,157.167 99.5,155.5C 107.127,150.74 115.46,149.24 124.5,151C 130.136,151.916 134.803,154.416 138.5,158.5 Z"/></g>
<g><path style="opacity:1" fill="#ffd749" d="M 192.5,138.5 C 188.904,142.584 184.571,145.751 179.5,148C 173.147,148.487 166.814,149.153 160.5,150C 154.527,152.269 148.527,154.435 142.5,156.5C 137.985,153.5 133.319,150.666 128.5,148C 126.292,147.809 124.292,147.309 122.5,146.5C 126.182,146.665 129.848,146.499 133.5,146C 142.5,141.333 151.5,141.333 160.5,146C 169.126,147.274 177.46,146.274 185.5,143C 187.174,140.495 189.507,138.995 192.5,138.5 Z"/></g>
<g><path style="opacity:0.872" fill="#ff7e00" d="M 23.5,180.5 C 30.4597,187.191 37.793,193.691 45.5,200C 53.8399,205.505 62.5065,210.505 71.5,215C 114.911,230.942 155.578,225.276 193.5,198C 199.328,191.75 205.661,186.25 212.5,181.5C 181.756,224.352 140.423,240.185 88.5,229C 60.6451,220.96 38.9785,204.793 23.5,180.5 Z"/></g>
<g><path style="opacity:1" fill="#ff8c06" d="M 224.5,155.5 C 224.353,158.792 223.353,161.792 221.5,164.5C 220.504,164.414 219.671,164.748 219,165.5C 199.755,195.218 172.588,213.051 137.5,219C 90.9653,225.164 52.7986,210.331 23,174.5C 21.4412,172.783 20.6079,170.783 20.5,168.5C 23.7949,172.307 26.9616,176.307 30,180.5C 57.5119,206.564 90.3452,218.397 128.5,216C 170.905,212.3 202.905,192.133 224.5,155.5 Z"/></g>
<g><path style="opacity:1" fill="#5e1714" d="M 89.5,175.5 C 89.2155,177.415 89.5489,179.081 90.5,180.5C 90.3359,183.187 90.5026,185.854 91,188.5C 90.5703,182.061 93.4036,177.894 99.5,176C 111.833,175.333 124.167,175.333 136.5,176C 139.196,176.69 141.363,178.19 143,180.5C 143.322,183.666 144.489,186.333 146.5,188.5C 146.326,190.861 145.993,193.194 145.5,195.5C 135.129,208.42 121.796,212.587 105.5,208C 100.944,205.894 96.9438,203.061 93.5,199.5C 93.3404,197.847 92.6737,196.514 91.5,195.5C 88.7184,188.89 88.0517,182.224 89.5,175.5 Z"/></g>
<g><path style="opacity:1" fill="#6b1917" d="M 139.5,198.5 C 139.62,196.801 139.954,195.135 140.5,193.5C 140.471,191.971 139.804,190.804 138.5,190C 124.833,189.333 111.167,189.333 97.5,190C 95.4054,192.665 95.072,195.498 96.5,198.5C 94.0118,196.944 93.0118,194.611 93.5,191.5C 93.3533,188.747 94.0199,186.247 95.5,184C 102.9,182.866 110.4,182.366 118,182.5C 125.6,182.366 133.1,182.866 140.5,184C 142.059,185.996 142.726,188.329 142.5,191C 143.012,194.263 142.012,196.763 139.5,198.5 Z"/></g>
<g><path style="opacity:1" fill="#781e18" d="M 139.5,198.5 C 137.396,200.099 135.396,201.932 133.5,204C 123.94,208.143 114.274,208.477 104.5,205C 101.064,203.726 98.3974,201.559 96.5,198.5C 95.072,195.498 95.4054,192.665 97.5,190C 111.167,189.333 124.833,189.333 138.5,190C 139.804,190.804 140.471,191.971 140.5,193.5C 139.954,195.135 139.62,196.801 139.5,198.5 Z"/></g>
<g><path style="opacity:1" fill="#f6c846" d="M 145.5,195.5 C 144.117,197.978 143.117,200.645 142.5,203.5C 131.283,212.803 118.616,215.469 104.5,211.5C 100.942,209.446 97.7749,206.78 95,203.5C 94.2086,202.255 93.7086,200.922 93.5,199.5C 96.9438,203.061 100.944,205.894 105.5,208C 121.796,212.587 135.129,208.42 145.5,195.5 Z"/></g>
</svg>
